<svg width="18" height="18" viewBox="0 0 18 18" fill="none" xmlns="http://www.w3.org/2000/svg">
<mask id="mask0_7647_50049" style="mask-type:alpha" maskUnits="userSpaceOnUse" x="0" y="0" width="18" height="18">
<rect width="18" height="18" fill="#D9D9D9"/>
</mask>
<g mask="url(#mask0_7647_50049)">
<path d="M4.19063 10.0594C3.89688 9.76562 3.75 9.4125 3.75 9C3.75 8.5875 3.89688 8.23438 4.19063 7.94063C4.48438 7.64688 4.8375 7.5 5.25 7.5C5.6625 7.5 6.01562 7.64688 6.30937 7.94063C6.60312 8.23438 6.75 8.5875 6.75 9C6.75 9.4125 6.60312 9.76562 6.30937 10.0594C6.01562 10.3531 5.6625 10.5 5.25 10.5C4.8375 10.5 4.48438 10.3531 4.19063 10.0594ZM5.25 13.5C4 13.5 2.9375 13.0625 2.0625 12.1875C1.1875 11.3125 0.75 10.25 0.75 9C0.75 7.75 1.1875 6.6875 2.0625 5.8125C2.9375 4.9375 4 4.5 5.25 4.5C6.0875 4.5 6.84688 4.70625 7.52813 5.11875C8.20938 5.53125 8.75 6.075 9.15 6.75H15.75L18 9L14.625 12.375L13.125 11.25L11.625 12.375L10.0312 11.25H9.15C8.75 11.925 8.20938 12.4688 7.52813 12.8813C6.84688 13.2938 6.0875 13.5 5.25 13.5ZM5.25 12C5.95 12 6.56563 11.7875 7.09688 11.3625C7.62813 10.9375 7.98125 10.4 8.15625 9.75H10.5L11.5875 10.5188L13.125 9.375L14.4562 10.4062L15.8625 9L15.1125 8.25H8.15625C7.98125 7.6 7.62813 7.0625 7.09688 6.6375C6.56563 6.2125 5.95 6 5.25 6C4.425 6 3.71875 6.29375 3.13125 6.88125C2.54375 7.46875 2.25 8.175 2.25 9C2.25 9.825 2.54375 10.5312 3.13125 11.1187C3.71875 11.7062 4.425 12 5.25 12Z" fill="#A5000A"/>
</g>
</svg>
