<svg width="18" height="18" viewBox="0 0 18 18" fill="none" xmlns="http://www.w3.org/2000/svg">
<mask id="mask0_7647_50058" style="mask-type:alpha" maskUnits="userSpaceOnUse" x="0" y="0" width="18" height="18">
<rect width="18" height="18" fill="#D9D9D9"/>
</mask>
<g mask="url(#mask0_7647_50058)">
<path d="M6.42188 13.1719C6.64063 12.9531 6.75 12.6875 6.75 12.375C6.75 12.0625 6.64063 11.7969 6.42188 11.5781C6.20312 11.3594 5.9375 11.25 5.625 11.25C5.3125 11.25 5.04688 11.3594 4.82812 11.5781C4.60937 11.7969 4.5 12.0625 4.5 12.375C4.5 12.6875 4.60937 12.9531 4.82812 13.1719C5.04688 13.3906 5.3125 13.5 5.625 13.5C5.9375 13.5 6.20312 13.3906 6.42188 13.1719ZM6.42188 6.42188C6.64063 6.20312 6.75 5.9375 6.75 5.625C6.75 5.3125 6.64063 5.04688 6.42188 4.82812C6.20312 4.60937 5.9375 4.5 5.625 4.5C5.3125 4.5 5.04688 4.60937 4.82812 4.82812C4.60937 5.04688 4.5 5.3125 4.5 5.625C4.5 5.9375 4.60937 6.20312 4.82812 6.42188C5.04688 6.64063 5.3125 6.75 5.625 6.75C5.9375 6.75 6.20312 6.64063 6.42188 6.42188ZM9.79688 9.79688C10.0156 9.57812 10.125 9.3125 10.125 9C10.125 8.6875 10.0156 8.42188 9.79688 8.20312C9.57812 7.98437 9.3125 7.875 9 7.875C8.6875 7.875 8.42188 7.98437 8.20312 8.20312C7.98437 8.42188 7.875 8.6875 7.875 9C7.875 9.3125 7.98437 9.57812 8.20312 9.79688C8.42188 10.0156 8.6875 10.125 9 10.125C9.3125 10.125 9.57812 10.0156 9.79688 9.79688ZM13.1719 13.1719C13.3906 12.9531 13.5 12.6875 13.5 12.375C13.5 12.0625 13.3906 11.7969 13.1719 11.5781C12.9531 11.3594 12.6875 11.25 12.375 11.25C12.0625 11.25 11.7969 11.3594 11.5781 11.5781C11.3594 11.7969 11.25 12.0625 11.25 12.375C11.25 12.6875 11.3594 12.9531 11.5781 13.1719C11.7969 13.3906 12.0625 13.5 12.375 13.5C12.6875 13.5 12.9531 13.3906 13.1719 13.1719ZM13.1719 6.42188C13.3906 6.20312 13.5 5.9375 13.5 5.625C13.5 5.3125 13.3906 5.04688 13.1719 4.82812C12.9531 4.60937 12.6875 4.5 12.375 4.5C12.0625 4.5 11.7969 4.60937 11.5781 4.82812C11.3594 5.04688 11.25 5.3125 11.25 5.625C11.25 5.9375 11.3594 6.20312 11.5781 6.42188C11.7969 6.64063 12.0625 6.75 12.375 6.75C12.6875 6.75 12.9531 6.64063 13.1719 6.42188ZM3.75 15.75C3.3375 15.75 2.98438 15.6031 2.69063 15.3094C2.39688 15.0156 2.25 14.6625 2.25 14.25V3.75C2.25 3.3375 2.39688 2.98438 2.69063 2.69063C2.98438 2.39688 3.3375 2.25 3.75 2.25H14.25C14.6625 2.25 15.0156 2.39688 15.3094 2.69063C15.6031 2.98438 15.75 3.3375 15.75 3.75V14.25C15.75 14.6625 15.6031 15.0156 15.3094 15.3094C15.0156 15.6031 14.6625 15.75 14.25 15.75H3.75Z" fill="white"/>
</g>
</svg>
