<svg width="24" height="24" viewBox="0 0 24 24" fill="none" xmlns="http://www.w3.org/2000/svg">
<path d="M21.75 15V5.99998C21.75 5.58559 21.4144 5.24998 21 5.24998C20.5856 5.24998 20.25 5.58559 20.25 5.99998V6.55404C19.3463 5.69717 18.1425 5.22936 16.8974 5.25091C15.6524 5.27246 14.4655 5.78246 13.5926 6.6703C12.7198 7.55904 12.2304 8.75436 12.2304 10.0003C12.2304 11.2453 12.7198 12.4406 13.5926 13.3293C14.4654 14.2171 15.6523 14.7271 16.8974 14.7497C18.1424 14.7712 19.3462 14.3025 20.25 13.4456V15C20.25 16.3518 19.4128 17.5622 18.1491 18.0403C16.8844 18.5175 15.4565 18.1631 14.5623 17.1497C14.2885 16.8384 13.8151 16.8094 13.5038 17.0831C13.1935 17.3569 13.1635 17.8312 13.4373 18.1416C14.2932 19.1119 15.5082 19.6912 16.8021 19.7456C18.0949 19.8 19.354 19.3238 20.2876 18.4284C21.2223 17.5322 21.75 16.2937 21.75 15ZM16.9997 13.2497C15.6853 13.2497 14.5003 12.4584 13.9978 11.2434C13.4943 10.0293 13.7728 8.63148 14.7018 7.70148C15.6309 6.77242 17.0296 6.49399 18.2437 6.99742C19.4578 7.49993 20.25 8.68586 20.25 10.0003C20.2481 11.7937 18.7941 13.2477 16.9997 13.2497ZM6.49968 9.24934C4.11655 9.24934 2.25 10.6771 2.25 12.4997C2.25 14.3222 4.11655 15.75 6.49968 15.75C7.47187 15.7622 8.42623 15.494 9.25032 14.9775V15C9.25032 15.4143 9.58594 15.75 10.0003 15.75C10.4138 15.75 10.7503 15.4143 10.7503 15V8.50028C10.7503 7.20373 10.1578 5.97836 9.14251 5.1722C8.12813 4.36595 6.7997 4.06688 5.53771 4.36033C4.2749 4.65378 3.21458 5.50782 2.65867 6.67878C2.48148 7.05284 2.64086 7.50004 3.01586 7.67816C3.38993 7.85535 3.83712 7.69598 4.01431 7.32097C4.56557 6.15846 5.84899 5.53316 7.10431 5.81536C8.35963 6.09848 9.25119 7.21316 9.25025 8.50048V10.023C8.42619 9.50644 7.4718 9.23831 6.49961 9.25048L6.49968 9.24934ZM6.49968 14.249C5.00906 14.249 3.75 13.4475 3.75 12.4987C3.75 11.5509 5.00906 10.7484 6.49968 10.7484C7.9903 10.7484 9.24936 11.5499 9.24936 12.4987C9.2503 13.4484 7.9903 14.25 6.49968 14.25V14.249Z" fill="#B1005E"/>
</svg>
