<svg width="24" height="24" viewBox="0 0 24 24" fill="none" xmlns="http://www.w3.org/2000/svg">
<path d="M18.4801 14.6396C17.9494 14.6396 17.5201 15.069 17.5201 15.5996V17.5196H15.1201V15.5996C15.1201 15.069 14.6907 14.6396 14.1601 14.6396C13.6294 14.6396 13.2001 15.069 13.2001 15.5996V17.5196H10.8001V15.5996C10.8001 15.069 10.3707 14.6396 9.84006 14.6396C9.30944 14.6396 8.88006 15.069 8.88006 15.5996V17.5196H6.48006V15.5996C6.48006 15.069 6.05067 14.6396 5.52006 14.6396C4.98944 14.6396 4.56006 15.069 4.56006 15.5996V17.5196C4.56006 18.0287 4.76256 18.5171 5.12257 18.8771C5.48258 19.2371 5.97102 19.4396 6.48006 19.4396H17.5201C18.0291 19.4396 18.5175 19.2371 18.8775 18.8771C19.2375 18.5171 19.4401 18.0287 19.4401 17.5196V15.5996C19.4401 15.3446 19.3388 15.1009 19.1588 14.9209C18.9788 14.7409 18.7351 14.6396 18.4801 14.6396Z" fill="#B1005E"/>
<path d="M7.44002 5.99944C7.44002 5.46883 7.01064 5.03944 6.48002 5.03944C5.9494 5.03944 5.52002 5.46883 5.52002 5.99944V11.2794C5.52002 11.8101 5.9494 12.2394 6.48002 12.2394C7.01064 12.2394 7.44002 11.8101 7.44002 11.2794V9.59944H15.9216L14.4404 11.0807H14.4413C14.0654 11.4557 14.0654 12.0632 14.4413 12.4382C14.8163 12.8141 15.4238 12.8141 15.7988 12.4382L18.1003 10.1366H18.1013C18.4988 9.73915 18.7219 9.20008 18.7219 8.63851C18.7219 8.076 18.4988 7.53695 18.1013 7.13944L15.7997 4.83789H15.7988C15.4238 4.46289 14.8163 4.46289 14.4413 4.83789C14.0654 5.21289 14.0654 5.82134 14.4413 6.19634L15.9216 7.67947H7.44002L7.44002 5.99944Z" fill="#B1005E"/>
</svg>
