<svg width="24" height="24" viewBox="0 0 24 24" fill="none" xmlns="http://www.w3.org/2000/svg">
<path d="M19.075 17.6502L18.425 16.6752C18.1083 16.8252 17.7833 16.9377 17.45 17.0127C17.1167 17.0877 16.775 17.1252 16.425 17.1252C15.125 17.1252 14.025 16.6752 13.125 15.7752C12.225 14.8752 11.775 13.7752 11.775 12.4752C11.775 11.1919 12.225 10.096 13.125 9.1877C14.025 8.27936 15.1167 7.8252 16.4 7.8252C17.6833 7.8252 18.7708 8.27936 19.6625 9.1877C20.5542 10.096 21 11.1919 21 12.4752C21 13.1419 20.8667 13.7752 20.6 14.3752C20.3333 14.9752 19.9583 15.5002 19.475 15.9502L20.125 16.9252L19.075 17.6502ZM3 16.9252L6.325 8.0252H7.925L11.275 16.9252H9.725L8.925 14.6502H5.35L4.525 16.9252H3ZM16.4 15.8252C16.6333 15.8252 16.8542 15.8002 17.0625 15.7502C17.2708 15.7002 17.475 15.6335 17.675 15.5502L16.625 14.0002L17.7 13.3002L18.7 14.8002C18.9833 14.4835 19.2 14.1252 19.35 13.7252C19.5 13.3252 19.575 12.9085 19.575 12.4752C19.575 11.5585 19.2708 10.771 18.6625 10.1127C18.0542 9.45436 17.3 9.1252 16.4 9.1252C15.5 9.1252 14.7417 9.45436 14.125 10.1127C13.5083 10.771 13.2 11.5585 13.2 12.4752C13.2 13.3919 13.5083 14.1794 14.125 14.8377C14.7417 15.496 15.5 15.8252 16.4 15.8252ZM5.8 13.3502H8.45L7.175 9.7502H7.075L5.8 13.3502Z" fill="#000000"/>
</svg>
