<?xml version="1.0" encoding="UTF-8"?>
<svg width="1200pt" height="1200pt" version="1.1" viewBox="0 0 1200 1200" xmlns="http://www.w3.org/2000/svg">
 <path d="m892.69 682.97c25.875-22.688 40.781-53.719 39.656-84.281-1.0312-32.625-23.531-63.469-53.906-77.531 15.75-18.469 22.312-44.906 15.938-69.281-3.375-12.75-9.8438-24.375-18.75-34.219 14.25-47.156 22.5-95.906 24.562-145.12 1.3125-31.969-7.5938-52.594-26.344-61.406-18.281-8.4375-40.406-2.25-60.75 17.25-40.312 38.438-58.406 92.812-70.969 141.75-11.906-23.25-33-41.625-58.594-48.188-35.906-9.1875-76.5 7.2188-98.25 37.406-22.875-23.719-59.438-33.094-90.281-21.188-23.062 9-41.438 29.906-49.875 54.562-16.031-44.906-33.75-90.375-62.719-130.12-7.7812-10.688-17.625-22.688-31.5-30.281-16.688-9.0938-35.906-9.375-50.156-0.65625-12.188 7.4062-26.25 24.375-23.625 62.906 3.8438 57.188 25.125 113.72 59.625 159.28-8.625 20.438-8.7188 44.438 0 65.062-33 8.1562-60.562 35.25-67.5 68.625-6.75 32.438 7.125 67.594 33 88.312-27.281 22.312-38.906 61.969-25.5 94.781 13.688 33.375 51.188 53.156 89.062 49.312-5.1562 29.812 2.7188 61.594 21.938 84.844 19.781 24 50.344 37.688 81.188 37.688 8.25 0 16.5-0.9375 24.562-3 28.125-7.125 50.438-25.781 62.156-51 16.219 19.969 39.938 33.562 65.25 36.281 32.906 3.5625 67.031-11.531 87.469-37.594 38.062 30.375 97.875 30.75 134.81-1.4062 14.812-12.938 24.094-28.969 26.062-45.281 0.9375-8.25 0-16.594-2.8125-24.188 27.188-6.4688 50.625-28.031 57-54.844 7.0312-29.344-6.375-61.125-30.75-78.469zm-60.188-434.25c8.3438-8.0625 21.094-15.938 29.438-12.094 9.8438 4.5938 10.594 23.812 10.125 34.781-1.7812 43.031-8.5312 85.781-20.156 127.22 0.5625 0.375 1.125 0.65625 1.5938 1.0312-0.65625 0-1.2188-0.09375-1.875-0.09375 0-0.28125 0.1875-0.65625 0.1875-0.9375-9.4688-5.3438-19.969-9.0938-31.031-10.875-18-2.9062-37.125-0.84375-55.5 5.7188 12-49.312 28.031-107.34 67.219-144.75zm-527.34 43.969c-0.75-11.062-0.375-30.562 10.219-37.031 5.5312-3.375 14.344-2.8125 22.031 1.3125 9 4.9688 16.312 13.969 22.219 22.125 27.656 37.875 44.719 82.875 60.469 127.22-24.188-2.7188-49.5 5.0625-66.844 22.406-27.75-39.75-44.719-87.656-48.094-136.03zm591 462.19c-4.7812 20.062-26.062 35.812-47.531 35.25-7.0312-0.375-13.312 3.75-16.125 10.031s-1.5 13.594 3.1875 18.562c4.2188 4.5 6.375 11.719 5.625 18.469-1.125 9.2812-7.0312 19.031-16.594 27.375-28.969 25.219-79.5 22.312-105.94-6-3.75-3.9375-9.1875-5.9062-14.438-5.25-5.3438 0.65625-10.031 3.8438-12.75 8.5312-13.219 23.438-41.062 37.781-67.688 34.969-23.531-2.5312-46.031-19.312-55.969-41.719-3.0938-6.9375-10.125-10.969-17.625-10.031s-13.406 6.6562-14.625 14.062c-4.5938 26.25-23.344 46.594-49.125 53.062-27.375 6.9375-59.156-3.4688-77.156-25.312-16.688-20.156-21.656-50.531-12.375-75.375 2.3438-6.1875 0.9375-12.938-3.5625-17.719-3.2812-3.4688-7.6875-5.3438-12.281-5.3438-1.7812 0-3.5625 0.28125-5.25 0.84375-29.344 9.375-62.812-4.125-73.125-29.344-10.031-24.375 3.0938-57.188 27.375-68.719 5.9062-2.8125 9.6562-8.7188 9.6562-15.281s-3.5625-12.375-9.4688-15.281c-24.188-11.812-39-41.531-33.562-67.5 5.4375-26.156 30.938-47.438 58.031-48.562 6.375-0.28125 12-3.9375 14.719-9.5625 2.8125-5.625 2.1562-12.281-1.5-17.438-14.438-20.156-12.094-51.75 5.0625-68.906 17.25-17.344 47.906-19.781 68.438-5.5312 5.3438 3.75 12.281 4.0312 17.906 0.75 5.7188-3.1875 9.0938-9.5625 8.625-16.219-1.875-26.719 14.344-54.469 37.031-63.281 23.625-9.0938 53.531 1.5 66.844 23.531 3.375 5.5312 9.4688 8.7188 15.75 8.25 6.375-0.375 11.906-4.3125 14.531-10.125 12-27.188 46.031-44.062 74.344-36.844 28.594 7.3125 49.969 37.688 47.531 67.688-0.46875 6.6562 2.7188 12.938 8.5312 16.219 5.7188 3.2812 12.656 3 18.094-0.75 20.531-14.156 44.344-20.25 65.438-16.781 24.375 3.9375 45.375 21.844 51 43.406 5.0625 19.219-3.6562 42.094-19.781 52.219-6 3.75-9.0938 10.594-7.7812 17.531 1.3125 6.8438 6.5625 12.188 13.406 13.5 27.375 5.25 50.344 31.031 51.281 57.375 0.84375 26.156-15 53.344-41.438 70.781-5.4375 3.6562-8.3438 9.8438-7.5938 16.312 0.75 6.375 4.9688 11.625 10.969 13.875 21 7.6875 34.969 33 29.906 54.281z"/>
 <path d="m851.91 398.62h-0.09375s-0.09375 0.65625-0.1875 0.9375c0.65625 0 1.2188 0.09375 1.875 0.09375-0.46875-0.375-1.0312-0.65625-1.5938-1.0312z"/>
 <path d="m853.5 399.66c-0.65625 0-1.2188-0.09375-1.875-0.09375 0-0.28125 0.1875-0.65625 0.1875-0.9375h0.09375c0.5625 0.375 1.125 0.65625 1.5938 1.0312z"/>
 <path d="m651.66 686.91c-4.875 4.9688-10.969 8.625-19.219 11.719-3.0938 1.125-6.1875 2.0625-9.375 2.8125l2.8125 31.031c0.75 7.7812-4.9688 14.625-12.656 15.375h-1.3125c-7.2188 0-13.312-5.4375-13.969-12.75l-2.9062-31.219c-5.0625-0.28125-10.125-1.0312-15.094-2.1562-10.969-2.7188-18.75-7.4062-23.719-14.438-6.4688-9.375-7.125-22.5-1.5-33.469 3.9375-7.7812 10.688-14.344 19.969-19.5 22.219-12.281 50.438-11.531 71.906 1.9688 8.625 5.3438 13.5 16.031 14.531 24.281 1.2188 9.1875-2.3438 19.031-9.4688 26.344z"/>
 <path d="m497.53 605.25c-6.5625 7.6875-16.312 11.625-26.156 11.625-7.3125 0-14.531-2.1562-20.438-6.6562-13.875-10.688-17.344-31.875-7.4062-46.312 9.8438-14.438 30.844-19.031 45.75-9.9375 8.7188 5.3438 14.344 13.594 15.938 23.344 1.5938 10.031-1.3125 20.438-7.6875 27.938z"/>
 <path d="m735 578.53c-6.4688 7.6875-16.312 11.719-26.156 11.719-7.2188 0-14.531-2.25-20.438-6.75-13.875-10.594-17.25-31.781-7.4062-46.312 9.8438-14.438 30.844-18.938 45.844-9.8438 8.625 5.25 14.344 13.5 15.844 23.344 1.5938 9.9375-1.2188 20.344-7.6875 27.844z"/>
</svg>
