<?xml version="1.0" encoding="UTF-8"?>
<svg width="1200pt" height="1200pt" version="1.1" viewBox="0 0 1200 1200" xmlns="http://www.w3.org/2000/svg">
 <path d="m892.27 699.61-129.38 22.5-55.781-44.297c16.172-11.953 30.234-25.781 40.312-41.484 3.2812-4.9219 5.8594-10.078 8.4375-15.234 16.172 19.922 37.031 36.562 61.406 49.219 27.891 14.297 58.125 21.797 87.188 21.797 11.016 0 22.031-1.1719 32.812-3.2812 40.547-8.2031 72.188-30.938 89.297-63.984 34.453-66.797-3.5156-155.16-84.609-196.88-0.23438-0.23438-0.46875-0.23438-0.70312-0.46875 25.781-48.281 64.453-103.36 96.797-103.36v-39.844c-57.656 0-107.58 77.109-134.53 128.91-10.547-2.8125-20.859-4.6875-31.172-5.8594 17.578-60.234 56.016-151.17 137.58-203.2l-21.562-33.75c-98.438 62.812-140.62 172.03-157.97 237.66-42.422 6.3281-78.984 28.828-97.734 65.156-4.2188 8.2031-7.5 16.875-9.6094 26.016-36.094-22.734-89.297-26.719-140.86-6.7969-33.047 12.891-60.703 33.984-79.453 59.531-39.375-65.859-131.72-92.578-217.97-59.297-94.688 36.562-146.25 131.95-115.31 212.34 12.188 31.641 34.453 53.203 64.688 63.984l-67.969 102.42 33.281 22.031 77.578-116.95c2.1094 0 3.9844 0.46875 5.8594 0.46875 19.688 0 41.484-3.5156 64.688-9.8438l-106.17 246.56 36.562 15.703 94.219-218.91 160.31 60 39.844-157.5c7.5 1.1719 15.234 1.875 23.203 1.875 2.8125 0 5.8594-0.23438 8.9062-0.46875l40.547 109.92h140.86l93.984 187.03 35.625-17.812-105-209.06h-137.58l-28.359-76.406c6.3281-1.6406 12.422-3.75 18.75-6.0938 2.3438-0.9375 4.2188-2.1094 6.5625-3.0469l82.266 65.625 117.19-20.391 52.031 108.28 83.906 66.328 24.609-31.406-76.641-60.469zm-123.98-207.89c10.547-20.625 29.766-34.219 53.203-41.016-1.1719 6.5625-1.6406 11.016-1.875 11.953l39.609 4.6875c0-0.46875 1.1719-8.2031 3.5156-20.859 7.7344 0.46875 15.469 1.4062 23.438 3.2812-1.4062 3.2812-2.5781 6.0938-3.2812 7.7344l36.797 15.234c1.1719-2.8125 2.5781-5.8594 3.9844-9.1406h0.23438c61.406 31.641 91.641 95.859 67.5 142.97-11.484 22.031-33.281 37.5-61.641 43.125-30 6.0938-63.281 0.70312-93.984-15-30.469-15.703-54.141-39.844-66.797-67.734-11.719-26.484-11.953-53.203-0.70312-75.234zm-503.2 243.98c-29.062-4.2188-48.047-18.984-58.359-45.234-23.203-60 18.281-131.95 92.344-160.78 20.625-7.9688 41.719-11.719 62.109-11.719 52.031 0 97.734 25.312 114.61 68.438 2.1094 5.625 3.5156 11.016 4.4531 16.406-1.4062 8.4375-1.6406 16.875-0.9375 25.078-2.5781 10.547-7.7344 21.094-15.938 31.172-18.047 22.031-49.688 42.188-91.172 58.359-41.719 16.172-78.75 22.5-107.11 18.281zm240 81.797-144.38-53.906c8.4375-2.5781 16.875-5.625 25.781-8.9062 48.516-18.75 84.844-42.422 107.58-70.312 2.3438-2.8125 3.9844-5.625 6.0938-8.2031 8.9062 10.547 20.391 19.219 34.219 25.781zm61.875-146.02c-22.5-5.8594-38.438-18.281-45-35.156-1.1719-2.8125-1.4062-5.8594-2.1094-8.9062 0.9375-7.2656 1.1719-14.531 0.70312-21.797 1.875-8.4375 5.3906-17.109 11.016-25.781 14.062-21.562 37.266-39.375 65.156-50.156 17.812-6.7969 36.094-10.078 52.969-10.078 34.922 0 64.453 14.062 74.062 38.672 6.5625 16.875 3.0469 36.797-9.6094 56.25-14.062 21.562-37.266 39.375-65.156 50.156-28.125 10.781-57.188 13.359-82.031 6.7969z"/>
</svg>
