<svg width="24" height="24" viewBox="0 0 24 24" fill="none" xmlns="http://www.w3.org/2000/svg">
<path d="M9.7294 9.35808L5.72716 13.4484L11.3626 19.0839L13.3869 14.4977C13.4366 14.3849 13.5473 14.3175 13.6636 14.3175C15.475 14.3168 17.2862 14.3168 19.0977 14.3168L20.2946 12.8815L15.0649 7.45942H11.587L11.2869 7.76592C11.4664 8.01496 11.5728 8.31933 11.5728 8.64783V9.05509C11.5728 9.22182 11.4373 9.35805 11.2698 9.35805L9.7294 9.35808ZM7.40797 13.5896C7.13765 13.3001 7.57754 12.8893 7.84786 13.178L10.5687 16.0883C10.839 16.3778 10.3991 16.7886 10.1288 16.4998L7.40797 13.5896ZM18.2441 11.8641C18.4399 11.5185 18.965 11.8165 18.7691 12.162C18.6549 12.3635 18.7209 12.6189 18.9174 12.7403C19.2544 12.9482 18.9373 13.4618 18.6003 13.2532C18.1284 12.9616 17.9702 12.3465 18.2441 11.8641ZM13.103 6.85502C12.3722 5.33386 11.0106 4.21846 9.38376 3.79144C10.5395 4.45696 11.3775 5.55739 11.7025 6.85502H13.103ZM11.1307 7.0629C10.6454 4.99266 8.72262 3.59065 6.60262 3.75739C6.2344 3.78577 6.14996 3.24372 6.5118 3.16142C9.50509 2.47463 12.561 4.03056 13.7651 6.85508H15.1912C15.2706 6.85649 15.3494 6.887 15.409 6.94873L20.916 12.6581C21.021 12.7674 21.0296 12.9412 20.9302 13.0597L19.4871 14.7902C19.4325 14.8696 19.341 14.9221 19.2374 14.9221H18.8088V17.9686C18.8088 18.1361 18.6733 18.2716 18.5059 18.2716C17.233 18.2716 16.1923 17.2315 16.1923 15.9587V14.9228H13.8594L11.7437 19.7163C11.6678 19.9199 11.4032 19.9823 11.2464 19.8248L5.08798 13.6657C4.97162 13.5479 4.9702 13.3578 5.08656 13.24L8.9782 9.26317C8.19704 9.00633 7.65497 8.26916 7.65497 7.43905C7.65497 7.27161 7.79049 7.13608 7.95794 7.13608H10.0587C10.3453 7.13608 10.6142 7.21697 10.8434 7.35673L11.1307 7.0629ZM13.4656 9.18635H15.2358C15.4032 9.18635 15.5387 9.32186 15.5387 9.48931V10.555C15.5387 10.7224 15.4032 10.8579 15.2358 10.8579H13.4656C13.2981 10.8579 13.1626 10.7224 13.1626 10.555V9.48931C13.1626 9.32258 13.2981 9.18635 13.4656 9.18635ZM14.9335 9.79155H13.7685V10.252H14.9335V9.79155ZM17.8035 14.9226V16.2948C17.8035 16.6928 17.1976 16.6928 17.1976 16.2948V14.9226H16.7974V15.9585C16.7974 16.7822 17.3948 17.4931 18.2029 17.6393V14.9226H17.8028H17.8035ZM10.0585 7.74111H8.29542C8.43448 8.32858 8.96661 8.75285 9.57465 8.75285H10.966V8.64855C10.966 8.16752 10.5389 7.74111 10.0578 7.74111L10.0585 7.74111Z" fill="black" stroke="black" stroke-width="0.266667"/>
</svg>
