<?xml version="1.0" encoding="UTF-8"?>
<svg width="1200pt" height="1200pt" version="1.1" viewBox="0 0 1200 1200" xmlns="http://www.w3.org/2000/svg">
 <path d="m1048.7 807.05c-6.2344-8.7656-9.6094-19.078-9.7969-29.859-1.0312-53.812-20.766-109.69-54.844-161.34 122.34-77.297 168.42-202.18 111.7-314.26-38.812-76.781-111.23-118.45-196.26-120-21.609-44.203-57.562-79.312-103.97-100.73-58.547-27.188-122.68-27.844-180.74-1.875-61.266 27.328-112.41 82.172-147.66 158.29-14.25 30.375-25.078 62.812-32.672 95.953-27-14.766-57.188-24-88.922-26.156 3.6094-21.938 4.0312-48.797-4.4531-78.047-16.359-56.531-55.875-88.078-72.234-99.047-6.9375-4.5469-16.219-2.7188-20.766 4.2188-4.7344 6.75-2.8594 16.219 4.0312 20.766 13.5 9.0938 46.594 35.438 60.094 82.359 7.6875 26.672 6.6094 50.906 2.8125 69.938-5.625 0.42188-11.25 0.84375-16.922 1.6875-14.578 2.2031-29.203 6-43.594 11.109-6.8906-20.672-18.656-44.062-38.953-65.719-40.172-42.844-89.953-52.828-109.36-55.172-8.25-0.84375-15.703 4.875-16.688 13.172-1.0312 8.25 4.875 15.703 13.172 16.688 16.219 1.875 57.562 10.312 90.938 45.891 17.766 18.797 27.656 39.188 33.281 56.953-87.562 42.609-159.37 133.78-144.84 229.4 16.547 108.98 138.42 179.44 246.56 179.44 0.60938 0 1.2656-0.046875 1.875-0.046875 1.9688 8.3906 4.3594 16.734 7.2188 24.938-13.875 5.625-27.984 13.172-41.766 23.156-25.828 18.75-47.25 44.203-61.922 73.594-11.156 22.453-2.0156 49.594 20.25 60.75 6.5625 3.1875 13.312 4.7344 20.062 4.7344 16.688 0 32.719-9.0938 40.688-24.984 8.25-16.688 19.734-30.375 34.078-40.828 10.688-7.7812 21.891-12.656 32.719-15.891 17.953 23.203 39.562 44.672 64.828 64.031-4.6875 4.8281-9.2812 9.9844-13.688 15.656-19.594 25.125-33.094 55.5-39 87.938-4.5469 24.469 11.812 48.094 36.469 52.641 2.7188 0.51562 5.3906 0.65625 8.1094 0.65625 21.422 0 40.5-15.375 44.531-37.125 3.375-18.234 10.453-34.594 21.422-48.609 7.0781-9.1875 15.188-16.219 23.438-21.984 2.0625 0.98438 3.9844 2.1094 6.0938 3.0938 26.438 12.094 53.578 21.891 80.859 29.438-1.5938 9.7031-2.7188 19.781-2.7188 30.469 0 31.734 7.9219 64.125 23.109 93.328 8.1094 15.375 23.953 24.281 40.312 24.281 6.9375 0 14.156-1.6875 20.766-5.0625 22.125-11.625 30.703-39 19.219-61.078-8.625-16.547-12.984-33.938-12.984-51.469 0-4.875 0.375-9.5625 1.0312-14.156 15.234 1.4531 30.328 2.3438 45.234 2.3438 18.938 0 37.453-1.3125 55.5-3.6562 1.125 7.875 2.625 15.891 4.9219 24.094 8.625 30.562 24.984 59.578 47.438 83.719 8.7656 9.4688 20.906 14.344 33.094 14.344 10.969 0 22.125-4.0312 30.891-12.328 18.234-17.062 19.219-45.75 2.2031-63.938-12.656-13.5-21.609-29.016-26.344-46.219-2.0625-7.6406-3.1406-15.047-3.5625-22.172 25.734-10.453 49.125-24 69.375-40.594 8.25-6.9375 18.375-10.969 29.016-12l62.109-5.7188c15.516-1.5 28.875-10.781 35.25-24.984 6.5625-14.156 5.0625-30.375-3.8906-43.031l-36.094-50.953zm20.391-491.95c50.109 99.422 8.9531 207.24-102.42 276.24-46.734-61.406-113.77-115.59-192.24-151.74-66.469-30.703-131.81-44.062-192.24-40.172 40.5-61.594 102.94-116.77 172.31-151.74 48.938-24.797 97.031-36.797 140.9-36.797 75.75 0 139.08 35.953 173.68 104.11zm-440.72 649.55c-27.609-7.3125-55.078-17.156-81.891-29.484-21.234-9.7969-40.922-20.625-58.969-32.484 0-0.046875-0.046875-0.09375-0.09375-0.09375 112.55-131.02 182.48-289.87 203.06-461.48 23.438 6.2812 47.297 14.812 71.484 25.922 24.516 11.25 47.719 24.516 69.562 39.094-28.125 167.44-97.828 325.6-202.13 458.53h-1.0312zm-134.06-714.66c32.25-69.516 78.141-119.16 132.66-143.63 24.469-10.969 50.109-16.359 75.938-16.359 27 0 54.188 6.0938 80.016 18.047 35.766 16.547 64.453 42.375 83.344 74.906-40.172 3.8906-82.688 16.547-125.21 37.969-76.453 38.625-144.98 100.08-188.16 168.61-3.1875 5.0625-6.2344 10.125-9.0938 15-9.1875 1.875-18.328 4.2656-27.234 6.9844-14.391-23.812-33.141-44.438-55.031-60.938 7.125-34.641 18.094-68.859 32.812-100.64zm-382.69 306.84c-15.797-104.16 89.672-202.82 190.97-218.21 9.4688-1.4531 18.844-2.1094 28.172-2.1094 90.844 0 170.81 66.516 184.87 159.05 15.469 101.95-54.938 197.53-156.94 213.05-101.25 15.047-231.28-47.578-247.08-151.74zm219.66 280.92c-18.234 13.312-32.719 30.703-43.219 51.656-3.8906 7.7812-12.844 10.641-20.438 6.9375-7.5938-3.7031-10.641-12.984-6.9375-20.438 12.469-25.125 30.703-46.922 52.641-62.766 11.859-8.4844 23.859-14.766 35.719-19.594 4.4062 9.1875 9.3281 18.188 14.766 26.953-10.828 4.0781-21.844 9.5625-32.578 17.297zm40.031-66.844c-4.4531-10.641-7.875-21.469-10.781-32.438 0.89062-0.14063 1.8281-0.1875 2.7188-0.28125 118.31-17.953 200.02-128.86 182.06-247.18-2.8125-18.375-8.0625-35.766-15-52.172 10.828-3.0469 21.891-5.4844 33.234-7.125 12.984-1.875 26.156-2.8594 39.656-2.8594 18.797 0 38.109 1.7812 57.75 5.3906-19.547 167.76-87.797 323.06-198.19 450.71-41.906-32.484-72.984-71.016-91.453-114zm109.31 192.05c-13.828 17.719-22.969 38.484-27.188 61.594-1.5 8.4375-9.4688 13.828-17.719 12.328s-13.828-9.4688-12.328-17.906c5.0625-27.516 16.547-53.344 33.094-74.766 4.7344-6 9.7031-11.391 14.812-16.359 8.7188 5.7188 17.812 11.203 27.188 16.453-6.2344 5.4375-12.281 11.438-17.859 18.656zm208.26 124.74c4.0312 7.5938 1.1719 16.688-6.4219 20.578-3.5625 1.875-7.7812 2.3438-11.625 1.0312-3.8906-1.1719-7.0781-3.8906-8.9531-7.4062-12.984-24.984-19.734-52.5-19.734-79.5 0-8.1094 0.75-15.844 1.875-23.344 9.9844 2.1562 19.969 3.9375 29.953 5.4844-0.79688 5.7188-1.2656 11.625-1.2656 17.812 0 22.453 5.3906 44.391 16.219 65.297zm-27.469-115.59c99.75-130.74 167.48-284.21 197.06-446.72 31.547 24.281 59.297 51.562 82.031 80.672 6.4219 8.1094 12.328 16.359 17.906 24.656 0.65625 1.0312 1.2656 2.0625 1.9219 3.0938-20.953 121.92-69.797 239.44-141.42 340.87-48.75 8.8125-102.8 8.0156-157.5-2.5781zm206.21 42.516c6.0938 21.75 17.203 41.531 33.234 58.547 5.9062 6.2344 5.3906 15.844-0.84375 21.609-2.8594 2.8594-6.0938 4.875-10.781 4.2188-4.2188-0.1875-7.9219-1.875-10.641-4.875-19.219-20.438-33.234-45.047-40.5-71.203-2.0625-7.125-3.3281-14.062-4.2656-20.906 10.219-2.1094 20.203-4.5938 29.906-7.5 0.79688 6.5625 2.0156 13.266 3.8906 20.109zm193.87-126.24c-1.0312 2.2031-3.8906 7.0781-10.781 7.7812l-62.25 5.7188c-16.547 1.5-32.25 7.9219-45.234 18.75-22.781 18.75-50.156 33.094-80.625 43.125l0.32812-0.28125c57.047-88.078 98.062-186.66 120.14-288.56v-0.09375c15.938 34.031 25.125 68.859 25.828 102.84 0.32812 16.875 5.5781 32.906 15.375 46.594l36.094 50.953c3.8906 5.7188 2.2031 11.156 1.1719 13.172zm-741.14-425.76c0 13.453-10.922 24.375-24.375 24.375-13.453 0-24.375-10.922-24.375-24.375s10.922-24.375 24.375-24.375c13.453 0 24.375 10.922 24.375 24.375z"/>
</svg>
