<?xml version="1.0" encoding="UTF-8"?>
<svg width="1200pt" height="1200pt" version="1.1" viewBox="0 0 1200 1200" xmlns="http://www.w3.org/2000/svg">
 <path d="m465.36 64.25c-5.9375-8.4844-17.629-10.547-26.113-4.6094-8.4805 5.9375-10.547 17.629-4.6055 26.113l61.254 87.508c-28.297 27.281-45.895 65.582-45.895 107.99 0 21.66 4.5898 42.25 12.855 60.844-160.4 56.527-275.36 209.42-275.36 389.16 0 227.82 184.68 412.5 412.5 412.5s412.5-184.68 412.5-412.5c0-179.74-114.96-332.63-275.36-389.16 8.2656-18.594 12.855-39.184 12.855-60.844 0-45.199-19.988-85.727-51.605-113.23l57.59-82.273c5.9414-8.4844 3.875-20.176-4.6055-26.113-8.4844-5.9375-20.176-3.875-26.113 4.6094l-58.02 82.883c-20.227-10.16-43.07-15.883-67.246-15.883-26.938 0-52.215 7.1016-74.066 19.535zm235.49 266.92c7.4609-15.043 11.652-31.988 11.652-49.914 0-62.133-50.367-112.5-112.5-112.5s-112.5 50.371-112.5 112.5c0 17.926 4.1914 34.871 11.652 49.914 32.273-8.1094 66.059-12.414 100.85-12.414s68.574 4.3047 100.85 12.414zm-119.6 25.543c-198.39 9.7695-356.25 173.72-356.25 374.54 0 117.41 53.957 222.21 138.43 290.97l217.82-150.8zm18.75 749.54c-75.445 0-145.68-22.281-204.5-60.617l204.29-141.43 200.34 144.24c-57.914 36.613-126.54 57.809-200.12 57.809zm375-375c0 119.3-55.707 225.59-142.53 294.27l-213.72-153.88v-514.94c198.39 9.7695 356.25 173.72 356.25 374.54zm-553.12 0c25.891 0 46.875-20.988 46.875-46.879 0-25.887-20.984-46.871-46.875-46.871s-46.875 20.984-46.875 46.871c0 25.891 20.984 46.879 46.875 46.879zm384.38-46.879c0 25.891-20.984 46.879-46.875 46.879s-46.875-20.988-46.875-46.879c0-25.887 20.984-46.871 46.875-46.871s46.875 20.984 46.875 46.871z" fill-rule="evenodd"/>
</svg>
