<?xml version="1.0" encoding="UTF-8"?>
<svg width="1200pt" height="1200pt" version="1.1" viewBox="0 0 1200 1200" xmlns="http://www.w3.org/2000/svg">
 <path d="m956.11 315.14c-14.766-20.484-38.812-33.75-66.328-37.5 72.375-99.188 18.281-192.14 17.672-193.18-3.1406-5.2031-8.5781-8.5781-14.625-9.0469-91.312-7.0781-140.11 66.141-159.52 122.81-4.0312-3.2344-8.0625-6.4688-12.094-9.75-46.641-37.781-100.97-20.953-121.18-12.516-21.375-8.5781-74.297-23.719-120.05 13.125-4.0781 3.2812-8.2031 6.5625-12.281 9.8438-19.453-56.672-68.438-129.98-160.22-122.9-6.0469 0.46875-11.484 3.7969-14.625 9-0.60938 0.98438-54.984 93.984 17.719 193.18-0.65625 0.09375-1.3125 0.23438-2.0156 0.32812-91.969 16.5-116.48 120.28-18.422 158.53l0.046875 162.74c-0.1875 3.75-3.6562 86.953 82.266 133.22-2.7656 10.266-4.9688 20.953-5.9062 32.438v96.75c2.2031 49.125 19.312 82.781 62.344 118.27 8.4375 54.234 52.547 144.37 170.9 144.37 117.75 0 162.94-90.516 172.08-144.84 42.938-35.625 60-69.328 62.203-118.45-0.79688-24.797 3.2812-107.2-5.6719-129.28 85.219-46.312 81.797-129.32 81.656-132.1v-163.82c58.406-25.969 82.406-70.031 46.031-121.36zm-76.547-202.6c9.8438 22.875 28.453 86.812-29.484 154.87-29.438-7.3594-57.234-23.953-84.984-44.484 8.5312-29.766 38.391-109.41 114.47-110.39zm-558.89 0.60938c77.344 0.79688 106.83 80.297 115.27 110.3-27.656 20.25-56.062 37.172-85.594 44.578-58.266-68.156-39.516-132.14-29.625-154.92zm279.14 974.34c-81.562 0-114.05-51.562-126.74-86.766 44.391 9 81.375-3.3281 127.5-31.031 45.75 27.609 82.547 39.844 126.66 30.891-13.359 35.438-46.547 86.906-127.4 86.906zm335.06-719.06c-3.8438 13.125-20.109 25.875-47.203 36.938l-134.9 0.09375c-37.828 2.625-95.531 37.219-84.984 103.83 3.4219 24.516 39.797 19.922 37.219-4.5-7.5-41.344 29.062-59.672 49.5-61.875h118.08v158.34c0.09375 2.6719 1.5938 60.188-57.609 95.484-39.562-77.812-125.86-112.17-130.4-113.91-23.156-8.4375-36.281 25.688-13.5 34.969 0.98438 0.375 83.531 33.609 114.38 104.02-0.79688 5.4375 1.3594 11.484 5.5781 15.141 2.7188 8.8594 4.8281 18.094 5.625 28.031v96.75c0 14.953-3.2812 29.25-9.7969 42.375-8.9531 18.188-29.25 50.062-64.453 59.344-29.016 7.6406-63.703-1.3594-102.98-26.25l0.23438-134.02c31.875-6.4688 58.641-29.203 69.422-60.984 3.3281-9.7969-1.9219-20.438-11.719-23.766-9.7969-3.2812-20.438 1.9219-23.766 11.719-7.6406 22.594-28.781 37.688-52.547 37.547-23.531-0.09375-44.484-15.188-52.078-37.547-3.3281-9.7969-13.922-15.047-23.766-11.719-9.7969 3.3281-15.047 13.969-11.719 23.766 10.641 31.453 37.125 54.094 68.672 60.797l-0.23438 134.34c-39.75 25.172-74.719 33.984-103.88 26.297-34.969-9.1875-55.172-40.828-64.125-58.875-6.5156-13.172-9.8438-27.422-9.8438-42.375l-0.046875-95.25c0.84375-10.594 3.0938-20.438 6.0469-29.859 3.8438-3.5156 5.8594-9.0938 5.3438-14.25 31.125-71.062 113.86-104.16 114.84-104.53 9.6562-3.75 14.438-14.578 10.734-24.234s-14.578-14.484-24.188-10.734c-4.5469 1.7344-90.844 35.953-130.78 114.14-59.953-35.297-58.453-93.141-58.312-96.656v-157.4l117.05-0.09375c21.75 1.875 59.016 19.969 51.562 61.969-1.2656 10.266 6.0938 19.641 16.359 20.859 38.953 0.65625 18.609-70.781 3.6094-85.219-24.938-30.797-66.328-34.828-69.75-35.062h-133.97c-26.906-11.016-43.734-24.094-47.484-37.031-5.25-24.047 21.891-51 49.031-53.297 15.891-2.3438 29.625-6.8906 34.453-8.625 57.984-10.641 107.3-50.344 154.97-88.781 38.109-30.656 86.531-5.9062 88.594-4.875 6.8906 3.6562 15 2.5312 20.672-2.1562 11.484-5.1562 51.984-20.25 84.844 6.3281 47.484 38.438 96.562 78.141 154.26 88.781 4.8281 1.7344 18.516 6.2812 34.312 8.625 27.047 2.25 54.141 29.344 48.703 53.344z"/>
 <path d="m769.22 549.1c14.016 0 25.406-11.391 25.406-25.359v-15.469c0-14.016-11.391-25.406-25.406-25.406-13.969 0-25.359 11.391-25.359 25.406v15.469c0 13.969 11.391 25.359 25.359 25.359zm9.3281-33.094c-4.4531 5.3438-14.203 5.3438-18.656 0 4.4531-5.3438 14.203-5.3438 18.656 0z"/>
 <path d="m431.72 483.52c-14.016 0-25.406 11.391-25.406 25.406v15.422c0 14.016 11.391 25.406 25.406 25.406s25.453-11.391 25.453-25.406v-15.422c0-14.016-11.391-25.406-25.453-25.406zm-9.2812 33.094c4.4531-5.3438 14.156-5.2969 18.609 0-4.4531 5.3438-14.156 5.3438-18.609 0z"/>
 <path d="m599.86 558.98c-37.219 0.65625-37.219 56.016 0 56.672 37.219-0.65625 37.219-56.016 0-56.672zm0 37.5c-12-0.046875-12-18.281 0-18.328 12 0.046875 12 18.281 0 18.328z"/>
</svg>
