<?xml version="1.0" encoding="UTF-8"?>
<svg width="1200pt" height="1200pt" version="1.1" viewBox="0 0 1200 1200" xmlns="http://www.w3.org/2000/svg">
 <path d="m499.92 540c0 22.004-17.84 39.844-39.844 39.844s-39.844-17.84-39.844-39.844 17.84-39.844 39.844-39.844 39.844 17.84 39.844 39.844z"/>
 <path d="m779.77 540c0 22.004-17.84 39.844-39.844 39.844s-39.844-17.84-39.844-39.844 17.84-39.844 39.844-39.844 39.844 17.84 39.844 39.844z"/>
 <path d="m629.06 907.03c-7.5-3.75-9.1406-16.875-9.1406-27.422v-61.406c45.703-6.5625 79.922-34.688 79.922-68.438 0-38.672-44.766-69.844-99.844-69.844s-99.844 31.406-99.844 69.844c0 33.75 34.219 62.109 79.922 68.438v61.406c0 10.547-1.6406 23.672-9.1406 27.422-24.375 11.953-97.031-30.703-138.28-63.047l-24.844 31.406c17.344 13.828 96.562 73.125 153.75 73.125 9.6094 0 18.75-1.6406 26.719-5.625 3.75-1.875 7.7344-4.4531 11.719-7.9688 3.75 3.5156 7.7344 6.0938 11.719 7.9688 7.9688 3.9844 17.109 5.625 26.719 5.625 57.188 0 136.41-59.531 153.75-73.125l-24.609-31.406c-41.484 32.578-114.14 75-138.52 63.047z"/>
 <path d="m1039.5 719.77v-39.844h-22.031c1.4062-13.125 2.1094-26.484 2.1094-39.844 0-75-22.266-145.08-60.234-205.08 6.3281-17.812 40.312-119.53 40.312-254.3v-19.688l-19.688-0.23438c-5.8594 0-125.62 0.46875-231.56 106.17-46.172-16.641-95.859-26.25-148.12-26.25s-101.95 9.6094-148.12 26.25c-106.17-105.94-225.94-106.41-231.8-106.41l-19.688 0.23438v19.688c0 134.77 33.984 236.48 40.312 254.3-38.203 60-60.469 130.08-60.469 205.08 0 13.594 0.70312 26.719 2.1094 39.844h-22.031v39.844h28.359c3.0469 13.828 6.5625 27.188 11.016 40.312h-39.375v39.844h55.312c64.922 140.62 212.58 239.3 383.91 239.3s318.98-98.672 383.91-239.3h55.312v-39.844h-39.375c4.4531-13.125 8.2031-26.484 11.016-40.312h28.828zm-80.156-517.5c-2.3438 84.844-18.516 154.69-29.062 191.95-37.969-46.172-86.484-84.141-141.8-110.86 66.094-60 137.11-76.641 170.86-81.094zm-718.59 0c33.75 4.4531 104.77 21.094 171.09 81.094-55.547 26.719-103.83 64.688-141.8 110.86-10.547-37.266-26.719-107.11-29.297-191.95zm716.48 557.81h-117.66v39.844h99.609c-62.344 117.89-190.78 199.45-339.38 199.45s-277.03-81.328-339.38-199.45h99.609v-39.844h-117.66c-4.9219-13.125-9.1406-26.484-12.422-40.312h130.08v-39.844h-137.11c-1.6406-13.125-2.5781-26.484-2.5781-39.844 0-198.28 170.16-359.53 379.45-359.53s379.69 161.25 379.69 359.3c0 13.594-0.9375 26.719-2.5781 39.844h-137.34v39.844h130.08c-3.2812 14.062-7.5 27.422-12.422 40.547z"/>
</svg>
