<?xml version="1.0" encoding="UTF-8"?>
<svg width="1200pt" height="1200pt" version="1.1" viewBox="0 0 1200 1200" xmlns="http://www.w3.org/2000/svg">
 <path d="m881.25 243.75c-73.594 0-131.25 41.25-131.25 93.75s57.656 93.75 131.25 93.75 131.25-41.25 131.25-93.75-57.656-93.75-131.25-93.75zm0 150c-50.859 0-93.75-25.781-93.75-56.25s42.891-56.25 93.75-56.25 93.75 25.781 93.75 56.25-42.891 56.25-93.75 56.25z"/>
 <path d="m318.75 337.5c73.594 0 131.25-41.25 131.25-93.75s-57.656-93.75-131.25-93.75-131.25 41.25-131.25 93.75 57.656 93.75 131.25 93.75zm0-150c50.859 0 93.75 25.781 93.75 56.25s-42.891 56.25-93.75 56.25-93.75-25.781-93.75-56.25 42.891-56.25 93.75-56.25z"/>
 <path d="m412.5 600c0 52.5 57.656 93.75 131.25 93.75s131.25-41.25 131.25-93.75-57.656-93.75-131.25-93.75-131.25 41.25-131.25 93.75zm131.25-56.25c50.859 0 93.75 25.781 93.75 56.25s-42.891 56.25-93.75 56.25-93.75-25.781-93.75-56.25 42.891-56.25 93.75-56.25z"/>
 <path d="m450 993.75c0 10.355-8.3945 18.75-18.75 18.75s-18.75-8.3945-18.75-18.75 8.3945-18.75 18.75-18.75 18.75 8.3945 18.75 18.75z"/>
 <path d="m412.5 1068.8c0 10.355-8.3945 18.75-18.75 18.75s-18.75-8.3945-18.75-18.75 8.3945-18.75 18.75-18.75 18.75 8.3945 18.75 18.75z"/>
 <path d="m225 862.5c0 10.355-8.3945 18.75-18.75 18.75s-18.75-8.3945-18.75-18.75 8.3945-18.75 18.75-18.75 18.75 8.3945 18.75 18.75z"/>
 <path d="m225 787.5c0 10.355-8.3945 18.75-18.75 18.75s-18.75-8.3945-18.75-18.75 8.3945-18.75 18.75-18.75 18.75 8.3945 18.75 18.75z"/>
 <path d="m187.5 937.5c0 10.355-8.3945 18.75-18.75 18.75s-18.75-8.3945-18.75-18.75 8.3945-18.75 18.75-18.75 18.75 8.3945 18.75 18.75z"/>
 <path d="m1050 993.75c0 10.355-8.3945 18.75-18.75 18.75s-18.75-8.3945-18.75-18.75 8.3945-18.75 18.75-18.75 18.75 8.3945 18.75 18.75z"/>
 <path d="m1050 918.75c0 10.355-8.3945 18.75-18.75 18.75s-18.75-8.3945-18.75-18.75 8.3945-18.75 18.75-18.75 18.75 8.3945 18.75 18.75z"/>
 <path d="m1012.5 1068.8c0 10.355-8.3945 18.75-18.75 18.75s-18.75-8.3945-18.75-18.75 8.3945-18.75 18.75-18.75 18.75 8.3945 18.75 18.75z"/>
 <path d="m525 1031.2c0 10.355-8.3945 18.75-18.75 18.75s-18.75-8.3945-18.75-18.75 8.3945-18.75 18.75-18.75 18.75 8.3945 18.75 18.75z"/>
 <path d="m525 918.75c0 10.355-8.3945 18.75-18.75 18.75s-18.75-8.3945-18.75-18.75 8.3945-18.75 18.75-18.75 18.75 8.3945 18.75 18.75z"/>
 <path d="m600 918.75c0 10.355-8.3945 18.75-18.75 18.75s-18.75-8.3945-18.75-18.75 8.3945-18.75 18.75-18.75 18.75 8.3945 18.75 18.75z"/>
 <path d="m1064.1 434.53c0.70312-10.078 1.6406-21.328 4.4531-26.484 3.0469-5.3906 11.719-12.188 19.922-18.516 16.172-12.422 36.328-27.891 36.328-52.031s-20.156-39.609-36.328-52.031c-8.4375-6.3281-16.875-13.125-19.922-18.516-2.8125-5.1562-3.75-16.406-4.4531-26.484-1.4062-19.688-3.2812-44.297-22.031-58.359-16.875-12.656-38.672-8.4375-58.125-4.9219-11.016 2.1094-23.438 4.2188-30 2.3438-5.3906-1.6406-13.594-10.078-20.625-17.578-13.828-14.297-29.766-30.703-52.031-30.703s-38.203 16.406-52.031 30.703c-7.2656 7.5-15.234 15.938-20.625 17.578-6.5625 2.1094-18.984-0.23438-30-2.3438-19.219-3.5156-41.016-7.5-58.125 4.9219-18.75 13.828-20.625 38.438-22.031 58.359-0.70312 10.078-1.6406 21.328-4.4531 26.484-3.0469 5.3906-11.719 12.188-19.922 18.516-16.172 12.422-36.328 27.891-36.328 52.031s20.156 39.609 36.328 52.031c8.4375 6.3281 16.875 13.125 19.922 18.516 2.8125 5.1562 3.75 16.406 4.4531 26.484 0.23438 2.3438 0.23438 4.4531 0.46875 6.7969-15.938-8.2031-35.156-4.6875-52.266-1.4062-11.016 2.1094-23.438 4.2188-30 2.3438-5.3906-1.6406-13.594-10.078-20.625-17.578-14.062-14.531-29.766-30.703-52.031-30.703s-38.203 16.406-52.031 30.703c-5.3906 5.625-11.25 11.719-16.172 15.234l-5.1562-35.625c3.2812-1.1719 6.3281-2.8125 9.1406-5.1562 18.75-13.828 20.625-38.438 22.031-58.359 0.70312-10.078 1.6406-21.328 4.4531-26.484 3.0469-5.3906 11.719-12.188 19.922-18.516 16.172-12.422 36.328-27.891 36.328-52.031s-20.156-39.609-36.328-52.031c-8.4375-6.3281-16.875-13.125-19.922-18.516-2.8125-5.1562-3.75-16.406-4.4531-26.484-1.4062-19.688-3.2812-44.297-22.031-58.359-16.875-12.656-38.672-8.4375-58.125-4.9219-11.016 2.1094-23.438 4.2188-30 2.3438-5.3906-1.6406-13.594-10.078-20.625-17.578-14.062-14.297-30-30.703-52.266-30.703s-38.203 16.406-52.031 30.703c-7.2656 7.5-15.234 15.938-20.625 17.578-6.5625 2.1094-18.984-0.23438-30-2.3438-19.219-3.5156-41.016-7.5-58.125 4.9219-18.75 13.828-20.625 38.438-22.031 58.359-0.70312 10.078-1.6406 21.328-4.4531 26.484-3.0469 5.3906-11.719 12.188-19.922 18.516-16.406 12.422-36.562 27.891-36.562 52.031s20.156 39.609 36.328 52.031c8.4375 6.3281 16.875 13.125 19.922 18.516 2.8125 5.1562 3.75 16.406 4.4531 26.484 1.4062 19.688 3.2812 44.297 22.031 58.359 2.8125 2.1094 6.0938 3.75 9.1406 5.1562l-14.766 104.3c-22.969 6.7969-40.547 27.422-42.188 52.5l-34.922 506.25v1.4062c0 51.797 41.953 93.75 93.75 93.75h862.5c51.797 0 93.75-41.953 93.75-93.75v-1.4062l-34.922-506.25c-1.6406-25.078-19.219-45.703-42.188-52.5l-2.5781-18.516c15.703-14.297 17.344-37.031 18.75-55.547zm-581.95 43.359c14.531-4.4531 25.781-16.172 36.562-27.188 8.4375-8.6719 18.75-19.453 25.078-19.453s16.641 10.781 25.078 19.453c10.781 11.25 22.031 22.734 36.562 27.188 15.469 4.6875 32.578 1.6406 47.812-1.1719 9.375-1.6406 25.078-4.6875 28.828-1.875 4.9219 3.75 6.0938 18.75 7.0312 30.938 1.1719 14.531 2.3438 29.531 9.1406 41.953 6.7969 12.188 18.516 21.094 29.766 29.766 9.1406 7.0312 21.562 16.641 21.562 22.266s-12.422 15.234-21.562 22.266c-11.25 8.6719-22.969 17.812-29.766 29.766-7.0312 12.422-8.2031 27.422-9.1406 41.953-0.9375 12.188-2.1094 27.188-7.0312 30.938-3.75 2.8125-19.453 0-28.828-1.875-15.234-2.8125-32.344-5.8594-47.812-1.1719-14.531 4.4531-25.781 16.172-36.562 27.188-8.4375 8.6719-18.75 19.453-25.078 19.453s-16.641-10.781-25.078-19.453c-10.781-11.25-22.031-22.734-36.562-27.188-5.8594-1.875-11.719-2.3438-17.812-2.3438-10.078 0-20.391 1.875-30 3.75-9.375 1.6406-25.078 4.6875-28.828 1.875-4.9219-3.75-6.0938-18.75-7.0312-30.938-1.1719-14.531-2.3438-29.531-9.1406-41.953-6.7969-12.188-18.516-21.094-29.766-29.766-9.1406-7.0312-21.562-16.641-21.562-22.266s12.422-15.234 21.562-22.266c11.25-8.6719 22.969-17.812 29.766-29.766 7.0312-12.422 8.2031-27.422 9.1406-41.953 0.9375-12.188 2.1094-27.188 7.0312-30.938 3.75-2.8125 19.453 0 28.828 1.875 15 2.5781 32.344 5.625 47.812 0.9375zm-318.05-182.11c-6.7969-12.188-18.516-21.094-29.766-29.766-9.1406-7.0312-21.562-16.641-21.562-22.266s12.422-15.234 21.562-22.266c11.25-8.6719 22.969-17.812 29.766-29.766 7.0312-12.422 8.2031-27.422 9.1406-41.953 0.9375-12.188 2.1094-27.188 7.0312-30.938 3.75-2.8125 19.453 0 28.828 1.875 15.234 2.8125 32.344 5.8594 47.812 1.1719 14.531-4.4531 25.781-16.172 36.562-27.188 8.4375-8.6719 18.75-19.453 25.078-19.453s16.641 10.781 25.078 19.453c10.781 11.25 22.031 22.734 36.562 27.188 15.469 4.6875 32.578 1.6406 47.812-1.1719 9.375-1.6406 25.078-4.6875 28.828-1.875 4.9219 3.75 6.0938 18.75 7.0312 30.938 1.1719 14.531 2.3438 29.531 9.1406 41.953 6.7969 12.188 18.516 21.094 29.766 29.766 9.1406 7.0312 21.562 16.641 21.562 22.266s-12.422 15.234-21.562 22.266c-11.25 8.6719-22.969 17.812-29.766 29.766-7.0312 12.422-8.2031 27.422-9.1406 41.953-0.9375 12.188-2.1094 27.188-7.0312 30.938-3.75 2.8125-19.453 0-28.828-1.875-15.234-2.8125-32.344-5.8594-47.812-1.1719-14.531 4.4531-25.781 16.172-36.562 27.188-8.4375 8.6719-18.75 19.453-25.078 19.453s-16.641-10.781-25.078-19.453c-10.781-11.25-22.031-22.734-36.562-27.188-5.8594-1.875-11.719-2.3438-17.812-2.3438-10.078 0-20.391 1.875-30 3.75-9.375 1.6406-25.078 4.6875-28.828 1.875-4.9219-3.75-6.0938-18.75-7.0312-30.938-1.1719-14.766-2.3438-29.766-9.1406-42.188zm136.41 731.72c-0.23438 1.1719-0.46875 2.3438-0.46875 3.75v93.75h-131.25c-30.703 0-56.016-24.844-56.25-55.547l34.922-505.55c0.70312-11.25 10.078-19.922 21.328-19.922 9.375 0 17.344-6.7969 18.516-16.172l17.344-121.64c3.75-0.70312 7.5-1.1719 11.25-1.875 11.016-2.1094 23.438-4.2188 30-2.3438 5.3906 1.6406 13.594 10.078 20.625 17.578 14.062 14.531 29.766 30.703 52.031 30.703s38.203-16.406 52.031-30.703c7.2656-7.5 15.234-15.938 20.625-17.578 6.5625-2.1094 18.984 0.23438 30 2.3438 3.75 0.70312 7.5 1.4062 11.25 1.875l4.6875 33.281c-18.281-3.2812-38.672-6.0938-54.609 5.625-18.75 13.828-20.625 38.438-22.031 58.359-0.70312 10.078-1.6406 21.328-4.4531 26.484-3.0469 5.3906-11.719 12.188-19.922 18.516-16.172 12.422-36.328 27.891-36.328 52.031s20.156 39.609 36.328 52.031c8.4375 6.3281 16.875 13.125 19.922 18.516 2.8125 5.1562 3.75 16.406 4.4531 26.484 1.4062 19.688 3.2812 44.297 22.031 58.359 1.4062 0.9375 2.8125 1.875 4.2188 2.5781l-9.8438 69.375c-23.203 6.3281-41.719 25.312-46.641 49.688zm449.53 97.5h-412.5v-91.875l29.766-148.83c2.5781-12.656 13.594-21.797 26.484-21.797 9.375 0 17.344-6.7969 18.516-16.172l11.953-83.438c5.625-0.70312 11.25-1.6406 16.641-2.8125 11.016-2.1094 23.438-4.2188 30-2.3438 5.3906 1.6406 13.594 10.078 20.625 17.578 14.062 14.531 29.766 30.703 52.031 30.703s38.203-16.406 52.031-30.703c7.2656-7.5 15.234-15.938 20.625-17.578 6.5625-2.1094 18.984 0.23438 30 2.3438 5.3906 0.9375 11.016 2.1094 16.641 2.8125l11.953 83.438c1.4062 9.1406 9.1406 16.172 18.516 16.172 12.891 0 23.906 9.1406 26.484 21.797l29.766 148.83v91.875zm302.58-561.33 34.922 505.78c-0.23438 30.703-25.547 55.547-56.25 55.547h-243.75v-93.75c0-1.1719-0.23438-2.5781-0.46875-3.75l-30-150.7c-4.9219-24.375-23.438-43.359-46.641-49.688l-9.8438-69.375c1.4062-0.70312 2.8125-1.6406 4.2188-2.5781 18.75-13.828 20.625-38.438 22.031-58.359 0.70312-10.078 1.6406-21.328 4.4531-26.484 3.0469-5.3906 11.719-12.188 19.922-18.516 16.172-12.422 36.328-27.891 36.328-52.031s-20.156-39.609-36.328-52.031c-8.4375-6.3281-16.875-13.125-19.922-18.516-2.8125-5.1562-3.75-16.406-4.4531-26.484-0.23438-2.3438-0.23438-4.4531-0.46875-6.7969 15.938 8.2031 35.156 4.6875 52.266 1.4062 11.016-2.1094 23.438-4.2188 30-2.3438 5.3906 1.6406 13.594 10.078 20.625 17.578 14.062 14.531 29.766 30.703 52.031 30.703s38.203-16.406 52.031-30.703c7.2656-7.5 15.234-15.938 20.625-17.578 6.5625-2.1094 18.984 0.23438 30 2.3438 7.9688 1.4062 16.406 3.0469 24.844 3.5156l3.75 26.484c1.4062 9.1406 9.1406 16.172 18.516 16.172 11.484 0.23438 20.859 8.9062 21.562 20.156zm-16.641-174.14c-7.0312 12.422-8.2031 27.422-9.1406 41.953-0.9375 12.188-2.1094 27.188-7.0312 30.938-3.75 2.8125-19.453 0-28.828-1.875-15.234-2.8125-32.344-5.8594-47.812-1.1719-14.531 4.4531-25.781 16.172-36.562 27.188-8.4375 8.6719-18.75 19.453-25.078 19.453s-16.641-10.781-25.078-19.453c-10.781-11.25-22.031-22.734-36.562-27.188-5.8594-1.875-11.719-2.3438-17.812-2.3438-10.078 0-20.391 1.875-30 3.75-9.375 1.6406-25.078 4.6875-28.828 1.875-4.9219-3.75-6.0938-18.75-7.0312-30.938-1.1719-14.531-2.3438-29.531-9.1406-41.953-6.7969-12.188-18.516-21.094-29.766-29.766-9.1406-7.0312-21.562-16.641-21.562-22.266s12.422-15.234 21.562-22.266c11.25-8.6719 22.969-17.812 29.766-29.766 7.0312-12.422 8.2031-27.422 9.1406-41.953 0.9375-12.188 2.1094-27.188 7.0312-30.938 3.75-2.8125 19.453 0 28.828 1.875 15.234 2.8125 32.344 5.8594 47.812 1.1719 14.531-4.4531 25.781-16.172 36.562-27.188 8.4375-8.6719 18.75-19.453 25.078-19.453s16.641 10.781 25.078 19.453c10.781 11.25 22.031 22.734 36.562 27.188 15.469 4.6875 32.578 1.6406 47.812-1.1719 9.375-1.6406 25.078-4.6875 28.828-1.875 4.9219 3.75 6.0938 18.75 7.0312 30.938 1.1719 14.531 2.3438 29.531 9.1406 41.953 6.7969 12.188 18.516 21.094 29.766 29.766 9.1406 7.0312 21.562 16.641 21.562 22.266s-12.422 15.234-21.562 22.266c-11.25 8.4375-22.969 17.578-29.766 29.531z"/>
</svg>
