<?xml version="1.0" encoding="UTF-8"?>
<svg width="1200pt" height="1200pt" version="1.1" viewBox="0 0 1200 1200" xmlns="http://www.w3.org/2000/svg">
 <path d="m1079.5 395.72c-2.6719-1.4531-66.891-36.094-148.74-66.469-48.328-17.953-92.719-30.562-131.86-37.547-48.938-8.7188-90.188-8.6719-122.68 0.1875-1.4062-1.1719-3.375-3.2344-4.7812-4.7344-2.3906-2.4844-5.0625-5.25-8.0625-7.6406-7.5938-7.5938-59.812-57.234-127.22-57.234h-0.46875c-46.312 0.14062-81.656 15.469-105 45.469-8.2969 10.688-14.672 23.391-19.641 37.453-0.1875 0.32812-0.46875 0.51562-0.60938 0.89062-0.1875 0.46875-0.14062 0.9375-0.32812 1.4062-5.7656 17.203-9.2812 36.609-10.125 58.453-1.5469 40.5 5.9062 80.156 12.422 106.27 4.2188 17.062 6 26.859 7.9688 43.781 11.953 99.938 2.7656 147.37-8.7188 157.64-2.5312 2.25-7.875 0.75-15.891-4.4531-11.438-7.4062-24.234-20.156-35.484-31.453-9.2344-9.2344-17.25-17.203-24.422-22.406-44.719-32.344-131.76-83.578-211.78-63.703-6.8906 1.7344-11.719 7.9688-11.531 15.094l8.0156 396.05c0.09375 4.125 1.875 8.0625 4.875 10.875 2.8125 2.625 6.5156 4.0312 10.359 4.0312 0.28125 0 0.60938 0 0.89062-0.046876 20.953-1.2188 45.844-1.7344 72.188-2.25 67.453-1.3594 143.9-2.9062 212.34-16.453 83.109-16.453 135.32-47.391 159.61-94.547 28.078-54.375 10.031-164.72-5.8594-262.08-4.0781-24.984-7.9219-48.562-10.641-69.094-7.0781-54-4.0312-87.984 9.0938-101.06 12-12 36.938-8.7188 65.766-4.9219 2.7656 0.375 5.5781 0.75 8.4375 1.0781 30.984 3.9375 59.344 3.2344 89.344 2.4844 5.8594-0.14062 11.953-0.28125 18-0.42187l317.63-6.0938c6.9375-0.14063 12.891-4.9219 14.531-11.625 1.6406-6.7031-1.4531-13.688-7.5469-17.016zm-543.74-142.97h0.375c37.031 0 69.562 19.453 88.547 33.797-7.3125 11.719-13.078 23.953-17.109 36.703-11.625 0.9375-23.344 1.8281-35.203 1.8281-3.3281 0-7.0312-0.1875-10.5-0.28125-5.4844-17.438-21.188-30.375-40.406-30.375-15.516 0-28.5 8.6719-36.047 21.047-14.484-3.2344-28.125-7.2656-41.016-12.094 3-6.1406 6.375-11.859 10.312-16.875 17.297-22.266 44.578-33.562 81.094-33.703zm-14.297 72.141c6.8906 0 12.516 5.625 12.516 12.516s-5.625 12.516-12.516 12.516c-6.8906 0-12.516-5.625-12.516-12.516s5.625-12.516 12.516-12.516zm-376.97 316.78c43.688 3.375 83.812 12.797 113.81 27.656 29.906 14.812 47.062 33.422 47.062 51.188 0 17.484-16.734 35.906-45.938 50.578-29.344 14.766-68.719 24.281-111.8 27.938l-3.1875-157.31zm450.89-248.21c-18.703 0.9375-32.953 6.5625-43.547 17.156-21 21-26.484 60-17.766 126.56 2.7188 21 6.6562 44.859 10.781 70.078 14.391 88.078 32.297 197.76 8.8594 243.19-19.781 38.391-65.062 64.078-138.47 78.609-65.812 13.031-140.86 14.531-207.05 15.844-20.391 0.42188-39.891 0.79688-57.562 1.5469l-2.3906-117c47.625-3.8438 91.688-14.531 124.87-31.219 40.453-20.344 62.719-47.953 62.719-77.812 0-30.188-22.734-58.078-64.031-78.469-34.125-16.875-79.266-27.422-127.92-30.891l-0.65625-32.203c65.109-9.375 136.64 33.562 174.79 61.125 5.2031 3.75 12.75 11.297 20.719 19.266 12.328 12.328 26.344 26.297 40.453 35.438 8.9062 5.7656 16.969 9.0469 24.703 10.078 10.594 1.4062 20.344-1.5469 28.125-8.5312 15.328-13.734 23.297-42.141 24.281-86.906 0.79688-34.406-2.6719-71.719-5.6719-96.984-2.1094-18.141-4.125-29.25-8.6719-47.578-6.0469-24.234-12.938-60.844-11.531-97.734 0.46875-12.703 2.2031-24.094 4.5469-34.781 14.25 5.25 29.297 9.7031 45.188 13.172 3.8906 19.688 20.531 34.875 41.344 34.875 17.297 0 32.016-10.406 38.812-25.125 4.0312 0.09375 8.25 0.32812 12.094 0.32812 9.4688 0 18.75-0.89062 28.125-1.4531-1.3125 12.844-1.1719 26.016 0.51562 39.562-1.8281 0-3.7969-0.23438-5.5781-0.14062zm158.95 6.5156c-6.1406 0.09375-12.281 0.28125-18.188 0.42188-28.828 0.70312-56.062 1.4062-84.703-2.25-2.7656-0.375-5.5312-0.70312-8.2969-1.0781-3.6094-0.46875-6.9375-0.79688-10.453-1.2188-5.25-32.531-0.046875-62.297 15.281-88.969 0.51562 0.5625 0.9375 0.84375 1.4531 1.4062 6.4688 6.75 17.297 18 32.719 13.594 90.281-26.156 244.64 35.156 327.05 73.219l-254.9 4.875zm-225.24 420.66c7.5 3.8438 10.406 13.031 6.5625 20.531-12.656 24.562-40.219 43.828-81.938 57.234-27.844 8.9531-61.266 15.328-102.19 19.5-0.51562 0.046875-1.0312 0.09375-1.5469 0.09375-7.7344 0-14.344-5.8594-15.141-13.688-0.84375-8.3906 5.25-15.844 13.594-16.688 112.55-11.438 149.21-39.141 160.13-60.328 3.8438-7.5 13.031-10.406 20.531-6.5625zm-243.28 86.531c0.28125 8.3906-6.2812 15.469-14.719 15.75-17.156 0.60938-34.547 0.9375-51.328 1.2656-11.109 0.23438-22.641 0.46875-33.938 0.75h-0.42188c-8.2031 0-15-6.5625-15.234-14.812-0.23438-8.3906 6.4219-15.422 14.812-15.609 11.391-0.28125 22.969-0.51562 34.125-0.75 16.688-0.32812 33.984-0.70312 50.906-1.2656 8.3906-0.28125 15.469 6.2812 15.75 14.719zm427.45-538.22c-2.1094 6.375-8.0625 10.406-14.438 10.406-1.5938 0-3.2344-0.23438-4.8281-0.79688l-1.7812-0.60938c-7.9688-2.6719-12.281-11.297-9.6562-19.266 2.6719-7.9688 11.297-12.281 19.266-9.6562l1.7812 0.60938c7.9688 2.6719 12.281 11.297 9.6562 19.266z"/>
</svg>
