<?xml version="1.0" encoding="UTF-8"?>
<svg width="1200pt" height="1200pt" version="1.1" viewBox="0 0 1200 1200" xmlns="http://www.w3.org/2000/svg">
 <path d="m519.19 823.22c0 38.062 26.578 69.891 62.062 78.422v48c-19.969 28.969-68.812 27.188-86.578-3.9375-5.1562-8.9531-16.547-12.094-25.594-6.9844-9 5.1562-12.141 16.594-6.9844 25.594 15.984 28.031 44.812 44.766 77.109 44.766 23.297 0.046875 44.625-8.9531 60.797-24.328 16.172 15.375 37.5 24.375 60.75 24.375 32.25 0 61.078-16.734 77.109-44.766 5.1562-9 2.0156-20.438-6.9844-25.594-9.0469-5.1094-20.438-1.9688-25.594 6.9844-9.2344 16.172-25.875 25.875-44.531 25.875-17.25 0-32.484-8.5312-42.047-22.594v-47.344c35.531-8.4844 62.062-40.312 62.062-78.422 0-44.578-36.234-80.812-80.812-80.812-44.531-0.046875-80.766 36.234-80.766 80.766z"/>
 <path d="m529.31 690c0 48.797-73.219 48.797-73.219 0 0-48.844 73.219-48.844 73.219 0z"/>
 <path d="m743.9 690c0 48.797-73.219 48.797-73.219 0 0-48.844 73.219-48.844 73.219 0z"/>
 <path d="m1106.3 75c-10.359 0-18.75 8.3906-18.75 18.75 0 172.5-81.797 206.21-179.63 237.42 54.234-88.125 56.438-199.97 56.531-205.64 0.14062-10.359-8.2031-18.844-18.516-18.984-10.875 0.70312-18.844 8.1562-18.984 18.516 0 1.5-2.8125 149.68-83.344 227.21-47.906 17.203-100.12 42.562-137.34 94.922-32.203-14.344-68.109-22.641-106.22-22.641-38.109 0-74.016 8.2969-106.22 22.641-37.219-52.359-89.438-77.719-137.34-94.922-80.297-77.297-83.297-225.71-83.344-227.16-0.14062-10.312-8.4844-18.516-18.75-18.516h-0.23438c-10.359 0.14062-18.656 8.5781-18.516 18.938 0.046875 5.6719 2.2969 117.47 56.531 205.64-97.828-31.219-179.63-64.922-179.63-237.42 0-10.359-8.3906-18.75-18.75-18.75-10.359 0-18.75 8.3906-18.75 18.75 0 208.36 111.89 243.61 220.08 277.69 14.812 4.6406 29.719 9.3281 44.391 14.531 44.203 15.562 88.969 36.281 120.98 78.984-63.75 40.922-105.66 108.89-105.66 185.86v66.188c-41.578 61.125-54.281 134.02-35.766 205.82 25.406 98.625 111.52 175.64 219.28 196.22 20.672 4.0312 41.297 5.9531 61.734 5.9531 71.203-0.046875 139.31-23.625 193.13-68.156 61.078-50.484 96.094-122.86 96.094-198.52 0-50.156-15.234-98.859-44.062-141.28v-66.188c0-76.922-41.906-144.94-105.66-185.86 32.016-42.75 76.781-63.469 121.03-78.984 14.672-5.2031 29.578-9.8906 44.391-14.531 108.14-34.125 220.03-69.375 220.03-277.74 0-10.359-8.3906-18.75-18.75-18.75zm-298.55 575.81v72.094c0 3.9375 1.2188 7.7344 3.5156 10.922 26.531 37.172 40.594 80.203 40.594 124.45 0 64.406-30.094 126.28-82.547 169.64-60.562 50.109-142.18 69.844-223.92 54.328-92.156-17.578-168.52-85.406-189.98-168.74-16.219-62.906-4.3125-126.71 33.469-179.72 2.25-3.1406 3.4688-6.9375 3.4688-10.875v-72.094c0-104.06 93.188-188.76 207.71-188.76s207.71 84.703 207.71 188.76z"/>
</svg>
