<?xml version="1.0" encoding="UTF-8"?>
<svg width="1200pt" height="1200pt" version="1.1" viewBox="0 0 1200 1200" xmlns="http://www.w3.org/2000/svg">
 <path d="m1036.2 864.84c-14.766-23.438-39.375-86.016-39.375-243.28 0-297.19-223.36-383.67-291.8-403.12-102.19-29.062-169.22 31.875-187.5 51.562-16.875 3.75-73.359 11.25-148.59-28.594-102.42-54.141-156.8-45.703-162.89-44.531l-12.656 2.3438-3.75 12.422c-2.1094 7.5-4.4531 15.234-6.7969 22.734-13.594 44.297-27.656 90-20.156 138.75 6.7969 44.062 28.594 85.312 61.172 115.78 28.359 26.719 63.984 44.062 95.391 59.297l102.42 50.156c18.75 9.1406 37.969 18.516 50.859 32.812 9.375 10.312 17.109 27.422 11.484 41.016-5.625 13.828-23.672 20.625-38.203 21.328-18.516 0.70312-37.5-5.1562-57.891-11.719l-3.5156-1.1719c-64.453-20.391-137.11-21.797-199.22-4.2188l-10.078 2.8125-3.9844 9.6094c-12.422 30.469 0 67.266 33.047 98.906 25.312 23.906 58.828 34.922 85.078 41.719 6.7969 1.6406 13.359 3.2812 20.156 4.9219 20.625 4.9219 40.078 9.375 57.656 17.578 47.109 21.797 81.797 76.875 82.266 131.48l0.23438 21.094h589.69v-134.3zm-39.375 97.031h-506.25c-8.2031-63.516-49.453-122.81-105.47-148.59-21.562-9.8438-44.062-15.234-65.625-20.391-6.5625-1.6406-12.891-3.0469-19.453-4.6875-21.328-5.625-48.281-14.062-66.328-31.406-11.953-11.484-24.141-28.125-24.609-42.656 51.094-11.719 110.86-9.1406 162.66 7.0312l3.5156 1.1719c22.734 7.2656 46.875 14.531 72.422 13.594 34.688-1.4062 64.453-20.156 75.703-47.812 11.016-26.953 3.2812-60.703-19.453-85.781-18.281-20.156-42.422-31.875-63.516-42.188l-102.42-50.156c-30-14.766-61.172-30-85.078-52.266-25.781-24.141-42.891-56.484-48.047-91.172-6.0938-38.906 6.0938-78.281 18.75-119.77 0.9375-2.8125 1.6406-5.625 2.5781-8.4375 19.219 0.9375 60.234 7.5 123.05 40.547 105.47 55.781 183.52 31.172 186.8 30.234l6.0938-2.1094 3.9844-4.9219c0.46875-0.70312 56.016-68.672 147.66-42.891 78.516 22.266 260.86 102.19 260.86 362.34 0 151.17 22.5 224.77 42.656 260.39z"/>
 <path d="m571.64 355.78c0 17.605-14.27 31.875-31.875 31.875s-31.875-14.27-31.875-31.875 14.27-31.875 31.875-31.875 31.875 14.27 31.875 31.875z"/>
 <path d="m792.89 827.81-11.484 9.1406c-34.453 27.891-64.219 47.344-97.5 53.203-29.766 5.1562-68.203-5.1562-81.094-34.453-5.3906-12.188-6.0938-26.719-6.0938-39.609 0-25.078 2.8125-52.031 8.9062-82.5 4.2188-21.797 11.016-49.922 24.609-73.828 17.578-30.703 45.703-54.141 75.703-79.219 7.9688-6.7969 16.172-13.359 23.906-20.156 53.203-46.406 79.922-91.875 81.797-138.75l-42.422-1.6406c-1.4062 34.453-23.438 70.078-67.266 108.28-7.5 6.5625-15.234 13.125-23.203 19.453-31.406 26.25-63.984 53.203-85.312 90.703-16.641 29.062-24.375 61.641-29.297 86.719-6.5625 33.281-9.6094 62.812-9.6094 90.703 0 16.172 1.1719 37.266 9.8438 56.953 18.516 41.719 63.516 60.938 105 60.938 7.5 0 15-0.70312 22.266-1.875 44.766-7.7344 82.734-34.453 116.95-61.875l11.484-9.375c27.656-22.5 53.906-44.062 84.375-55.781l-15.469-39.609c-37.266 14.297-67.266 38.672-96.094 62.578z"/>
</svg>
