<?xml version="1.0" encoding="UTF-8"?>
<svg width="1200pt" height="1200pt" version="1.1" viewBox="0 0 1200 1200" xmlns="http://www.w3.org/2000/svg">
 <path d="m198.74 575.02c8.7188-0.09375 17.391-0.9375 25.922-2.5781-19.734 23.109-31.734 51.844-34.312 82.125-3.4219 37.312 9 74.391 34.312 102.05 25.312 27.703 61.078 43.453 98.578 43.406 55.828-0.51562 106.5-32.766 130.55-83.156l46.219-96v54.141c0.14063 45.469 30.938 85.125 75 96.469v353.53c0 13.828 11.156 24.984 24.984 24.984 13.828 0 24.984-11.156 24.984-24.984v-353.53c44.062-11.344 74.859-51 75-96.469v-54.188l46.219 96c24.047 50.391 74.719 82.688 130.55 83.203 37.5 0.046875 73.266-15.703 98.578-43.406 25.266-27.656 37.734-64.734 34.312-102.05-2.625-30.328-14.625-59.016-34.312-82.125 8.5312 1.5938 17.203 2.4844 25.922 2.5781 65.531 1.4062 122.95-43.781 136.97-107.81 8.6719-41.344-2.7656-84.375-30.844-115.97-30.375-34.594-75.234-53.016-121.18-49.688l-300.98 21.797h-0.046875c-4.2656-7.1719-9.4219-13.828-15.328-19.734 45.562-30.703 65.766-87.609 49.688-140.16-16.031-52.594-64.547-88.5-119.53-88.5s-103.5 35.906-119.53 88.5c-16.078 52.547 4.0781 109.45 49.688 140.16-5.9062 5.9062-11.062 12.562-15.375 19.734l-301.03-21.797c-45.891-3.2812-90.75 15.094-121.13 49.688-28.031 31.594-39.469 74.578-30.844 115.88 14.016 64.078 71.391 109.27 136.97 107.91zm733.36 154.08c-15.188 13.641-34.922 21.094-55.359 20.906-36.609-0.42188-69.797-21.703-85.453-54.844l-91.312-189.61v-57.047l215.06 136.6c25.734 16.031 42.328 43.266 44.766 73.453 2.4375 26.578-7.8281 52.734-27.703 70.547zm57.656-377.68c30.234-2.1562 59.766 9.9375 79.875 32.672 17.719 19.781 24.984 46.781 19.641 72.797-9.2812 40.828-46.172 69.328-88.031 68.109-15.844 0-31.406-3.9375-45.375-11.344l-255.89-134.76v-3.8906c0-0.89062-0.23437-1.6875-0.23437-2.5781zm-339.74 323.58c0 27.609-22.406 50.016-50.016 50.016s-50.016-22.406-50.016-50.016v-300c0.09375-5.5312 1.0781-11.062 2.9531-16.266 0.14062-0.32812 0.1875-0.70312 0.32812-1.0312 7.1719-19.641 25.828-32.672 46.734-32.672s39.609 13.078 46.734 32.719c0.09375 0.32812 0.1875 0.65625 0.32812 0.98438 1.875 5.25 2.8594 10.734 2.9531 16.266zm-125.02-474.98c0-30.328 18.281-57.703 46.312-69.328 28.031-11.578 60.281-5.1562 81.703 16.266 21.469 21.469 27.891 53.719 16.266 81.75-11.578 28.031-38.953 46.312-69.281 46.312-41.391-0.046875-74.953-33.609-75-75zm-24.984 305.53-91.266 189.66h-0.046875c-15.656 33.094-48.844 54.328-85.453 54.797-20.438 0.1875-40.172-7.3125-55.406-20.953-19.828-17.812-30.094-43.969-27.609-70.5 2.4375-30.188 18.984-57.422 44.672-73.453l215.11-136.6zm-369.66-121.45c18.469-20.953 45.047-32.953 72.984-32.906 2.2969 0 4.5469 0.09375 6.8438 0.23438l290.06 21c0 0.89062-0.23438 1.6875-0.23438 2.5781v3.8906l-255.89 134.76c-13.969 7.4062-29.531 11.344-45.375 11.344-41.859 1.2188-78.75-27.328-88.031-68.203-5.3438-25.969 1.9219-52.969 19.641-72.703z"/>
</svg>
