<?xml version="1.0" encoding="UTF-8"?>
<svg width="1200pt" height="1200pt" version="1.1" viewBox="0 0 1200 1200" xmlns="http://www.w3.org/2000/svg">
 <path d="m1039.5 500.16c0-3.2812-3.2812-339.61-279.61-339.61-212.81 0-278.91 178.59-294.84 237.66-3.75 0.70312-7.7344 1.6406-12.188 3.5156-27.188 11.016-49.688 33.984-73.594 58.125-28.359 28.594-60.469 61.172-106.64 81.797-95.391 42.656-109.69 88.125-111.09 93.047l-0.70312 5.1562c0 30.703 15.703 47.109 29.062 55.547 86.719 54.844 366.33-72.656 414.84-95.391 17.578 0.23438 35.391 1.875 47.578 3.9844-22.031 24.375-75 75.234-123.98 120-37.5 23.672-307.5 197.58-307.5 315.47h39.844c0-70.547 164.77-201.8 277.27-274.22 37.266 34.688 156.8 138.28 257.58 138.28 3.75 0 7.7344-0.23438 11.484-0.46875 36.797-3.0469 66.797-20.391 89.297-51.797 21.094-29.531 39.609-60 55.547-90.234h87.891v-39.844h-67.734c47.109-100.31 67.5-190.08 67.5-221.02zm-828.52 161.48c-4.6875-2.8125-9.375-7.2656-10.312-18.047 3.9844-7.9688 22.5-36.094 87.891-65.391 53.203-23.906 89.531-60.703 118.83-90.234 21.797-22.031 40.547-41.016 59.766-48.984 12.891 19.922 40.781 34.453 74.531 52.031 15.938 8.2031 32.344 16.641 47.578 26.25 12.422 7.5 13.125 14.062 13.359 15.938 1.1719 10.078-8.2031 23.438-14.531 30.234-118.83 56.25-324.14 131.95-377.11 98.203zm652.5 166.41c-15.469 21.562-34.922 33.047-60 35.156-82.266 6.7969-193.83-86.484-233.91-123.05 50.625-46.641 121.17-113.44 128.91-132.42 3.5156-8.2031 2.5781-17.344-2.3438-24.609-3.0469-4.6875-11.484-17.109-59.297-21.562 4.2188-9.6094 7.0312-20.625 5.8594-32.344-1.4062-12.891-7.9688-31.406-32.109-46.172-16.641-10.078-33.75-18.984-50.156-27.656-22.5-11.719-52.266-27.188-59.297-37.969 7.5-35.625 55.781-217.27 258.75-217.27 236.95 0 239.77 296.72 239.77 299.53 0 39.609-40.547 194.53-136.17 328.36z"/>
 <path d="m739.92 350.39c0 16.57-13.43 30-30 30s-30-13.43-30-30 13.43-30 30-30 30 13.43 30 30z"/>
</svg>
