<?xml version="1.0" encoding="UTF-8"?>
<svg width="1200pt" height="1200pt" version="1.1" viewBox="0 0 1200 1200" xmlns="http://www.w3.org/2000/svg">
 <path d="m924.19 330.19c-64.688-87.188-159-139.13-273.19-150.37-234.19-22.688-292.87 104.25-306.37 149.26-64.688 7.3125-111.19 32.062-138 74.062-49.312 77.25-12.375 182.06-10.875 186.56 2.625 7.5 9.75 12.375 17.625 12.375h0.9375c8.25-0.375 15.188-6.1875 17.25-14.25 2.0625-8.25 5.625-15.562 9.9375-22.312 48.375 8.625 89.812 12.375 124.69 12.375 9.9375 0 19.312-0.375 28.125-0.9375-5.8125 45-21 65.812-39.562 91.312-19.688 27-42 57.562-58.312 119.81-31.312 118.88 27.375 181.13 30 183.74 5.0625 5.25 12.75 7.125 19.688 4.6875s11.812-8.625 12.375-15.938c6-66.75 53.625-114.94 85.688-140.44 0 89.812 32.812 145.69 34.312 148.5 4.875 8.25 15.188 11.438 23.812 7.5 66.188-30.375 96.188-86.812 109.5-127.13 48.75 82.875 63.75 158.06 63.938 159 1.3125 6.75 6.1875 12.188 12.75 14.25 1.875 0.5625 3.75 0.9375 5.625 0.9375 4.6875 0 9.375-1.875 12.938-5.25 49.5-47.25 77.062-119.25 89.438-160.31 38.625 42.375 71.438 108.75 71.812 109.5 3.375 6.75 10.5 10.875 17.812 10.5 7.5-0.375 14.062-5.25 16.688-12.375 18.188-51 21.188-111 20.25-154.31l42 50.438c4.6875 5.625 12 7.875 18.938 6.1875s12.375-7.3125 13.688-14.438c43.125-213.94 16.875-399.56-74.25-522.56zm-685.69 93c21.188-33.188 60.562-52.688 116.62-57.75h3.1875c14.812 0 27.938 9.375 30.562 22.5 1.3125 6.9375 1.6875 14.812 0.75 23.438-2.4375 21.75 9.375 39 27 52.312-70.688 3.1875-153.19 18.375-195.94 66.75-4.125-31.688-3.5625-73.688 17.625-107.06zm38.438 110.06c60-34.5 163.69-36.188 228.94-30.938-23.812 22.312-83.812 52.125-228.94 30.938zm691.87 273-53.625-64.125c-5.4375-6.375-14.25-8.4375-21.938-5.0625s-12.188 11.438-11.062 19.688c0 0.9375 10.312 78.938-2.8125 151.69-19.5-32.812-49.312-76.5-81-100.88-5.0625-3.9375-11.812-5.0625-18-2.625-6 2.25-10.5 7.3125-11.812 13.688-0.1875 0.9375-18.562 85.688-64.688 146.81-12-39.75-37.125-107.44-84.75-174.94-4.5-6.375-12.562-9.375-20.25-7.3125s-13.125 8.625-13.875 16.5c0 0.9375-8.625 89.062-81.75 133.5-10.312-25.125-27-77.812-19.5-148.13 0.75-6.9375-2.4375-13.688-8.25-17.625-5.8125-3.75-13.312-4.125-19.312-0.9375-4.3125 2.25-91.125 50.625-123.56 139.87-7.875-24.562-12.375-60.938 0.1875-108.94 14.625-55.312 33.75-81.75 52.312-107.25 21.188-29.062 41.25-57.188 47.25-117.75 106.5-18 123.19-77.625 124.13-81.188v-0.9375c0-0.375 0.1875-0.5625 0.375-0.75v-2.625c0-1.3125 0-2.625-0.1875-3.75-0.1875-1.3125-0.75-2.4375-1.3125-3.75-0.375-0.9375-0.75-1.6875-1.125-2.4375-0.9375-1.5-2.0625-2.625-3.5625-3.9375-0.375-0.375-0.75-0.75-1.125-0.9375-1.6875-1.3125-3.5625-2.0625-5.625-2.8125-0.1875 0-0.375-0.1875-0.5625-0.375h-0.1875c-0.5625 0-1.125-0.5625-1.6875-0.5625-48.375-7.3125-117-30.562-114.56-53.062 1.3125-12.375 0.9375-24.188-1.3125-34.875-4.6875-22.875-21.562-40.312-43.125-48 13.5-39.938 66.75-134.26 264.74-115.12 103.12 10.125 188.44 56.812 246.56 135.37 79.312 107.06 105.38 267 74.812 453.74z"/>
 <path d="m697.13 345.74c-22.5-26.062-55.125-40.875-89.438-40.875h-118.5c-10.312 0-18.75 8.4375-18.75 18.75s8.4375 18.75 18.75 18.75h20.062c-5.0625 9.75-8.25 20.625-8.25 32.438 0 38.625 31.312 69.938 69.938 69.938s69.938-31.312 69.938-69.938c0-9.5625-1.875-18.75-5.4375-27.188 12.75 4.6875 24.375 12.188 33.562 22.688l16.688 19.125c3.75 4.3125 9 6.5625 14.25 6.5625 4.3125 0 8.625-1.5 12.188-4.5 7.875-6.75 8.625-18.562 1.875-26.438l-16.688-19.125zm-126.37 61.312c-17.812 0-32.438-14.625-32.438-32.438s14.438-32.438 32.438-32.438 32.438 14.625 32.438 32.438-14.625 32.438-32.438 32.438z"/>
</svg>
