<?xml version="1.0" encoding="UTF-8"?>
<svg width="1200pt" height="1200pt" version="1.1" viewBox="0 0 1200 1200" xmlns="http://www.w3.org/2000/svg">
 <path d="m600 1e3c-6.6328-0.003906-12.992 2.6289-17.684 7.3164-4.6875 4.6914-7.3203 11.051-7.3164 17.684v100c0 8.9297 4.7656 17.184 12.5 21.652 7.7344 4.4648 17.266 4.4648 25 0 7.7344-4.4688 12.5-12.723 12.5-21.652v-100c0.003906-6.6328-2.6289-12.992-7.3164-17.684-4.6914-4.6875-11.051-7.3203-17.684-7.3164z"/>
 <path d="m759.13 1012.5c-3.293-5.7852-8.7578-10.016-15.18-11.754-6.4219-1.7422-13.273-0.84766-19.035 2.4805-5.7617 3.3281-9.957 8.8203-11.656 15.254-1.6992 6.4336-0.76172 13.281 2.6055 19.02l50 86.598c3.293 5.7812 8.7578 10.012 15.18 11.754 6.4219 1.7422 13.273 0.84766 19.035-2.4805 5.7617-3.332 9.957-8.8203 11.656-15.254 1.6992-6.4336 0.76172-13.281-2.6055-19.02z"/>
 <path d="m938.77 978.34-86.625-50c-7.7344-4.4648-17.266-4.4648-25.004 0.003906-7.7344 4.4648-12.5 12.723-12.5 21.656 0 8.9297 4.7695 17.184 12.504 21.652l86.625 50c7.7383 4.4648 17.27 4.4648 25.004-0.003906 7.7344-4.4648 12.5-12.723 12.5-21.656 0-8.9297-4.7656-17.184-12.504-21.652z"/>
 <path d="m475 1003.3c-5.7383-3.3086-12.559-4.2031-18.957-2.4883-6.4023 1.7188-11.855 5.9062-15.168 11.645l-50 86.598c-3.3672 5.7383-4.3047 12.586-2.6055 19.02 1.6992 6.4336 5.8945 11.922 11.656 15.254 5.7617 3.3281 12.613 4.2227 19.035 2.4805 6.4219-1.7422 11.887-5.9727 15.176-11.754l50-86.598c3.3281-5.7383 4.2344-12.566 2.5195-18.973-1.7148-6.4102-5.9102-11.871-11.656-15.184z"/>
 <path d="m347.85 928.34-86.625 50c-7.7383 4.4688-12.504 12.723-12.504 21.652 0 8.9336 4.7656 17.191 12.5 21.656 7.7344 4.4688 17.266 4.4688 25.004 0.003906l86.625-50c7.7344-4.4688 12.504-12.723 12.504-21.652 0-8.9336-4.7656-17.191-12.5-21.656-7.7344-4.4688-17.27-4.4688-25.004-0.003906z"/>
 <path d="m1025.1 559.67c-34.965-84.426-125.65-165.84-225.62-214.35-0.91016-38.855-13.125-76.605-35.156-108.62-22.031-32.023-52.914-56.926-88.879-71.668 2.3906-26.82 14.582-65.027 49.516-65.027 8.9297 0 17.184-4.7656 21.652-12.5 4.4648-7.7344 4.4648-17.266 0-25-4.4688-7.7344-12.723-12.5-21.652-12.5-57.777 0-91.234 48.684-98.457 102.68-8.7773-1.4961-17.645-2.3906-26.543-2.6836-8.8984 0.29297-17.766 1.1875-26.543 2.6836-7.2227-54-40.68-102.68-98.457-102.68-8.9297 0-17.184 4.7656-21.652 12.5-4.4648 7.7344-4.4648 17.266 0 25 4.4688 7.7344 12.723 12.5 21.652 12.5 34.934 0 47.125 38.207 49.508 65.027-35.961 14.742-66.848 39.645-88.879 71.668-22.027 32.02-34.246 69.77-35.156 108.62-99.973 48.508-190.66 129.92-225.62 214.35-28.418 68.652-16.895 133.64 32.469 183.01 22.984 25.082 55.199 39.707 89.211 40.5 17.199-0.18359 34.195-3.7773 50-10.57 4.6992-1.9492 9.293-4.7344 13.934-7.1641 14 52.887 45.09 99.66 88.438 133.04 43.344 33.379 96.512 51.492 151.22 51.516 54.707 0.023438 107.89-18.043 151.27-51.383 43.375-33.344 74.508-80.09 88.555-132.96 4.5 2.3438 8.957 5.0625 13.516 6.9531 15.805 6.793 32.801 10.387 50 10.57 34.012-0.79297 66.23-15.418 89.211-40.5 49.367-49.367 60.891-114.36 32.469-183.01zm-425.14-359.67c35.113 0.074219 69.086 12.461 96.004 35.004 26.918 22.543 45.074 53.816 51.305 88.371-39.16-14.637-80.512-22.539-122.31-23.375h-50c-41.797 0.83594-83.152 8.7422-122.31 23.383 6.2305-34.555 24.387-65.832 51.305-88.375 26.918-22.547 60.891-34.934 96.004-35.008zm-272.56 526.42c-31.641 13.184-58.594 7.0781-84.766-19.094-35.109-35.133-42.383-78.375-21.633-128.52 43.75-105.61 201.86-213.09 327.05-227.25-15.234 117.73-120.61 333.43-220.65 374.86zm272.56 173.58c-46.773-0.16797-91.984-16.84-127.66-47.082-35.68-30.242-59.539-72.113-67.367-118.23 102.46-88.715 181.84-278.11 193.49-384.69h3.0859c11.652 106.58 91.02 295.96 193.47 384.68h0.003906c-7.5781 46.23-31.363 88.25-67.094 118.54-35.73 30.293-81.078 46.879-127.92 46.785zm357.32-192.68c-26.172 26.172-53.125 32.277-84.766 19.094-100.05-41.43-205.42-257.12-220.66-374.86 125.2 14.16 283.3 121.63 327.05 227.25 20.754 50.141 13.477 93.379-21.629 128.51z"/>
</svg>
