<?xml version="1.0" encoding="UTF-8"?>
<svg width="1200pt" height="1200pt" version="1.1" viewBox="0 0 1200 1200" xmlns="http://www.w3.org/2000/svg">
 <path d="m1037.6 760.78-71.953-161.25 71.953-161.48c4.2188-9.375 1.6406-20.391-6.5625-26.719-7.9688-6.3281-19.453-6.5625-27.656-0.46875l-179.53 134.77c-35.391-37.266-97.734-93.281-177.89-127.97l-72.891-191.02-219.61 197.58c-64.453 32.812-126.09 87.188-183.75 163.12l-9.1406 12.188 9.1406 12.188c57.422 75.234 118.36 129.38 182.34 162.42l-0.23438 0.23438 221.02 199.22 73.359-192.42c79.922-34.453 142.27-90.469 177.42-127.73l179.53 134.77c8.2031 6.0938 19.688 6.0938 27.656-0.46875s11.016-17.578 6.7969-26.953zm-481.17-465.7 40.078 105c-32.812-9.1406-67.734-14.297-104.77-12.891-14.297 0.46875-28.359 2.1094-42.422 4.4531zm0 609.84-108.75-97.969c14.531 2.5781 29.297 4.2188 44.062 4.9219 4.2188 0.23438 8.4375 0.23438 12.422 0.23438 32.578 0 63.516-5.1562 92.812-13.359zm262.27-305.16-12.188 13.594c-34.453 38.672-159.38 164.3-313.12 158.44-99.844-3.75-194.77-61.875-282.42-172.5 87.422-110.62 182.58-168.52 282.42-172.5 153.75-5.8594 278.67 119.77 313.12 158.44l12.188 13.594 155.39-116.48-52.031 116.72 52.031 116.72z"/>
 <path d="m365.16 599.77c0 22.004-17.84 39.844-39.844 39.844s-39.844-17.84-39.844-39.844 17.84-39.844 39.844-39.844 39.844 17.84 39.844 39.844z"/>
</svg>
