<?xml version="1.0" encoding="UTF-8"?>
<svg width="1200pt" height="1200pt" version="1.1" viewBox="0 0 1200 1200" xmlns="http://www.w3.org/2000/svg">
 <path d="m1033.8 807.42c-4.4531-4.4531-7.7344-10.078-9.8438-15.703-2.5781-7.2656-3.5156-16.172-2.8125-28.594 1.1719-21.328 5.8594-42.188 14.062-62.344 0.70312-1.6406 1.1719-3.5156 1.4062-5.3906 0.70312-5.8594 14.297-146.25-45.938-215.62-11.484-13.359-24.844-23.203-40.078-29.766 40.078-42.188 97.266-133.36 42.188-276.09-2.8125-7.2656-9.6094-12.422-17.578-12.656-6.7969-0.23438-165.7-7.2656-273.52 136.64-21.562-6.0938-63.516-16.406-101.48-16.641h-1.6406c-37.734 0.23438-79.688 10.781-101.25 16.641-107.81-143.91-266.72-137.11-273.52-136.64-7.7344 0.46875-14.766 5.3906-17.578 12.656-54.844 142.73 2.3438 233.91 42.188 276.09-15.234 6.5625-28.594 16.406-40.078 29.766-60.234 69.609-46.406 209.77-45.938 215.62 0.23438 1.875 0.70312 3.75 1.4062 5.3906 8.2031 20.156 12.891 41.016 14.062 62.344 0.70312 12.422-0.23438 21.328-2.8125 28.828-1.875 5.625-5.3906 11.016-9.8438 15.703-3.5156 3.75-5.625 8.6719-5.625 13.828 0 7.0312 3.2812 13.828 9.1406 18.281 6.0938 4.9219 17.578 13.828 94.688-4.6875 4.2188-0.9375 8.2031-2.1094 11.719-3.5156 5.8594 11.484 14.766 22.969 26.719 34.219 5.8594 5.625 12.422 10.781 18.75 16.172 9.6094 7.9688 18.75 15.469 25.781 23.906 8.2031 9.6094 15.703 23.906 11.719 35.156-2.3438 6.5625-0.9375 13.828 3.2812 19.219s11.25 8.2031 18.047 7.2656c26.016-3.2812 49.453-16.172 65.859-34.453 6.3281 8.6719 14.531 16.641 24.141 23.906 15.703 11.953 33.047 20.391 49.922 28.828 5.3906 2.8125 11.016 5.3906 16.406 8.2031 4.9219 2.5781 8.6719 7.5 13.359 13.594 8.6719 11.484 20.625 26.953 45.469 31.875 1.1719 0.23438 4.2188 0.46875 5.3906 0.46875s2.5781-0.23438 3.75-0.46875c24.844-4.9219 36.562-20.391 45.469-31.875 4.6875-6.3281 8.4375-11.25 13.359-13.594 5.3906-2.8125 11.016-5.625 16.406-8.2031 16.875-8.2031 34.219-16.875 49.922-28.828 9.6094-7.2656 17.812-15.469 24.141-23.906 16.406 18.281 39.844 31.406 65.859 34.453 6.7969 0.70312 13.594-1.875 18.047-7.2656 4.2188-5.3906 5.625-12.656 3.2812-19.219-3.9844-11.25 3.5156-25.547 11.719-35.156 7.2656-8.4375 16.172-15.938 25.781-23.906 6.3281-5.3906 12.656-10.547 18.75-16.172 11.953-11.25 20.859-22.5 26.719-34.219 3.75 1.4062 7.5 2.5781 11.719 3.5156 23.203 5.625 78.75 17.109 95.391 3.75 4.9219-3.75 8.4375-11.484 8.4375-17.578 0.70312-5.3906-1.4062-10.312-4.9219-13.828zm-794.3-606.8c38.672 1.4062 154.45 15.938 234.14 131.25 4.9219 7.2656 14.297 10.312 22.734 7.7344 0.46875-0.23438 56.719-18.281 103.83-18.984h0.70312c45.938 0.46875 102.66 18.75 103.36 18.984 8.4375 2.8125 17.578-0.46875 22.734-7.7344 79.453-115.31 195.47-129.84 233.91-131.25 56.016 164.3-57.891 239.77-62.812 242.81-7.5 4.6875-10.781 13.594-8.6719 22.031 0.70312 2.3438 1.6406 4.4531 3.0469 6.3281-56.25-4.9219-125.86 0.9375-185.86 41.719-50.859 34.688-86.484 89.062-106.41 161.95-20.156-72.188-55.312-126.09-105.94-160.78-60.234-41.25-130.31-47.109-186.56-42.422 1.4062-2.1094 2.8125-4.2188 3.5156-6.7969 2.3438-8.4375-1.1719-17.344-8.4375-22.031-5.625-3.0469-119.53-78.516-63.281-242.81zm757.97 487.73c-9.1406 23.203-14.531 47.578-15.938 72.422-0.70312 10.781-0.70312 26.719 4.4531 42.422-12.656-1.6406-27.891-4.2188-41.016-7.2656-12.188-2.8125-15.469-6.3281-16.406-7.7344-4.9219-7.2656-14.062-10.547-22.266-7.9688-8.4375 2.5781-14.062 10.078-14.297 18.984-0.23438 13.828-12.188 27.891-22.031 37.266-5.3906 5.1562-11.25 9.8438-16.875 14.531-10.547 8.6719-21.328 17.578-30.703 28.594-11.016 12.891-18.281 26.719-21.094 40.547-15.938-8.6719-28.125-23.672-30.234-39.375-1.4062-10.547-10.781-18.047-21.328-17.344s-18.75 9.8438-18.516 20.391c0.23438 13.359-9.375 28.828-25.781 41.25-12.656 9.6094-27.656 16.875-43.359 24.844-5.8594 2.8125-11.484 5.625-17.344 8.6719-12.656 6.5625-20.391 16.641-26.484 24.844-6.7969 8.9062-10.781 13.828-18.281 16.172-7.5-2.3438-11.484-7.2656-18.281-16.172-6.0938-8.2031-13.828-18.281-26.484-24.844-5.625-3.0469-11.484-5.8594-17.109-8.6719-15.703-7.7344-30.703-15.234-43.359-24.844-16.406-12.422-26.25-27.891-25.781-41.25 0.23438-10.547-7.9688-19.453-18.516-20.391h-1.4062c-9.8438 0-18.516 7.5-19.688 17.344-2.1094 15.703-14.062 30.703-30.234 39.375-2.8125-13.828-10.078-27.656-21.094-40.547-9.375-11.016-20.156-19.922-30.703-28.594-5.625-4.6875-11.484-9.375-16.875-14.531-9.8438-9.375-21.797-23.203-22.031-37.031 0-8.6719-5.8594-16.406-14.297-18.984s-17.344 0.70312-22.266 7.9688c-0.9375 1.4062-4.2188 4.6875-16.406 7.7344-15.703 3.75-30 6.5625-41.25 8.2031 5.3906-15.703 5.3906-31.406 4.6875-43.359-1.4062-24.844-6.7969-48.984-15.938-72.422-1.4062-16.172-6.5625-101.95 20.859-158.44 31.172-10.312 156.09-45 247.73 17.812 61.875 42.422 97.5 121.41 106.17 234.84-33.047 7.2656-57.422 30-57.422 57.188 0 33.047 35.859 60 79.922 60s79.922-26.719 79.922-60c0-27.188-24.375-49.922-57.422-57.188 8.6719-114.14 44.297-193.36 106.41-235.78 91.641-62.578 216.56-27.188 247.73-16.875 27.188 56.25 21.797 142.03 20.625 158.2z"/>
 <path d="m420.23 650.16c0 16.57-13.43 30-30 30s-30-13.43-30-30 13.43-30 30-30 30 13.43 30 30z"/>
 <path d="m819.14 650.16c0 16.57-13.43 30-30 30s-30-13.43-30-30 13.43-30 30-30 30 13.43 30 30z"/>
 <path d="m340.31 420.23 79.922-60s-52.734-99.844-139.92-99.844c0 0.23438-32.812 91.406 60 159.84z"/>
 <path d="m919.69 260.62c-87.188 0-139.92 99.844-139.92 99.844l79.922 60c92.812-68.672 60-159.84 60-159.84z"/>
</svg>
