<?xml version="1.0" encoding="UTF-8"?>
<svg width="1200pt" height="1200pt" version="1.1" viewBox="0 0 1200 1200" xmlns="http://www.w3.org/2000/svg">
 <path d="m514.74 896.58c-3.4219 0.5625-5.9062 3.6562-5.8125 7.1719-0.14062 13.734 5.5312 24.516 17.109 30.281 3.7969 1.7812 8.2031 2.5781 12.469 3.6094l2.1094 0.46875c2.5781 0.60938 5.3438-0.51562 6.7969-2.9062 9-20.156-11.109-43.078-32.672-38.672z"/>
 <path d="m689.63 897.98c-4.3594 1.6406-8.0156 4.2188-11.062 7.4531-5.8594 6.0938-9.5156 16.172-7.6406 25.031 0.65625 4.2188 3.5625 8.8594 8.5312 7.6875 1.9219-0.42188 4.0312-0.98438 5.9062-1.3594 16.125-2.8125 26.297-16.125 25.781-33.047 0-10.594-16.078-7.875-21.469-5.8125z"/>
 <path d="m383.9 597.19c-48.047 0-44.203 108 9.0938 112.64s48.844-112.64-9.0938-112.64z"/>
 <path d="m820.92 597.19c-57.938 0-62.391 117.28-9.0938 112.64s57.141-112.64 9.0938-112.64z"/>
 <path d="m1135.3 331.78c-6.2812-70.547-72.141-123.32-141.98-114.75-44.812 5.0156-85.547 28.219-120.1 53.484-15.234 11.109-30.609 23.391-41.531 38.766-2.9531-2.3906-5.9062-4.6875-8.9531-6.9844 2.9062-31.125 21-57.703 40.641-81.656 3.5156-4.125 11.859-14.344 15.188-18.328 6.0469-6.8438 11.062-15.891 12.469-25.125 4.8281-30.891-19.641-58.031-41.672-73.688-46.969-34.781-129.61-45.469-152.29 22.031-9.6562 30.938-4.1719 58.312-0.98438 87.75 0.28125 3.9375-0.046875 7.7344-0.51562 11.766-1.125 8.3906-3.0469 17.297-5.4375 26.109-27.516-7.4531-56.531-8.3438-84.516-8.1094-29.391 0.70312-58.312 3.4688-87.141 7.9219-12-28.828-11.062-55.125-1.6875-87.938 1.3125-5.0156 2.5312-10.828 3.2812-16.031 2.0625-14.344-5.2031-29.109-15.047-37.828-22.266-19.641-54.188-24.75-82.594-22.594-37.312 3.1406-74.25 21.938-96.328 52.641-18.328 25.312-17.156 58.031-0.75 83.531 13.359 21.609 33.047 37.594 52.172 52.172l2.8125 2.1562 0.46875 0.375c0.046875 0.09375 0.09375 0.14062 0.14062 0.23438 0.79688 1.3594 2.0156 4.5938 2.9531 8.25 1.875 7.6875 2.8594 15.938 3.3281 24.234-6.2812 3.5625-12.469 7.4062-18.516 11.438-5.9062-10.594-13.828-20.109-22.688-28.406-36.844-35.25-84.188-63.422-136.55-69.188-31.359-3.0469-65.953 0.09375-93.984 15.703-50.016 27.703-60.984 88.031-44.391 138.32 14.062 44.016 44.016 81.141 81.938 106.73 24.844 16.641 53.203 27.891 82.453 33.234 4.4062 0.89063 9 1.2656 13.5 1.0781-10.969 68.109-20.812 136.78-20.531 206.16 0.046875 47.438 4.3594 96.656 20.344 142.26 14.203 41.625 40.969 82.078 79.688 104.2 15.328 48.844 56.109 89.859 100.03 113.34 60.984 33.469 132.14 43.172 200.68 37.969 53.25-4.5469 106.83-15.047 154.22-41.156 57.609-31.969 85.594-81.891 88.875-138.84 20.953-11.109 39.516-28.031 52.922-48.141 9.2344-13.641 16.641-28.406 22.172-43.594 33.234-97.969 15.047-216.84 2.7188-317.44-0.89062-6.8438-1.8281-13.969-2.9062-21.094 3.9375 0.23438 7.8281 0.046875 11.672-0.65625l10.688-1.5 10.688-2.1562c21.656-4.5 42.656-11.859 62.438-22.219 55.5-28.828 99.188-88.875 92.484-154.5zm-300.71-161.76s0 0.046875 0.046876 0.046875c0.09375 0.09375-0.046876 0 0-0.046875zm2.0625-6.6094 0.046876-0.046875-0.046876 0.09375-0.28125 0.32812s-0.09375 0.09375-0.1875 0.23438c0.046876-0.046875 0.046876-0.09375 0.09375-0.1875 0.14063-0.1875 0.23438-0.32812 0.375-0.46875zm-591.05 305.81c-22.266-5.3438-43.266-15.094-61.594-28.688-26.484-19.406-48.516-48.609-57.469-79.453-5.2969-18-6.5156-38.672 1.875-54.469 6.5625-13.031 20.953-20.625 35.25-23.438 13.172-3 26.906-3.9375 40.359-2.8125 34.312 2.6719 65.25 17.906 93.094 39.328 12.188 9.5625 23.531 20.672 36.094 29.906-28.734 26.578-52.031 58.969-66.75 95.297-1.6406 3.6562-3.1406 8.2969-4.5 12.188-1.0781 3.4688-3.1875 9-3.7969 12.516-0.14063 0.65625-0.46875 1.9219-0.84375 3.3281-3.7969-1.5938-7.6875-2.8125-11.719-3.6562zm447.61 584.81c-78.234 17.812-165.1 18.984-237.47-18.984-39.75-21.375-78.844-58.875-79.641-106.36-0.09375-5.4844 0.65625-10.453 1.8281-16.125 3.0938-17.484 9.4688-34.781 19.031-49.781 9.375-15.469 22.547-28.828 36.703-40.031 4.8281-3.6562 10.312-7.6875 15.516-10.922 22.594-14.578 46.875-28.781 66.328-48.328l1.2656 3.5625c26.578-4.125 53.109-3.5156 79.219-1.4531 26.109 2.2969 52.312 4.4531 77.859 10.734 37.266 9.2344 73.969 23.438 103.17 47.438 9.1406 7.5938 17.531 16.688 22.781 27.375 8.2969 21.094 13.875 44.625 15.516 66.891 6.9375 81.562-50.719 118.55-122.16 135.94zm185.21-164.02c-2.4844 4.125-5.0625 8.0625-7.7812 11.859-1.5469-11.438-3.9375-23.016-7.1719-34.688-4.4531-15.891-9.0469-32.062-17.297-46.453-16.734-28.875-45.797-49.969-74.531-64.922-41.438-21.141-85.219-32.859-130.78-37.781-45.234-5.1562-92.344 3.5156-132.56 25.031l1.2656 3.5625c-15.281-1.5-30.516 0.65625-45.188 4.6406-22.031 5.8125-42.609 17.812-61.031 31.406-12.609 9.4219-24.891 20.578-35.203 32.391-14.578 17.109-26.203 36.703-34.219 57.703-5.3438 15.188-9.6094 31.078-11.297 47.25-5.7656-8.6719-10.734-17.859-14.953-27.469-32.953-79.547-30.141-170.63-21.703-255.56 4.875-46.312 13.547-92.953 21.234-139.22l1.2656-7.0312c1.125-3.7969 1.9219-7.875 3.1875-11.672 9.7031-30.281 27.609-57.562 49.828-80.203 19.031-19.312 41.531-35.297 65.906-46.969 9.1875-4.1719 15.656-13.359 15.938-24.141 0.375-30.328-1.2188-74.156-27.609-94.828-13.781-11.203-53.859-39.516-44.672-58.172 16.875-27.094 60.094-39.234 89.812-26.203-0.375 1.4062-0.70312 2.8125-1.0781 4.1719-9.3281 33.516-11.766 67.641-1.5469 102.05 3.6094 11.719 8.3906 23.953 14.25 34.781l4.3125 8.1562c5.4844 10.359 17.203 16.453 29.344 14.297 33.047-6 67.125-9.75 100.59-10.453 23.906-0.23438 47.297 0.5625 69.703 6.4688 9 2.2031 15.094 5.6719 22.406 9 14.953 5.4844 31.547-2.25 36.984-17.203 8.0625-22.406 14.438-43.547 17.672-67.734 1.2656-9.9375 1.4062-20.719 0-30.703-1.8281-15.844-9.0469-56.438 4.0781-65.297 21.938-9.2812 63.516 10.922 75.703 31.5-11.719 14.391-23.906 28.688-34.406 44.531-18.844 27.844-32.344 61.688-32.438 96l0.09375 9.6562c0.09375 9.1406 5.25 18.141 13.828 22.781 2.3438 1.4531 4.8281 3.0469 7.0312 4.6875 18.844 13.406 35.625 29.766 50.203 47.812 29.625 36.422 49.266 80.625 57.094 126.89 9.4688 64.172 19.125 128.86 20.625 193.31 1.4531 60.703-6.3281 123.56-36.891 176.72zm106.97-436.13c-4.7344 1.5-12.047 4.0781-16.781 5.1562l-8.5781 2.2031-8.7656 1.6875c-5.1562 0.98438-9.8906 2.25-14.344 4.0781-14.156-46.828-39-90.562-72.094-126.66 11.016-6.4219 21.234-14.344 31.359-21.891 36.891-26.109 87.047-54.656 130.78-42.234 26.812 8.6719 47.672 33.141 50.297 61.359 5.1562 55.031-42.703 99.047-91.828 116.2z"/>
 <path d="m740.48 403.4c-2.5312 0.32812-4.3594 2.625-4.0312 5.1562 1.5938 11.578 3.1406 23.531 2.6719 35.156-0.46875 9.9844-1.9219 20.719-8.0156 28.875-12.656 15.891-39.047 9.4688-55.688 3.5625-8.3906-1.6875-15.141 4.3594-16.031 12.562l-0.60938 2.8125c-5.0625 20.812-14.297 46.547-34.547 55.688-4.4062 1.4531-9.0938 3.3281-13.266 0.79688-8.2031-5.4375-13.266-17.297-16.922-26.719-6.3281-16.828-10.125-34.875-13.031-52.734-2.1094-9 0-19.828-9.1406-25.172-7.0312-4.1719-16.125-1.875-20.297 5.1094 0 0-4.8281 8.1094-4.8281 8.1094-6.8438 10.406-21.422 32.719-35.156 25.875-18.844-9.9375-31.5-46.734-34.359-67.125-0.5625-5.5781-8.625-5.5781-9.2344 0-2.2969 29.672 8.0156 77.344 38.297 90.516 17.344 6.9375 34.312-1.3125 47.344-13.172 6.1875 36.797 20.25 84.938 57.891 89.016 8.7656 0.84375 17.484-1.4062 25.453-4.7344 27.984-12.656 41.297-41.062 47.859-68.625 0.09375-0.32812 0.14062-0.60938 0.1875-0.9375 8.3438 1.1719 16.781 1.4062 25.453 0.375 30.234-3.75 46.594-25.172 45.656-55.031-0.65625-16.078-5.0156-31.641-10.734-46.453-0.75-1.9688-2.7656-3.2344-4.9219-2.9531z"/>
</svg>
