<?xml version="1.0" encoding="UTF-8"?>
<svg width="1200pt" height="1200pt" version="1.1" viewBox="0 0 1200 1200" xmlns="http://www.w3.org/2000/svg">
 <path d="m859.13 558c-2.8594-28.312-10.594-55.922-22.875-81.562 12.422-11.625 19.641-27.797 19.922-44.812 0.32812-17.016-6.2812-33.422-18.328-45.469-12-12.047-28.406-18.703-45.422-18.422-17.016 0.23438-33.234 7.4062-44.859 19.828-61.5-31.312-138.37-36-207.74-31.312-28.125 1.9219-55.312 10.828-79.125 25.875-26.391-22.594-66.094-19.453-88.688 6.9375s-19.453 66.094 6.9375 88.688c-12.609 25.266-22.312 51.844-28.875 79.312-54 35.812-82.5 77.812-84.75 124.69-4.3125 87.188 83.625 158.26 87.375 161.26 4.0312 3.1875 9.8906 2.5312 13.125-1.5 1.5938-1.9219 2.2969-4.4062 2.0156-6.8906s-1.5469-4.7344-3.5156-6.2344c0 0-84.188-68.25-80.25-145.87 2.0625-41.438 28.875-78.938 79.5-112.5 2.2031-1.4062 3.7031-3.6562 4.125-6.1875 0-1.875 34.312-179.81 173.44-189.56 127.31-9 282.74 16.5 300 188.81 0.42188 2.7188 1.9219 5.1562 4.125 6.75 0 0 66.188 46.875 70.875 117.38 3.1875 46.875-21 93.75-72 140.81-3.5625 3.6562-3.5625 9.4688 0 13.125 1.7812 1.9688 4.2656 3.1406 6.9375 3.1875 2.3438-0.046874 4.5938-0.9375 6.375-2.4375 56.25-50.625 81.562-103.12 78-155.81-5.625-69.375-61.5-116.81-76.312-128.06zm-471.19-96.938c-7.9688-7.9219-12.609-18.562-12.938-29.812-0.46875-16.688 8.5312-32.25 23.25-40.172 14.672-7.9219 32.625-6.8906 46.312 2.6719-22.922 18.656-42.141 41.531-56.625 67.312zm376.31-64.312c13.266-11.625 32.156-14.297 48.094-6.7969 15.984 7.4531 26.016 23.672 25.594 41.297 0.046875 10.828-3.8906 21.281-11.062 29.438-15.422-26.062-36.891-48-62.625-63.938z"/>
 <path d="m459.56 468.74c-14.25 0-25.688 23.25-25.688 51.938s11.438 51.938 25.688 51.938 25.688-23.25 25.688-51.938-11.438-51.938-25.688-51.938z"/>
 <path d="m750 463.31c-14.25 0-25.688 23.25-25.688 51.938s11.438 51.938 25.688 51.938 25.688-23.25 25.688-51.938-12.188-51.938-25.688-51.938z"/>
 <path d="m620.44 659.26c8.5312-7.4062 14.016-17.672 15.375-28.875 0 0 39.562 0 39.562-18.75s-34.875-30.375-65.062-30.375-65.25 10.312-65.25 29.625 39.562 18.75 39.562 18.75c1.1719 10.453 6.1406 20.109 13.875 27.188-0.75 0.65625-1.2656 1.5-1.5 2.4375-30.938 11.625-76.312 56.25-91.312 71.062-3.6094 3.7031-3.6094 9.6094 0 13.312 1.7812 1.7812 4.1719 2.7656 6.6562 2.7656s4.875-0.98438 6.6562-2.7656c13.125-13.172 26.859-25.688 41.25-37.5v37.5c-0.09375 10.547 4.0781 20.672 11.531 28.078 7.5 7.4062 17.672 11.484 28.219 11.297h15c10.359 0 20.25-4.125 27.562-11.438s11.438-17.203 11.438-27.562v-39c13.688 12.562 27.75 26.812 38.625 39 1.7812 1.9688 4.3125 3.0469 6.9375 3 2.2969 0.046876 4.5469-0.84375 6.1875-2.4375 1.8281-1.6875 2.8594-4.0781 2.8594-6.5625 0-2.4844-1.0312-4.875-2.8594-6.5625-9.5625-10.875-55.688-61.125-85.312-72.188zm-41.438 84.75v-51.938c5.5781-4.0312 11.297-7.7812 17.25-11.25v82.875c-9.8438-1.4062-17.156-9.75-17.25-19.688zm56.25 0c-0.046875 10.594-8.2031 19.359-18.75 20.25v-87c6.75 3.1406 13.078 7.1719 18.75 12z"/>
</svg>
