<?xml version="1.0" encoding="UTF-8"?>
<svg width="1200pt" height="1200pt" version="1.1" viewBox="0 0 1200 1200" xmlns="http://www.w3.org/2000/svg">
 <path d="m462 727.2c-18 0-32.398 14.398-32.398 32.398s14.398 32.398 32.398 32.398 32.398-14.398 32.398-32.398c0-17.996-14.398-32.398-32.398-32.398zm235.2 141.6c-7.1992 0-12 4.8008-12 12 0 19.199-16.801 30-34.801 30-9.6016 0-19.199-3.6016-26.398-9.6016-8.3984-7.1992-12-19.199-12-32.398 0-1.1992 0-2.3984-1.1992-3.6016 10.801-3.6016 25.199-10.801 25.199-22.801 0-8.3984-21.602-9.6016-36-9.6016s-36 1.1992-36 9.6016c0 12 14.398 19.199 25.199 22.801 0 1.1992-1.1992 2.3984-1.1992 3.6016 0 14.398-3.6016 25.199-12 32.398-7.1992 6-15.602 9.6016-26.398 9.6016-16.801 0-34.801-9.6016-34.801-30 0-7.1992-4.8008-12-12-12s-12 4.8008-12 12c0 34.801 30 54 58.801 54 16.801 0 31.199-6 43.199-16.801 2.3984-2.3984 4.8008-4.8008 7.1992-8.3984 2.3984 3.6016 4.8008 6 7.1992 8.3984 10.801 10.801 26.398 16.801 43.199 16.801 28.801 0 58.801-19.199 58.801-54 0-7.1992-6-12-12-12zm40.801-141.6c-18 0-32.398 14.398-32.398 32.398s14.398 32.398 32.398 32.398 32.398-14.398 32.398-32.398c1.2031-17.996-13.199-32.398-32.398-32.398zm129.6 26.402c-22.801-72-55.199-144-117.6-188.4 86.398-98.398 148.8-310.8 111.6-394.8-12-27.602-34.801-40.801-63.602-38.398-34.801 3.6016-68.398 24-97.199 60-58.801 74.398-93.602 210-82.801 331.2h-16.801-16.801c9.6016-120-24-256.8-82.801-331.2-28.801-36-62.398-56.398-97.199-60-28.801-2.3984-51.602 10.801-63.602 38.398-37.199 84 24 297.6 111.6 394.8-62.398 44.398-94.801 116.4-117.6 188.4-27.602 84-19.199 164.4 21.602 220.8 43.203 62.398 126 93.598 243.6 93.598s200.4-31.199 246-93.602c40.801-55.199 48-135.6 21.602-220.8zm-139.2-538.8c22.801-28.801 46.801-44.398 73.199-46.801 9.6016-1.1992 19.199 0 27.602 16.801 30 67.199-26.398 273.6-110.4 361.2-8.3984-4.8008-18-8.3984-27.602-10.801 2.3984-48 14.398-232.8 94.801-294 4.8008-3.6016 6-12 2.3984-16.801-3.6016-4.8008-12-6-16.801-2.3984-86.398 66-100.8 248.4-103.2 306-4.8008-1.1992-8.3984-2.3984-13.199-2.3984-13.199-112.8 18-242.4 73.199-310.8zm-356.4-30c7.1992-16.801 18-18 27.602-16.801 25.199 2.3984 50.398 18 73.199 46.801 55.199 69.602 86.398 199.2 74.398 312-4.8008 1.1992-8.3984 1.1992-13.199 2.3984-2.3984-58.801-18-241.2-103.2-306-4.8008-3.6016-13.199-3.6016-16.801 2.3984-3.6016 4.8008-3.6016 13.199 2.3984 16.801 79.199 61.199 92.398 246 94.801 294-9.6016 3.6016-19.199 7.1992-27.602 10.801-85.199-88.801-141.6-294-111.6-362.4zm445.2 768c-38.398 52.801-111.6 79.199-217.2 79.199s-178.8-26.398-217.2-79.199c-48-66-26.398-153.6-15.602-188.4 34.801-106.8 86.398-206.4 232.8-206.4 146.4 0 198 99.602 232.8 206.4 10.801 35.996 32.398 123.6-15.602 188.4z"/>
</svg>
