<?xml version="1.0" encoding="UTF-8"?>
<svg width="1200pt" height="1200pt" version="1.1" viewBox="0 0 1200 1200" xmlns="http://www.w3.org/2000/svg">
 <path d="m1119.6 534c-10.801-138-183.6-180-235.2-189.6-2.3984-4.8008-4.8008-8.3984-8.3984-12v-1.1992c-3.6016-4.8008-93.602-115.2-300-115.2-174 0-423.6 220.8-433.2 229.2l-61.199 54 181.2-37.199c-37.199 63.602-98.398 182.4-98.398 282v54l37.199-38.398c45.602-46.801 104.4-96 142.8-115.2-20.402 63.598-56.402 193.2-33.602 259.2l13.199 38.398 25.199-31.199c63.602-80.398 132-150 164.4-171.6l67.203 244.8 22.801-67.199c32.398-93.602 138-339.6 242.4-340.8h12l6-10.801s1.1992-1.1992 2.3984-3.6016c-2.3984 4.8008-3.6016 8.3984-6 12 0 0 81.602-19.199 187.2-61.199 0 0-14.398-7.1992-34.801-16.801 57.602 13.203 106.8 38.402 106.8 38.402zm-286.8 0c-112.8 14.398-205.2 202.8-247.2 306l-40.801-148.8-15.602-1.1992h-1.1992c-43.199 0-126 88.801-181.2 153.6 2.3984-72 34.801-178.8 51.602-222l9.6016-25.199-26.398-3.6016h-8.3984c-45.602 0-112.8 52.801-158.4 93.602 25.199-115.2 110.4-241.2 111.6-243.6l31.199-44.398-117.6 24c84-64.801 230.4-163.2 336-163.2 181.2 0 260.4 92.398 266.4 99.602 41.992 58.797 4.793 146.39-9.6055 175.2z"/>
 <path d="m661.2 312c-70.801 4.8008-78 12-78 12l12 21.602s124.8 123.6 186 21.602c0 1.1953-49.199-60.004-120-55.203z"/>
</svg>
