<?xml version="1.0" encoding="UTF-8"?>
<svg width="1200pt" height="1200pt" version="1.1" viewBox="0 0 1200 1200" xmlns="http://www.w3.org/2000/svg">
 <path d="m514.6 338.72c-3.2812-5.7656-1.2188-13.078 4.5469-16.359 5.8125-3.2812 13.078-1.2188 16.359 4.5469l23.25 41.109c3.2812 5.7656 1.2188 13.078-4.5469 16.359-1.875 1.0781-3.8906 1.5469-5.9062 1.5469-4.1719 0-8.25-2.2031-10.453-6.0938zm28.312-52.875h0.42188c6.6094-0.23438 11.812-5.7656 11.578-12.375l-1.7812-53.625c-0.23438-6.6094-5.6719-12.047-12.375-11.578-6.6094 0.23438-11.812 5.7656-11.578 12.375l1.7812 53.625c0.23438 6.5156 5.5312 11.625 12 11.625zm56.297 132.24c6.6094 0 12-5.3906 12-12v-51.844c0-6.6562-5.3906-12-12-12s-12 5.3906-12 12v51.844c0 6.6562 5.3906 12 12 12zm0-101.86c6.6094 0 12-5.3906 12-12v-38.719c0-6.6562-5.3906-12-12-12s-12 5.3906-12 12v38.719c0 6.6562 5.3906 12 12 12zm-184.31-8.2031c-4.8281 4.5469-5.0156 12.141-0.42188 16.969l33.938 35.719c2.3438 2.4844 5.5312 3.75 8.7188 3.75 2.9531 0 5.9531-1.0781 8.25-3.3281 4.8281-4.5469 5.0156-12.141 0.42188-16.969l-33.938-35.719c-4.5938-4.8281-12.141-5.0156-16.969-0.42187zm-5.1094-30.609c2.2969 2.0625 5.1562 3.0938 8.0156 3.0938 3.2812 0 6.5625-1.3594 8.9062-3.9844 4.4531-4.9219 4.0312-12.516-0.89063-16.969l-35.719-32.156c-4.9688-4.4531-12.516-4.0312-16.969 0.89062-4.4531 4.9219-4.0312 12.516 0.89063 16.969l35.719 32.156zm189.42-54.141c6.6094 0 12-5.3906 12-12v-37.547c0-6.6562-5.3906-12-12-12-6.6094 0-12 5.3906-12 12v37.547c0 6.6562 5.3906 12 12 12zm-120.56 66.844c2.1562 4.125 6.3281 6.4688 10.641 6.4688 1.875 0 3.75-0.42188 5.5312-1.3594 5.9062-3.0469 8.1562-10.312 5.1094-16.172l-23.25-44.672c-3.0469-5.8594-10.312-8.2031-16.172-5.1094-5.9062 3.0469-8.1562 10.312-5.1094 16.172zm178.08-4.2656h0.42188c6.4688 0 11.766-5.1094 12-11.625l1.7812-53.625c0.23437-6.6094-4.9688-12.188-11.578-12.375-6.5625-0.46875-12.188 4.9688-12.375 11.578l-1.7812 53.625c-0.23437 6.6094 4.9688 12.188 11.578 12.375zm154.03 27.328c2.1094 4.2188 6.3281 6.6562 10.734 6.6562 1.7812 0 3.6562-0.42188 5.3438-1.2656l39.328-19.688c5.9531-2.9531 8.3438-10.172 5.3906-16.125-2.9531-5.9062-10.172-8.3438-16.125-5.3906l-39.328 19.688c-5.9531 2.9531-8.3438 10.172-5.3906 16.125zm41.672 16.781c-0.5625 6.6094 4.3125 12.422 10.922 12.984l41.109 3.5625c0.375 0.046876 0.70312 0.046876 1.0312 0.046876 6.1406 0 11.391-4.7344 11.953-10.969 0.5625-6.6094-4.3125-12.422-10.922-12.984l-41.109-3.5625c-6.6562-0.65625-12.422 4.3125-12.984 10.922zm-70.219-49.5c2.8594 0 5.7188-1.0312 8.0156-3.0938l35.719-32.156c4.9219-4.4531 5.3438-12.047 0.89063-16.969-4.4062-4.9219-12-5.3438-16.969-0.89063l-35.719 32.156c-4.9219 4.4531-5.3438 12.047-0.89063 16.969 2.3906 2.625 5.625 3.9844 8.9062 3.9844zm-448.4 18.422 39.328 19.688c1.7344 0.84375 3.5625 1.2656 5.3438 1.2656 4.4062 0 8.625-2.4375 10.734-6.6562 2.9531-5.9531 0.5625-13.125-5.3906-16.125l-39.328-19.688c-5.9531-2.9531-13.125-0.5625-16.125 5.3906-2.9531 5.9531-0.5625 13.125 5.3906 16.125zm312.05 85.453c1.875 1.0781 3.8906 1.5469 5.9062 1.5469 4.1719 0 8.25-2.2031 10.453-6.0938l23.25-41.109c3.2812-5.7656 1.2188-13.078-4.5469-16.359-5.8125-3.2812-13.078-1.2188-16.359 4.5469l-23.25 41.109c-3.2812 5.7656-1.2188 13.078 4.5469 16.359zm59.344-89.156c1.7812 0.9375 3.6562 1.3594 5.5312 1.3594 4.3594 0 8.5312-2.3438 10.641-6.4688l23.25-44.672c3.0469-5.9062 0.79688-13.125-5.1094-16.172-5.9062-3.0938-13.125-0.79687-16.172 5.1094l-23.25 44.672c-3.0469 5.9062-0.79688 13.125 5.1094 16.172zm29.438 66c2.3438 2.2031 5.2969 3.3281 8.25 3.3281 3.1875 0 6.3281-1.2656 8.7188-3.75l33.938-35.719c4.5469-4.8281 4.3594-12.422-0.42188-16.969-4.8281-4.5938-12.375-4.3594-16.969 0.42188l-33.938 35.719c-4.5469 4.8281-4.3594 12.422 0.42188 16.969zm255.74 390.66c4.3125 0 8.4844-2.3438 10.641-6.375 3.0938-5.8594 0.89062-13.125-4.9688-16.219l-60.75-32.203c-5.9062-3.1406-13.125-0.89062-16.219 5.0156-3.0938 5.8594-0.89062 13.125 4.9688 16.219l60.75 32.203c1.7812 0.9375 3.7031 1.4062 5.625 1.4062zm-695.86-405.24c0.32812 0 0.70312 0 1.0312-0.046874l41.109-3.5625c6.6094-0.5625 11.484-6.375 10.922-12.984-0.5625-6.6094-6.375-11.578-12.984-10.922l-41.109 3.5625c-6.6094 0.5625-11.484 6.375-10.922 12.984 0.5625 6.2344 5.7656 10.969 11.953 10.969zm624.05 73.078c-7.6406-28.969-31.172-49.828-61.406-54.375-35.578-5.3906-72.609 12.938-102.23 49.688l-5.0156-17.203c-1.2188-4.1719-4.5938-7.3594-8.8125-8.3438-4.2188-0.98437-8.625 0.375-11.578 3.5625l-44.812 48.891-10.875-20.719c-1.875-3.5625-5.3906-5.9531-9.4219-6.375-3.9844-0.32813-7.9688 1.2188-10.5 4.3125l-53.906 65.578-53.906-65.578c-2.5781-3.0938-6.5156-4.6875-10.5-4.3125-3.9844 0.42187-7.5469 2.8125-9.4219 6.375l-10.875 20.719-44.812-48.891c-2.9531-3.1875-7.3594-4.5469-11.578-3.5625-4.2188 0.98438-7.5938 4.1719-8.8125 8.3438l-5.0156 17.203c-29.625-36.75-66.656-55.078-102.23-49.688-30.281 4.5938-53.812 25.406-61.406 54.375-9.9375 37.828 8.8125 78.703 51.516 112.17 2.2031 1.7344 4.8281 2.5781 7.4062 2.5781 3.5625 0 7.0781-1.5938 9.4688-4.5938 4.0781-5.2031 3.1875-12.75-2.0625-16.875-34.781-27.281-50.531-59.062-43.125-87.188 5.1562-19.547 21.141-33.656 41.812-36.75 31.969-4.7812 66.797 17.391 93.047 59.484 2.4844 4.0312 7.125 6.2344 11.812 5.5312 4.6875-0.65625 8.5781-3.9844 9.8906-8.5312l6-20.531 41.953 45.797c2.625 2.9062 6.4688 4.3125 10.406 3.7969 3.8906-0.51562 7.2656-2.8594 9.0938-6.3281l10.406-19.828 51.703 62.859c0.23437 0.32812 0.60937 0.46875 0.89062 0.75s0.42188 0.65625 0.75 0.9375c0.32813 0.28125 0.75 0.32812 1.0781 0.5625 0.70312 0.46875 1.4062 0.84375 2.1562 1.125 0.70312 0.28125 1.4062 0.46875 2.1094 0.60937 0.75 0.14063 1.5 0.23438 2.2969 0.23438 0.79687 0 1.5-0.09375 2.2969-0.23438 0.75-0.14062 1.4062-0.32812 2.1094-0.65625 0.75-0.28125 1.4531-0.70312 2.1562-1.125 0.32812-0.23437 0.75-0.32812 1.0781-0.5625 0.32813-0.28125 0.46875-0.60937 0.75-0.9375 0.28125-0.28125 0.65625-0.42187 0.89063-0.75l51.703-62.859 10.406 19.828c1.8281 3.4688 5.2031 5.8125 9.0938 6.3281 3.8906 0.51562 7.7344-0.89063 10.406-3.7969l41.953-45.797 6 20.531c1.3125 4.5469 5.2031 7.875 9.8906 8.5312 4.6406 0.70312 9.3281-1.5469 11.812-5.5312 26.25-42.094 61.031-64.266 93.047-59.484 20.625 3.1406 36.656 17.203 41.812 36.75 7.4062 28.125-8.3438 59.906-43.125 87.188-5.2031 4.0781-6.1406 11.625-2.0625 16.875 2.3906 3 5.9062 4.5938 9.4688 4.5938 2.5781 0 5.2031-0.84375 7.4062-2.5781 42.703-33.469 61.5-74.344 51.516-112.17zm-166.78 193.69c0.98438-16.734-11.812-31.125-28.547-32.109s-31.125 11.812-32.109 28.547 11.812 31.125 28.547 32.109 31.125-11.812 32.109-28.547zm211.78 13.641c5.1094 0 9.8438-3.2812 11.438-8.3906 1.9688-6.3281-1.5469-13.078-7.875-15.047l-60.75-19.078c-6.3281-1.9688-13.078 1.5469-15.047 7.875s1.5469 13.078 7.875 15.047l60.75 19.078c1.2188 0.375 2.3906 0.5625 3.6094 0.5625zm159.37 74.953c-2.4844 3.9375-7.0312 6.0469-11.625 5.4844l-36.656-4.5938 42.047 100.64c1.7344 4.125 1.0312 8.9062-1.875 12.328-2.8594 3.4219-7.4062 5.0156-11.766 4.0312l-39.609-8.6719 20.016 110.95c0.84375 4.7344-1.1719 9.5156-5.2031 12.141-3.9844 2.625-9.1875 2.6719-13.219 0.046875l-30.703-20.062-16.969 117.19c-0.65625 4.5-3.7969 8.25-8.1094 9.6562-1.2656 0.42188-2.5312 0.60938-3.7969 0.60938-3.1406 0-6.1875-1.2188-8.4844-3.5156l-29.953-29.953c-8.2969 38.766-25.172 72.422-57.891 96.141-0.14062 8.5312-3.0469 16.781-8.6719 23.297-6.7969 7.8281-16.641 12.328-27 12.328h-145.36c-11.016 0-21.281-4.9688-28.172-13.594-1.3125-1.6875-2.3438-3.5156-3.375-5.3438-32.719 6.5156-65.531 9.9844-98.156 9.9844-32.016 0-63.891-3.3281-95.438-9.5625-0.9375 1.6875-1.875 3.4219-3.0938 4.9688-6.8438 8.625-17.109 13.594-28.172 13.594h-145.36c-10.359 0-20.203-4.5-27-12.328-5.625-6.5156-8.5781-14.766-8.6719-23.297-32.766-23.719-49.594-57.422-57.891-96.141l-29.953 29.953c-2.2969 2.2969-5.3438 3.5156-8.4844 3.5156-1.2656 0-2.5312-0.1875-3.7969-0.60938-4.3125-1.4531-7.4531-5.2031-8.1094-9.6562l-16.969-117.19-30.703 20.062c-4.0312 2.625-9.1875 2.625-13.219-0.046875-3.9844-2.6719-6.0469-7.4062-5.2031-12.141l20.016-110.95-39.609 8.6719c-4.3594 0.98438-8.9062-0.60938-11.766-4.0312s-3.5625-8.2031-1.875-12.328l42.047-100.64-36.656 4.5938c-4.6406 0.5625-9.1406-1.5938-11.625-5.4844-2.4844-3.9375-2.4844-8.9531 0.046875-12.891l61.031-95.484-52.5-15.188c-4.2656-1.2188-7.5-4.6875-8.3906-9.0469-0.9375-4.3125 0.60938-8.8125 3.9844-11.672l45.094-38.297-26.625-13.312c-4.0312-2.0156-6.6094-6.1406-6.6562-10.641s2.4844-8.6719 6.4688-10.734l74.25-38.391-48.141-10.688c-5.0156-1.125-8.8125-5.3438-9.3281-10.453-0.5625-5.1094 2.25-10.031 6.9375-12.188l82.219-37.734-47.297-16.875c-4.6406-1.6406-7.7812-5.9531-7.9688-10.828-0.1875-4.9219 2.625-9.4219 7.0781-11.438l82.875-37.031-26.906-23.391c-3.375-2.9531-4.8281-7.5-3.7969-11.859s4.4062-7.7812 8.7188-8.8594l89.906-22.875-20.438-34.453c-2.2031-3.75-2.25-8.3906-0.046875-12.141 2.2031-3.7969 6.3281-5.6719 10.547-6l105.28 1.5469-18.328-45.844c-1.7344-4.3594-0.79688-9.3281 2.4375-12.703 3.2344-3.4219 8.1562-4.5938 12.562-3.1406l89.016 30.188-1.7812-52.359c-0.14062-4.4531 2.1562-8.625 6.0469-10.828 3.8438-2.25 8.625-2.1094 12.375 0.28125l56.531 35.719 26.812-55.781c0.23438-0.46875 0.65625-0.79688 0.9375-1.2188 0.46875-0.70312 0.89062-1.3594 1.5-1.9688 0.60938-0.5625 1.2656-1.0312 1.9219-1.4531 0.46875-0.28125 0.75-0.70312 1.2656-0.9375 0.23438-0.09375 0.42188-0.09375 0.65625-0.1875 0.75-0.32812 1.5469-0.46875 2.3906-0.60938 0.75-0.14062 1.4531-0.32812 2.1562-0.32812 0.75 0 1.4531 0.1875 2.1562 0.32812 0.84375 0.14062 1.5938 0.28125 2.3906 0.60938 0.1875 0.09375 0.42188 0.046875 0.65625 0.14062 0.46875 0.23438 0.79688 0.65625 1.2188 0.9375 0.70312 0.46875 1.3594 0.89062 1.9688 1.5s1.0312 1.2656 1.5 1.9688c0.28125 0.42188 0.70312 0.75 0.9375 1.2188l26.812 55.781 56.531-35.719c3.7969-2.3906 8.5312-2.4844 12.375-0.28125s6.1875 6.375 6.0469 10.828l-1.7812 52.359 89.016-30.188c4.4531-1.5 9.3281-0.28125 12.562 3.1406s4.1719 8.3438 2.4375 12.703l-18.328 45.844 105.28-1.5469c4.4531 0.1875 8.3906 2.2031 10.547 6 2.2031 3.75 2.1562 8.3906-0.046875 12.141l-20.438 34.453 89.906 22.875c4.3125 1.0781 7.6875 4.5 8.7188 8.8594s-0.42188 8.9062-3.7969 11.859l-26.906 23.391 82.875 37.031c4.5 2.0156 7.3125 6.5156 7.0781 11.438-0.1875 4.9219-3.3281 9.1875-7.9688 10.828l-47.297 16.875 82.219 37.734c4.6875 2.1562 7.4531 7.0781 6.9375 12.188-0.5625 5.1094-4.3125 9.3281-9.3281 10.453l-48.141 10.688 74.25 38.391c4.0312 2.0625 6.5156 6.2344 6.4688 10.734s-2.5781 8.625-6.6562 10.641l-26.625 13.312 45.094 38.297c3.375 2.8594 4.9219 7.3594 3.9844 11.672s-4.1719 7.7812-8.3906 9.0469l-52.5 15.188 61.031 95.484c2.5312 3.9375 2.5312 8.9531 0.046875 12.891zm-639.52 402.98c0.09375-1.1719 0.23438-2.3438 0-3.5156-6.75-28.875-27.281-63.328-87.047-63.328-48.141 0-75.609 21.516-81.609 63.984-0.51562 3.6094 0.51562 7.1719 2.8594 9.8438 2.25 2.625 5.4375 4.0312 8.8594 4.0312h145.36c3.6562 0 7.0781-1.6406 9.375-4.5 1.0781-1.3594 1.7812-2.9062 2.2031-4.5469 0.046875-0.60938-0.09375-1.2188 0.046875-1.875 0-0.046875 0.046875-0.09375 0.046875-0.14062zm401.86-2.8125c-6.0469-42.469-33.516-63.984-81.609-63.984-59.766 0-80.344 34.453-87.047 63.328-0.84375 3.5625 0 7.2188 2.25 10.031 2.2969 2.8594 5.6719 4.5 9.375 4.5h145.36c3.4688 0 6.6094-1.4531 8.8594-4.0312 2.3438-2.6719 3.375-6.2812 2.8594-9.8438zm203.63-421.64-55.922-87.469c-2.0625-3.1875-2.4375-7.1719-1.125-10.688 1.3594-3.5625 4.2656-6.2344 7.9219-7.3125l46.406-13.453-41.906-35.578c-3.0938-2.625-4.6406-6.6094-4.1719-10.594 0.46875-3.9844 2.9531-7.5 6.5625-9.2812l21.797-10.875-82.688-42.75c-4.5-2.3438-7.0312-7.2188-6.375-12.234 0.65625-5.0156 4.3594-9.0938 9.2812-10.172l45.609-10.125-76.594-35.156c-4.4531-2.0625-7.2188-6.5625-6.9844-11.438s3.375-9.1406 7.9688-10.781l46.875-16.734-72.75-32.484c-3.75-1.6875-6.375-5.1562-6.9844-9.1875-0.60938-4.0781 0.89062-8.1562 3.9844-10.828l23.812-20.672-83.203-21.188c-3.6562-0.9375-6.6562-3.5156-8.1094-7.0312-1.4531-3.5156-1.1719-7.4531 0.75-10.734l17.672-29.812-101.91 1.5c-3.8438 0.1875-7.7812-1.9219-10.078-5.2031-2.2969-3.3281-2.7656-7.5469-1.2656-11.25l15.328-38.344-80.766 27.375c-3.7031 1.2656-7.8281 0.60937-11.016-1.7344s-4.9688-6.0938-4.8281-10.031l1.5938-47.016-48.75 30.797c-2.9062 1.8281-6.4219 2.3438-9.7031 1.4062s-6.0469-3.2344-7.5-6.3281l-21.844-45.422-21.844 45.422c-1.5 3.0938-4.2188 5.3906-7.5 6.3281-3.2812 0.98438-6.7969 0.46875-9.7031-1.4062l-48.75-30.797 1.5938 47.016c0.14062 3.9375-1.6875 7.6875-4.8281 10.031-3.1875 2.3438-7.3125 3-11.016 1.7344l-80.766-27.375 15.328 38.344c1.5 3.75 1.0312 7.9688-1.2656 11.25-2.2969 3.3281-5.8594 5.3438-10.078 5.2031l-101.91-1.5 17.672 29.812c1.9219 3.2812 2.2031 7.2188 0.75 10.734-1.4531 3.5156-4.4531 6.0938-8.1094 7.0312l-83.203 21.188 23.812 20.672c3.0938 2.7188 4.5938 6.7969 3.9844 10.828-0.60938 4.0781-3.2344 7.5-6.9844 9.1875l-72.75 32.484 46.875 16.734c4.5938 1.6406 7.7344 5.9062 7.9688 10.781s-2.5312 9.4219-6.9844 11.438l-76.594 35.156 45.609 10.125c4.9219 1.125 8.6719 5.1562 9.2812 10.172 0.65625 5.0156-1.9219 9.8906-6.375 12.234l-82.688 42.75 21.797 10.875c3.6094 1.8281 6.0469 5.2969 6.5625 9.2812 0.46875 4.0312-1.0781 7.9688-4.1719 10.594l-41.906 35.578 46.406 13.453c3.6562 1.0781 6.5625 3.75 7.9219 7.3125 1.3125 3.5625 0.9375 7.5-1.125 10.688l-55.922 87.469 31.828-3.9844c4.2656-0.51562 8.4375 1.2656 11.062 4.6406 2.5781 3.4219 3.1875 7.9219 1.5 11.906l-41.156 98.438 34.641-7.5938c3.8906-0.89063 8.0156 0.28125 10.875 3.0938 2.9062 2.7656 4.2188 6.8438 3.4688 10.781l-18.281 101.2 23.109-15.141c3.4219-2.25 7.7812-2.5781 11.531-0.89063s6.375 5.1562 6.9375 9.2344l16.219 112.12 25.312-25.312c-4.0781-36.188-3.0469-75.281-1.9219-113.91 0.32812-11.953 0.70312-23.859 0.89062-35.719 0.09375-6.5625 5.4844-11.812 12-11.812h0.1875c6.6094 0.09375 11.906 5.5781 11.812 12.188-0.1875 11.953-0.5625 24-0.89062 36.047-2.4375 85.781-4.6875 167.11 45.656 212.11 9.9375-29.766 35.438-63.75 100.5-63.75 79.5 0 103.31 51.281 110.44 81.891 0.14062 0.5625 0.09375 1.1719 0.1875 1.7344 61.266 12.281 123.79 12.141 186.1-0.42188 0.09375-0.42188 0.046876-0.89062 0.14063-1.3125 7.125-30.562 30.938-81.844 110.44-81.844 65.062 0 90.562 33.984 100.5 63.75 50.344-45 48.094-126.32 45.656-212.11-0.32813-12.047-0.70313-24.094-0.89063-36.047-0.09375-6.6094 5.2031-12.094 11.812-12.188h0.1875c6.5625 0 11.906 5.25 12 11.812 0.1875 11.859 0.51563 23.766 0.89063 35.719 1.125 38.625 2.1094 77.719-1.9219 113.91l25.312 25.312 16.219-112.12c0.60938-4.0781 3.1875-7.5469 6.9375-9.2344s8.0625-1.3594 11.531 0.89062l23.109 15.141-18.281-101.2c-0.70313-3.9375 0.60937-8.0156 3.4688-10.781 2.9062-2.8125 6.9844-3.9844 10.875-3.0938l34.641 7.5938-41.156-98.438c-1.6406-3.9375-1.0781-8.4844 1.5-11.906 2.5781-3.4219 6.7969-5.1562 11.062-4.6406l31.828 3.9844zm-258.94 164.58c-63.797 22.922-104.95 13.359-120.79-1.7344-7.6406-7.2656-10.078-16.266-7.125-26.016 6.75-22.078 41.25-50.391 117.89-63.516 6.5156-1.125 10.922-7.3125 9.7969-13.875-1.125-6.5156-7.2656-10.922-13.875-9.7969-74.25 12.703-125.39 42.656-136.78 80.156-5.625 18.469-0.70312 36.844 13.5 50.391 13.031 12.422 36 21.938 68.156 21.938 21.656 0 47.484-4.3125 77.297-15 6.2344-2.25 9.4688-9.0938 7.2656-15.375-2.25-6.2344-9.1406-9.5156-15.375-7.2656zm147-155.68c4.6875 0 9.1406-2.7656 11.062-7.3594 2.5781-6.0938-0.28125-13.172-6.375-15.75l-60.75-25.641c-6.1406-2.5312-13.125 0.28125-15.703 6.4219-2.5781 6.0938 0.28125 13.172 6.375 15.75l60.75 25.641c1.5469 0.65625 3.0938 0.9375 4.6406 0.9375zm33.281 102.7-60.75-38.766c-5.5781-3.5625-12.984-1.9219-16.594 3.6562-3.5625 5.5781-1.9219 13.031 3.6562 16.594l60.75 38.766c2.0156 1.2656 4.2188 1.875 6.4219 1.875 3.9844 0 7.8281-1.9688 10.125-5.5312 3.5625-5.5781 1.9219-13.031-3.6562-16.594zm-60.094-227.48c5.5781 0 10.594-3.8906 11.766-9.6094 1.3594-6.4688-2.8594-12.844-9.3281-14.156l-60.75-12.516c-6.5156-1.3594-12.844 2.8594-14.156 9.3281-1.3594 6.4688 2.8594 12.844 9.3281 14.156l60.75 12.516c0.79688 0.1875 1.6406 0.23438 2.4375 0.23438zm-671.02 76.125-60.75 25.641c-6.0938 2.5781-8.9531 9.6094-6.375 15.75 1.9219 4.5938 6.375 7.3594 11.062 7.3594 1.5469 0 3.1406-0.32812 4.6406-0.9375l60.75-25.641c6.0938-2.5781 8.9531-9.6094 6.375-15.75-2.5781-6.0938-9.6094-8.9531-15.703-6.4219zm14.438-56.25-60.75 19.078c-6.3281 1.9688-9.8438 8.7188-7.875 15.047 1.5938 5.1094 6.3281 8.3906 11.438 8.3906 1.2188 0 2.3906-0.1875 3.6094-0.5625l60.75-19.078c6.3281-1.9688 9.8438-8.7188 7.875-15.047s-8.7656-9.8438-15.047-7.875zm-28.828 112.55-60.75 32.203c-5.8594 3.0938-8.1094 10.359-4.9688 16.219 2.1562 4.0781 6.3281 6.375 10.641 6.375 1.875 0 3.7969-0.46875 5.625-1.4062l60.75-32.203c5.8594-3.0938 8.1094-10.359 4.9688-16.219-3.0938-5.8594-10.359-8.1094-16.219-5.0156zm-14.203 56.297-60.75 38.766c-5.5781 3.5625-7.2188 10.969-3.6562 16.594 2.2969 3.6094 6.1875 5.5312 10.125 5.5312 2.2031 0 4.4531-0.60938 6.4219-1.875l60.75-38.766c5.5781-3.5625 7.2188-10.969 3.6562-16.594-3.5625-5.5781-10.969-7.2188-16.594-3.6562zm133.55-23.156c-6.5625-1.125-12.75 3.2812-13.875 9.7969-1.125 6.5625 3.2812 12.75 9.7969 13.875 76.641 13.125 111.14 41.391 117.89 63.516 2.9531 9.75 0.51562 18.75-7.125 26.016-15.844 15.094-57 24.609-120.79 1.7344-6.2344-2.25-13.125 1.0312-15.375 7.2656s1.0312 13.125 7.2656 15.375c29.766 10.688 55.594 15 77.297 15 32.156 0 55.125-9.5625 68.156-21.938 14.203-13.547 19.125-31.922 13.5-50.391-11.438-37.5-62.578-67.453-136.78-80.156zm124.78-120.37c-0.98438-16.734-15.328-29.531-32.109-28.547-16.734 0.98438-29.531 15.328-28.547 32.109 0.98438 16.734 15.328 29.531 32.109 28.547 16.734-0.98437 29.531-15.375 28.547-32.109zm120.37 79.734c-21.516-10.031-58.219-9.0469-73.641 4.5-17.953 17.297-15.75 54.422 8.2031 65.578 19.125 7.9219 57 9.4219 73.219-5.3906l1.2656-1.3125c14.766-17.578 12.422-51.656-9.0469-63.328zm-321.1-161.21-60.75 12.516c-6.5156 1.3594-10.688 7.6875-9.3281 14.156 1.1719 5.6719 6.1875 9.6094 11.766 9.6094 0.79687 0 1.6406-0.09375 2.4375-0.23438l60.75-12.516c6.5156-1.3594 10.688-7.6875 9.3281-14.156-1.3594-6.5156-7.7344-10.688-14.156-9.3281z"/>
</svg>
