<?xml version="1.0" encoding="UTF-8"?>
<svg width="1200pt" height="1200pt" version="1.1" viewBox="0 0 1200 1200" xmlns="http://www.w3.org/2000/svg">
 <path d="m504.94 899.44c-3.4219 0.5625-5.9531 3.6562-5.8125 7.1719-0.09375 13.828 5.7188 24.656 17.344 30.562 3.7969 1.8281 8.25 2.6719 12.516 3.75l2.1094 0.46875c2.5781 0.60938 5.3906-0.51562 6.8438-2.9062 8.9531-20.297-11.297-43.359-32.953-39.047z"/>
 <path d="m681.66 900.89c-4.3594 1.6406-8.0625 4.2656-11.156 7.5469-6.9844 7.2656-11.062 20.297-6.0938 30 1.3594 2.2969 4.0781 3.5625 6.8438 2.9062 1.9219-0.42188 4.0312-0.98438 5.8594-1.4062 16.172-2.9531 26.484-16.312 26.062-33.375 0-10.688-16.172-7.7812-21.516-5.7188z"/>
 <path d="m398.34 573.94c-42.75 0-39.328 96.141 8.1094 100.27s43.453-100.27-8.1094-100.27z"/>
 <path d="m787.31 573.94c-51.562 0-55.5 104.39-8.1094 100.27 47.438-4.125 50.859-100.27 8.1094-100.27z"/>
 <path d="m939.32 273.1c16.547-45.562 13.031-97.312-3.6094-142.26-10.781-29.906-26.25-57.188-44.016-82.031-6.8906-9.6094-19.734-13.547-31.078-8.7188-12.797 5.4375-24.516 13.5-35.109 22.219-53.016 44.391-78.516 111-87.328 178.5-14.062-9.1875-28.828-17.578-44.438-24.75-48.75-22.734-105.84-30.609-158.53-17.672-34.453 7.9219-66.844 23.672-96.094 43.312-13.312-90.281-35.531-186.37-134.68-214.97-11.906-3.4688-25.125 1.0312-32.25 11.906-2.4375 3.7031-4.7344 7.7812-6.8438 11.297-14.203 25.078-25.594 51.328-33.703 79.078-24.516 82.547-12.328 167.63 55.547 226.82 4.6406 3.9844 10.359 8.1094 15.047 12.047 3.3281 2.4844 8.9062 6.0938 13.5 9.1875-6.9844 14.156-13.547 28.547-19.594 42.984-47.203 114.42-73.641 242.68-43.359 365.48 9.6562 40.125 28.406 78.469 56.672 108.8 1.875 2.0156 3.8438 3.9375 5.8125 5.8594-1.875 7.8281-3.3281 15.797-4.125 23.859-5.2031 71.062 48.141 133.82 107.02 165.32 61.547 33.75 133.31 43.547 202.5 38.344 53.766-4.5938 107.77-15.188 155.63-41.531 71.156-39.469 97.5-106.03 88.125-179.58 0.046875 0 0.09375-0.046875 0.09375-0.046875 5.625-3.7031 10.266-8.7656 13.781-14.438 7.3125-10.969 13.688-22.5 19.406-34.266 54.375-116.2 39.75-250.92 9.6562-370.92-6.0938-23.859-13.125-47.391-20.812-70.734-5.2031-16.172-10.688-32.953-20.109-47.016 1.2188-0.84375 2.4375-1.7344 3.6562-2.625 31.5-23.531 55.969-56.203 69.281-93.469zm-162.94 741.66c-27.047 25.312-64.734 38.344-100.83 46.031-87.562 18.234-188.68 15.328-261.47-41.812-30.703-24.609-56.625-62.953-47.484-103.45 4.6406-26.766 17.203-52.125 35.812-71.953 1.5938-2.0156 4.6406-4.8281 6.4688-6.5625 2.1562-1.9219 4.5-4.5938 6.8438-6.3281 7.0312-5.9062 15.141-12.234 22.922-17.062 22.828-14.766 47.344-29.016 67.078-48.703l1.2656 3.5625c33.609-5.2969 66.656-3.0469 99.797 0.23438 19.781 1.7344 39.562 4.3594 58.922 9 42.703 10.312 102.98 33.938 125.72 72.562 1.7812 3.0938 3.1875 6.6094 4.3594 9.9844 17.625 51.188 24.094 114.75-19.406 154.45zm99-308.68c-1.4531 44.625-8.2031 89.438-25.031 130.55-0.65625 1.7812-1.4062 3.5156-2.1562 5.25-2.4375-6.5156-5.25-12.891-8.7188-18.938-16.875-29.109-46.172-50.344-75.141-65.438-41.812-21.375-86.016-33.141-132-38.109-45.656-5.2031-93.188 3.4688-133.82 25.172l1.2656 3.5625c-15.422-1.4531-30.75 0.75-45.609 4.7812-22.219 5.9062-42.984 18-61.594 31.734-12.703 9.5156-25.078 20.766-35.531 32.672-11.297 13.219-20.812 27.984-28.266 43.688-2.9062-7.6875-5.8125-15.375-8.4844-23.203-7.4062-21.094-13.969-42.281-19.219-63.984-29.203-128.06 8.8125-263.76 67.453-378.71 2.4375-4.5 5.6719-10.594 8.2969-15 7.4062-13.641 2.3438-30.703-11.344-38.062-24-13.031-45.141-29.531-60.562-49.359-5.3438-7.1719-10.922-15.703-14.531-23.859-5.3906-10.828-9.0469-23.531-11.062-35.531-7.4062-47.719 7.3125-98.391 29.812-141.98 27 14.812 43.172 40.781 53.344 72.562 13.875 42.703 19.031 89.953 25.734 135.42 0.75 5.3438 3.0469 10.641 6.8906 15.047 10.594 12.141 29.016 13.453 41.156 2.8594 22.547-19.594 46.781-36.516 72.562-48.609 83.953-41.016 167.48-10.734 235.6 46.5 17.625 15.141 45.844 2.3438 45.797-21.141 0.42188-50.719 8.4375-102.14 33.656-146.63 10.172-17.578 23.062-34.078 38.953-46.641 53.297 84.75 46.688 169.13-18.75 247.74-7.5938-1.7344-16.219 2.9062-17.859 11.156-1.6875 6.8906-1.8281 13.828-1.5938 20.25 0.46875 18.047 6.8438 34.641 11.625 51.75 9.5156 33.797 17.672 67.969 24 102.47 10.5 56.578 16.875 114.52 15.047 171.94z"/>
 <path d="m726.05 364.13c-0.75-1.875-2.7188-3.1406-4.8281-2.9062-2.5312 0.28125-4.4062 2.5781-4.125 5.1094 1.6406 12.75 3 25.828 1.3594 38.531-2.3438 15.703-9 25.641-26.156 25.734-8.0625 0.1875-16.969-1.6875-24.75-4.3594-7.7812-4.3125-17.344-1.0781-19.406 7.875-0.32812 1.4062-0.9375 4.3125-1.2656 5.6719-4.4531 17.906-12.516 40.359-29.906 48.234-6.9844 2.4844-9.9844 2.7188-15-3.7969-10.875-15.188-14.906-34.547-18.938-52.734-1.5469-7.7812-2.9531-16.266-3.8906-24-0.375-4.7344-2.8594-9.1875-7.2656-11.766-7.0312-4.1719-16.078-1.8281-20.25 5.2031-2.3438 4.125-6.0469 10.125-8.7188 13.922-4.9688 6.7969-14.859 19.641-23.719 16.5-16.969-6.8906-29.297-41.812-31.875-59.109-0.60938-5.4844-8.5781-5.5312-9.2344 0-2.3906 26.953 6.6094 69.703 34.172 81.797 15.188 6.0469 29.578-0.09375 41.344-9.9844 6.1406 34.969 20.391 79.125 58.172 78.094 29.344-1.7812 49.406-27.656 57.516-52.875 1.5-4.4531 2.7656-8.9062 3.7969-13.359 33.422 4.0781 64.359-10.031 63-50.391-0.70312-14.391-4.7344-28.312-10.031-41.531z"/>
</svg>
