<?xml version="1.0" encoding="UTF-8"?>
<svg width="1200pt" height="1200pt" version="1.1" viewBox="0 0 1200 1200" xmlns="http://www.w3.org/2000/svg">
 <path d="m432.79 549.94c-46.547 2.1094-55.875 56.719-44.203 87.141 11.625 30.469 58.969 43.078 72.141 0s0.28125-88.453-27.938-87.141z"/>
 <path d="m749.29 567.89c-21.844 33.047-11.344 92.156 31.828 95.953 43.219 3.7969 48.469-50.109 31.359-85.688-18.375-38.156-47.859-33.469-63.188-10.266z"/>
 <path d="m736.18 852.24c-21.797 25.031-48.234 47.344-81.938 43.594-30.797-3.6094-35.484-43.875-40.031-71.203 31.406-10.641 96.234-58.219 78.281-89.438-20.297-35.297-150.84-42.469-176.21 8.5312-17.672 35.484 26.391 80.531 81.938 82.969-5.0156 26.391-16.219 62.297-43.969 68.391-32.109 6.4688-59.344-12.047-80.391-36.703-1.0781-1.4062-2.8125-2.2969-4.6875-1.9688-2.5781 0.42188-4.3125 2.8594-3.8906 5.4375 1.7812 10.312 5.625 19.359 11.016 28.172 16.922 28.5 52.5 44.438 85.219 37.031 19.5-4.1719 33.703-17.016 42.375-33.328 3 6.6562 7.0312 12.844 12.328 18.375 17.297 17.859 45.656 20.203 68.016 12.984 21.094-6.5625 38.438-21.984 49.219-40.406 5.2031-9 9.0469-18.141 11.016-28.453 0.28125-1.5938-0.23438-3.2812-1.5469-4.4062-1.9688-1.7344-4.9688-1.5-6.6562 0.46875z"/>
 <path d="m941.76 579.52c-7.2188-18.891-13.734-37.734-18.562-57.234-7.0312-27-14.438-54.609-25.219-80.719 7.2656-3.8438 13.359-9.6094 18.469-16.734 58.219-80.531 64.5-186.24 48.844-281.16-1.5469-10.078-4.2188-20.25-9.7969-28.922-9.6562-15.516-26.156-26.297-44.297-28.828-13.828-1.9688-27.516 1.8281-40.641 5.5312-57.562 16.219-102.38 64.125-127.97 115.73-8.3906 16.312-16.078 33.891-18.422 52.078-4.3125-2.0156-9-3.5156-13.875-4.9219-38.062-11.859-78.141-16.219-117.8-15.094-42.234 1.0781-85.453 9.375-124.69 26.25-1.5-17.016-8.2031-33.188-15.609-48.562-21.234-44.062-54.984-81-94.828-108.7-4.125-2.8594-8.3906-5.5781-12.562-8.3438-20.344-12.891-47.344-14.344-68.812-3.5156-19.031 9.0938-33.844 27.703-38.25 48.328-2.9062 13.078-4.9688 26.906-6.5156 40.219-8.4375 73.547 4.0312 149.86 36.75 216.32 2.4844 5.4375 6.1406 12.516 9.1875 17.859 3.5625 7.2656 9.0469 13.734 15.703 18.516-6.2812 12.516-11.859 25.406-16.781 38.484-19.219 52.031-38.578 105.33-54.469 158.48-17.016 57.844-29.156 118.59-28.031 179.39 0.32812 8.1562 0.84375 17.109 1.3125 25.359 0.375 5.9062 2.2031 19.125 2.8594 25.266 1.2188 9.3281 3.5156 19.922 5.1562 29.203 42.375 186.94 296.68 232.97 459.24 218.48 100.17-10.688 200.02-48.703 274.08-118.64 20.484-20.109 39.234-43.172 49.875-70.688 2.25-5.8125 5.4375-14.531 7.2188-20.531 37.078-115.03-9.75-218.9-51.422-322.82zm-12.094 330.84c-12.609 23.812-33.562 43.922-54.938 60.656-70.641 53.578-159.89 81.656-248.26 84.938-126.61 3.5625-330.32-29.391-368.21-171-1.6875-6.375-2.9531-14.859-4.3594-21.328-1.125-4.7344-2.4375-16.875-3.0938-21.797-1.2656-9.5625-1.5938-19.688-2.2031-29.344-2.1562-76.172 18.703-150.71 42.375-222.61 10.266-31.406 22.547-65.531 33.047-96.891 14.484-45.469 33.609-88.594 60-128.72 2.9531-4.4062 3-10.406-0.375-14.906-4.2656-5.7188-12.328-6.8906-18.047-2.6719-17.438 12.984-32.578 29.062-45.609 46.547-2.0156-4.3125-4.0781-8.5781-5.7656-13.031-4.0312-9.0938-8.9062-23.531-12-33-17.672-58.594-20.625-121.4-9-181.5l1.6406-8.2969c1.5-7.9688 10.922-12.562 18.234-9.4688 0.51562 0.375 1.1719 0.5625 1.7344 0.84375 3.4688 2.2031 7.0312 4.3594 10.453 6.6094 32.812 21.609 61.875 50.25 80.109 85.078 8.0156 14.906 12.891 30.844 21.75 45.469 3.0469 4.9688 6.1406 10.688 10.219 14.906l11.625 5.25c0.23438 0.09375 0.51562 0.23438 0.79688 0.32812 0.79688 0.28125 1.6406 0.42188 2.4844 0.51562 0.375 0.375 0.79688 0.79688 1.2188 1.1719 6.5625 5.6719 14.953 10.969 22.875 7.9688l8.0625-2.5781c13.547-4.0312 27.375-7.0312 41.391-9.375 44.906-6.9844 91.969-8.8594 137.39-4.5469 11.25 1.2656 22.406 2.9531 33.328 5.3438 5.5312 1.125 10.734 3.0938 16.406 3.5156 7.125 0.1875 13.172-1.125 20.297-5.0156 2.0156-0.98438 3.8438-2.2969 5.3906-3.8438 3.2812 0.23438 6.6094-0.70312 9.375-2.9531 6.1875-4.5469 10.922-11.156 15.328-17.297 10.688-14.906 16.828-31.781 25.688-47.578 24.234-44.203 63.094-82.031 114.14-88.219 1.1719 0.28125 2.2969 1.0781 2.9062 2.1094 0.375 0.70312 0.51562 1.4531 0.65625 2.2031l0.9375 5.625c13.312 81.891 12.422 172.22-32.484 244.26-12-18.234-26.859-35.109-45.328-47.484-2.3906-1.5469-5.4844-2.0625-8.3438-1.0312-4.8281 1.7344-7.3594 7.0781-5.625 11.906 7.3594 19.734 15.047 38.156 22.031 57.609 13.781 37.875 27.188 75.797 36.094 115.41 9.6562 42 27.047 82.969 42.047 122.76 32.391 83.672 53.531 168.42 13.688 253.4z"/>
</svg>
