<?xml version="1.0" encoding="UTF-8"?>
<svg width="1200pt" height="1200pt" version="1.1" viewBox="0 0 1200 1200" xmlns="http://www.w3.org/2000/svg">
 <path d="m937.73 611.25c-2.1094-32.344-7.5-63.984-16.172-94.453l90.469 41.719 16.641-36.328-125.62-57.656c-7.9688-18.75-17.344-37.031-27.891-54.375l-5.8594-9.6094h-14.531c-44.531-146.02-143.67-239.77-255.94-239.77s-211.64 93.75-255.94 239.77h-14.531l-5.8594 9.6094c-10.781 17.812-20.156 36.328-28.125 55.547l-123.28 56.719 16.641 36.328 88.359-40.547c-8.6719 31.172-14.062 63.75-15.938 97.031l-78.75 156.33 35.625 18.047 45.938-91.172c5.3906 44.297 16.875 86.25 33.75 124.45l-17.344 155.16 39.609 4.4531 11.016-98.203c62.109 94.688 159.38 155.86 268.83 155.86 110.39 0 208.36-62.344 270.47-158.44l11.25 100.78 39.609-4.4531-17.812-158.91c16.406-38.203 27.422-79.922 32.578-123.98l47.344 94.219 35.625-18.047-80.391-159.84zm-338.67-410.86c91.406 0 173.67 77.578 214.22 199.69h-428.44c40.547-122.11 122.81-199.69 214.22-199.69zm-299.77 440.62c0-71.953 17.812-141.09 51.797-200.86h227.81v558.05c-155.62-12.422-279.61-167.58-279.61-357.19zm319.69 357.19v-558.05h227.81c33.984 59.766 51.797 128.91 51.797 200.86 0 189.61-123.75 345-279.61 357.19z"/>
 <path d="m459.14 550.08c0 16.57-13.43 30-30 30s-30-13.43-30-30 13.43-30 30-30 30 13.43 30 30z"/>
 <path d="m798.75 550.08c0 16.57-13.43 30-30 30s-30-13.43-30-30 13.43-30 30-30 30 13.43 30 30z"/>
 <path d="m519.14 690c0 16.57-13.43 30-30 30s-30-13.43-30-30 13.43-30 30-30 30 13.43 30 30z"/>
 <path d="m738.98 690c0 16.57-13.43 30-30 30s-30-13.43-30-30 13.43-30 30-30 30 13.43 30 30z"/>
 <path d="m459.14 829.69c0 16.57-13.43 30-30 30s-30-13.43-30-30 13.43-30 30-30 30 13.43 30 30z"/>
 <path d="m798.75 829.69c0 16.57-13.43 30-30 30s-30-13.43-30-30 13.43-30 30-30 30 13.43 30 30z"/>
 <path d="m558.98 280.31c0 11.004-8.918 19.922-19.922 19.922s-19.922-8.918-19.922-19.922 8.918-19.922 19.922-19.922 19.922 8.918 19.922 19.922z"/>
 <path d="m678.98 280.31c0 11.004-8.918 19.922-19.922 19.922s-19.922-8.918-19.922-19.922 8.918-19.922 19.922-19.922 19.922 8.918 19.922 19.922z"/>
</svg>
