<?xml version="1.0" encoding="UTF-8"?>
<svg width="1200pt" height="1200pt" version="1.1" viewBox="0 0 1200 1200" xmlns="http://www.w3.org/2000/svg">
 <path d="m431.26 697.87c-10.312 0-18.75 8.4375-18.75 18.75v37.5c0 10.312 8.4375 18.75 18.75 18.75s18.75-8.4375 18.75-18.75v-37.5c0-10.312-8.4375-18.75-18.75-18.75z"/>
 <path d="m750 697.87c-10.312 0-18.75 8.4375-18.75 18.75v37.5c0 10.312 8.4375 18.75 18.75 18.75s18.75-8.4375 18.75-18.75v-37.5c0-10.312-8.4375-18.75-18.75-18.75z"/>
 <path d="m955.31 496.13c-3.9375-29.625-19.5-56.625-43.5-74.812 4.6875-13.5 6.9375-27.75 6.9375-42.188 0-72.375-58.875-131.26-131.26-131.26-20.438 0-40.312 4.6875-58.312 13.688-11.25-61.125-64.875-107.44-129.19-107.44s-117.94 46.5-129.19 107.44c-18-9-37.875-13.688-58.312-13.688-72.375 0-131.26 58.875-131.26 131.26 0 14.438 2.25 28.5 6.9375 42.188-24 18.188-39.75 45.188-43.5 74.812-39 12.562-150.94 58.125-150.94 164.26 0 36 16.125 52.312 29.812 59.812 9.9375 5.4375 21.562 7.6875 33.938 7.6875 35.062 0 76.875-17.625 107.62-33.562-14.438 67.875-18.562 156.19 27.188 228.37 51.75 81.75 155.26 123.19 307.69 123.19 152.44 0 255.74-41.438 307.69-123.19 45.562-72.188 41.438-160.5 27.188-228.37 30.75 15.938 72.75 33.562 107.62 33.562 12.562 0 24.188-2.25 33.938-7.6875 13.5-7.5 29.812-23.812 29.812-59.812 0-106.12-111.94-151.69-150.94-164.26zm-634.87-51.188c8.8125-4.875 12.188-15.75 7.875-24.75-6.375-12.938-9.5625-26.812-9.5625-41.062 0-51.75 42-93.75 93.75-93.75 23.25 0 45.562 8.625 63 24.375 5.8125 5.25 14.062 6.375 21 2.8125 6.9375-3.375 11.062-10.875 10.312-18.562-0.1875-2.8125-0.375-5.8125-0.375-8.8125 0-51.75 42-93.75 93.75-93.75s93.75 42 93.75 93.75c0 3 0 5.8125-0.375 8.8125-0.75 7.6875 3.375 15 10.312 18.562s15.188 2.25 21-2.8125c17.25-15.75 39.75-24.375 63-24.375 51.75 0 93.75 42 93.75 93.75 0 14.25-3.1875 28.125-9.5625 41.062-4.3125 9-0.9375 19.875 7.875 24.75 24.188 13.312 39.188 38.438 39.188 65.438 0 41.438-33.562 75-75 75-29.25 0-56.062-17.25-68.062-44.062-3.1875-6.9375-10.312-11.438-17.812-11.062-7.6875 0.375-14.25 5.25-16.875 12.375-21.375 59.25-78 99-140.81 99s-119.44-39.75-140.81-99c-2.625-7.125-9.375-12-16.875-12.375-7.6875-0.375-14.625 4.125-17.812 11.062-12.188 26.812-39 44.062-68.062 44.062-41.438 0-75-33.562-75-75 0-27.188 15-52.125 39.188-65.438zm-41.812 198.56c-44.25 27.375-112.5 57.188-137.06 43.688-2.625-1.3125-10.312-5.625-10.312-26.812 0-73.125 77.438-111 115.31-125.06 6.375 28.125 23.25 52.312 46.312 68.062-3.9375 9.75-9.1875 23.438-14.438 40.125zm279.74 217.87h83.438l-41.625 41.625-41.625-41.625zm317.44 41.25c-42.375 66.938-128.81 102.38-257.06 105.56v-72.75c2.8125-1.6875 5.4375-3.375 7.6875-5.8125l41.625-41.625c10.688-10.688 13.875-26.812 8.0625-40.875s-19.5-23.062-34.688-23.062h-83.438c-15.188 0-28.875 9-34.688 23.062s-2.625 30.188 8.0625 40.875l41.625 41.625c2.4375 2.4375 5.0625 4.125 7.6875 5.8125v72.75c-128.26-3.1875-214.69-38.438-257.06-105.38-61.875-97.5-15.188-237.56 3.1875-283.69 9.1875 2.4375 18.938 3.9375 29.062 3.9375 31.688 0 61.5-13.5 82.312-36.188 33.188 56.438 94.5 92.438 161.44 92.438s128.06-36 161.44-92.438c21 22.688 50.625 36.188 82.312 36.188 10.125 0 19.688-1.5 29.062-3.9375 18.188 46.125 64.875 186.19 3.1875 283.69zm182.63-215.44c-24.75 13.5-92.812-16.5-137.06-43.688-5.25-16.688-10.5-30.375-14.438-40.125 23.062-15.75 39.938-39.938 46.312-68.062 37.875 14.062 115.31 51.938 115.31 125.06 0 21.188-7.6875 25.5-10.312 26.812z"/>
</svg>
