<?xml version="1.0" encoding="UTF-8"?>
<svg width="1200pt" height="1200pt" version="1.1" viewBox="0 0 1200 1200" xmlns="http://www.w3.org/2000/svg">
 <path d="m1015.8 582.24 97.219-56.062-100.69-58.172c-18.469-75.984-71.297-138.98-142.92-170.44-71.578-31.453-153.74-27.75-222.19 10.078-68.438 37.781-115.36 105.33-126.89 182.68h-222.1c47.859-46.688 75.094-110.62 75.656-177.52 0.51562-66.891-25.688-131.21-72.844-178.69-47.109-47.484-111.23-74.156-178.18-74.109h-36v466.22c0.14062 89.062 25.734 176.26 73.781 251.21 48.047 75 116.58 134.72 197.44 172.03-0.46875 2.2969-0.70312 4.6875-0.70312 7.0781v183.47h149.26l-77.531-43.078 0.046875-121.45c32.859 9.1406 66.703 14.625 100.78 16.312v148.22h149.29l-77.625-43.078-0.046876-107.06c104.95-11.109 203.06-57.469 278.29-131.48 75.234-74.016 123.14-171.37 135.94-276.14zm-853.4-20.156h351.32c-11.062 54.422-46.734 100.69-96.609 125.16-49.875 24.516-108.23 24.516-158.11 0-49.875-24.469-85.547-70.734-96.609-125.16zm-3.6094-426.71c54.422 11.062 100.64 46.734 125.16 96.609 24.516 49.875 24.516 108.23 0 158.11-24.516 49.875-70.734 85.547-125.16 96.609zm72 617.29v-0.046875c77.672 37.078 168.94 31.688 241.64-14.297 72.75-45.984 116.81-126.1 116.67-212.11 0-64.078 34.172-123.24 89.625-155.29 55.5-32.016 123.84-32.016 179.29 0 55.453 32.062 89.625 91.219 89.625 155.29 0.046875 112.55-48 219.74-132.05 294.61-84.047 74.859-196.08 110.2-307.87 97.172s-212.72-73.172-277.31-165.37z"/>
 <path d="m898.78 501.24c0 75.984-114 75.984-114 0s114-75.984 114 0"/>
</svg>
