<?xml version="1.0" encoding="UTF-8"?>
<svg width="1200pt" height="1200pt" version="1.1" viewBox="0 0 1200 1200" xmlns="http://www.w3.org/2000/svg">
 <path d="m1033.6 633.75c-17.812-17.812-44.062-88.828-42.656-124.45 0.9375-20.625 2.3438-54.141-19.219-75.234-1.6406-5.625-3.2812-11.016-5.1562-16.406 43.828-18.75 72.656-60.938 72.656-109.22 0-66.094-53.672-119.77-119.77-119.77-42.891 0-81.328 22.5-102.66 58.828-14.766-3.75-29.531-5.625-44.531-4.9219 5.3906-7.9688 11.953-15.469 20.156-22.969 9.1406-8.4375 11.484-21.562 5.625-32.578s-18.281-16.641-30.234-13.828c-43.594 10.078-91.875 35.156-115.31 66.797-18.281-8.2031-38.906-10.547-50.156-11.484h-6.3281c-10.078 0.70312-30.469 3.2812-48.75 11.484-23.438-31.641-71.953-56.719-115.55-66.797-11.953-2.8125-24.375 2.8125-30.234 13.828s-3.5156 24.141 5.625 32.578c8.2031 7.2656 14.766 15 20.156 22.969-15-0.70312-29.766 0.9375-44.531 4.9219-21.328-36.094-60.469-59.062-102.66-59.062-66.094 0-119.77 53.672-119.77 119.77 0 47.812 29.062 90.234 72.656 108.98-1.6406 5.3906-3.5156 10.781-5.1562 16.406-21.328 21.094-19.922 54.609-19.219 75.234 1.6406 37.5-20.859 102.66-42.656 124.45l-5.8594 5.8594v8.4375c0.46875 30.703 28.125 62.344 57.422 76.875 0.46875 38.203 27.891 71.25 52.969 96.797 22.266 22.734 33.047 52.969 29.531 83.203l-3.5156 30 29.062-8.6719c3.2812-0.9375 6.5625-1.875 9.8438-2.5781 15.234-3.9844 34.219-8.9062 48.281-23.672 24.844 19.453 61.641 34.453 90.703 46.172 9.375 3.75 17.578 7.2656 23.672 10.078 14.297 6.7969 31.641 21.094 48.281 35.156 13.594 11.25 27.422 22.969 41.719 32.344l6.3281 3.2812h11.953l4.9219-3.2812c14.062-9.375 28.125-21.094 41.719-32.344 16.641-14.062 33.984-28.359 48.281-35.156 6.0938-2.8125 14.297-6.0938 23.672-10.078 29.062-11.719 65.859-26.953 90.703-46.172 14.062 14.531 33.047 19.688 48.281 23.672 3.2812 0.9375 6.5625 1.6406 9.8438 2.5781l29.062 8.6719-3.5156-30c-3.5156-30.234 7.2656-60.469 29.531-83.203 25.078-25.547 52.5-58.594 52.969-96.797 29.297-14.766 56.953-46.172 57.422-76.875v-8.4375zm-178.83-371.25c14.766-21.094 38.672-33.984 64.922-33.984 44.062 0 79.922 35.859 79.922 79.922 0 29.062-15.469 54.844-39.844 68.672-11.016-22.031-25.781-41.25-39.375-57.891-0.70312-0.9375-1.4062-1.6406-2.1094-2.3438-12.422-16.406-26.484-30.234-41.953-41.25-6.5625-4.6875-12.891-8.4375-19.688-12.188-0.9375-0.23438-1.4062-0.70312-1.875-0.9375zm-654.14 45.938c0-44.062 35.859-79.922 79.922-79.922 23.203 0 45 10.312 59.766 27.422-18.281 9.1406-35.391 24.375-51.328 45-19.219 20.625-35.859 45.938-49.688 75.234-23.672-14.297-38.672-39.609-38.672-67.734zm754.92 384.38-17.812 4.9219 3.5156 18.281c5.3906 26.719-17.578 54.375-40.781 78.047-23.672 24.141-37.969 54.844-41.016 86.953-11.719-4.2188-17.578-8.9062-20.625-19.219l-13.125-43.125-23.203 38.906c-11.484 19.219-63.984 40.781-92.344 52.266-10.078 4.2188-19.219 7.7344-25.547 10.781-18.984 8.9062-38.203 25.078-56.953 40.547-9.1406 7.7344-18.516 15.469-27.656 22.266-9.1406-6.7969-18.516-14.531-27.656-22.266-18.75-15.469-37.969-31.641-56.953-40.547-6.5625-3.0469-15.469-6.7969-25.547-10.781-28.125-11.484-80.859-32.812-92.344-52.266l-23.203-38.906-13.125 43.125c-3.2812 10.547-8.9062 15.234-20.625 19.219-3.0469-32.109-17.344-62.812-41.016-86.953-23.203-23.672-46.172-51.328-40.781-78.047l3.5156-18.281-17.812-4.9219c-17.578-4.9219-37.5-23.672-42.656-38.672 29.062-36.094 48.984-105.23 47.109-146.48-0.70312-19.688-0.70312-39.375 8.9062-46.641l5.3906-4.2188 1.875-6.5625c18.984-70.078 45.703-116.48 81.797-142.03 35.391-25.078 70.547-31.641 107.34-20.625l32.344 9.6094-7.0312-33.047c-2.8125-12.891-7.7344-25.312-14.766-37.266 28.594 13.359 51.094 31.641 56.016 47.344l9.8438 31.641 23.438-23.438c7.9688-7.9688 28.828-12.891 43.359-14.062h3.2812c16.172 1.1719 37.031 6.0938 45 14.062l23.438 23.438 9.8438-31.641c4.9219-15.703 27.422-33.984 56.016-47.344-7.0312 11.953-11.953 24.375-14.766 37.266l-7.0312 33.047 32.344-9.6094c27.188-8.2031 53.203-6.5625 79.219 4.6875 4.4531 2.1094 8.9062 3.9844 13.125 6.5625 16.172 9.6094 31.641 23.203 46.875 40.781 20.625 26.719 37.031 63.047 49.922 110.62l1.875 6.5625 5.3906 4.2188c9.8438 7.2656 9.8438 27.188 8.9062 46.641-1.6406 41.016 22.266 113.2 47.344 146.25-4.9219 15-24.844 33.984-42.656 38.906z"/>
 <path d="m753.05 385.78-27.188-19.453-4.2188 33.047c-2.5781 19.922-11.25 37.734-24.844 51.328l-7.0312 7.0312-7.0312-7.0312c-8.4375-8.4375-15-18.516-19.453-29.531l-18.516-46.172-18.516 46.172c-4.4531 11.016-11.016 21.094-19.453 29.531l-7.0312 7.0312-7.0312-6.7969c-8.4375-8.4375-15-18.516-19.453-29.531l-18.516-45.938-18.516 45.938c-4.4531 11.016-11.016 21.094-19.453 29.531l-7.0312 7.0312-7.0312-7.0312c-13.594-13.594-22.266-31.406-24.844-51.328l-4.2188-33.047-27.188 19.453c-57.656 41.016-93.75 102.66-100.08 170.16-30.234 30.234-46.172 65.391-46.172 101.95 0 106.41 131.48 189.61 299.53 189.61s299.53-83.438 299.53-189.61c0-36.562-15.938-71.484-46.406-101.95-6.0938-67.5-42.188-129.14-99.844-170.39zm-153.05 421.88c-140.62 0-259.69-68.672-259.69-149.77 0-34.453 21.328-61.641 39.141-78.047l5.8594-5.3906 0.46875-7.9688c2.8125-48.75 24.844-94.453 61.172-128.91 6.3281 15.703 15.703 29.766 27.656 41.953l35.156 35.156 35.156-35.156c3.5156-3.5156 6.7969-7.2656 9.8438-11.016 3.0469 3.75 6.3281 7.5 9.8438 11.016l35.156 35.156 35.156-35.156c3.5156-3.5156 6.7969-7.2656 9.8438-11.016 3.0469 3.75 6.3281 7.5 9.8438 11.016l35.156 35.156 35.156-35.156c11.953-11.953 21.328-26.25 27.656-41.953 36.328 34.453 58.125 80.156 61.172 128.91l0.46875 7.9688 5.8594 5.3906c17.812 16.641 39.141 43.594 39.141 78.047 0.46875 81.094-118.59 149.77-259.22 149.77z"/>
 <path d="m540 568.12c0 22.004-17.84 39.844-39.844 39.844s-39.844-17.84-39.844-39.844 17.84-39.844 39.844-39.844 39.844 17.84 39.844 39.844z"/>
 <path d="m739.69 568.12c0 22.004-17.84 39.844-39.844 39.844s-39.844-17.84-39.844-39.844 17.84-39.844 39.844-39.844 39.844 17.84 39.844 39.844z"/>
 <path d="m629.53 733.12c-7.7344-3.9844-9.375-18.281-9.6094-27.891 23.203-5.625 39.844-20.156 39.844-37.5 0-22.031-26.719-40.078-60-40.078-33.047 0-60 17.812-60 40.078 0 17.344 16.641 32.109 39.844 37.5-0.23438 9.6094-1.875 23.906-9.6094 27.891-15.234 7.7344-55.781-11.25-79.219-28.125l-23.203 32.344c10.078 7.2656 54.141 37.266 93.516 37.266 9.6094 0 18.75-1.875 27.188-6.0938 4.2188-2.1094 7.9688-5.1562 11.25-8.4375 3.5156 3.2812 7.0312 6.0938 11.25 8.4375 8.4375 4.2188 17.812 6.0938 27.188 6.0938 39.141 0 83.203-30 93.516-37.266l-23.438-32.344c-22.734 17.109-63.281 36.094-78.516 28.125z"/>
</svg>
