<?xml version="1.0" encoding="UTF-8"?>
<svg width="1200pt" height="1200pt" version="1.1" viewBox="0 0 1200 1200" xmlns="http://www.w3.org/2000/svg">
 <path d="m754.97 929.29c-17.25 28.547-39.141 56.109-65.016 82.031-3 3-6.8906 4.4531-10.781 4.4531s-7.8281-1.5-10.781-4.4531c-5.9531-5.9531-5.9531-15.609 0-21.562 24.141-24.141 44.531-49.828 60.516-76.219 4.3594-7.2188 13.734-9.5156 20.953-5.1562s9.5156 13.734 5.1562 20.953zm33.656-152.02c-8.3438-1.0312-15.984 4.9688-16.969 13.312-1.9688 16.453-5.2969 32.719-9.7969 48.328-2.3438 8.1094 2.3438 16.547 10.406 18.891 1.4062 0.42188 2.8594 0.60938 4.2656 0.60938 6.6094 0 12.703-4.3594 14.625-11.016 4.9688-17.203 8.5781-35.062 10.781-53.156 1.0312-8.3438-4.9688-15.984-13.312-16.969zm295.45-330.19c-2.9062 3.5625-7.2656 5.625-11.812 5.625-0.89062 0-1.8281-0.09375-2.7656-0.23438-29.719-5.4375-60.844-10.781-90.984-15.938-58.875-10.078-119.34-20.672-176.76-33.094-13.594 41.906-21.938 100.55 9.4219 152.76 0 0.046875 0.046875 0.046875 0.046875 0.09375 1.2656 2.1094 22.406 38.859 36.703 96.188 0.14062 0.375 0.1875 0.75 0.28125 1.125 5.5781 22.547 10.172 47.953 11.953 76.078 3.75 59.156-5.3438 116.53-27.047 170.58-26.953 67.266-73.5 129.28-138.32 184.36-2.8125 2.3906-6.3281 3.6094-9.8906 3.6094-2.9062 0-5.8594-0.84375-8.3906-2.5312l-557.16-368.29c-6.9844-4.5938-8.9531-13.969-4.4062-21 29.719-46.172 68.156-78.094 117.61-97.641 42.094-16.594 85.125-21.516 123.05-25.828 33.047-3.75 61.594-6.9844 81.188-16.922 27.75-14.016 43.5-53.438 45.562-113.95 0.9375-26.859-4.7344-45.328-11.25-66.656-5.2031-16.969-11.062-36.188-13.688-61.125-5.1562-49.547 3.1406-91.969 24.656-126.1 22.125-35.062 51.516-58.359 87.328-69.188 30.844-9.3281 66.094-9.7031 107.77-1.125 27.938 5.7656 52.875 14.297 74.109 25.406 27.844 14.578 49.359 33.562 63.891 56.438 7.6406 11.953 13.312 24.609 17.109 37.828 44.156 11.156 96.281 35.672 141.89 67.688 55.219 38.812 95.109 83.672 112.27 126.42 2.0625 5.1562 1.1719 11.016-2.3438 15.328zm-756.61 160.13c38.719 87.703 125.48 145.82 222.56 145.82 4.8281 0 9.7969-0.5625 14.672-0.84375 1.2656-70.312-20.438-134.02-66.094-179.72-5.5781-5.5781-11.859-10.078-17.953-14.953-8.5312 11.109-18.469 19.922-30.141 25.781-24.469 12.375-55.547 15.891-91.5 20.016-10.359 1.1719-20.906 2.4375-31.547 3.8906zm-178.36 93.281 361.13 238.64c29.25-52.125 46.781-105.42 52.453-156.37-4.2188 0.1875-8.4375 0.75-12.609 0.75-57.984 0-113.44-17.859-160.31-51.656-22.547-16.266-42.469-35.812-59.203-58.031-14.203-18.891-25.172-39.703-34.078-61.453-52.781 10.266-105.7 31.031-147.37 88.172zm680.68 32.297c-1.5-24.938-5.4375-47.766-10.312-68.203-103.03-119.48-219.79-187.97-306.79-226.08 0 1.6406 0.1875 3 0.09375 4.6875-1.2188 35.25-7.0312 64.406-16.875 87.516 8.3438 6.375 16.781 12.656 24.281 20.203 24.656 24.656 43.688 54.188 56.484 87.656 12.281 32.156 18.656 67.453 18.938 104.91 0.28125 36.703-5.2969 74.672-16.547 112.92-10.031 33.984-25.031 67.312-43.359 99.703l147.94 97.781c104.2-92.016 153.32-199.97 146.11-321.05zm-44.812-161.02c-24.094-40.172-31.5-87.141-22.078-139.55 3.2812-18.328 8.3906-34.922 13.781-49.547v-0.28125c0.046875-0.28125 0.28125-0.51562 0.375-0.79688 6.375-17.156 13.125-31.266 18.047-40.406 18.188-52.031 16.453-90.609-5.625-124.97l-0.046875-0.046875c-26.531-41.766-79.031-60.188-118.41-68.297-76.875-15.844-128.72 2.2031-163.18 56.719-17.766 28.172-24.562 64.031-20.109 106.64 2.2969 21.984 7.4531 38.953 12.516 55.359 3.6094 11.812 7.1719 23.953 9.6562 37.5 78.984 32.859 185.95 91.172 286.5 191.06-6.2812-14.203-11.109-22.828-11.391-23.344zm259.45-154.82c-18.75-29.391-49.031-59.391-87.844-86.625-38.391-26.953-81.234-47.953-119.11-59.484 0.09375 1.6875 0.375 3.3281 0.42188 5.0625 0.28125 23.156-4.4531 48.234-14.484 76.641-0.28125 0.75-0.60938 1.5-0.98438 2.2031-2.5312 4.6875-6 11.531-9.6562 19.828 55.5 11.906 113.86 22.172 170.9 31.922 20.016 3.4219 40.5 6.9375 60.75 10.5zm-341.21-163.22c0 25.594-20.859 46.406-46.5 46.406s-46.5-20.812-46.5-46.406c0-25.641 20.859-46.5 46.5-46.5s46.5 20.859 46.5 46.5zm-30.516 0c0-8.8125-7.1719-15.984-15.984-15.984s-15.984 7.1719-15.984 15.984c0 8.7656 7.1719 15.891 15.984 15.891s15.984-7.125 15.984-15.891z"/>
</svg>
