<?xml version="1.0" encoding="UTF-8"?>
<svg width="1200pt" height="1200pt" version="1.1" viewBox="0 0 1200 1200" xmlns="http://www.w3.org/2000/svg">
 <path d="m1197.1 576.97c-1.8984-2.8516-4.5781-5.1055-7.7305-6.4414-34.043-14.395-69.449-24.816-105.33-30.996-67.27-11.59-115.53-5.0039-166.61 1.9727-32.316 4.4141-65.73 8.9961-105.16 8.7109-42.773-0.28906-109-4.6055-191.18-38.289-23.07-24.457-54.395-46.926-90.543-64.809 5.8203-34.938 9.2109-73.008 9.9961-113.41 50.348 10.516 93.531-0.99219 107.3-29.555 6.0508-12.551 6.0508-28.16 0.003906-40.73-14.707-30.574-64.633-42.016-126.51-29.879 4.2852-18.816 15.957-52.281 46.086-65.488 17.895-6.5 37.078-6.4883 57.566 0.14844 51.633 20.168 79.613 116.13 69.668 238.85-0.31641 3.8906 1.5352 7.7891 4.9961 9.5938 4.8789 2.543 10.664 0.51172 12.996-4.1836 36.801-74.121 52.828-153.96 45.125-224.8-7.4883-68.879-36.121-123.99-80.617-155.17-46.379-32.5-113.32-41.488-170.54-22.898-74.926 24.332-111.41 86.09-126.77 121.76-15.363-35.672-51.863-97.434-126.76-121.76-57.219-18.59-124.16-9.6016-170.54 22.898-44.508 31.195-73.137 86.305-80.625 155.18-7.6914 70.742 8.2812 150.45 44.973 224.49 1.7344 3.4961 5.3594 5.8516 9.2539 5.5859 5.4805-0.37109 9.3477-5.082 8.9219-10.289-10.039-122.91 17.941-219.06 69.633-239.25 29.984-11.711 57.324-0.25 57.566-0.14844 30.129 13.207 41.805 46.672 46.086 65.488-61.859-12.133-111.8-0.69922-126.51 29.879-6.0469 12.574-6.0469 28.18 0.003906 40.73 13.77 28.562 56.949 40.074 107.3 29.555 1.4531 74.75 11.789 141.55 30.07 195.12-6.5469 40.387-14.246 99.008-14.664 153.45-0.58594 75.996 13.008 119.86 41.531 133.88-9.3281 109.21 2.8086 174.16 36.098 193.35l21.223 182.02c0.55859 4.8008 4.625 8.4219 9.4609 8.4219h323.82c3.8438 0 7.332-2.3047 8.7891-5.8594 20.973-51.133 33.664-104.63 37.84-159.25 31.34 13.941 64.129 23.34 99.016 26.16 36.855-0.53516 59.961-9.2852 82.305-17.75 20.434-7.7383 39.785-15.031 68.773-14.715 24.531 0.28125 38.781 4.9766 53.871 9.9492 8.8555 2.918 18.012 5.9336 29.418 8.1836 8.9492 1.7656 20.504 2.9141 35.34 3.5039 36.309 1.4492 74.059-6.0938 112.21-22.402 3.5078-1.4961 5.7812-4.9414 5.7812-8.7578v-432.32c0.003906-3.457-1.0156-6.8398-2.9336-9.7188zm-684.61-549.25c51.738-16.805 112.07-8.8008 153.72 20.387 39.938 27.988 65.727 78.285 72.617 141.63 5.7227 52.641-2.4375 110.68-23.129 167.41-0.19531-66.398-12.16-121.86-33.645-159.37 7.3555-6.6289 13.809-14.129 19.211-22.398 4.8125-7.3633 8.7812-15.305 11.793-23.609 1.793-4.9453-0.76172-10.406-5.7031-12.199-4.9453-1.7891-10.406 0.76172-12.203 5.7031-2.5117 6.9258-5.8164 13.543-9.8281 19.68-3.9805 6.0898-8.6797 11.648-13.941 16.688-6.3555-8.2773-13.324-15.281-20.887-20.852 3.1602-6.4531 6.0156-13.074 8.5039-19.785 5.3945-14.582 9.1992-29.82 11.309-45.305 0.71094-5.2109-2.9375-10.016-8.1484-10.723-5.2305-0.71094-10.016 2.9375-10.723 8.1484-1.9258 14.105-5.3945 27.992-10.301 41.27-2.125 5.7383-4.5625 11.398-7.2305 16.934-7.7461-3.4258-15.695-5.6133-23.852-6.5234-0.042969-14.059-1.6133-28.047-4.7461-41.703-2.6875-11.699-6.5156-23.207-11.383-34.191-2.1328-4.8086-7.7578-6.9844-12.566-4.8516-4.8086 2.1328-6.9805 7.7578-4.8516 12.566 4.375 9.8789 7.8203 20.223 10.234 30.738 2.7539 11.996 4.1641 24.289 4.2617 36.652-8.5703 0.44922-15.871 1.8789-21.262 3.3086-4.7812-13.438-11.539-25.895-20.238-37.105-6.7344-8.6758-14.57-16.52-23.285-23.316-4.1484-3.2305-10.137-2.4883-13.363 1.6562-3.2344 4.1484-2.4922 10.133 1.6562 13.367 7.4727 5.8242 14.184 12.547 19.949 19.973 7.6172 9.8125 13.508 20.758 17.625 32.59-7.2773 4.1367-13.547 9.168-18.945 14.711-5.418-6.0859-11.219-11.832-17.406-17.105-10.48-8.9258-22.012-16.621-34.277-22.875-4.6875-2.3906-10.426-0.52734-12.812 4.1562-2.3906 4.6875-0.52734 10.422 4.1562 12.812 10.941 5.582 21.23 12.449 30.578 20.406 6.3594 5.418 12.289 11.375 17.719 17.746-12.426 19.062-17.664 40.027-19.766 51.848-15.453-0.90234-38.961-5.0703-62.324-19.941-28.207-17.957-42.543-42.625-49.066-57.488 5.9375-19.457 36.098-102.96 122.55-131.04zm-285.93 141.48c-5.4023-5.5469-11.668-10.578-18.949-14.711 4.1172-11.832 10.008-22.773 17.625-32.59 5.7578-7.4219 12.473-14.141 19.949-19.969 4.1484-3.2344 4.8906-9.2188 1.6562-13.367-3.2305-4.1484-9.2188-4.8867-13.363-1.6562-8.7227 6.8008-16.559 14.645-23.285 23.316-8.6992 11.203-15.461 23.664-20.238 37.098-5.3906-1.4258-12.699-2.8633-21.262-3.3086 0.097656-12.355 1.5078-24.645 4.2656-36.641 2.4102-10.504 5.8516-20.844 10.234-30.738 2.1328-4.8086-0.042969-10.438-4.8516-12.566-4.8047-2.125-10.434 0.046875-12.562 4.8516-4.8711 11.004-8.6992 22.508-11.383 34.191-3.1367 13.656-4.707 27.645-4.75 41.699-8.5586 1.3906-16.625 3.4102-23.855 6.5273-2.668-5.5352-5.1016-11.195-7.2266-16.938-4.9102-13.277-8.3789-27.164-10.305-41.27-0.71094-5.2109-5.4961-8.8633-10.723-8.1484-5.2109 0.71094-8.8594 5.5117-8.1484 10.723 2.1133 15.48 5.918 30.723 11.312 45.305 2.4844 6.7109 5.3438 13.332 8.5039 19.785-7.5625 5.5664-14.535 12.57-20.887 20.848-5.2617-5.0352-9.9609-10.594-13.941-16.684-4.0117-6.1367-7.3164-12.758-9.8281-19.68-1.7969-4.9453-7.2617-7.5039-12.203-5.7031-4.9414 1.793-7.4961 7.2539-5.7031 12.199 3.0117 8.3008 6.9805 16.242 11.789 23.609 5.4102 8.2734 11.863 15.773 19.219 22.402-21.484 37.516-33.449 92.969-33.645 159.37-20.691-56.734-28.852-114.77-23.129-167.41 6.8867-63.344 32.676-113.64 72.613-141.63 27.16-19.055 62.289-29.074 97.801-29.074 18.906 0 37.934 2.8438 55.91 8.6836 86.414 28.07 116.61 111.57 122.56 131.03-6.5273 14.859-20.863 39.527-49.066 57.488-23.363 14.875-46.871 19.043-62.324 19.941-2.1016-11.82-7.3438-32.785-19.766-51.848 5.4336-6.3711 11.363-12.328 17.723-17.746 9.3438-7.957 19.629-14.824 30.578-20.41 4.6875-2.3906 6.5469-8.125 4.1562-12.812-2.3945-4.6875-8.1328-6.5469-12.812-4.1562-12.27 6.2578-23.801 13.953-34.273 22.875-6.1914 5.2773-12 11.023-17.414 17.113zm21.684 276.6c-1.6914-9.9727-3.1875-20.203-4.4648-30.707 7.4336 6.6875 17.223 10.789 27.98 10.789 23.133 0 41.949-18.836 41.949-41.988s-18.82-41.988-41.949-41.988c-13.23 0-25.031 6.1797-32.727 15.785-0.47656-10.121-0.77734-20.414-0.90625-30.871 4.3945-2.5898 9.0664-4.6602 13.938-6.1719 0.097656-0.03125 9.8555-2.9844 19.695-2.9844 36.469 0 66.137 29.711 66.137 66.227s-29.668 66.227-66.137 66.227c-8.1445 0.007813-16.027-1.457-23.516-4.3164zm23.516 23.375c46.973 0 85.184-38.254 85.184-85.273 0-47.02-38.215-85.273-85.184-85.273-12.797 0-24.816 3.6758-25.324 3.832-7.7148 2.3945-15.008 5.9102-21.746 10.367-50.418 13.348-86.867 1.332-95.676-16.938-3.5391-7.3398-3.5391-16.84 0.003907-24.199 9.7969-20.371 53.773-32.59 118.84-16.527 27.062-0.33203 54.777-8.2656 83.062-22.855 24.309-15.477 39.633-35.281 48.93-51.402 9.2969 16.121 24.625 35.926 48.93 51.402 24.246 11.426 52.121 18.84 83.062 22.855 65.074-16.066 109.04-3.8438 118.84 16.527 3.5391 7.3594 3.543 16.855 0.003906 24.199-8.8047 18.266-45.262 30.277-95.672 16.938-6.7383-4.457-14.027-7.9727-21.75-10.371-0.50391-0.15625-12.523-3.832-25.32-3.832-46.973 0-85.184 38.254-85.184 85.273 0 47.023 38.215 85.273 85.184 85.273 6.6719 0 13.207-0.77734 19.57-2.2773-5.4531 26.262-12.434 50.336-20.883 71.766-5.75 14.578-12.078 27.66-18.922 39.211-16.84-65.18-55.949-103.4-87.855-103.4s-71.016 38.223-87.855 103.4c-6.8398-11.547-13.172-24.633-18.922-39.211-8.4492-21.426-15.43-45.5-20.883-71.766 6.3516 1.5 12.891 2.2812 19.562 2.2812zm216.18-127.27c-23.133 0-41.949 18.836-41.949 41.988 0 23.152 18.82 41.988 41.949 41.988 10.754 0 20.543-4.1055 27.977-10.789-1.2773 10.504-2.7734 20.73-4.4648 30.703-7.4844 2.8555-15.367 4.3242-23.512 4.3242-36.469 0-66.137-29.711-66.137-66.227s29.668-66.227 66.137-66.227c9.8398 0 19.598 2.9531 19.68 2.9805 4.8867 1.5156 9.5586 3.5898 13.953 6.1758-0.12891 10.453-0.42969 20.746-0.90625 30.867-7.6992-9.6094-19.5-15.785-32.727-15.785zm-108.09 229.95c-27.57 0-50.254 21.277-52.555 48.289-7.168-5.6914-14.023-12.605-20.516-20.719 12.344-68.23 50.676-105.91 73.074-105.91 22.398 0 60.727 37.684 73.07 105.91-6.4961 8.1133-13.352 15.027-20.516 20.719-2.3086-27.008-24.992-48.289-52.559-48.289zm33.707 52.812c0 2.6055-0.32031 5.168-0.89844 7.6719-24.492 12.395-46.367 12.395-65.629 0-0.58203-2.5-0.89844-5.0625-0.89844-7.668 0-18.617 15.125-33.766 33.711-33.766 18.594-0.003906 33.715 15.145 33.715 33.762zm767.43 387.98c-33.547 13.527-66.535 19.762-98.184 18.484-13.84-0.55078-24.438-1.582-32.406-3.1562-10.254-2.0195-18.461-4.7227-27.145-7.5898-15.801-5.207-32.137-10.59-59.613-10.906-32.633-0.36328-54.547 7.9258-75.738 15.949-20.809 7.8828-42.324 16.031-75.836 16.516-30.512-3.1445-63.633-14.48-97.539-28.266 1.5781-43.992-2.418-88.148-11.922-131.34-1.1328-5.1367-6.2148-8.3906-11.348-7.2539-5.1367 1.1328-8.3828 6.2109-7.2539 11.348 9.5586 43.445 13.352 87.898 11.273 132.12-2.6133 55.652-14.391 110.24-35.016 162.36h-147.07l-18.004-144.04c-0.48438-3.9023-3.3242-7.1016-7.1367-8.0586-3.8008-0.94922-7.8203 0.53516-10.09 3.7422-2.8789 4.0742-18.332 24.406-39.906 24.547h-0.22266c-24.312 0-51.441-26.055-53.215-65.031-0.15234-3.3398-2.043-6.3555-4.9844-7.9453-2.9375-1.5898-6.4961-1.5195-9.375 0.17969-19.141 11.316-34.48 14.754-45.594 10.203-27.238-11.133-38.004-74.246-29.848-173.76 10.262 0.34375 21.629-2.3398 34.031-8.0664 4.0859 21.609 14.492 40.801 29.582 54.02 12.246 10.73 26.352 16.508 40.109 16.508 20.027-2.9414 36.91-10.656 47.828-27.445 21.566 18.082 47.969 24.547 67.195 15.633 12.957-6.0117 23.18-19.254 28.043-36.332 4.9219-17.281 3.8828-36.113-2.6758-53.965 14.781 2.8633 34.352 3.2461 51.434-7.7227 14.648-9.4102 25.027-25.445 29.23-45.145 4.6133-21.613 1.0508-45.207-9.7539-66.246 32.039-13.742 44.477-31.699 49.195-44.926 7.8242-21.918 2.4258-48.578-15.141-76.16 60.102 20.73 110.62 26.484 148.37 27.938-5.4922 8.5977-10.414 19.957-11.191 33.66-1.5664 27.578 14.316 54.578 40.242 69.738-24.473 55.25-22.684 109.24 5.1992 142.53 26.688 31.863 68.531 34.863 82.281 35.852 2.9805 0.21484 5.9688 0.32031 8.9727 0.32031 58.484 0 121.19-40.574 186.54-120.76 33.066-40.57 59.906-83.223 76.684-112l0.003906 394.48z"/>
</svg>
