<?xml version="1.0" encoding="UTF-8"?>
<svg width="1200pt" height="1200pt" version="1.1" viewBox="0 0 1200 1200" xmlns="http://www.w3.org/2000/svg">
 <path d="m919.69 589.92c0-49.453-6.3281-92.812-18.75-130.31 77.344-5.8594 138.52-70.312 138.52-149.3 0-82.5-67.266-149.77-149.77-149.77-79.219 0-144.14 61.875-149.3 139.69-40.078-13.125-86.953-19.922-140.39-19.922s-100.31 6.5625-140.39 19.922c-5.1562-77.812-70.078-139.69-149.3-139.69-82.5 0-149.77 67.266-149.77 149.77 0 78.75 61.172 143.44 138.52 149.3-12.422 37.734-18.75 81.094-18.75 130.31 0 29.062 7.0312 67.5 19.688 109.92h-139.45v39.844h152.81c7.2656 19.688 15.469 39.609 24.844 59.531h-157.73v39.844h177.89c57.891 106.64 143.44 200.16 241.64 200.16s183.75-93.75 241.64-200.16h177.89v-39.844h-157.73c9.375-19.922 17.578-39.844 24.844-59.531h152.81v-39.844h-139.45c12.656-42.188 19.688-80.625 19.688-109.92zm-39.141-176.95c-22.031-39.844-53.203-70.781-93.75-92.578 11.25-23.906 35.391-39.844 63.047-39.844 38.672 0 69.844 31.406 69.844 69.844 0 26.953-15.469 50.859-39.141 62.578zm9.1406-212.58c60.703 0 109.92 49.219 109.92 109.92 0 40.547-22.266 76.172-55.078 95.156 9.6094-16.406 15.234-35.156 15.234-55.078 0-60.703-49.219-109.92-109.92-109.92-19.922 0-38.672 5.3906-54.844 14.766 18.984-32.812 54.141-54.844 94.688-54.844zm-570.23 212.58c-23.672-11.719-39.141-35.625-39.141-62.578 0-38.438 31.406-69.844 69.844-69.844 27.656 0 51.562 15.938 63.047 39.844-40.547 21.797-71.719 52.734-93.75 92.578zm-119.06-102.66c0-60.703 49.219-109.92 109.92-109.92 40.312 0 75.703 22.031 94.688 54.609-16.172-9.375-34.922-14.766-54.844-14.766-60.469 0-109.92 49.219-109.92 109.92 0 19.922 5.625 38.672 15.234 55.078-32.812-18.75-55.078-54.141-55.078-94.922zm617.58 488.91h-78.047v39.844h56.25c-52.031 87.891-122.81 160.31-195.94 160.31s-143.91-72.422-195.94-160.31h56.25v-39.844h-78.516c-9.8438-19.688-18.984-39.609-26.719-59.531h84.844v-39.844h-99.141c-13.359-41.25-20.859-79.922-20.859-109.92 0-183.98 88.828-269.77 279.61-269.77 188.2 0 279.61 88.125 279.61 269.77 0 30-7.5 68.438-20.859 109.92h-99.141v39.844h84.844c-7.5 19.922-16.406 39.844-26.25 59.531z"/>
 <path d="m480 560.16c0 22.004-17.84 39.844-39.844 39.844s-39.844-17.84-39.844-39.844 17.84-39.844 39.844-39.844 39.844 17.84 39.844 39.844z"/>
 <path d="m799.69 560.16c0 22.004-17.84 39.844-39.844 39.844s-39.844-17.84-39.844-39.844 17.84-39.844 39.844-39.844 39.844 17.84 39.844 39.844z"/>
 <path d="m679.92 879.61c0 33.137-35.781 60-79.922 60s-79.922-26.863-79.922-60 35.781-60 79.922-60 79.922 26.863 79.922 60z"/>
</svg>
