<?xml version="1.0" encoding="UTF-8"?>
<svg width="1200pt" height="1200pt" version="1.1" viewBox="0 0 1200 1200" xmlns="http://www.w3.org/2000/svg">
 <path d="m1056.6 678.32c0 644.63-913.18 644.63-913.18 0 0-17.344 19.125-29.766 36-19.078l73.594 43.781c-23.391-108.23 22.266-212.53 107.48-280.6-78.516-177.94 46.641-384.24 239.48-384.24 192.79 0 318 206.26 239.53 384.28 92.109 73.547 136.87 188.53 101.53 303.1l77.719-64.922c15.047-12.562 37.781-1.6875 37.781 17.625zm-469.03-269.44c7.2188 4.6406 16.781 5.0156 24.562 0.1875 66.141-41.109 43.594-106.78-12.141-106.78-55.547 0-78.328 65.344-12.422 106.59zm9.3281-52.828c0.9375 1.2188 1.9688 2.4375 3.0938 3.6562 6.75-7.4062 11.25-11.344 0-11.344-11.578 0-5.7188 4.2656-3.0938 7.6875zm75-126.37h-2.9062c-11.062-21.234-43.5-13.406-43.5 10.641 0 47.062 89.859 47.062 89.859 0 0.046875-24.094-32.391-31.875-43.453-10.641zm-140.95 0h-2.9062c-11.062-21.234-43.5-13.406-43.5 10.641 0 47.062 89.859 47.062 89.859 0 0.046875-24.094-32.438-31.875-43.453-10.641zm-218.06 508.97 29.062 17.297 131.29-96.469c9.4688-6.9375 22.453-5.5781 30.328 2.7656l120.98 119.91 137.81-113.11c8.8125-7.2656 21.375-6.8438 29.719 0.46875l90.234 79.219c55.406-108.66 14.578-229.97-85.031-300.61l-16.453-11.672c22.969-43.312 36.281-74.297 36.281-126.61-0.046875-200.68-234.19-300.84-370.36-159.84-68.625 71.062-83.625 180.84-37.031 268.64l9.4688 17.812c-42.609 30.234-72.328 54.938-97.875 101.44-34.5 62.766-37.688 135.79-8.4375 200.76zm585.37 253.69c59.766-63.375 100.64-151.31 110.16-263.02l-96.562 80.625-0.046875-0.046875c-8.5312 7.1719-21.234 7.2188-29.859-0.32812l-105.52-92.672-138.1 113.3c-9 8.0156-22.781 7.7344-31.453-0.89062l-122.26-121.13-127.13 93.375c-7.2188 5.7188-17.531 6.75-25.969 1.7344l-140.72-83.719c28.828 422.53 497.11 495.89 707.44 272.76z" fill-rule="evenodd"/>
</svg>
