<?xml version="1.0" encoding="UTF-8"?>
<svg width="1200pt" height="1200pt" version="1.1" viewBox="0 0 1200 1200" xmlns="http://www.w3.org/2000/svg">
 <path d="m468 604.8c0-20.398-16.801-37.199-37.199-37.199-20.398 0-37.199 16.801-37.199 37.199 0 20.398 16.801 37.199 37.199 37.199 20.398 0 37.199-16.801 37.199-37.199z"/>
 <path d="m771.6 567.6c-20.398 0-37.199 16.801-37.199 37.199 0 20.398 16.801 37.199 37.199 37.199 20.398 0 37.199-16.801 37.199-37.199 0-20.402-16.801-37.199-37.199-37.199z"/>
 <path d="m1071.6 27.602c-12 3.6016-276 80.398-307.2 259.2-12-3.6016-24-6-36-6l-33.602-171.6-60 184.8c-12 1.1992-22.801 2.3984-33.602 2.3984s-21.602-1.1992-32.398-2.3984l-60-186-33.602 171.6c-13.199 0-25.199 1.1992-36 4.8008-31.199-178.8-295.2-254.4-306-258l-36-9.6016 6 37.199c3.6016 24 36 240 79.199 303.6 27.602 42 91.199 51.602 142.8 51.602 18 0 33.602-1.1992 46.801-2.3984 1.1992 8.3984 3.6016 18 6 26.398-90 132-43.199 244.8-1.1992 345.6 22.801 54 43.199 105.6 45.602 158.4-3.6016 13.199-4.8008 27.602-4.8008 43.199v2.3984 1.1992c0 20.398 6 46.801 24 69.602 4.8008 84 62.398 132 162 132 99.602 0 157.2-48 162-132 18-22.801 22.801-48 24-69.602v-1.1992-2.3984c0-13.199-1.1992-25.199-3.6016-36h1.1992c0-55.199 21.602-108 45.602-164.4 42-100.8 88.801-214.8-2.3984-348 2.3984-8.3984 3.6016-15.602 4.8008-24 13.199 1.1992 30 2.3984 49.199 2.3984 51.602 0 115.2-9.6016 142.8-51.602 42-63.602 75.602-279.6 79.199-303.6l6-37.199zm-607.2 301.2-10.801 54c49.199 19.199 96 20.398 141.6-2.3984l-12-36c4.8008 0 10.801 1.1992 15.602 1.1992 6 0 12 0 18-1.1992l-12 36c44.398 25.199 92.398 22.801 141.6 2.3984l-10.801-54c6 0 10.801 1.1992 14.398 3.6016 13.199 6 21.602 16.801 26.398 30 6 16.801 4.8008 37.199 0 55.199-39.602 3.6016-68.398 14.398-86.398 34.801-26.398 27.602-27.602 68.398-25.199 104.4 0 15.602-4.8008 195.6-6 279.6l-9.6016 43.199c56.398 12 84 45.602 85.199 100.8-1.1992 52.801-46.801 79.199-136.8 79.199s-136.8-26.398-136.8-79.199c0-14.398 1.1992-26.398 4.8008-37.199h1.1992v-2.3984c10.801-34.801 37.199-55.199 81.602-62.398l-8.3984-46.801c-1.1992-86.398-4.8008-258-6-273.6 2.3984-36 1.1992-76.801-25.199-104.4-18-20.398-46.801-31.199-88.801-34.801-6-18-6-38.398 0-55.199 4.8008-14.398 14.398-25.199 27.602-31.199 4.7969-2.4062 10.797-3.6055 16.797-3.6055zm-244.8 2.3984c-26.398-39.602-51.602-166.8-64.801-244.8 74.398 27.602 235.2 103.2 237.6 230.4-7.1992 8.3984-13.199 19.199-16.801 30-1.1992 3.6016-2.3984 7.1992-3.6016 10.801-54 7.2031-130.8 4.8008-152.4-26.398zm192 134.4c31.199 2.3984 52.801 8.3984 63.602 20.398s14.398 32.398 12 69.602v2.3984c0 2.3984 6 205.2 6 288-13.199 6-25.199 14.398-34.801 22.801-9.6016-37.199-24-73.199-39.602-109.2-39.602-94.801-76.801-186-7.1992-294zm188.4 670.8c-61.199 0-90-20.398-103.2-43.199 25.199 9.6016 58.801 15.602 103.2 15.602 43.199 0 76.801-6 103.2-15.602-14.398 22.801-42 43.199-103.2 43.199zm183.6-376.8c-15.602 37.199-31.199 74.398-40.801 114-9.6016-9.6016-20.398-16.801-33.602-24 0-80.398 6-290.4 6-292.8v-2.3984c-2.3984-37.199 1.1992-57.602 12-69.602s31.199-18 63.602-20.398c69.598 109.2 32.398 200.4-7.1992 295.2zm199.2-428.4c-21.602 32.398-100.8 33.602-154.8 27.602-1.1992-3.6016-2.3984-7.1992-3.6016-10.801-3.6016-10.801-9.6016-20.398-15.602-28.801h1.1992c2.3984-128.4 164.4-204 237.6-232.8-13.199 78-39.598 205.2-64.797 244.8z"/>
 <path d="m708 948-31.199-36c-21.602 18-36 40.801-42 67.199l46.801 12c3.5977-16.801 12-31.199 26.398-43.199z"/>
 <path d="m523.2 912-31.199 36c14.398 12 22.801 26.398 27.602 43.199l46.801-12c-8.4023-26.398-21.602-49.199-43.203-67.199z"/>
</svg>
