<?xml version="1.0" encoding="UTF-8"?>
<svg width="1200pt" height="1200pt" version="1.1" viewBox="0 0 1200 1200" xmlns="http://www.w3.org/2000/svg">
 <path d="m1193.9 319.22c0-11.016-5.625-21.562-14.766-27.656-385.78-254.06-684.84-339.61-889.45-254.53-157.73 65.859-200.39 210.7-207.66 240-17.344 32.578-118.36 234.14-58.594 418.59 31.641 97.969 102.66 173.2 210.7 223.36 4.4531 2.1094 9.1406 3.0469 13.828 3.0469 9.8438 0 19.219-4.2188 25.781-12.188 9.6094-11.719 9.8438-28.594 0.70312-40.781-0.46875-0.70312-44.766-60.234-65.391-128.44 55.547 37.031 121.17 47.578 177.19 47.578 41.484 0 77.578-5.625 100.78-10.547 8.4375 24.844 13.828 73.359-35.156 135-26.016 32.812-62.344 60-104.53 78.984-61.875 27.656-174.61 83.203-236.02 146.95-9.1406 9.6094-11.719 23.672-6.5625 35.859s17.109 20.156 30.469 20.156h1027.3c8.6719 0 17.109-3.5156 23.438-9.6094 6.0938-6.3281 9.6094-14.531 9.6094-23.438zm-1107.7 356.48c-42.656-131.95 14.297-282.19 42.188-342.89 47.109 27.656 100.78 82.5 128.91 114.14-9.1406 25.312-31.172 53.672-52.5 81.328-35.859 46.406-72.891 94.453-72.656 150 0.23438 37.266 9.8438 74.766 22.734 108.52-32.109-31.875-54.844-69.141-68.672-111.09zm119.06-27.656c10.312-25.547 31.406-52.734 52.031-79.453 18.984-24.609 38.438-49.688 52.031-76.172 59.531 49.453 146.95 138.05 160.55 221.25-56.719 10.781-192.89 25.312-264.61-65.625zm24.375 480.7c50.156-32.344 107.11-59.766 144.38-76.406 52.031-23.203 96.797-57.188 129.38-98.203 86.016-107.81 50.391-195.23 33.984-224.06-4.2188-152.11-191.95-294.61-221.25-315.94-15.234-17.812-90.234-103.36-163.36-142.97 15.234-42.422 58.125-129.38 162.19-172.73 124.45-51.797 366.09-51.797 812.58 239.06l1.4062 791.48h-899.3z"/>
 <path d="m454.22 161.72c-60.703 0-109.92 49.688-109.92 110.86s49.453 110.86 109.92 110.86 109.92-49.688 109.92-110.86-49.453-110.86-109.92-110.86zm0 155.62c-24.141 0-43.828-20.156-43.828-44.766s19.688-44.766 43.828-44.766 43.828 20.156 43.828 44.766-19.688 44.766-43.828 44.766z"/>
</svg>
