<?xml version="1.0" encoding="UTF-8"?>
<svg width="1200pt" height="1200pt" version="1.1" viewBox="0 0 1200 1200" xmlns="http://www.w3.org/2000/svg">
 <path d="m790.08 577.92c50.578-4.4062 54.234-106.88 8.625-106.88-54.984 0-59.203 111.28-8.625 106.88z"/>
 <path d="m400.26 577.92c50.578 4.4062 46.312-106.88-8.625-106.88-45.562 0-41.906 102.47 8.625 106.88z"/>
 <path d="m993.1 505.69c-10.875-194.21-147.66-331.6-344.34-341.44-38.719-2.3438-78-0.375-116.44 4.7812-129.66 16.312-239.68 78.047-278.26 209.63-12.328 38.906-18.234 79.688-25.031 119.72-1.1719 6.3281-1.9219 13.266-2.7656 19.688-2.9062 2.5312-5.9062 4.9688-8.6719 7.6406-1.0312 0.9375-4.6406 4.9219-5.7656 6.0469-82.781 86.156-117.7 230.02-48.656 334.92 85.922 129.66 267.05 169.82 413.21 171.28 83.953 0.79688 168.32-3.1406 250.6-23.297 129.94-32.156 221.26-107.3 245.44-243.56 18.188-94.5-11.859-196.55-79.359-265.31zm19.5 266.39c-15.328 70.781-55.781 125.48-121.22 157.6-89.203 43.312-191.02 49.781-289.13 51.656-66.094 1.2656-133.22-3.5156-197.21-20.297-76.078-20.062-153.71-56.016-198.32-122.58-68.672-105.38-3.4688-215.16 39.703-316.13l3.4219 1.6406c1.2188-3.1875 2.3906-6.375 3.5625-9.6562 3-8.0625 5.8125-17.344 8.6719-25.359 22.406-70.125 48.516-148.22 103.83-197.68 59.812-53.766 144.19-69.562 222.42-73.312 26.812-1.3125 54.281-0.32812 80.953 2.9062 159.61 18.047 263.29 139.22 266.86 298.08 0.1875 7.875 3.7031 15.891 10.125 21.375l1.4062 1.2656 1.875 1.7812c59.531 59.906 82.312 146.76 63.094 228.61z"/>
 <path d="m802.64 673.74 1.3125-2.0156c-23.438-18.938-45.797-38.766-66.984-59.391-51.516-52.266-117.23-88.547-190.18-56.484-33.188 14.203-61.641 38.625-87.188 63.422-16.219 15.141-33.094 29.531-50.672 43.125-11.719 9.0938-23.672 17.766-36 26.438-26.016 18.797-58.172 37.828-71.156 69.891-6.9844 17.297-8.7188 34.5-8.0156 52.781 0.84375 20.625 8.9062 42.562 28.125 53.953 34.031 19.594 82.359 4.1719 117.14-5.0156 8.8594-2.3438 17.906-4.2656 27-4.7812 46.828-3.0938 92.531 16.875 140.48 14.531 3.1875-0.1875 9.5156-0.79688 12.703-0.98438 3.8906-0.65625 10.406-1.6406 14.25-2.3438 4.9688-0.98438 9.9844-2.0625 14.953-3 48.891-8.8125 129.1-20.625 174.52-1.3125 35.859 18.188 80.766-1.8281 92.016-40.031 19.641-63.375-57.328-131.9-112.31-148.74zm60.656 160.03c-8.3438 3.0938-17.438 2.25-25.312-1.6875l-6.2812-2.7188c-12.469-5.1562-24.422-7.5469-37.219-9.4688-54.984-6.6094-110.2 0.28125-164.11 10.688-2.9531 0.65625-7.3594 1.3594-10.406 1.8281-36 5.625-70.781-5.5781-107.11-11.016-23.719-3.7031-50.484-4.8281-74.672 1.0781-27.281 6.3281-55.875 16.641-83.438 14.953-8.9531-0.9375-15.188-2.6719-19.453-9.4688-7.8281-13.5-5.5312-40.734 0.32812-55.172 4.6875-11.438 12.938-19.969 22.781-28.172 10.688-8.8125 23.109-17.344 35.484-26.203 12.422-8.8594 24.984-18 37.172-27.609 18.328-14.391 35.953-29.719 52.828-45.797 18.938-18.609 39.844-37.875 62.859-50.672 62.672-35.906 111.38-8.5781 160.97 33.797 26.812 22.406 56.578 41.391 87.422 57.234l1.3125-2.0156c10.031 11.531 20.812 21.844 31.5 32.438 19.547 19.875 41.344 38.531 52.828 63.891 9.6562 20.906 4.3125 46.219-17.531 54.141z"/>
</svg>
