<?xml version="1.0" encoding="UTF-8"?>
<svg width="1200pt" height="1200pt" version="1.1" viewBox="0 0 1200 1200" xmlns="http://www.w3.org/2000/svg">
 <path d="m633.74 1146.2c-134.39 0-246-20.25-252.37-21.375-1.9219-0.375-3.75-0.9375-5.5312-1.7344-16.031-7.2656-29.906-16.828-41.625-28.641-42.516 26.859-139.18 6.8438-168.61-0.14062-0.70312-0.1875-1.3594-0.375-2.0625-0.5625-126.24-42.094-112.88-133.87-101.3-171.42 5.5312-18 18.797-32.062 36.375-38.578 17.156-6.375 35.812-4.5 51.281 5.1094 65.25 40.688 117.05 39.562 140.34 35.906 9.9375-108.94 61.266-228.61 83.859-276.89-66.609-14.625-110.39-45.938-130.45-93.375-57.422-135.84 113.39-350.72 120.71-359.81 0.89063-1.2188 155.29-206.53 445.22-137.63 5.9531 1.5469 133.69 35.625 187.45 109.92 4.6875 6.4688 9.2812 12.703 13.875 18.703 0.46875 0.5625 0.9375 1.1719 1.3594 1.7812 6.9844 9.1406 13.781 17.719 20.531 25.875 0.375 0.42187 0.79688 0.89062 1.125 1.3594 14.016 16.781 27.656 31.5 41.438 44.812 69.703 67.172 95.391 133.13 74.25 190.82-18.281 49.828-68.391 79.828-121.13 76.312 30.047 50.531 63.984 128.86 34.453 191.11-19.922 42-64.125 68.766-131.86 79.969-4.6875 17.156-13.5 45.75-27.656 77.203 14.062 12.094 37.781 37.172 40.969 71.016 0.9375 10.031 0.14062 23.016-5.625 37.406 29.906 11.25 51.281 40.172 51.281 73.969 0 43.547-35.438 78.984-78.984 78.984h-125.02c-51.094 7.3125-103.17 9.9844-152.21 9.9844zm-240.71-68.109c24.469 4.2188 196.55 32.062 360.47 13.828-2.25-17.906-7.7812-30.844-16.219-37.922-11.016-9.1875-26.531-7.5469-32.672-6.4219-10.875 1.9688-21.656-3.1406-27-12.656-5.3906-9.5625-4.0781-21.562 3.2344-29.766 29.016-32.719-2.5312-69.188-3.8906-70.734-8.7656-9.9375-7.8281-25.125 2.1094-33.891s25.125-7.8281 33.891 2.1094c13.688 15.516 30.234 45.516 28.078 78.656 78.938-21.797 121.4-125.21 138.32-178.36-7.875 0.375-15.938 0.60937-24.281 0.70312-59.625 35.25-146.81 56.25-261.05 5.8594-12.141-5.3438-17.625-19.5-12.281-31.641 5.3438-12.141 19.5-17.625 31.641-12.281 98.203 43.312 171.42 25.219 220.6-4.4062 1.6406-1.3594 3.4688-2.5312 5.4375-3.4219 45.328-29.156 68.578-67.219 70.5-70.453 0.1875-0.375 0.46875-0.75 0.70312-1.125 2.625-4.0312 64.828-99.938 3.2812-159.28-9.1875-8.8594-19.266-12.844-30.703-12.422-27.75 0.89062-66.656 26.719-106.78 70.875-22.781 25.031-55.5 39.375-89.812 39.375h-50.438c-6.9375 0-13.219-3-17.625-7.6875-13.641-3.9375-24.562-9.375-32.859-16.359-8.4375 8.3438-17.203 15.281-25.547 21-37.969 25.969-86.391 37.922-136.36 33.656-20.25 41.859-117.94 253.97-78.094 367.87 9.0469 25.875 24.562 43.875 47.391 55.031zm408.32 10.078h109.59c17.062 0 30.984-13.875 30.984-30.984 0-17.062-13.922-30.984-30.984-30.984h-13.781c-9.7031 0-18.469-5.8594-22.172-14.812-3.7031-9-1.6875-19.312 5.2031-26.156 12.047-12.047 17.391-23.484 16.312-34.922-1.0781-11.625-8.625-22.781-16.219-31.078-25.172 42.094-60.234 82.406-107.81 101.91 15.891 15.469 25.594 37.922 28.875 67.031zm-623.68-40.359c54.609 12.844 114.33 15.938 129.24 7.3125-2.4375-5.1562-4.6406-10.547-6.6094-16.172-7.0312-20.109-10.641-42.375-11.578-65.812-34.219 3.4688-93.938 0.28125-164.29-43.594-3.5156-2.2031-6.8906-1.6875-9.0938-0.84375-1.6406 0.60938-5.6719 2.625-7.2656 7.7812-16.547 53.531 6.2344 89.953 69.609 111.38zm773.02-335.29c-2.3906 3.8438-12.469 19.312-30.188 38.203 44.016-6.8438 84.047-22.125 99-53.578 22.031-46.406-13.312-118.03-42.562-162.56 28.406 64.547-1.5 140.63-26.25 177.94zm-258.14-621.74c-190.18 0-289.08 131.53-290.21 133.08-45.375 56.578-153 221.06-114.52 311.9 17.109 40.453 63.703 64.5 138.42 71.531 39.609 3.75 77.484-5.25 106.78-25.312 92.109-63.047 42.797-179.16-14.766-265.45-7.3594-11.016-4.4062-25.922 6.6562-33.281 11.016-7.3594 25.922-4.4062 33.281 6.6562 87.891 131.72 84.938 217.55 56.531 271.69h0.046875s0.23438-0.32812 0.46875-0.9375c-0.42188 1.0781-0.14062 1.5469 0 1.6875 0.375 0.5625 10.406 14.297 71.438 14.297 20.812 0 40.641-8.625 54.328-23.672 35.016-38.531 87.844-84.797 140.72-86.531 0.60937 0 1.2188-0.046875 1.7812-0.046875 16.734-5.7188 27.047-13.969 30.656-24.609 4.875-14.297-1.125-33.234-7.7812-47.484-5.8125 1.3125-11.812 0.42188-17.016-2.4844-5.5312-3.0938-9.6562-8.2969-11.344-14.438l-2.3906-8.4375c-3.6094-12.75 3.8438-26.016 16.594-29.625l48.797-13.781c12.75-3.6094 25.969 3.7969 29.625 16.547l2.3906 8.4375c1.7344 6.1406 0.98437 12.703-2.1562 18.281-3.0938 5.5781-8.2969 9.6562-14.438 11.391l-3.2344 0.9375c8.25 19.734 14.859 45.984 7.8281 71.578l0.14062 0.5625c1.5938 5.1562 5.7188 13.547 18.938 13.078 14.156-0.5625 23.812-7.9688 29.438-14.062 9.1406-9.9375 14.062-23.578 13.5-37.406-0.1875-4.5938-0.32812-9.3281-0.46875-14.344-0.65625-23.438-1.4062-52.828-11.156-96.328-10.781-39-34.266-81.703-38.812-89.812-4.7344-6.2344-9.5156-12.656-14.344-19.406-36.375-50.203-127.97-83.062-160.22-91.5-37.734-8.9531-72.891-12.797-105.38-12.797zm371.11 230.76c5.5781 32.953 6.2344 57.422 6.75 77.766 0.14062 4.7344 0.23438 9.2344 0.42188 13.594 0.98438 23.156-6.1875 46.172-19.875 64.453 24.141-4.6875 45.094-20.672 53.531-43.594 14.578-39.75-10.922-83.344-41.672-118.08 0.32812 1.9688 0.5625 3.9375 0.84375 5.8594zm-355.97 38.719c-29.906 0-54.281-24.328-54.281-54.281 0-18.844 9.5156-36 25.5-45.984 0.28125-0.1875 0.5625-0.375 0.89062-0.5625 8.4375-5.0625 18.047-7.6875 27.891-7.6875 29.906 0 54.281 24.328 54.281 54.281 0 12.938-4.5938 25.453-13.031 35.25-0.23438 0.28125-0.46875 0.51562-0.65625 0.79688-10.312 11.578-25.031 18.188-40.547 18.188zm201.19-37.828h-0.65625c-24.891-0.32812-45.047-20.719-45.047-45.656 0-12.469 5.2031-24.562 14.25-33.141 12.844-12.188 32.344-15.797 48.656-9.1875 0.42188 0.1875 0.84375 0.32812 1.2188 0.51562 16.594 7.3125 27.234 23.625 27.234 41.812 0 24.938-20.109 45.281-44.953 45.656z"/>
</svg>
