<?xml version="1.0" encoding="UTF-8"?>
<svg width="1200pt" height="1200pt" version="1.1" viewBox="0 0 1200 1200" xmlns="http://www.w3.org/2000/svg">
 <path d="m450 112.5c41.25 0 75 33.75 75 75s-33.75 75-75 75-75-33.75-75-75 33.75-75 75-75zm750 900c0 20.625-16.875 37.5-37.5 37.5h-217.88c-110.25 0-216.75-24.375-311.25-69.375l-54.375 144.38h21c20.625 0 37.5 16.875 37.5 37.5s-16.875 37.5-37.5 37.5h-150c-20.625 0-37.5-16.875-37.5-37.5s16.875-37.5 37.5-37.5h49.125l67.5-180.38c-17.25-10.875-33.75-22.125-49.875-34.125-248.25-190.88-214.12-423.38-189.75-511.12-33.75-28.5-52.125-64.875-60.375-97.125-97.5 11.25-211.12 68.25-212.25 68.625-13.125 6.75-28.875 4.875-40.5-4.125-11.25-9-16.125-24-12.75-38.25 3.375-13.5 85.125-328.5 336.38-328.5h150c212.62 0 637.5 618.75 637.5 862.5 0 14.25-7.875 27-20.625 33.375-5.25 2.625-60 28.875-143.62 28.875-125.25 0-315.75-58.5-504.38-341.62-11.625-17.25-6.75-40.5 10.5-52.125s40.5-6.75 52.125 10.5c232.12 348.38 459.38 316.5 529.88 295.5-28.125-235.88-409.5-762-561.38-762h-150v187.5c0 1.125-0.75 2.25-0.75 3.375 1.875 21.375 16.875 109.12 150.75 109.12 20.625 0 37.5 16.875 37.5 37.5s-16.875 37.5-37.5 37.5c-36 0-66.75-5.25-93-13.875-21 87.375-29.625 262.5 168 414.38 104.62 80.25 240.38 124.5 382.12 124.5h217.88c20.625 0 37.5 16.875 37.5 37.5zm-1097.6-744c45.75-17.25 104.25-34.875 160.12-40.875v-137.62c-80.625 33.375-131.62 115.88-160.12 178.5z"/>
</svg>
