<?xml version="1.0" encoding="UTF-8"?>
<svg width="1200pt" height="1200pt" version="1.1" viewBox="0 0 1200 1200" xmlns="http://www.w3.org/2000/svg">
 <path d="m1018.8 475.08c-79.219-299.3-362.81-314.53-418.83-314.53s-339.61 15.234-418.83 314.53c-56.016 212.11 21.797 360.7 39.375 390.23 2.3438 112.27 72.891 173.91 198.52 173.91 0.70312 0 4.6875 0.23438 10.781 0.23438 29.766 0 113.91-3.9844 159.38-47.344 3.9844-3.9844 7.5-8.2031 10.781-12.422 3.2812 4.2188 6.5625 8.4375 10.781 12.422 45.469 43.359 129.84 47.344 158.91 47.344 5.8594 0 9.375-0.23438 10.078-0.23438 126.56 0 197.34-61.641 199.69-173.91 17.344-29.531 95.391-178.36 39.375-390.23zm-438.75 444.38c0 17.578-5.8594 31.875-18.281 43.594-35.156 33.516-113.44 37.5-141.56 36.328-159.84 0-159.84-105.23-159.84-139.69 0-108.75 127.03-151.64 225.7-168.75 13.594 41.016 49.688 93.047 93.75 105.7zm198.75 79.922c-26.953 1.4062-105.47-2.8125-140.62-36.328-12.188-11.719-18.281-26.016-18.281-43.594v-122.81c44.297-12.656 80.156-64.688 93.75-105.7 98.672 16.875 225.7 59.766 225.7 168.75 0.23438 34.453 0.23438 139.69-160.55 139.69zm188.67-203.2c-37.5-91.875-155.86-129.61-248.44-145.31-6.5625-39.844-57.422-71.016-119.06-71.016s-112.5 31.172-119.06 71.016c-92.578 15.703-210.94 53.672-248.44 145.78-23.438-60.938-49.688-171.33-12.656-311.48 71.719-270.94 329.3-284.77 380.16-284.77s308.44 13.828 380.16 284.77c36.797 139.22 10.547 249.84-12.656 311.02z"/>
 <path d="m420.23 440.16c-44.062 0-79.922 35.859-79.922 79.922s35.859 79.922 79.922 79.922 79.922-35.859 79.922-79.922-35.859-79.922-79.922-79.922zm0 119.77c-22.031 0-39.844-17.812-39.844-39.844s17.812-39.844 39.844-39.844 39.844 17.812 39.844 39.844c0.23438 22.031-17.812 39.844-39.844 39.844z"/>
 <path d="m779.77 440.16c-44.062 0-79.922 35.859-79.922 79.922s35.859 79.922 79.922 79.922 79.922-35.859 79.922-79.922-35.859-79.922-79.922-79.922zm0 119.77c-22.031 0-39.844-17.812-39.844-39.844s17.812-39.844 39.844-39.844 39.844 17.812 39.844 39.844-17.812 39.844-39.844 39.844z"/>
</svg>
