<?xml version="1.0" encoding="UTF-8"?>
<svg width="1200pt" height="1200pt" version="1.1" viewBox="0 0 1200 1200" xmlns="http://www.w3.org/2000/svg">
 <path d="m36.328 363.98c-15.047-2.0156-25.594-15.844-23.578-30.891l0.046875-0.32812c-0.84375-5.3906-0.14062-11.109 2.4375-16.453 20.672-42.375 45.703-75.656 73.828-100.97 45.891-41.344 99.516-60.891 155.53-63.375 54.703-2.3906 111.19 11.672 164.58 37.734 53.203 25.969 103.64 63.984 146.26 109.5 264.98 35.297 380.06 192.19 513.24 373.74 14.625 19.922 29.531 40.219 40.875 55.453 4.3594 4.875 7.0312 11.297 7.0312 18.375 0 15.234-12.328 27.562-27.562 27.562h-64.266l148.26 78.891-0.046874 0.09375c5.1562 2.7188 9.4688 7.125 12.094 12.844 6.2812 13.781 0.23437 30.047-13.547 36.375l-106.59 48.609-15.984 75.422c-1.125 5.2031-3.75 10.125-7.8281 14.062-10.922 10.5-28.312 10.172-38.859-0.75l-182.44-190.26c-22.594 8.2031-65.109 19.594-134.44 24.047l-42.422 66.938 30.984 41.344c9.0938 12.141 6.6094 29.344-5.4844 38.391-12.141 9.0938-29.344 6.6094-38.391-5.4844l-25.828-34.406-52.312 39.797c-12.047 9.1406-29.25 6.7969-38.391-5.25-9.1406-12.047-6.7969-29.25 5.25-38.391l70.219-53.391 30.188-47.578c-45.188-0.23437-98.484-3.1406-160.87-10.406-5.0156-0.5625-9.9375-1.2656-14.766-2.0156l-39.797 62.812 30.984 41.344c9.0938 12.141 6.6094 29.297-5.4844 38.391-12.141 9.0938-29.344 6.6094-38.391-5.4844l-30.938-41.297-107.3 31.312c-14.531 4.2188-29.766-4.1719-33.984-18.703s4.1719-29.766 18.703-33.984l115.5-33.656 34.547-54.562c-107.91-37.078-171.28-124.64-208.5-213.66-43.219-103.41-50.438-208.78-51.797-234.1-1.3594-25.641-90.469-37.453-90.703-37.453zm151.64-50.203c-14.016 5.8125-30.141-0.84375-35.906-14.812-5.8125-14.062 0.84375-30.141 14.812-35.906l21.469-8.9062c14.016-5.8125 30.141 0.84375 35.906 14.859 5.8125 14.016-0.84375 30.094-14.859 35.906l-21.469 8.9062zm476.06 506.63c2.9062-0.60938 5.9531-0.70312 8.9062-0.375 104.34-4.875 139.26-26.672 139.45-26.766 11.203-6.7031 25.219-4.5 33.891 4.5469l159.66 166.45 8.0625-38.109c2.0156-9.4688 8.625-16.734 17.062-19.922l66.984-30.562-189.1-100.59c-284.68 34.406-470.34-44.062-559.97-144.61-35.391-39.656-56.344-83.25-63.047-125.44-6.9844-43.969 1.4531-86.25 24.984-121.45 30.281-45.281 85.125-78 163.64-85.453-27.938-23.578-58.172-43.594-89.438-58.875-45.656-22.266-93.141-34.359-138.14-32.344-43.594 1.9219-85.312 17.156-121.13 49.406-17.531 15.75-33.75 35.719-48.234 60.188 40.125 10.312 101.72 33.984 104.34 82.172 1.2656 23.344 7.9219 120.61 47.719 215.76 38.25 91.594 108 181.26 234.94 195.98 83.906 9.7031 149.21 11.766 199.4 9.9844zm-124.69-467.76c-93.75-7.2656-154.78 19.547-182.81 61.453-15.656 23.391-21.188 52.078-16.359 82.312 5.0625 31.969 21.656 65.766 49.922 97.453 80.297 90.047 251.29 159.71 518.68 125.9 1.8281-0.375 3.7031-0.5625 5.5781-0.5625h120.1l-10.125-13.734c-127.18-173.39-236.86-322.92-485.02-352.78z"/>
</svg>
