<?xml version="1.0" encoding="UTF-8"?>
<svg width="1200pt" height="1200pt" version="1.1" viewBox="0 0 1200 1200" xmlns="http://www.w3.org/2000/svg">
 <path d="m699.47 1200h-90.703c-11.25 0-20.391-9.1406-20.391-20.391v-383.81c0-11.25 9.1406-20.391 20.391-20.391s20.391 9.1406 20.391 20.391v363.42h70.312c11.25 0 20.391 9.1406 20.391 20.391s-9.1406 20.391-20.391 20.391z" fill-rule="evenodd"/>
 <path d="m727.6 1054.5c-11.25 0-20.391-9.1406-20.391-20.391v-36.562h-245.34c-7.7344 0-15.469-4.2188-18.281-11.25-3.5156-7.0312-2.8125-15.469 2.1094-21.797l146.9-181.36c7.0312-9.1406 20.391-10.547 28.828-3.5156 8.4375 7.7344 9.8438 20.391 2.8125 28.828l-119.53 148.31h222.84c11.25 0 20.391 9.1406 20.391 20.391v56.953c0 11.25-9.1406 20.391-20.391 20.391z" fill-rule="evenodd"/>
 <path d="m59.062 1188.7c-2.8125 0-5.625 0-7.7344-1.4062-9.1406-3.5156-14.062-13.359-11.953-23.203l73.125-324.1c10.547-47.812 30.234-98.438 44.297-132.14 42.188-99.844 96.328-183.47 160.97-250.26 66.094-68.203 143.39-109.69 220.74-120.89-33.75-47.812-47.812-100.55-41.484-153.24 12.656-102.66 101.25-183.47 202.45-183.47 51.328 0 177.14 23.906 232.69 244.64 1.4062 2.1094 2.1094 4.9219 2.1094 7.0312 0 11.25-9.1406 20.391-20.391 20.391h-116.72c-11.25 0-20.391-9.1406-20.391-20.391 0-45-31.641-51.328-49.922-51.328-25.312 0-49.922 11.953-56.25 28.125-6.3281 15.469 5.625 31.641 17.578 42.891l11.953 11.25c95.625 92.109 203.86 196.82 146.9 352.92-3.5156 9.1406-7.0312 17.578-11.953 26.016-23.906 45.703-64.688 83.672-122.29 113.91-53.438 28.828-144.79 59.062-204.56 59.062-229.87 0-278.39 83.672-366.94 236.9-18.984 32.344-40.078 68.906-65.391 108.28-3.5156 5.625-9.8438 9.1406-16.875 9.1406zm519.52-814.08h-3.5156c-78.047 1.4062-158.86 40.781-228.47 111.8-61.172 62.578-112.5 142.69-152.53 236.9-18.984 46.406-33.75 90-42.188 125.81l-45 200.34c89.297-154.64 149.02-255.89 401.39-255.89 52.734 0 137.06-28.125 185.58-54.141 49.922-26.016 85.078-59.062 105.47-97.031 3.5156-7.0312 7.0312-14.062 9.1406-21.094 48.516-131.44-41.484-217.92-137.06-309.32l-11.953-11.953c-38.672-37.266-33.75-70.312-26.719-86.484 12.656-32.344 51.328-54.141 94.219-54.141 40.078 0 80.156 22.5 89.297 71.719h70.312c-35.859-121.6-103.36-190.5-186.98-190.5-79.453 0-151.82 66.094-161.68 147.61-8.4375 66.094 26.016 119.53 56.25 152.53 4.9219 5.625 6.3281 14.062 3.5156 21.797-3.5156 7.0312-10.547 11.953-18.984 11.953z" fill-rule="evenodd"/>
 <path d="m1114.2 648.84c-5.625 0-11.25-2.1094-15.469-7.0312l-317.06-376.78c-7.0312-8.4375-6.3281-21.094 2.1094-28.828 9.1406-7.0312 21.797-6.3281 28.828 2.8125l280.5 333.24-196.82-309.32c-6.3281-9.8438-3.5156-21.797 6.3281-28.125 9.1406-6.3281 21.797-3.5156 28.125 6.3281l227.06 356.44c5.625 9.1406 3.5156 20.391-4.9219 26.719l-26.016 20.391c-3.5156 2.8125-7.7344 4.2188-12.656 4.2188z" fill-rule="evenodd"/>
 <path d="m308.63 757.82c-4.2188 0-9.1406-1.4062-12.656-4.2188-7.7344-6.3281-9.8438-16.875-4.9219-25.312l54.141-100.55c7.0312-12.656 16.172-26.719 28.828-41.484 23.906-30.234 50.625-54.141 80.156-70.312 26.719-15.469 54.844-23.906 82.266-23.906 45 0 84.375 21.797 102.66 57.656 15.469 30.234 11.953 63.984-9.8438 93.516-2.1094 3.5156-4.2188 6.3281-7.0312 9.1406-14.062 14.766-33.75 24.609-57.656 30.234-12.656 2.1094-28.125 4.2188-42.891 4.2188s-27.422-1.4062-37.266-4.2188c-18.281-5.625-33.047-7.7344-46.406-7.7344-33.75 0-51.328 16.875-83.672 47.812-9.1406 9.1406-19.688 19.688-32.344 30.234-3.5156 3.5156-8.4375 4.9219-13.359 4.9219zm227.76-224.95c-20.391 0-41.484 6.3281-61.875 18.281-24.609 14.062-47.812 34.453-68.906 60.469-10.547 13.359-18.984 25.312-24.609 35.859l-0.70312 1.4062c28.125-16.172 63.281-20.391 115.31-5.625 6.3281 1.4062 15.469 2.8125 26.016 2.8125 11.953 0 24.609-1.4062 33.75-3.5156 16.172-3.5156 28.828-9.8438 37.266-18.281 1.4062-1.4062 2.8125-2.8125 3.5156-4.9219 12.656-16.875 14.766-35.156 6.3281-51.328-10.547-21.094-36.562-35.156-66.094-35.156z" fill-rule="evenodd"/>
 <path d="m771.19 149.02c-18.984 0-33.75-14.766-33.75-33.75 0-18.281 14.766-33.75 33.75-33.75 18.281 0 33.75 15.469 33.75 33.75 0 18.984-15.469 33.75-33.75 33.75zm0-40.781c-4.2188 0-7.0312 3.5156-7.0312 7.0312 0 4.2188 2.8125 7.0312 7.0312 7.0312 3.5156 0 7.0312-2.8125 7.0312-7.0312 0-3.5156-3.5156-7.0312-7.0312-7.0312z" fill-rule="evenodd"/>
</svg>
