<?xml version="1.0" encoding="UTF-8"?>
<svg width="1200pt" height="1200pt" version="1.1" viewBox="0 0 1200 1200" xmlns="http://www.w3.org/2000/svg">
 <path d="m834.74 688.4c-3.7969 34.219-12.656 65.719-26.438 93.656-2.6719 5.3906-8.0625 8.4844-13.688 8.4844-2.25 0-4.5469-0.51562-6.7031-1.5938-7.5469-3.7031-10.641-12.844-6.9375-20.391 12.188-24.75 20.109-52.875 23.484-83.531 0.9375-8.3438 8.4375-14.391 16.828-13.453 8.3438 0.9375 14.391 8.4375 13.453 16.828zm-83.625 125.63c-26.906 31.453-63.469 56.25-108.61 73.734-7.8281 3.0469-11.766 11.859-8.7188 19.688 2.3438 6.0469 8.1094 9.75 14.203 9.75 1.8281 0 3.7031-0.32812 5.4844-1.0312 49.922-19.312 90.562-47.016 120.79-82.359 5.4844-6.375 4.7344-16.031-1.6875-21.469-6.375-5.4844-16.031-4.7344-21.469 1.6875zm336.37-343.22c0 6.1406-3.7031 11.672-9.375 14.062l-180.37 75.328c-2.1562 17.906-3.9375 36.328-4.875 53.531-0.5625 10.641-0.51563 21.188-0.42188 32.297 0.09375 15.516 0.1875 31.594-1.5938 47.906-4.6875 43.078-20.016 106.69-66.281 165.32-56.109 71.109-142.26 115.55-256.13 132.14-0.75 0.09375-1.4531 0.14062-2.2031 0.14062-4.1719 0-8.2031-1.7344-11.109-4.7812l-438.52-466.97c-2.8125-3-4.3125-6.9844-4.125-11.062s1.9688-7.9219 5.0156-10.688c1.2188-1.0781 30.422-27.281 74.203-59.297 59.016-43.172 113.72-74.719 162.47-93.656 59.344-23.016 71.438-33.469 91.5-50.766 10.781-9.2812 24.234-20.859 47.344-36.797 40.688-28.078 92.438-45.281 145.69-48.516 26.766-1.6406 52.969 0.28125 78 5.7188 26.297 5.7188 50.578 15.141 72.141 28.031 21.422 12.844 52.312 35.484 77.766 70.5 15.469 21.234 26.953 44.719 34.969 69.891l176.44 73.641c5.6719 2.3906 9.375 7.9219 9.375 14.062zm-937.78 39.703 25.875 27.562c59.812-58.219 131.86-96.984 203.76-109.22 26.344-4.5 51.656-5.1094 75.609-2.1562 53.719-27.094 117.8-42.844 186.28-46.266 7.5469-22.547 28.641-38.953 53.672-38.953 27.094 0 49.734 19.125 55.359 44.531 47.531 7.4062 91.688 21.188 130.13 40.453-14.531-88.547-71.812-136.45-107.16-157.6-74.156-44.391-187.13-38.484-262.87 13.734-21.797 15-33.984 25.547-44.766 34.781-21.75 18.75-36.141 31.125-100.36 56.062-90 34.969-183.28 109.78-215.58 137.06zm518.86-112.27c0 14.531 11.812 26.391 26.391 26.391 14.484 0 26.297-11.812 26.297-26.391 0-14.484-11.812-26.297-26.297-26.297-14.531 0-26.391 11.812-26.391 26.297zm-82.219 262.6c11.156-65.625-3.6094-122.58-41.484-160.5-37.875-37.875-94.828-52.547-160.4-41.438-66 11.203-132.56 47.203-188.02 101.34l279.47 297.61c1.875-1.8281 3.5156-3.1875 5.5312-5.25 13.359-13.359 25.594-27.422 36.703-42l-188.81-188.72c-5.9531-5.9531-5.9531-15.609 0-21.562s15.609-5.9531 21.562 0l185.16 185.06c25.781-39.75 43.125-82.312 50.344-124.64zm276.1-48.75c3.1406-57 14.719-123.89 19.594-150.24-38.062-21.75-83.719-37.172-133.64-45.281-7.6875 22.312-28.594 38.484-53.484 38.484-26.906 0-49.406-18.844-55.266-44.016-48.797 2.7188-95.062 11.812-136.22 27.469 24.047 9.0938 45.188 22.5 62.953 40.266 22.922 22.922 38.812 51.422 47.25 84.656 8.0156 31.547 8.9062 66.047 2.7188 102.47-12.516 73.688-52.781 147.66-113.39 208.26-2.2969 2.2969-4.125 3.8438-6.2344 5.9062l75.094 79.969c229.36-36.516 279.37-184.08 288.71-269.44 1.5938-14.578 1.5-29.062 1.4062-44.391-0.09375-11.109-0.14062-22.547 0.46875-34.172zm170.26-141.28-122.21-51c1.7812 10.641 3.2812 21.469 3.8906 32.672 0.046875 1.125-0.046875 2.2031-0.23438 3.3281 0 0.14062 0 0.23438-0.046875 0.375v0.09375c-0.09375 0.51562-5.9531 30.562-11.625 68.953l130.22-54.375z"/>
</svg>
