<?xml version="1.0" encoding="UTF-8"?>
<svg width="1200pt" height="1200pt" version="1.1" viewBox="0 0 1200 1200" xmlns="http://www.w3.org/2000/svg">
 <path d="m1162.7 600 35.535-95c4.7305-12.648 2.293-26.855-6.3711-37.211-8.668-10.352-22.227-15.242-35.512-12.816l-149.95 27.465c-62.195-27.992-135.61-50.578-212.34-66.105l-58.352-150.01c-3.9961-10.273-12.312-18.266-22.73-21.859-10.422-3.5938-21.895-2.418-31.375 3.2148l-260.61 154.86c-169.98 23.371-325.01 86.23-410.5 170.8-7.1172 7.0508-11.125 16.652-11.125 26.668s4.0078 19.617 11.129 26.66c60.113 59.465 154.62 108.19 264.52 140.01 4.5391 35.188 17.215 68.789 37.398 98.469 25.719 37.824 61.793 66.711 104.32 83.531l4.6172 1.8242c4.4531 1.7617 9.1328 2.6289 13.797 2.6289 7.0781 0 14.113-2 20.23-5.9219 10.152-6.5 16.555-17.492 17.219-29.531l6.2188-113.86c28.66 2.3672 57.562 3.6055 86.461 3.6055 12.328 0 24.781-0.25391 37.312-0.71094l242.02 110.23c4.9531 2.2578 10.254 3.3711 15.543 3.3711 6.7305 0 13.441-1.8125 19.375-5.3945 10.594-6.3906 17.352-17.598 18.066-29.945l7.4727-129.5c35.949-11.137 70.074-23.84 101.35-37.922l149.95 27.469c13.285 2.4219 26.844-2.4609 35.512-12.816 8.6641-10.352 11.098-24.562 6.3711-37.211zm-480.82-265.23 26.184 67.32c-41.562-5.3633-83.23-8.5391-123.82-9.3047zm-400.31 175.03c30.32 9.3242 59.148 20.012 85.816 31.836 23.68 10.496 37.82 32.316 37.82 58.363 0 26.043-14.137 47.863-37.82 58.363-26.668 11.824-55.5 22.508-85.816 31.836-74.164-22.797-139.45-53.734-187.41-90.195 47.965-36.473 113.25-67.41 187.41-90.203zm119.45 343.11c-20.699-17.699-36.195-40.621-44.91-66.434 15.836 3.1875 31.879 6.0352 48.07 8.5234zm424.84-26.918-75.363-34.328c26.398-4.3555 52.578-9.5664 78.242-15.559zm261.68-212.86 17.281 46.199-96.559-17.688c-7.7031-1.4102-15.652-0.37109-22.73 2.9609-115.02 54.16-276.05 87.805-420.25 87.805-51.629 0-103.62-4.332-153.99-12.344 42.867-24.676 68.918-69.438 68.918-120.07s-26.051-95.391-68.918-120.07c50.371-8.0078 102.36-12.344 153.99-12.344 144.2 0 305.23 33.641 420.25 87.801 7.0859 3.3359 15.031 4.3711 22.73 2.9609l96.559-17.688-17.281 46.203c-3.168 8.4609-3.168 17.797 0 26.266z"/>
 <path d="m295.31 600c0 22.688-18.391 41.078-41.078 41.078-22.684 0-41.074-18.391-41.074-41.078s18.391-41.078 41.074-41.078c22.688 0 41.078 18.391 41.078 41.078z"/>
</svg>
