<?xml version="1.0" encoding="UTF-8"?>
<svg width="1200pt" height="1200pt" version="1.1" viewBox="0 0 1200 1200" xmlns="http://www.w3.org/2000/svg">
 <path d="m778.13 855.79c1.2656 22.828 7.0781 38.438 16.078 49.219 8.3438 10.031 19.594 16.641 34.266 20.438 16.969 4.4062 39.422 4.8281 67.547 3.9844 27.75-0.79688 45.984-9.5156 57.938-21.094 11.906-11.531 18.047-26.297 20.109-41.766 2.7656-20.391-1.7812-41.859-7.0312-55.781-8.25-21.938-24.984-71.438-31.453-90.75 3.1406-9.8906 5.0625-18.656 6.2812-25.688 51.188-4.8281 106.83-19.688 155.26-64.688 26.391-24.516 41.766-60.844 44.672-101.86 4.2188-58.453-16.922-126.52-65.391-179.95-86.766-95.625-186.79-89.953-252.61-79.594-35.25 5.5312-75.703 27.188-111.19 59.297-41.766-30.656-176.34-117-314.11-73.406-159.05 50.391-259.22 190.97-300.98 316.5-16.688 5.1562-43.172 19.172-41.203 56.109 0.89062 17.578 10.031 38.625 27.656 59.812 6.9375 8.2969 15.281 16.781 24.844 25.125-3.3281 17.719-10.453 53.625-17.297 75.516-7.0312 22.453-13.781 60.234 5.9062 89.906 12.984 19.547 37.5 36.891 83.438 42.375 43.828 5.25 77.016 3.4688 99.844-4.4062 19.031-6.5625 31.969-17.297 39.609-31.359 2.9531-5.4375 5.1094-11.438 6.4219-18.047 8.7188 3.7969 18.422 6.9375 29.25 9.3281 41.531 8.9531 102.52 5.8125 131.63 3.5625 0.9375 3.4219 1.9688 6.7969 3.0938 10.078 8.5781 24.797 22.875 44.906 43.547 53.953 35.484 15.609 81.188 16.266 116.62 10.781 25.266-3.9375 45.375-11.203 54.328-17.531 10.266-7.1719 15.891-19.359 15.938-35.156 0.09375-10.406-2.5312-22.828-6.2344-35.297 23.438-1.6406 44.438-4.9688 63.234-9.6094zm-98.859 51.891c1.4062-0.65625 2.6719-1.3594 3.75-2.0156 0.14062-0.51562 0.42188-1.5469 0.51562-2.25 0.32812-2.8594 0.14062-6.1406-0.32812-9.6094-2.3438-17.812-11.531-39.656-17.719-54.422-8.7656-20.812-22.594-63.141-29.766-95.625-39.469 22.125-80.109 36.938-120.1 46.266-0.32812 15.797 0.14062 42.891 5.5781 68.344 2.5312 11.953 6.1406 23.578 11.531 33.188 4.1719 7.4062 9.3281 13.641 16.5 16.781 13.969 6.0938 29.906 9.2812 45.891 10.359l-0.65625-19.219c-0.32812-10.312 7.7812-18.984 18.094-19.312 10.359-0.375 19.031 7.7344 19.359 18.094l0.60938 19.734c3.4219-0.375 6.75-0.75 9.9844-1.2188l-2.4375-23.391c-1.0312-10.266 6.4219-19.453 16.688-20.578 10.266-1.0312 19.5 6.4219 20.578 16.688zm255.47-36.844c1.875-4.9688 2.5781-10.453 2.7188-15.797 0.28125-11.672-2.4844-23.156-5.4375-31.078-4.9219-12.938-12.703-35.484-19.688-55.828-7.125 10.547-15.75 21.188-26.391 31.359-17.531 16.734-40.5 32.484-70.734 44.484-0.51562 17.531 1.3594 29.391 7.7344 37.031 4.8281 5.7656 12.188 8.0625 21.469 9.5625 4.2656 0.65625 8.8594 1.125 13.781 1.4062l-1.2188-14.484c-0.9375-10.312 6.7031-19.406 17.016-20.297 10.266-0.89062 19.359 6.75 20.25 17.016l1.5938 17.766c1.4062-0.046875 2.7656-0.14062 4.125-0.23438l-2.6719-18.188c-1.5469-10.266 5.5312-19.781 15.75-21.281 10.219-1.5469 19.781 5.5312 21.281 15.75zm-652.18 1.125c1.0781-1.0312 2.0625-2.1094 3-3.2812 5.1094-6.7031 6.1875-15.656 4.7344-26.625-20.953-19.547-30.375-42.234-34.453-56.109-25.453-6.4219-46.219-13.734-60.797-20.25-19.5-8.7656-37.266-18.562-53.016-28.922-3.9375 19.5-9.4688 44.625-14.812 61.641-4.5 14.438-11.25 38.859 1.4062 58.031 8.625 12.984 26.062 22.219 56.672 25.875 1.2188 0.14062 2.3906 0.28125 3.6094 0.42188v-16.219c0-10.359 8.3906-18.75 18.703-18.75 10.359 0 18.75 8.3906 18.75 18.75v18.562c7.1719 0 13.828-0.28125 19.969-0.89062l-3.2344-26.859c-1.2188-10.266 6.0938-19.594 16.359-20.859 10.266-1.2188 19.594 6.1406 20.812 16.359zm18.141-76.641c9.8906 16.406 28.547 35.531 63.234 43.078 36.234 7.8281 88.734 5.3906 116.72 3.2344-1.9219-16.547-2.4375-32.25-2.4844-44.391-64.875 9.9375-126.61 6.5625-177.47-1.9219zm602.58-98.906c-7.7344 0.14062-15.281 0.1875-22.594 0.1875-55.219-0.14062-102.8-8.5781-147.66-26.625-20.391 20.297-41.672 37.734-63.422 52.688 4.4062 29.438 20.953 79.734 30.422 102.19 0.51562 1.2188 1.0312 2.4844 1.5469 3.7969 79.266-3.5625 128.34-27.422 158.44-56.203 27.703-26.531 38.859-56.766 43.266-76.031zm-795.74-90.141c-6.0938 1.8281-14.484 6.4688-13.875 18.516 0.60938 11.297 7.7344 24.188 19.078 37.781 20.297 24.328 54.047 49.359 97.641 68.953 72.188 32.344 310.08 85.734 486.32-78.516-0.5625-0.32812-1.1719-0.65625-1.7344-0.9375-8.2969-4.4531-15.984-9.4688-23.016-14.953-271.78 146.63-448.64 52.219-564.42-30.844zm337.78 66.891-0.70312-22.828-115.08-0.79688v19.078c35.391 6.6562 73.875 8.9062 115.78 4.5469zm36.516-32.25 0.79688 26.766c30.328-5.7656 62.297-14.953 96-28.219l-3.2812-13.172-54.281-14.484zm-293.81-26.766c30.891 18 65.438 34.219 104.06 45.469v-23.391c-13.078-19.547-28.688-36.328-37.078-44.859-13.219 1.5469-37.734 4.125-55.125 4.4062zm692.76 45c-64.312-0.1875-117.14-12.562-168-40.031-52.078-28.125-70.312-83.391-45.188-159.42 26.438-80.109 102.33-145.08 162-154.45 57-8.9531 143.9-15 219.1 67.781 40.969 45.188 59.297 102.66 55.734 152.11-2.2031 30.891-12.938 58.641-32.812 77.109-60.422 56.109-134.06 57-190.82 56.906zm-268.69-40.266 1.4062 5.625c10.266-4.7344 20.625-9.8438 31.172-15.328-2.1562-2.9531-4.1719-6.0469-6.0938-9.1875zm-116.11-35.109-32.859-133.18c-48.703 3.1875-81.469-0.14062-132.89-2.1094-8.6719 32.859-23.625 77.859-45.422 119.86 9.3281 9.7031 23.484 25.5 36.094 43.641l135.79 0.9375zm-331.55-2.1562c-6.5625-5.6719-14.953-13.359-23.109-22.172-2.5781 6.6562-4.9688 13.219-7.1719 19.781 7.0781 5.0156 14.438 10.125 22.031 15.141zm459.24-17.016c-7.3594-27.891-6.8906-60.516 2.7188-97.547l-41.297-26.531-84.141 7.0312 31.734 128.58 54.469 14.531zm223.08-20.484c16.828 13.969 33.891 19.734 50.719 19.078 16.406-0.65625 33-7.5938 49.406-21.375 7.875-6.6562 8.9062-18.516 2.25-26.391-6.6562-7.9219-18.516-8.9062-26.391-2.25-9 7.5938-17.766 12.234-26.719 12.609-8.5312 0.32812-16.875-3.4688-25.359-10.5-8.0156-6.6094-19.781-5.4844-26.391 2.4375-6.6094 7.9688-5.4844 19.781 2.4844 26.391zm-552-108.05c-10.547-9.4219-27.938-26.578-42.516-48.844-40.031 40.031-71.391 86.766-94.219 133.92 12.094 16.922 29.906 31.734 37.5 37.688 12.516 0.98438 39.844-2.3438 54.234-4.3594 22.125-41.438 36.844-86.578 45-118.41zm475.45 17.719c20.344 0 36.844 18.75 36.844 41.766 0 23.062-16.5 41.766-36.844 41.766s-36.844-18.703-36.844-41.766c0-23.016 16.5-41.766 36.844-41.766zm245.68-7.3594c20.344 0 36.844 18.703 36.844 41.766s-16.5 41.766-36.844 41.766-36.844-18.703-36.844-41.766 16.5-41.766 36.844-41.766zm-253.03 24.984c4.0312 0 7.3594 3.2344 7.3594 7.2188s-3.3281 7.2188-7.3594 7.2188c-4.0781 0-7.4062-3.2344-7.4062-7.2188s3.3281-7.2188 7.4062-7.2188zm244.08-9.1406c4.0312 0 7.3594 3.2344 7.3594 7.2188s-3.3281 7.2188-7.3594 7.2188c-4.0781 0-7.4062-3.2344-7.4062-7.2188s3.3281-7.2188 7.4062-7.2188zm-344.95-124.26-46.641 77.438 23.297 14.906c11.578-27.75 28.266-53.438 47.672-75.891l-0.1875-0.14062c-6.3281-4.5938-14.438-10.219-24.141-16.312zm-150.05-56.812c-32.578-3.9844-67.219-2.3906-102.09 8.6719-49.406 15.609-92.531 40.781-129.52 71.719 14.391 24.047 33.703 41.859 42.281 49.125 57.328 1.9688 90.375 6.1406 144.1 2.1094 25.125-41.109 35.391-78.609 45.234-131.63zm36.797 6.9844c-9 48.141-18.516 84.375-37.031 120.89l67.078-5.5781 50.719-84.094c-23.109-11.953-50.578-23.578-80.766-31.219z" fill-rule="evenodd"/>
</svg>
