<?xml version="1.0" encoding="UTF-8"?>
<svg width="1200pt" height="1200pt" version="1.1" viewBox="0 0 1200 1200" xmlns="http://www.w3.org/2000/svg">
 <path d="m1013.7 390.23-13.828-17.344-15.703 15.703c-27.188 26.953-104.06 100.55-134.3 115.55-9.8438 4.9219-12.891 1.4062-14.297 0-5.3906-6.0938-6.7969-20.391 0-31.172 4.9219-7.7344 17.344-22.266 30.234-37.969 50.625-60.234 92.344-112.97 92.344-151.88 0-42.188-27.891-107.11-59.062-120.23-12.422-5.1562-25.547-2.8125-34.922 6.5625-14.766 14.766-125.16 112.97-189.14 169.92-24.141-8.4375-50.625-7.7344-78.281 2.1094-106.17 37.5-206.95 203.44-214.92 221.02-0.9375 2.1094-7.0312 12.422-39.609 64.688-63.516 4.4531-125.62 30.234-174.14 78.047l-6.5625 7.2656 0.70312 18.281 5.8594 5.8594c21.797 21.562 46.641 38.438 72.891 51.094-42.188 66.328-77.109 121.41-77.109 121.41l-3.0469 4.9219v125.16h697.97l6.0938-7.0312c106.17-124.92 83.203-233.67 71.016-292.27-1.6406-8.2031-3.2812-15.703-4.2188-21.797-4.2188-29.531 18.281-63.75 49.219-111.09 11.016-16.875 22.734-34.922 34.922-54.844 53.672-90.234 0.23438-158.91-2.1094-161.95zm-656.02 276.33c3.9844 0 7.9688 0 11.719 0.23438 3.2812 0 6.3281 0.23438 9.6094 0.46875s6.5625 0.70312 9.6094 0.9375c3.9844 0.46875 7.9688 0.9375 11.953 1.4062 1.875 0.23438 3.75 0.70312 5.625 1.1719 5.1562 0.9375 10.312 1.875 15.234 3.2812 0.23438 0 0.46875 0.23438 0.70312 0.23438 32.578 8.6719 63.75 24.141 90.703 46.641-7.2656 6.0938-15 11.484-22.969 16.641-1.6406 1.1719-3.5156 2.1094-5.1562 3.2812-15.938 9.8438-33.047 17.344-50.625 23.203-2.1094 0.70312-4.2188 1.4062-6.3281 1.875-8.6719 2.5781-17.344 4.6875-26.25 6.0938-1.1719 0.23438-2.5781 0.23438-3.75 0.46875-7.7344 1.1719-15.469 1.875-23.203 2.3438-2.8125 0.23438-5.625 0.23438-8.4375 0.46875-8.6719 0.23438-17.344 0-25.781-0.70312l-5.625-0.70312c-7.7344-0.9375-15.469-2.1094-22.969-3.75-2.1094-0.46875-3.9844-0.9375-6.0938-1.4062-9.1406-2.1094-18.281-4.9219-27.188-8.2031-24.375-9.1406-47.578-22.266-68.438-39.609 42.656-35.391 95.156-53.438 147.66-54.375zm623.2-134.77c-11.719 19.453-23.203 37.266-33.984 53.672-34.453 52.5-61.406 93.984-55.312 138.52 0.9375 7.0312 2.5781 15.234 4.6875 24.609 11.484 54.141 30.234 144.14-56.484 251.02h-639.38v-73.828c9.8438-15.469 41.719-65.391 78.047-122.81 1.1719 0.23438 2.1094 0.70312 3.2812 0.9375l4.9219 1.4062c6.7969 1.875 13.828 3.5156 20.625 4.9219 0.9375 0.23438 1.875 0.46875 3.0469 0.70312 16.875 3.2812 33.75 4.6875 50.625 4.6875h0.46875 0.70312c17.344 0 34.453-1.6406 51.328-4.9219 0.70312-0.23438 1.4062-0.23438 2.3438-0.46875 7.5-1.4062 14.766-3.2812 22.031-5.3906 1.1719-0.23438 2.3438-0.70312 3.5156-0.9375 7.7344-2.3438 15.469-4.9219 22.969-7.9688 1.4062-0.46875 2.8125-1.1719 4.2188-1.875 6.0938-2.5781 11.953-5.1562 17.812-8.2031 2.1094-0.9375 4.2188-2.1094 6.0938-3.2812 6.7969-3.75 13.594-7.5 20.156-11.953 1.1719-0.70312 2.1094-1.4062 3.2812-2.1094 5.8594-3.9844 11.484-7.9688 16.875-12.422 1.875-1.4062 3.5156-2.8125 5.3906-4.2188 6.3281-5.3906 12.656-10.781 18.516-16.641l14.062-14.062-14.062-14.062c-6.3281-6.3281-12.891-12.188-19.688-17.812-1.6406-1.4062-3.2812-2.5781-4.9219-3.75-5.3906-4.2188-11.016-8.4375-16.641-12.188-1.6406-0.9375-3.0469-1.875-4.6875-3.0469-6.0938-3.9844-12.422-7.7344-18.75-11.016-1.1719-0.46875-2.1094-1.1719-3.2812-1.6406-7.2656-3.75-14.531-7.0312-22.031-10.312-0.46875-0.23438-0.70312-0.23438-1.1719-0.46875-24.375-9.8438-49.922-16.406-76.641-18.984 26.25-42.188 28.125-46.172 29.062-48.281 7.2656-15.469 102.42-168.98 192.66-200.39 22.266-7.7344 41.719-7.2656 59.531 1.6406l12.188 6.0938 10.078-8.9062c6.7969-6.0938 160.55-142.27 195.23-175.08 11.016 11.016 30.703 48.984 30.703 80.391 0 27.422-54.141 91.641-82.969 126.09-15.234 18.047-27.188 32.109-33.516 42.188-15.938 25.078-14.297 59.062 3.9844 79.453 15.469 17.109 38.438 20.625 61.641 8.9062 31.875-15.938 93.75-73.594 125.62-104.3 7.7344 20.391 12.656 54.844-12.188 96.094z"/>
 <path d="m599.3 482.34c44.062 0 79.688-35.625 79.688-79.453-44.062 0-79.688 35.625-79.688 79.453z"/>
</svg>
