<?xml version="1.0" encoding="UTF-8"?>
<svg width="1200pt" height="1200pt" version="1.1" viewBox="0 0 1200 1200" xmlns="http://www.w3.org/2000/svg">
 <path d="m513.27 920.79c-38.879-30.73-85.969-12.422-87.961-11.629-9.2266 3.6953-13.715 14.172-10.02 23.398 3.6953 9.2266 14.195 13.738 23.398 10.02 0.30078-0.12109 29.891-11.207 52.246 6.4453 19.055 15.059 19.98 52.922 18.73 66.203-0.98438 9.8867 6.2539 18.707 16.141 19.691 0.60156 0.058594 1.1992 0.085938 1.7891 0.085938 9.1445 0 16.969-6.9375 17.891-16.234 0.69922-6.8789 5.5703-68.125-32.215-97.98z"/>
 <path d="m774.7 909.16c-1.9805-0.78125-49.078-19.129-87.949 11.629-37.801 29.855-32.93 91.105-32.258 97.98 0.92578 9.2891 8.7461 16.234 17.891 16.234 0.60156 0 1.1992-0.023438 1.7891-0.085938 9.8867-0.98437 17.125-9.793 16.152-19.691-1.2344-12.371-0.40625-51.086 18.742-66.203 22.223-17.594 50.867-6.9609 52.332-6.4062 9.2148 3.6484 19.633-0.85156 23.305-10.055 3.6992-9.2305-0.78906-19.707-10.004-23.402z"/>
 <path d="m1012.2 537.3c27.035-28.859 72.574-93.371 73.836-201.12 1.9062-165.29-101.47-227.16-122.23-237.89-37.523-19.402-60.348-10.789-68.531 2.4609-6.5039 10.547-5.375 26.797 11.82 39.301 16.367 11.891 59.855 43.477 39.816 129.12-12.395 52.945-37.332 77.375-56.09 88.535-2.9414 1.7539-5.1367 4.2344-6.6367 7.043-3.2656-1.6445-6.4453-3.0586-9.4805-4.1992-2.6875-4.8711-5.6289-9.5742-8.9414-14.051-34.141-46.211-88.621-52.523-90.926-52.766-1.3203-0.13281-2.6289-0.085937-3.8984 0.058594-24.961-17.531-76.68-39.707-171.47-26.258-31.969 4.5352-66.504 13.176-101.02 26.125-15.445 0.26563-111.97 3.8867-196.16 59.426-17.578-12.816-38.219-37.297-49.129-83.914-20.039-85.656 23.449-117.24 39.816-129.12 17.207-12.504 18.336-28.738 11.832-39.301-8.1719-13.246-31.02-21.828-68.531-2.4609-20.746 10.727-124.14 72.602-122.22 237.89 1.1641 100.11 40.512 162.82 67.777 194.36-36.047 162.12 85.922 258.89 110.48 276.48 28.105 54.77 60.359 96.434 61.738 98.195 0.52734 0.67188 1.1641 1.1992 1.7539 1.7891-0.33594 2.0625-0.81641 4.0547-1.043 6.1797-0.97266 8.9766-0.96094 18.371 0.011719 27.91 0.9375 9.3008 2.7969 18.852 5.543 28.391 2.7109 9.4336 6.3008 18.875 10.68 28.078 4.3906 9.2539 9.6016 18.301 15.504 26.953 6.0352 8.8086 12.816 17.207 20.125 24.926 7.5977 8.0156 15.863 15.422 24.574 22.008 12.695 9.6133 26.605 17.652 41.363 23.914 9.8867 4.1992 20.113 7.5469 30.422 9.9727l3.7305 0.875c6.9258 1.6445 14.062 3.3359 21.527 4.2461 17.746 2.1953 29.207 2.5938 40.969 2.5938 3.1211 0 6.2656-0.035157 9.5625-0.058594 6.1328-0.058594 12.828-0.13281 20.988 0.011718 0.097656 0 0.17969-0.023437 0.27734-0.023437 0.085938 0 0.16797 0.023437 0.25391 0.023437 8.1367-0.14453 14.844-0.070312 21-0.011718 3.2773 0.023437 6.4336 0.058594 9.5508 0.058594 11.762 0 23.23-0.39453 40.957-2.5781 7.4766-0.92578 14.629-2.6289 21.527-4.2617l3.7812-0.88672c10.262-2.4102 20.484-5.7617 30.406-9.9609 14.734-6.2656 28.645-14.305 41.328-23.902 8.7109-6.5898 16.98-13.992 24.574-22.02 7.3086-7.7266 14.09-16.105 20.137-24.949 5.8555-8.5664 11.074-17.629 15.516-26.953 4.3789-9.2383 7.9688-18.684 10.668-28.043 2.7461-9.5039 4.6094-19.055 5.5547-28.402 0.96094-9.5625 0.97266-18.949 0.011719-27.938-0.75781-6.9961-2.3047-13.633-4.2109-20.027 15.719-18.637 52.488-66.852 77.809-136.89 15.301-42.371 15.516-85.188 11.195-119.59 6.1562 18.348 9.8984 37.02 7.6562 47.965-3.2891 16.055 2.2422 24.445 7.4648 28.656 3.8516 3.1094 8.5312 4.6914 13.453 4.6914 3.3359 0 6.793-0.74219 10.176-2.2305 21.109-9.3242 45.875-52.621 49.105-106.3 1.4531-24.301-4.1523-47.207-12.73-67.586 2.5625-0.94531 4.9766-2.418 6.9688-4.543zm-30.215-259.93c13.754-58.836 4.3438-106.88-27.973-143.3 26.461 16.008 97.535 71.258 96.023 201.7-1.0781 92.305-37.945 147.88-61.609 174.16-14.543-22.945-30.492-39.863-38.449-47.629-4.6797-34.547-19.43-59.398-36.504-76.297 24.121-15.691 54.086-46.988 68.512-108.62zm-66.828 220.46c-1.668 22.066-12.938 42.562-31.055 61.055-0.53906 0.49219-1.0195 1.0078-1.5 1.5469-58.453 58.008-185.34 95.496-299.68 96.289-6.5625 0.046875-12.863 0.12109-19.031 0.21484 142.93-32.074 302.7-69.145 323.33-175.33 4.7539-24.445 5.8203-46.777 3.6367-67.164 14.48 15.555 27.477 41.32 24.297 83.391zm-596.74 236.99c0.61328-61.043 21.086-159.76 132.47-227.76 92.027-56.207 169.18-91.836 225.5-117.85 36.648-16.934 64.379-29.746 83.844-42.289 0.63672 45.121-21.961 132.29-183.18 201.76-107.11 46.141-175.01 96.227-217.88 138.84 0 0-0.011719 0-0.011719 0.011719-0.011719 0.011718-0.023437 0.023437-0.035156 0.035156-17.332 17.223-30.688 33.254-40.707 47.258zm518.64-366.6c18.625 25.453 23.617 61.297 14.82 106.52-16.391 84.395-174.3 119.81-301.2 148.26-24.961 5.5938-48.875 10.98-71.113 16.512 30.949-19.273 67.789-38.844 111.74-57.781 190.86-82.234 208.29-193.18 204.47-245.05 13.262 5.5312 29.27 15.121 41.281 31.535zm-232.52-65.027c71.902-10.211 113.58 2.1836 135.62 13.871-17.242 11.004-44.484 23.594-78.852 39.469-57.133 26.387-135.37 62.52-229.18 119.81-95.578 58.355-131.86 136.96-144.1 201.8-7.1055-36.445-8.3047-85.355 10.105-144.35 45.082-144.54 193.22-214.56 306.39-230.61zm-358.46-169.13c-32.316 36.434-41.723 84.48-27.961 143.3 11.723 50.102 33.719 80.125 54.516 98.051-31.777 27.371-59.723 63.973-78.035 112.77-21.121-30.852-43.691-80.496-44.531-152.43-1.5117-130.43 69.539-185.67 96.012-201.7zm-19.512 371.15c33.805-95.113 108.07-138.7 170.76-158.69-59.242 41.363-109.44 99.227-133.56 176.54-30.73 98.484-12.371 173.12 4.6211 213.97-38.598-44.305-80.668-122.53-41.824-231.83zm582.94 432.25c-0.74219 7.1992-2.1953 14.617-4.332 22.055-2.1719 7.5234-5.0625 15.133-8.5938 22.57-3.625 7.6211-7.9062 15.047-12.707 22.078-4.9805 7.2617-10.547 14.172-16.559 20.52-6.2383 6.5898-13.02 12.66-20.16 18.047-10.344 7.8242-21.684 14.375-33.684 19.488-8.0273 3.3945-16.297 6.1094-24.562 8.0508l-3.8867 0.91016c-6.2266 1.4883-12.109 2.8789-17.605 3.5625-20.102 2.4727-30.875 2.3516-45.793 2.2578-6.3242-0.070312-13.223-0.10938-21.574 0.011719-8.3516-0.13281-15.277-0.070313-21.562-0.011719-14.902 0.14453-25.691 0.22656-45.805-2.2578-5.4961-0.67188-11.375-2.0625-17.617-3.5508l-3.8398-0.89844c-8.293-1.957-16.57-4.668-24.574-8.0625-12.012-5.1133-23.363-11.664-33.719-19.5-7.1289-5.375-13.906-11.449-20.148-18.047-6.0234-6.3477-11.594-13.246-16.547-20.484-4.8359-7.0938-9.1094-14.52-12.707-22.078-3.5273-7.4414-6.4336-15.035-8.6055-22.598-2.1484-7.4648-3.6016-14.879-4.332-22.066-0.71875-7.0781-0.73047-13.957-0.035156-20.41 0.69531-6.3945 2.0742-12.395 4.1172-17.855 2.0039-5.4102 4.7031-10.344 7.9805-14.676 3.3594-4.4297 7.4141-8.293 12.035-11.52 4.9453-3.4219 10.668-6.1914 17.027-8.2305 57.371-18.266 86.113-6 113.9 5.8906 16.477 7.043 33.504 14.328 54.406 14.328s37.945-7.2852 54.406-14.328c27.793-11.891 56.555-24.156 113.9-5.8906 6.3594 2.0391 12.098 4.8008 17.027 8.2305 4.6328 3.2148 8.6758 7.0781 12.035 11.508 2.543 3.3477 4.6094 7.1641 6.3945 11.184 0.19141 0.51562 0.43359 0.99609 0.67188 1.5 0.28906 0.69531 0.66016 1.3203 0.91016 2.0273 2.0391 5.4375 3.4219 11.438 4.1172 17.797 0.74609 6.4688 0.73438 13.367 0.015625 20.449zm75.551-193.46c-19.211 53.172-45.996 93.086-62.543 114.68-4.9062-5.7109-10.344-10.957-16.598-15.277-7.8711-5.4727-16.824-9.8164-26.605-12.938-70.176-22.379-108.32-6.0352-139.01 7.0781-14.93 6.3828-26.723 11.438-40.246 11.438s-25.32-5.0508-40.246-11.438c-30.672-13.117-68.832-29.449-139.01-7.0781-9.7695 3.1211-18.73 7.4648-26.617 12.938-7.7539 5.3867-14.543 11.891-20.195 19.332-1.1055 1.4531-1.9688 3.0977-2.9883 4.6211-11.219-15.961-28.922-42.73-45.133-73.859 4.8477-11.555 20.062-41.797 58.391-79.969 1.8477-1.5234 3.9258-3.0117 6.168-4.4766 6.7422-2.3867 49.934-15.348 192.76-16.344 112.15-0.76953 232.52-33.156 304.03-88.738 8.0391 31.27 16.98 87.07-2.1602 140.03zm86.746-89.34c-5.8086-31.402-21.145-67.812-36.445-86.891-2.1016-2.6289-4.2617-4.8008-6.4219-6.9102 9.6602-14.102 16.391-29.184 19.812-45.145 17.09 22.98 35.41 56.219 33.289 91.535-1.1719 19.402-5.3594 35.266-10.234 47.41z"/>
 <path d="m402.12 716.99h-0.12109c-16.57 0-29.941 13.43-29.941 30 0 16.57 13.488 30 30.059 30 16.57 0 30-13.43 30-30 0.003906-16.574-13.426-30-29.996-30z"/>
 <path d="m798.12 716.99h-0.12109c-16.57 0-29.941 13.43-29.941 30 0 16.57 13.488 30 30.059 30 16.57 0 30-13.43 30-30 0.003906-16.574-13.426-30-29.996-30z"/>
</svg>
