<?xml version="1.0" encoding="UTF-8"?>
<svg width="1200pt" height="1200pt" version="1.1" viewBox="0 0 1200 1200" xmlns="http://www.w3.org/2000/svg">
 <path d="m623.44 243.75h-46.875c-7.125 0-12.375 6.75-10.688 13.688l26.812 107.62c1.875 7.5 12.562 7.5 14.438 0l26.812-107.62c1.6875-6.9375-3.5625-13.688-10.688-13.688z"/>
 <path d="m1086.4 68.438c-2.4375-6.375-7.875-10.875-14.625-12-6.5625-1.125-13.312 1.5-17.625 6.9375-29.438 36.938-81.375 72-141.38 112.31-35.438 23.812-75 50.625-115.69 81.375-0.1875 0-0.5625-0.375-0.75-0.5625-28.875-19.875-73.125-45.188-123.94-58.875l-15.562-155.06c-1.3125-13.688-12.75-24-26.438-24h-60.375c-13.875 0-25.312 10.312-26.812 24.188l-15.562 154.69c-51 13.688-95.062 39-123.75 58.688-0.375 0.1875-0.5625 0.5625-0.9375 0.75-40.688-30.75-80.25-57.75-115.69-81.562-60.188-40.5-112.12-75.375-141.38-112.31-4.125-5.25-10.875-7.875-17.625-6.9375-6.75 1.125-12.188 5.625-14.625 12-2.4375 6.5625-59.062 161.06 21.75 262.12 44.625 55.688 82.125 60.938 129.75 67.312 15 2.0625 31.5 4.3125 50.062 8.4375l-48.188 192c-3.5625 14.625-6 28.875-6.9375 42.375-3 41.062 4.125 82.688 20.812 120 3.5625 8.25 7.5 16.125 11.812 23.812l94.688 165.75c4.875 8.625 8.25 17.625 9.9375 26.812l20.25 100.69c9.75 49.125 53.25 84.75 103.31 84.75h157.88c50.062 0 93.562-35.625 103.31-84.75l20.25-100.69c1.875-9.1875 5.25-18.188 9.9375-26.625l94.875-165.94c32.438-56.812 41.625-122.81 25.688-186.19l-48.188-192c18.562-4.125 35.062-6.375 50.062-8.4375 47.438-6.5625 84.938-11.625 129.75-67.312 80.625-100.88 24.188-255.56 21.75-262.12zm-340.88 1002c-6.375 31.688-34.312 54.75-66.562 54.75h-157.88c-32.25 0-60.188-23.062-66.562-54.75l-20.25-100.69c-0.5625-2.8125-1.5-5.4375-2.25-8.25 24-20.25 51-36 80.625-46.5 25.312-9 149.62-9 174.94 0 29.625 10.5 56.625 26.25 80.625 46.5-0.75 2.8125-1.6875 5.4375-2.25 8.25l-20.25 100.69zm289.88-763.31c-35.25 44.062-60.188 47.438-105.56 53.625-15.938 2.25-33.75 4.6875-54.188 9.375-3-11.438-7.125-22.125-11.812-32.625l139.12-77.25c9-5.0625 12.375-16.5 7.3125-25.5s-16.5-12.375-25.5-7.3125l-154.69 85.875h-0.375c-9 5.25-11.812 16.688-6.5625 25.688 7.5 12.938 13.312 27 17.062 42.375l56.625 225.94c4.6875 18.75 6.5625 37.688 6.1875 56.625l-39.562 47.625s-1.125 1.125-1.6875 1.5l-95.25 54.375c-6.5625 3.75-2.8125 13.688 4.5 12.188l107.81-21.562c-1.3125 2.625-2.4375 5.25-3.9375 7.875l-38.062 66.75-78.375 7.125c-11.25 0.9375-13.312 16.312-2.8125 20.25l54 20.25-26.062 45.562c-25.312-19.688-53.062-35.25-83.438-45.938-33.562-11.812-166.31-11.812-200.06 0-30.375 10.688-58.125 26.25-83.438 45.938l-26.062-45.375 54-20.25c10.5-3.9375 8.4375-19.312-2.8125-20.25l-78.375-7.125-38.25-66.75c-1.5-2.4375-2.4375-5.25-3.75-7.6875l107.81 21.562c7.3125 1.5 11.062-8.4375 4.5-12.188l-95.25-54.375s-1.125-0.9375-1.6875-1.5l-39.562-47.438c0-6.9375-0.1875-13.875 0.1875-20.812 0.75-11.438 2.8125-23.438 5.8125-36l56.625-225.94c3.75-15.188 9.5625-29.438 17.062-42.188 5.25-9 2.25-20.438-6.5625-25.688h-0.375l-154.69-85.875c-9-5.0625-20.438-1.6875-25.5 7.3125s-1.6875 20.438 7.3125 25.5l139.12 77.25c-4.875 10.5-9 21.188-11.812 32.625-20.438-4.6875-38.25-7.125-54.188-9.375-45.188-6.1875-70.125-9.5625-105.56-53.625-48.188-60.188-35.812-148.69-24.75-194.81 32.625 31.5 76.875 61.312 126.56 94.688 38.25 25.688 81.562 54.938 125.25 88.688 0.375 0.1875 0.75 0 0.9375 0.1875 3.1875 2.25 6.75 3.75 10.5 3.75 4.5 0 9-1.5 12.562-4.6875 2.8125-2.625 6-4.875 9.375-7.125 28.688-19.688 73.5-45.562 124.12-56.625 0 0 0-0.1875 0.375-0.1875 7.6875-1.6875 13.5-8.0625 14.438-16.125l15.75-158.25h40.875l15.75 158.25c0.75 8.0625 6.75 14.062 14.062 15.938 0.1875 0 0.375 0.375 0.5625 0.375 50.625 11.062 95.438 36.938 124.31 56.625 3.1875 2.0625 6.1875 4.5 9.1875 6.9375h0.5625c6.5625 5.625 16.312 6.375 23.438 0.75 43.688-33.75 87-63 125.25-88.688 49.688-33.375 93.938-63.188 126.56-94.688 11.25 46.125 23.438 134.62-24.75 195z"/>
 <path d="m450 600h-75c-10.312 0-18.75 8.4375-18.75 18.75s8.4375 18.75 18.75 18.75h18.75c0 20.625 16.875 37.5 37.5 37.5s37.5-16.875 37.5-37.5v-18.75c0-10.312-8.4375-18.75-18.75-18.75z"/>
 <path d="m750 600c-10.312 0-18.75 8.4375-18.75 18.75v18.75c0 20.625 16.875 37.5 37.5 37.5s37.5-16.875 37.5-37.5h18.75c10.312 0 18.75-8.4375 18.75-18.75s-8.4375-18.75-18.75-18.75z"/>
 <path d="m494.44 976.31c-9.5625-3.75-20.438 0.75-24.375 10.5-3.9375 9.5625 0.75 20.438 10.5 24.375 37.312 15 45 25.5 46.5 28.5 3.1875 6.5625 9.9375 10.312 16.875 10.312 2.8125 0 5.625-0.5625 8.4375-2.0625 9.1875-4.6875 13.125-15.938 8.4375-25.125-8.625-17.062-29.625-31.875-66-46.5z"/>
 <path d="m705.56 976.31c-36.562 14.625-57.562 29.438-66 46.5-4.6875 9.1875-0.9375 20.438 8.4375 25.125 2.625 1.3125 5.4375 2.0625 8.4375 2.0625 6.9375 0 13.5-3.75 16.875-10.312 1.5-2.8125 9-13.5 46.5-28.5 9.5625-3.9375 14.25-14.812 10.5-24.375-3.9375-9.5625-14.812-14.25-24.375-10.5z"/>
 <path d="m534.94 583.31c-6.5625-26.062-7.125-53.25-1.875-79.5l20.625-103.5c1.3125-6.9375-8.0625-10.125-11.25-3.9375l-64.688 129.56c-5.625 11.25-5.625 24.562 0 35.812l79.125 158.06c3.1875 6.375 12.938 2.8125 11.25-4.125z"/>
 <path d="m538.12 337.88-94.5 47.25c-21.562 10.688-36.75 30.75-41.438 54.375l-24.375 121.5c-0.9375 4.5 5.25 6.5625 7.3125 2.4375l47.812-95.625c9.375-18.75 21.75-36 36.562-50.812l73.125-73.125c3.1875-3.1875-0.5625-8.25-4.5-6.1875z"/>
 <path d="m657.56 396.38c-3.1875-6.1875-12.562-3-11.25 3.9375l20.625 103.5c5.25 26.25 4.6875 53.438-1.875 79.5l-33.188 132.38c-1.6875 6.9375 8.0625 10.5 11.25 4.125l79.125-158.06c5.625-11.25 5.625-24.562 0-35.812z"/>
 <path d="m756.38 385.12-94.5-47.25c-3.9375-2.0625-7.6875 3.1875-4.5 6.1875l73.125 73.125c14.812 14.812 27.188 32.062 36.562 50.812l47.812 95.625c2.0625 4.125 8.25 1.875 7.3125-2.4375l-24.375-121.5c-4.6875-23.625-20.062-43.688-41.438-54.375z"/>
 <path d="m428.81 348 117.38-58.688c4.125-2.0625 2.625-8.25-1.875-8.25h-52.688c-14.25 0-27.75 6.75-36.375 18.188l-31.688 42.188c-2.8125 3.5625 1.3125 8.4375 5.4375 6.375z"/>
 <path d="m771.19 348c4.125 2.0625 8.0625-2.8125 5.4375-6.375l-31.688-42.188c-8.625-11.438-22.125-18.188-36.375-18.188h-52.688c-4.5 0-6 6.1875-1.875 8.25l117.38 58.688z"/>
</svg>
