<svg width="100" height="100" viewBox="0 0 100 100" fill="none" xmlns="http://www.w3.org/2000/svg">
<path d="M26.0781 28.375L27.3203 28.7773L26.5546 29.832C25.3632 31.4843 27.8671 33.3203 29.0819 31.6679L29.8476 30.6132L30.6132 31.6679C31.1249 32.371 32.1054 32.5156 32.7968 32.0117C33.496 31.5039 33.6483 30.5273 33.1405 29.8281L32.3749 28.7734L33.6171 28.371C34.4374 28.1054 34.8866 27.2226 34.621 26.4022C34.3554 25.5819 33.4765 25.1327 32.6522 25.3983L31.41 25.8007V24.496C31.41 23.6327 30.7108 22.9335 29.8475 22.9335C28.9842 22.9335 28.285 23.6327 28.285 24.496V25.8007L27.0428 25.3983C25.078 24.8007 24.1366 27.703 26.078 28.371L26.0781 28.375Z" fill="black"/>
<path d="M39.516 28.375L40.7582 28.7773L39.9926 29.832C38.8012 31.4843 41.3051 33.3203 42.5199 31.6679L43.2855 30.6132L44.0512 31.6679C44.5629 32.3711 45.5434 32.5195 46.2348 32.0156C46.934 31.5078 47.0902 30.5312 46.5824 29.832L45.8168 28.7773L47.059 28.3749C47.8793 28.1093 48.3285 27.2266 48.0629 26.4062C47.7973 25.5857 46.9184 25.1366 46.0941 25.4022L44.8558 25.8046V24.4999C44.8206 22.4491 41.766 22.4452 41.7308 24.4999V25.8046L40.4886 25.4022C38.5238 24.8046 37.5824 27.7069 39.5238 28.3749L39.516 28.375Z" fill="black"/>
<path d="M52.949 28.375L54.1912 28.7773L53.4256 29.832C52.2342 31.4843 54.7381 33.3203 55.9529 31.6679L56.7185 30.6132L57.4842 31.6679C57.9959 32.371 58.9764 32.5156 59.6678 32.0117C60.367 31.5039 60.5193 30.5273 60.0115 29.8281L59.2459 28.7734L60.4881 28.371C62.4256 27.7031 61.492 24.8007 59.5233 25.3983L58.2811 25.8007V24.496C58.2811 23.6327 57.5818 22.9335 56.7186 22.9335C55.8553 22.9335 55.1561 23.6327 55.1561 24.496V25.8007L53.9178 25.3983C51.9569 24.8007 51.0076 27.6991 52.9529 28.371L52.949 28.375Z" fill="black"/>
<path d="M66.3831 28.375L67.6253 28.7773L66.8597 29.832C65.6683 31.4843 68.1722 33.3203 69.387 31.6679L70.1526 30.6132L70.9182 31.6679C71.4299 32.371 72.4104 32.5156 73.1018 32.0117C73.801 31.5039 73.9534 30.5273 73.4456 29.8281L72.6799 28.7734L73.9222 28.371C74.7425 28.1054 75.1917 27.2226 74.9261 26.4022C74.6604 25.5819 73.7816 25.1327 72.9573 25.3983L71.7151 25.8007V24.496C71.7151 23.6327 71.0158 22.9335 70.1526 22.9335C69.2893 22.9335 68.5901 23.6327 68.5901 24.496V25.8007L67.3478 25.3983C65.379 24.8007 64.4417 27.703 66.383 28.371L66.3831 28.375Z" fill="black"/>
<path d="M73.438 35.438H26.563C24.5239 35.4692 24.4966 38.5278 26.563 38.563H73.438C75.4771 38.5317 75.5044 35.4732 73.438 35.438Z" fill="black"/>
<path d="M15.6251 85.938H28.1251C30.1759 85.9028 30.1798 82.8482 28.1251 82.813H15.6251C13.5743 82.8481 13.5704 85.9028 15.6251 85.938Z" fill="black"/>
<path d="M15.6251 78.125H21.8751C23.9259 78.0898 23.9298 75.0352 21.8751 75H15.6251C13.5743 75.0352 13.5704 78.0898 15.6251 78.125Z" fill="black"/>
<path d="M92.8201 34.508L82.8121 30.0627V7.81274C82.8121 6.94946 82.1129 6.25024 81.2496 6.25024H18.7496C17.8863 6.25024 17.1871 6.94946 17.1871 7.81274V30.0627L7.17908 34.508C6.61267 34.758 6.24939 35.3205 6.24939 35.9377V85.9378C6.24939 90.2464 9.75329 93.7503 14.0619 93.7503H85.9369C90.2455 93.7503 93.7494 90.2464 93.7494 85.9378V82.8128C93.6986 80.7425 90.6635 80.7698 90.6244 82.8128V85.9378C90.6244 88.5237 88.5228 90.6253 85.9369 90.6253H14.0619C11.476 90.6253 9.37439 88.5237 9.37439 85.9378V50.8397L43.0194 65.7928C47.4569 67.7655 52.5467 67.7655 56.9804 65.7928L90.6254 50.8397V74.9998C90.641 77.035 93.7231 77.0623 93.7504 74.9998V35.9377C93.7504 35.3206 93.3865 34.7619 92.8201 34.508ZM55.7111 62.9381C52.0822 64.5514 47.9181 64.5514 44.2891 62.9381L9.37508 47.4221V36.953L17.1876 33.4842V44.7542C17.2305 46.809 20.2735 46.809 20.3126 44.7542V9.37924H79.6876C79.6641 20.0822 79.7032 41.5983 79.6876 52.2892L55.7106 62.9453L55.7111 62.9381ZM82.8131 50.8951V33.481L90.6256 36.9498V47.4188L82.8131 50.8915V50.8951Z" fill="black"/>
</svg>
