<svg width="100" height="100" viewBox="0 0 100 100" fill="none" xmlns="http://www.w3.org/2000/svg">
<path fill-rule="evenodd" clip-rule="evenodd" d="M21.3283 26.77V6.51598C21.3283 5.44178 21.758 4.47298 22.465 3.76988C23.172 3.06285 24.1369 2.63318 25.2111 2.63318H78.1171C79.1913 2.63318 80.1601 3.06287 80.8632 3.76988C81.5702 4.47691 81.9999 5.44178 81.9999 6.51598V16.0863H96.0859C96.6952 16.0863 97.1914 16.5824 97.1914 17.1918V41.3478C97.1914 41.9572 96.6953 42.4533 96.0859 42.4533H81.9999V93.4653C81.9999 94.5395 81.5702 95.5083 80.8632 96.2114C80.1561 96.9184 79.1913 97.3481 78.1171 97.3481H25.2221C24.1479 97.3481 23.1791 96.9184 22.476 96.2114C21.7689 95.5043 21.3393 94.5395 21.3393 93.4653V65.9613C16.3588 65.6878 11.8745 63.5511 8.56226 60.2465C5.00366 56.6879 2.81616 51.7817 2.81616 46.3635C2.81616 40.9416 5.01536 36.0355 8.56226 32.4805C11.867 29.1758 16.3514 27.0391 21.3393 26.7657L21.3283 26.77ZM23.551 65.981V82.36H79.781V42.477H75.8982L63.4452 50.4262C62.9296 50.7543 62.246 50.6059 61.9179 50.0902C61.7382 49.8051 61.6952 49.4574 61.8007 49.1527L63.9491 42.4691H59.5897C58.9803 42.4691 58.4842 41.973 58.4842 41.3636V17.2076C58.4842 16.5983 58.9803 16.1021 59.5897 16.1021H79.7887V6.51624C79.7887 6.06312 79.5973 5.64124 79.3043 5.33654C78.9996 5.03185 78.5895 4.85216 78.1246 4.85216H65.8316L64.0621 10.2936C63.9137 10.7584 63.4723 11.0631 63.0113 11.0631H40.3393C39.8237 11.0631 39.3823 10.7037 39.2651 10.2311L37.519 4.85216H25.226C24.7612 4.85216 24.351 5.04357 24.0463 5.33654C23.7416 5.62951 23.5619 6.05138 23.5619 6.51624V26.7702C28.5424 27.0437 33.0267 29.1804 36.3389 32.485C39.8975 36.0436 42.085 40.9498 42.085 46.368C42.085 51.7899 39.8858 56.696 36.3389 60.251C33.0342 63.5557 28.5498 65.6924 23.5619 65.9658L23.551 65.981ZM34.75 34.067C31.6016 30.9186 27.2461 28.9615 22.434 28.9615C17.6254 28.9615 13.2778 30.9107 10.118 34.067C6.96176 37.2232 5.01246 41.5709 5.01246 46.383C5.01246 51.1916 6.96166 55.551 10.118 58.699C13.2664 61.8474 17.6219 63.8045 22.434 63.8045C27.2426 63.8045 31.5902 61.8553 34.75 58.699C37.8984 55.5506 39.8555 51.1951 39.8555 46.383C39.8555 41.5744 37.9063 37.2268 34.75 34.067ZM20.266 53.161H24.6137C25.223 53.161 25.7192 52.6649 25.7192 52.0555C25.7192 51.4461 25.2231 50.95 24.6137 50.95H20.266C19.6566 50.95 19.1605 51.4461 19.1605 52.0555C19.1605 52.6648 19.6566 53.161 20.266 53.161ZM14.9808 45.2118C14.5394 45.2118 14.1292 45.3797 13.8246 45.6532C13.7933 45.6727 13.7621 45.704 13.7308 45.7391C13.4027 46.0672 13.2035 46.5165 13.2035 47.0008V56.4852C13.2035 57.1376 13.4652 57.7274 13.8988 58.1688C14.3285 58.6102 14.93 58.8759 15.5824 58.8759H29.2774C29.9414 58.8759 30.5313 58.6024 30.961 58.1688C31.3907 57.7391 31.668 57.1376 31.668 56.4852V47.0008C31.668 46.5047 31.4688 46.0516 31.1407 45.7391C30.8126 45.411 30.3711 45.2118 29.879 45.2118V41.3173C29.879 39.2665 29.0352 37.4032 27.6876 36.0556C26.3399 34.7079 24.4767 33.8642 22.4259 33.8642C20.3751 33.8642 18.5118 34.7079 17.1642 36.0556C15.8165 37.4033 14.9728 39.2665 14.9728 41.3173V45.2118L14.9808 45.2118ZM27.6648 45.2118V41.3173C27.6648 39.8759 27.0749 38.5712 26.1296 37.622C25.1803 36.6728 23.8757 36.0868 22.4343 36.0868C20.9929 36.0868 19.6882 36.6766 18.739 37.622C17.7897 38.5712 17.2038 39.8759 17.2038 41.3173V45.2118H27.6688H27.6648ZM29.4421 47.4345H15.4111V56.497C15.4111 56.497 15.4306 56.5907 15.454 56.6142C15.454 56.6142 15.5283 56.6649 15.5712 56.6649H29.2662C29.2662 56.6649 29.3522 56.6454 29.3834 56.6142C29.4147 56.5829 29.4342 56.54 29.4342 56.497V47.4345H29.4421ZM51.6531 85.8135C50.5359 85.8135 49.5164 86.2666 48.7898 87.0049C48.0632 87.7432 47.5984 88.751 47.5984 89.8682C47.5984 90.9854 48.0515 92.0049 48.7898 92.7315C49.528 93.4698 50.5359 93.9229 51.6531 93.9229C52.7703 93.9229 53.7898 93.4698 54.5164 92.7315C55.243 91.9932 55.7078 90.9854 55.7078 89.8682C55.7078 88.751 55.2547 87.7315 54.5164 87.0049C53.7781 86.2666 52.7703 85.8135 51.6531 85.8135ZM52.9461 88.5713C52.6101 88.2353 52.157 88.0361 51.6531 88.0361C51.1491 88.0361 50.6843 88.2353 50.3601 88.5713C50.0319 88.9072 49.8249 89.3603 49.8249 89.8643C49.8249 90.3682 50.0358 90.833 50.3601 91.1573C50.696 91.4854 51.1491 91.6924 51.6531 91.6924C52.157 91.6924 52.6218 91.4815 52.9461 91.1573C53.2742 90.8213 53.4812 90.3682 53.4812 89.8643C53.4812 89.3604 53.282 88.8955 52.9461 88.5713ZM74.0401 75.1803L70.8096 72.6647L74.0401 70.1491C74.5245 69.7702 74.6104 69.0749 74.2315 68.6022C73.8526 68.1178 73.1573 68.0319 72.6729 68.4108L70.1143 70.3991V67.4421C70.1143 66.8327 69.6182 66.3366 69.0088 66.3366C68.3994 66.3366 67.9033 66.8327 67.9033 67.4421V70.3991L65.3447 68.4108C64.8603 68.0319 64.165 68.1178 63.7978 68.6022C63.4189 69.0866 63.5048 69.7819 63.9892 70.1491L67.2197 72.6647L63.9892 75.1803C63.5048 75.5592 63.4189 76.2545 63.7978 76.7272C64.1767 77.2116 64.872 77.2975 65.3447 76.9186L67.9033 74.9303V77.8873C67.9033 78.4967 68.3994 78.9928 69.0088 78.9928C69.6182 78.9928 70.1143 78.4967 70.1143 77.8873V74.9303L72.6729 76.9186C73.1573 77.2975 73.8526 77.2116 74.2315 76.7272C74.6104 76.2428 74.5245 75.5475 74.0401 75.1803ZM39.3251 75.1803L36.0946 72.6647L39.3251 70.1491C39.8094 69.7702 39.8954 69.0749 39.5165 68.6022C39.1376 68.1178 38.4423 68.0319 37.9696 68.4108L35.411 70.3991V67.4421C35.411 66.8327 34.9149 66.3366 34.3055 66.3366C33.6961 66.3366 33.2 66.8327 33.2 67.4421V70.3991L30.6414 68.4108C30.157 68.0319 29.4617 68.1178 29.0945 68.6022C28.7156 69.0866 28.8015 69.7819 29.2859 70.1491L32.5164 72.6647L29.2859 75.1803C28.8015 75.5592 28.7156 76.2545 29.0945 76.7272C29.4734 77.2116 30.1687 77.2975 30.6414 76.9186L33.2 74.9303V77.8873C33.2 78.4967 33.6961 78.9928 34.3055 78.9928C34.9148 78.9928 35.411 78.4967 35.411 77.8873V74.9303L37.9696 76.9186C38.454 77.2975 39.1493 77.2116 39.5165 76.7272C39.8954 76.2428 39.8094 75.5475 39.3251 75.1803ZM56.6841 75.1803L53.4536 72.6647L56.6841 70.1491C57.1684 69.7702 57.2544 69.0749 56.8755 68.6022C56.4966 68.1178 55.8013 68.0319 55.3286 68.4108L52.77 70.3991V67.4421C52.77 66.8327 52.2739 66.3366 51.6645 66.3366C51.0551 66.3366 50.559 66.8327 50.559 67.4421V70.3991L48.0004 68.4108C47.516 68.0319 46.8207 68.1178 46.4535 68.6022C46.0746 69.0866 46.1605 69.7819 46.6449 70.1491L49.8754 72.6647L46.6449 75.1803C46.1605 75.5592 46.0746 76.2545 46.4535 76.7272C46.8324 77.2116 47.5277 77.2975 48.0004 76.9186L50.559 74.9303V77.8873C50.559 78.4967 51.0551 78.9928 51.6645 78.9928C52.2739 78.9928 52.77 78.4967 52.77 77.8873V74.9303L55.3286 76.9186C55.813 77.2975 56.5083 77.2116 56.8755 76.7272C57.2544 76.2428 57.1684 75.5475 56.6841 75.1803ZM94.9571 18.3173H60.6721V40.2663H65.4416C65.5588 40.2663 65.6642 40.2858 65.7775 40.3171C66.3556 40.5085 66.6838 41.1256 66.4924 41.7077L64.8205 46.9186L74.8714 40.4967C75.0629 40.3482 75.2933 40.2662 75.555 40.2662H94.946V18.3172L94.9571 18.3173ZM78.6091 22.665L74.8943 35.298C74.7263 35.8878 75.0622 36.4972 75.6404 36.6769C76.2302 36.8448 76.8396 36.5089 77.0193 35.9308L80.7341 23.2978C80.902 22.7079 80.5661 22.0986 79.988 21.9189C79.4099 21.7392 78.7888 22.0869 78.6091 22.665ZM71.1677 22.8876L63.8825 28.4149C63.3981 28.7821 63.3044 29.4774 63.6715 29.9618C63.734 30.0478 63.82 30.1298 63.902 30.1845L71.1637 35.6884C71.6481 36.0556 72.3434 35.9618 72.7106 35.4775C73.0778 34.9931 72.984 34.2978 72.4997 33.9306L66.3825 29.29L72.4997 24.6494C72.984 24.2822 73.0778 23.5869 72.7106 23.1025C72.3434 22.6181 71.6481 22.5243 71.1637 22.8915L71.1677 22.8876ZM83.1247 24.6454L89.2419 29.286L83.1247 33.9266C82.6403 34.2938 82.5465 34.9891 82.9137 35.4735C83.2809 35.9579 83.9762 36.0517 84.4606 35.6845L91.7223 30.1806C91.8083 30.1181 91.8786 30.0439 91.9528 29.9579C92.32 29.4735 92.2262 28.7782 91.7419 28.411L84.4567 22.8837C83.9723 22.5165 83.277 22.6103 82.9098 23.0947C82.5426 23.579 82.6363 24.2744 83.1207 24.6416L83.1247 24.6454ZM63.4957 4.85244H39.8317L41.1247 8.84074H62.1867L63.4797 4.85244H63.4957ZM79.7807 84.5794H23.5467V93.4856C23.5467 93.9388 23.7381 94.3606 24.031 94.6653C24.324 94.97 24.7459 95.1497 25.2107 95.1497H78.1167C78.5699 95.1497 78.9918 94.9583 79.2964 94.6653C79.6011 94.3606 79.7808 93.9505 79.7808 93.4856L79.7807 84.5794Z" fill="black"/>
</svg>
