<svg width="24" height="24" viewBox="0 0 24 24" fill="none" xmlns="http://www.w3.org/2000/svg">
<mask id="mask0_61054_47610" style="mask-type:alpha" maskUnits="userSpaceOnUse" x="0" y="0" width="24" height="24">
<rect width="23.5" height="23.5" fill="#D9D9D9"/>
</mask>
<g mask="url(#mask0_61054_47610)">
<path d="M2.9375 18.6041V8.32288L9.79167 3.18225L15.3276 7.31164C15.1093 7.34053 14.8978 7.3801 14.6931 7.43037C14.4885 7.48063 14.2889 7.54338 14.0944 7.61861L9.79167 4.40621L3.91667 8.81246V17.625H9.73904C9.81052 17.8082 9.89179 17.9784 9.98285 18.1354C10.0737 18.2922 10.1707 18.4484 10.2737 18.6041H2.9375ZM12.537 19.1162C11.9157 18.5338 11.4346 17.857 11.0937 17.0859C10.753 16.3148 10.5826 15.5153 10.5826 14.6875C10.5826 12.9928 11.1729 11.5586 12.3537 10.3848C13.5345 9.21106 14.964 8.62421 16.6419 8.62421C18.3356 8.62421 19.7701 9.21106 20.9456 10.3848C22.1213 11.5586 22.7091 12.9928 22.7091 14.6875C22.7091 15.5198 22.5447 16.3235 22.2158 17.0987C21.8868 17.8738 21.4016 18.5382 20.7603 19.0918L20.1784 18.491C20.7269 18.0054 21.1415 17.4301 21.4222 16.7653C21.7027 16.1004 21.843 15.4078 21.843 14.6875C21.843 13.2323 21.3401 12.0023 20.3344 10.9975C19.3288 9.99268 18.0976 9.49029 16.6409 9.49029C15.2019 9.49029 13.9767 9.99268 12.9654 10.9975C11.9542 12.0023 11.4487 13.2323 11.4487 14.6875C11.4487 15.4117 11.594 16.1063 11.8846 16.7711C12.1753 17.4358 12.593 18.0173 13.1377 18.5155L12.537 19.1162ZM14.2562 17.3782C13.8847 17.0154 13.5876 16.6035 13.3646 16.1425C13.1419 15.6813 13.0305 15.1963 13.0305 14.6875C13.0305 13.6781 13.3841 12.8232 14.0912 12.1228C14.7985 11.4223 15.6487 11.0721 16.6419 11.0721C17.6501 11.0721 18.5054 11.4223 19.2076 12.1228C19.91 12.8232 20.2612 13.6781 20.2612 14.6875C20.2612 15.2059 20.1548 15.6986 19.942 16.1655C19.7293 16.6326 19.429 17.0412 19.0411 17.3914L18.4216 16.7775C18.7253 16.5115 18.9634 16.1973 19.1361 15.8348C19.3088 15.4725 19.3951 15.0901 19.3951 14.6875C19.3951 13.9177 19.1293 13.267 18.5978 12.7355C18.0663 12.204 17.4156 11.9382 16.6458 11.9382C15.885 11.9382 15.2366 12.204 14.7007 12.7355C14.1646 13.267 13.8966 13.9177 13.8966 14.6875C13.8966 15.0857 13.987 15.4639 14.1678 15.8221C14.3486 16.1804 14.5846 16.4927 14.8757 16.7589L14.2562 17.3782ZM16.2128 20.2611V15.4972C16.0659 15.4168 15.9476 15.3034 15.8579 15.1572C15.7681 15.011 15.7232 14.8544 15.7232 14.6875C15.7232 14.4291 15.8151 14.2108 15.9989 14.0324C16.1826 13.854 16.397 13.7648 16.6422 13.7648C16.8995 13.7648 17.1182 13.854 17.2982 14.0324C17.4784 14.2108 17.5685 14.4291 17.5685 14.6875C17.5685 14.8544 17.5286 15.0088 17.449 15.1506C17.3692 15.2926 17.2458 15.4081 17.0789 15.4972V20.2611H16.2128Z" fill="#4C555F"/>
</g>
</svg>
