<svg width="48" height="45" viewBox="0 0 48 45" fill="none" xmlns="http://www.w3.org/2000/svg">
<rect x="0.5" y="0.5" width="47" height="44" rx="22" fill="white"/>
<rect x="0.5" y="0.5" width="47" height="44" rx="22" stroke="#CC1E1C"/>
<mask id="mask0_98_21635" style="mask-type:alpha" maskUnits="userSpaceOnUse" x="12" y="11" width="24" height="24">
<rect x="12" y="11" width="24" height="24" fill="#D9D9D9"/>
</mask>
<g mask="url(#mask0_98_21635)">
<path d="M19 20H27V18H19V20ZM19 24H24V22H19V24ZM29 31V28H26V26H29V23H31V26H34V28H31V31H29ZM15 31V16C15 15.45 15.1958 14.9792 15.5875 14.5875C15.9792 14.1958 16.45 14 17 14H29C29.55 14 30.0208 14.1958 30.4125 14.5875C30.8042 14.9792 31 15.45 31 16V21.075C30.8333 21.0417 30.6667 21.0208 30.5 21.0125C30.3333 21.0042 30.1667 21 30 21C28.3167 21 26.8958 21.5833 25.7375 22.75C24.5792 23.9167 24 25.3333 24 27C24 27.1667 24.0042 27.3333 24.0125 27.5C24.0208 27.6667 24.0417 27.8333 24.075 28H18L15 31Z" fill="#CC1E1C"/>
</g>
</svg>
