<svg width="48" height="45" viewBox="0 0 48 45" fill="none" xmlns="http://www.w3.org/2000/svg">
<rect x="0.5" y="0.5" width="47" height="44" rx="22" fill="white"/>
<rect x="0.5" y="0.5" width="47" height="44" rx="22" stroke="#FFD1D1"/>
<mask id="mask0_98_21616" style="mask-type:alpha" maskUnits="userSpaceOnUse" x="12" y="11" width="24" height="24">
<rect x="12" y="11" width="24" height="24" fill="#D9D9D9"/>
</mask>
<g mask="url(#mask0_98_21616)">
<path d="M16 31V16C16 15.45 16.1958 14.9792 16.5875 14.5875C16.9792 14.1958 17.45 14 18 14H30C30.55 14 31.0208 14.1958 31.4125 14.5875C31.8042 14.9792 32 15.45 32 16V21.075C31.8333 21.0417 31.6667 21.0208 31.5 21.0125C31.3333 21.0042 31.1667 21 31 21C30.8333 21 30.6667 21.0042 30.5 21.0125C30.3333 21.0208 30.1667 21.0417 30 21.075V16H18V26H25.075C25.0417 26.1667 25.0208 26.3333 25.0125 26.5C25.0042 26.6667 25 26.8333 25 27C25 27.1667 25.0042 27.3333 25.0125 27.5C25.0208 27.6667 25.0417 27.8333 25.075 28H19L16 31ZM20 20H28V18H20V20ZM20 24H25V22H20V24ZM30 31V28H27V26H30V23H32V26H35V28H32V31H30Z" fill="#646464"/>
</g>
</svg>
