<svg width="182" height="48" viewBox="0 0 182 48" fill="none" xmlns="http://www.w3.org/2000/svg">
<mask id="mask0_136_11224" style="mask-type:alpha" maskUnits="userSpaceOnUse" x="16" y="12" width="24" height="24">
<path d="M40 12H16V36H40V12Z" fill="#D9D9D9"/>
</mask>
<g mask="url(#mask0_136_11224)">
<path d="M20.75 23C20.4 23 20.1042 22.8792 19.8625 22.6375C19.6208 22.3958 19.5 22.1 19.5 21.75C19.5 21.4 19.6208 21.1042 19.8625 20.8625C20.1042 20.6208 20.4 20.5 20.75 20.5C21.1 20.5 21.3958 20.6208 21.6375 20.8625C21.8792 21.1042 22 21.4 22 21.75C22 22.1 21.8792 22.3958 21.6375 22.6375C21.3958 22.8792 21.1 23 20.75 23ZM35.25 23C34.9 23 34.6042 22.8792 34.3625 22.6375C34.1208 22.3958 34 22.1 34 21.75C34 21.4 34.1208 21.1042 34.3625 20.8625C34.6042 20.6208 34.9 20.5 35.25 20.5C35.6 20.5 35.8958 20.6208 36.1375 20.8625C36.3792 21.1042 36.5 21.4 36.5 21.75C36.5 22.1 36.3792 22.3958 36.1375 22.6375C35.8958 22.8792 35.6 23 35.25 23ZM20 34H18V30H22C20.9 30 19.9583 29.6083 19.175 28.825C18.3917 28.0417 18 27.1 18 26H20C20 26.55 20.1958 27.0208 20.5875 27.4125C20.9792 27.8042 21.45 28 22 28V25H24.7L23.75 21.125C23.3667 19.5917 22.5458 18.3542 21.2875 17.4125C20.0292 16.4708 18.6 16 17 16V14C19.05 14 20.8875 14.6083 22.5125 15.825C24.1375 17.0417 25.1917 18.6417 25.675 20.625L26.975 25.75C27.0583 26.0667 27 26.3542 26.8 26.6125C26.6 26.8708 26.3333 27 26 27H24V30C24 30.55 23.8042 31.0208 23.4125 31.4125C23.0208 31.8042 22.55 32 22 32H20V34ZM38 34H36V32H34C33.45 32 32.9792 31.8042 32.5875 31.4125C32.1958 31.0208 32 30.55 32 30V27H30C29.6667 27 29.4 26.8667 29.2 26.6C29 26.3333 28.95 26.0333 29.05 25.7L30.325 20.625C30.8583 18.7083 31.9167 17.125 33.5 15.875C35.0833 14.625 36.9167 14 39 14V16C37.4167 16 35.9958 16.475 34.7375 17.425C33.4792 18.375 32.6583 19.6083 32.275 21.125L31.3 25H34V28C34.55 28 35.0208 27.8042 35.4125 27.4125C35.8042 27.0208 36 26.55 36 26H38C38 27.1 37.6083 28.0417 36.825 28.825C36.0417 29.6083 35.1 30 34 30H38V34Z" fill="#1C1B1F"/>
</g>
<path d="M62.4531 17.5938V29H60.3828V20.0077L57.6406 20.9141V19.2422L62.2188 17.5938H62.4531ZM70.5 23.3125V24.9452H66.2266V23.3125H70.5ZM77.4688 17.5938V29H75.3984V20.0077L72.6562 20.9141V19.2422L77.2344 17.5938H77.4688ZM89.9062 23.9297H87L86.9844 22.4141H89.4766C89.9036 22.4141 90.2604 22.3542 90.5469 22.2344C90.8333 22.1146 91.0495 21.94 91.1953 21.7108C91.3464 21.4817 91.4219 21.2031 91.4219 20.875C91.4219 20.5104 91.3516 20.2135 91.2109 19.9844C91.0755 19.7552 90.862 19.5885 90.5703 19.4844C90.2786 19.375 89.9089 19.3202 89.4609 19.3202H87.6953V29H85.5469V17.625H89.4609C90.1068 17.625 90.6823 17.6875 91.1875 17.8125C91.6979 17.9323 92.1302 18.1198 92.4844 18.375C92.8385 18.6302 93.1068 18.9504 93.2891 19.3358C93.4766 19.7213 93.5703 20.1796 93.5703 20.7108C93.5703 21.1796 93.4609 21.6119 93.2422 22.0077C93.0286 22.3983 92.6979 22.716 92.25 22.9608C91.8073 23.2056 91.2448 23.3463 90.5625 23.3827L89.9062 23.9297ZM89.8125 29H86.3672L87.2656 27.3125H89.8125C90.2396 27.3125 90.5911 27.2422 90.8672 27.1016C91.1484 26.9609 91.3568 26.7681 91.4922 26.5233C91.6328 26.2733 91.7031 25.987 91.7031 25.6641C91.7031 25.3099 91.6406 25.0026 91.5156 24.7422C91.3958 24.4818 91.2031 24.2812 90.9375 24.1406C90.6771 24 90.3333 23.9297 89.9062 23.9297H87.6719L87.6875 22.4141H90.5312L91.0234 23C91.6797 23.0052 92.2135 23.1354 92.625 23.3906C93.0417 23.6458 93.349 23.974 93.5469 24.375C93.7448 24.776 93.8438 25.2083 93.8438 25.6719C93.8438 26.401 93.6849 27.0129 93.3672 27.5077C93.0547 28.0025 92.5964 28.375 91.9922 28.625C91.3932 28.875 90.6667 29 89.8125 29ZM99.3438 29.1562C98.7031 29.1562 98.1276 29.052 97.6172 28.8438C97.1068 28.6354 96.6719 28.3464 96.3125 27.9766C95.9583 27.6016 95.6849 27.1667 95.4922 26.6719C95.3047 26.1719 95.2109 25.6354 95.2109 25.0625V24.75C95.2109 24.099 95.3047 23.5078 95.4922 22.9766C95.6797 22.4401 95.9453 21.9791 96.2891 21.5938C96.6328 21.2082 97.0443 20.9115 97.5234 20.7031C98.0026 20.4948 98.5312 20.3906 99.1094 20.3906C99.7083 20.3906 100.237 20.4921 100.695 20.6952C101.154 20.8931 101.536 21.1745 101.844 21.5391C102.151 21.9036 102.383 22.3411 102.539 22.8516C102.695 23.3568 102.773 23.9167 102.773 24.5312V25.3983H96.1484V23.9766H100.742V23.8202C100.732 23.4921 100.669 23.1927 100.555 22.9219C100.44 22.6458 100.263 22.4271 100.023 22.2656C99.7839 22.099 99.474 22.0156 99.0938 22.0156C98.7865 22.0156 98.5182 22.0833 98.2891 22.2188C98.0651 22.3489 97.8776 22.5365 97.7266 22.7812C97.5807 23.0208 97.4714 23.3073 97.3984 23.6406C97.3255 23.974 97.2891 24.3438 97.2891 24.75V25.0625C97.2891 25.4167 97.3359 25.7448 97.4297 26.0469C97.5286 26.349 97.6719 26.6119 97.8594 26.8358C98.0521 27.0546 98.2812 27.2266 98.5469 27.3516C98.8177 27.4714 99.125 27.5312 99.4688 27.5312C99.901 27.5312 100.292 27.4479 100.641 27.2812C100.995 27.1094 101.302 26.8567 101.562 26.5233L102.602 27.6016C102.424 27.862 102.185 28.112 101.883 28.3516C101.586 28.5911 101.227 28.7865 100.805 28.9375C100.383 29.0833 99.8958 29.1562 99.3438 29.1562ZM106.219 22.2733V29H104.156V20.5469H106.109L106.219 22.2733ZM108.789 20.4922L108.758 22.4141C108.643 22.3932 108.513 22.3776 108.367 22.3672C108.227 22.3568 108.094 22.3516 107.969 22.3516C107.651 22.3516 107.372 22.3958 107.133 22.4844C106.893 22.5677 106.693 22.6901 106.531 22.8516C106.375 23.013 106.255 23.2108 106.172 23.4452C106.089 23.6744 106.042 23.9349 106.031 24.2266L105.586 24.1719C105.586 23.6354 105.641 23.138 105.75 22.6797C105.859 22.2214 106.018 21.8203 106.227 21.4766C106.435 21.1328 106.695 20.8672 107.008 20.6797C107.326 20.487 107.69 20.3906 108.102 20.3906C108.216 20.3906 108.339 20.401 108.469 20.4219C108.604 20.4375 108.711 20.4609 108.789 20.4922ZM114.312 27.2031V23.3047C114.312 23.0182 114.263 22.7708 114.164 22.5625C114.065 22.3542 113.914 22.1927 113.711 22.0781C113.508 21.9635 113.25 21.9062 112.938 21.9062C112.661 21.9062 112.419 21.9531 112.211 22.0469C112.008 22.1406 111.852 22.2733 111.742 22.4452C111.633 22.6119 111.578 22.8046 111.578 23.0233H109.508C109.508 22.6744 109.591 22.3438 109.758 22.0312C109.924 21.7135 110.161 21.4323 110.469 21.1875C110.781 20.9375 111.154 20.7422 111.586 20.6016C112.023 20.4609 112.513 20.3906 113.055 20.3906C113.695 20.3906 114.266 20.5 114.766 20.7188C115.271 20.9322 115.667 21.2552 115.953 21.6875C116.245 22.1198 116.391 22.664 116.391 23.3202V27.0077C116.391 27.4296 116.417 27.7916 116.469 28.0938C116.526 28.3905 116.609 28.6484 116.719 28.8672V29H114.617C114.518 28.7865 114.443 28.5156 114.391 28.1875C114.339 27.8542 114.312 27.526 114.312 27.2031ZM114.602 23.8516L114.617 25.0781H113.312C112.99 25.0781 112.706 25.112 112.461 25.1797C112.216 25.2422 112.016 25.3358 111.859 25.4608C111.703 25.5806 111.586 25.7265 111.508 25.8983C111.43 26.065 111.391 26.2552 111.391 26.4688C111.391 26.677 111.438 26.8646 111.531 27.0312C111.63 27.1979 111.771 27.3307 111.953 27.4297C112.141 27.5234 112.359 27.5702 112.609 27.5702C112.974 27.5702 113.292 27.4974 113.562 27.3516C113.833 27.2005 114.044 27.0182 114.195 26.8047C114.346 26.5911 114.427 26.3879 114.438 26.1952L115.031 27.0858C114.958 27.2994 114.849 27.526 114.703 27.7656C114.557 28.0052 114.37 28.2292 114.141 28.4375C113.911 28.6458 113.635 28.8177 113.312 28.9531C112.99 29.0885 112.615 29.1562 112.188 29.1562C111.641 29.1562 111.151 29.0469 110.719 28.8281C110.286 28.6094 109.945 28.3099 109.695 27.9297C109.445 27.5495 109.32 27.1171 109.32 26.6327C109.32 26.1848 109.404 25.789 109.57 25.4452C109.737 25.1015 109.984 24.8125 110.312 24.5781C110.641 24.3385 111.047 24.1589 111.531 24.0391C112.021 23.9141 112.581 23.8516 113.211 23.8516H114.602ZM122.25 20.5469V22.0312H117.406V20.5469H122.25ZM118.703 18.4688H120.773V26.5625C120.773 26.8125 120.807 27.0052 120.875 27.1406C120.943 27.276 121.044 27.3672 121.18 27.4141C121.315 27.4609 121.477 27.4844 121.664 27.4844C121.799 27.4844 121.924 27.4765 122.039 27.4608C122.154 27.4452 122.25 27.4297 122.328 27.4141L122.336 28.9608C122.164 29.0181 121.969 29.0651 121.75 29.1016C121.536 29.138 121.294 29.1562 121.023 29.1562C120.56 29.1562 120.154 29.0781 119.805 28.9219C119.456 28.7604 119.185 28.5025 118.992 28.1483C118.799 27.789 118.703 27.3151 118.703 26.7266V18.4688ZM128.656 26.9922V20.5469H130.734V29H128.781L128.656 26.9922ZM128.922 25.2422L129.562 25.2266C129.562 25.7943 129.5 26.3177 129.375 26.7969C129.25 27.276 129.055 27.6927 128.789 28.0469C128.529 28.3958 128.198 28.6693 127.797 28.8672C127.396 29.0599 126.922 29.1562 126.375 29.1562C125.958 29.1562 125.578 29.099 125.234 28.9844C124.891 28.8646 124.594 28.6797 124.344 28.4297C124.099 28.1745 123.909 27.849 123.773 27.4531C123.638 27.0521 123.57 26.5702 123.57 26.0077V20.5469H125.633V26.0233C125.633 26.3046 125.664 26.5391 125.727 26.7266C125.794 26.9141 125.885 27.0677 126 27.1875C126.12 27.3021 126.258 27.3854 126.414 27.4375C126.576 27.4844 126.747 27.5077 126.93 27.5077C127.43 27.5077 127.823 27.4088 128.109 27.2108C128.401 27.0077 128.609 26.7369 128.734 26.3983C128.859 26.0546 128.922 25.6693 128.922 25.2422ZM134.586 22.3516V29H132.523V20.5469H134.461L134.586 22.3516ZM134.258 24.4688H133.648C133.654 23.8541 133.737 23.2969 133.898 22.7969C134.06 22.2969 134.286 21.8671 134.578 21.5077C134.875 21.1483 135.227 20.8724 135.633 20.6797C136.039 20.487 136.492 20.3906 136.992 20.3906C137.398 20.3906 137.766 20.4479 138.094 20.5625C138.422 20.6771 138.703 20.8594 138.938 21.1094C139.177 21.3594 139.359 21.6874 139.484 22.0938C139.615 22.4947 139.68 22.9896 139.68 23.5781V29H137.602V23.5625C137.602 23.1771 137.544 22.8723 137.43 22.6483C137.32 22.4244 137.159 22.2656 136.945 22.1719C136.737 22.0781 136.479 22.0312 136.172 22.0312C135.854 22.0312 135.576 22.0964 135.336 22.2266C135.102 22.3516 134.904 22.526 134.742 22.75C134.586 22.974 134.466 23.2317 134.383 23.5233C134.299 23.815 134.258 24.1301 134.258 24.4688ZM146.875 20.5469H148.75V28.7422C148.75 29.5078 148.583 30.1562 148.25 30.6875C147.922 31.224 147.461 31.6302 146.867 31.9062C146.273 32.1875 145.583 32.328 144.797 32.328C144.458 32.328 144.091 32.2812 143.695 32.1875C143.305 32.0938 142.927 31.9453 142.562 31.7422C142.203 31.5443 141.904 31.2864 141.664 30.9688L142.594 29.75C142.875 30.0781 143.193 30.3255 143.547 30.4922C143.901 30.6641 144.284 30.75 144.695 30.75C145.112 30.75 145.466 30.6719 145.758 30.5156C146.055 30.3646 146.281 30.1405 146.438 29.8438C146.599 29.552 146.68 29.1927 146.68 28.7656V22.4766L146.875 20.5469ZM141.164 24.875V24.7108C141.164 24.065 141.242 23.4792 141.398 22.9531C141.555 22.4219 141.779 21.966 142.07 21.5858C142.367 21.2056 142.724 20.9115 143.141 20.7031C143.562 20.4948 144.036 20.3906 144.562 20.3906C145.12 20.3906 145.589 20.4921 145.969 20.6952C146.354 20.8983 146.672 21.1875 146.922 21.5625C147.177 21.9375 147.375 22.3827 147.516 22.8983C147.661 23.4088 147.773 23.9713 147.852 24.5858V25.0312C147.779 25.6302 147.661 26.1797 147.5 26.6797C147.344 27.1797 147.135 27.6172 146.875 27.9922C146.615 28.362 146.292 28.6484 145.906 28.8516C145.521 29.0547 145.068 29.1562 144.547 29.1562C144.026 29.1562 143.557 29.0494 143.141 28.8358C142.724 28.6223 142.367 28.3229 142.07 27.9375C141.779 27.5521 141.555 27.099 141.398 26.5781C141.242 26.0573 141.164 25.4896 141.164 24.875ZM143.227 24.7108V24.875C143.227 25.2396 143.263 25.5806 143.336 25.8983C143.409 26.216 143.521 26.4974 143.672 26.7422C143.823 26.9818 144.013 27.1693 144.242 27.3047C144.471 27.4401 144.745 27.5077 145.062 27.5077C145.49 27.5077 145.839 27.4193 146.109 27.2422C146.385 27.0599 146.594 26.8125 146.734 26.5C146.88 26.1823 146.974 25.8255 147.016 25.4297V24.2031C146.99 23.8906 146.932 23.6015 146.844 23.3358C146.76 23.0702 146.643 22.841 146.492 22.6483C146.341 22.4556 146.148 22.3046 145.914 22.1952C145.68 22.0858 145.401 22.0312 145.078 22.0312C144.766 22.0312 144.492 22.1016 144.258 22.2422C144.023 22.3776 143.831 22.5677 143.68 22.8125C143.529 23.0573 143.414 23.3411 143.336 23.6641C143.263 23.987 143.227 24.3358 143.227 24.7108Z" fill="#1C1B1F"/>
</svg>
