<svg width="175" height="48" viewBox="0 0 175 48" fill="none" xmlns="http://www.w3.org/2000/svg">
<mask id="mask0_172_11628" style="mask-type:alpha" maskUnits="userSpaceOnUse" x="16" y="11" width="25" height="25">
<path d="M40.1001 11.5947H16.1001V35.5947H40.1001V11.5947Z" fill="#D9D9D9"/>
</mask>
<g mask="url(#mask0_172_11628)">
<path d="M22.1001 27.5947C21.5501 27.5947 21.0793 27.3989 20.6876 27.0072C20.2959 26.6156 20.1001 26.1447 20.1001 25.5947C20.1001 25.0447 20.2959 24.5739 20.6876 24.1822C21.0793 23.7906 21.5501 23.5947 22.1001 23.5947C22.6501 23.5947 23.1209 23.7906 23.5126 24.1822C23.9043 24.5739 24.1001 25.0447 24.1001 25.5947C24.1001 26.1447 23.9043 26.6156 23.5126 27.0072C23.1209 27.3989 22.6501 27.5947 22.1001 27.5947ZM34.1001 27.5947C33.5501 27.5947 33.0793 27.3989 32.6876 27.0072C32.2959 26.6156 32.1001 26.1447 32.1001 25.5947C32.1001 25.0447 32.2959 24.5739 32.6876 24.1822C33.0793 23.7906 33.5501 23.5947 34.1001 23.5947C34.6501 23.5947 35.1209 23.7906 35.5126 24.1822C35.9043 24.5739 36.1001 25.0447 36.1001 25.5947C36.1001 26.1447 35.9043 26.6156 35.5126 27.0072C35.1209 27.3989 34.6501 27.5947 34.1001 27.5947ZM28.1001 26.5947C27.4001 26.5947 26.8084 26.3531 26.3251 25.8697C25.8418 25.3864 25.6001 24.7947 25.6001 24.0947C25.6001 23.3947 25.8418 22.8031 26.3251 22.3197C26.8084 21.8364 27.4001 21.5947 28.1001 21.5947C28.8001 21.5947 29.3918 21.8364 29.8751 22.3197C30.3584 22.8031 30.6001 23.3947 30.6001 24.0947C30.6001 24.7947 30.3584 25.3864 29.8751 25.8697C29.3918 26.3531 28.8001 26.5947 28.1001 26.5947ZM23.2001 32.5947C23.4334 31.4447 24.0043 30.4906 24.9126 29.7322C25.8209 28.9739 26.8834 28.5947 28.1001 28.5947C29.3168 28.5947 30.3793 28.9739 31.2876 29.7322C32.1959 30.4906 32.7668 31.4447 33.0001 32.5947H23.2001ZM18.1001 32.5947C18.1001 31.4947 18.4918 30.5531 19.2751 29.7697C20.0584 28.9864 21.0001 28.5947 22.1001 28.5947C22.3834 28.5947 22.6501 28.6197 22.9001 28.6697C23.1501 28.7197 23.3918 28.7947 23.6251 28.8947C23.1251 29.3781 22.7084 29.9322 22.3751 30.5572C22.0418 31.1822 21.8168 31.8614 21.7001 32.5947H18.1001ZM34.5001 32.5947C34.3834 31.8614 34.1584 31.1822 33.8251 30.5572C33.4918 29.9322 33.0751 29.3781 32.5751 28.8947C32.8084 28.7947 33.0501 28.7197 33.3001 28.6697C33.5501 28.6197 33.8168 28.5947 34.1001 28.5947C35.2001 28.5947 36.1418 28.9864 36.9251 29.7697C37.7084 30.5531 38.1001 31.4947 38.1001 32.5947H34.5001ZM18.3001 23.5947L17.1001 21.9947L28.1001 13.5947L32.1001 16.6447V14.5947H35.1001V18.9447L39.1001 21.9947L37.9001 23.5947L28.1001 16.1197L18.3001 23.5947Z" fill="#1C1B1F"/>
</g>
<path d="M62.25 17.625V29H60.1094V17.625H62.25ZM65.7812 17.625V19.3203H56.6172V17.625H65.7812ZM70.1172 29.1562C69.4766 29.1562 68.901 29.0521 68.3906 28.8438C67.8802 28.6354 67.4453 28.3464 67.0859 27.9766C66.7318 27.6016 66.4583 27.1667 66.2656 26.6719C66.0781 26.1719 65.9844 25.6354 65.9844 25.0625V24.75C65.9844 24.099 66.0781 23.5078 66.2656 22.9766C66.4531 22.4401 66.7188 21.9792 67.0625 21.5938C67.4062 21.2083 67.8177 20.9115 68.2969 20.7031C68.776 20.4948 69.3047 20.3906 69.8828 20.3906C70.4818 20.3906 71.0104 20.4922 71.4688 20.6953C71.9271 20.8932 72.3099 21.1745 72.6172 21.5391C72.9245 21.9036 73.1562 22.3411 73.3125 22.8516C73.4688 23.3568 73.5469 23.9167 73.5469 24.5312V25.3984H66.9219V23.9766H71.5156V23.8203C71.5052 23.4922 71.4427 23.1927 71.3281 22.9219C71.2135 22.6458 71.0365 22.4271 70.7969 22.2656C70.5573 22.099 70.2474 22.0156 69.8672 22.0156C69.5599 22.0156 69.2917 22.0833 69.0625 22.2188C68.8385 22.349 68.651 22.5365 68.5 22.7812C68.3542 23.0208 68.2448 23.3073 68.1719 23.6406C68.099 23.974 68.0625 24.3438 68.0625 24.75V25.0625C68.0625 25.4167 68.1094 25.7448 68.2031 26.0469C68.3021 26.349 68.4453 26.612 68.6328 26.8359C68.8255 27.0547 69.0547 27.2266 69.3203 27.3516C69.5911 27.4714 69.8984 27.5312 70.2422 27.5312C70.6745 27.5312 71.0651 27.4479 71.4141 27.2812C71.7682 27.1094 72.0755 26.8568 72.3359 26.5234L73.375 27.6016C73.1979 27.862 72.9583 28.112 72.6562 28.3516C72.3594 28.5911 72 28.7865 71.5781 28.9375C71.1562 29.0833 70.6693 29.1562 70.1172 29.1562ZM79.5859 27.2031V23.3047C79.5859 23.0182 79.5365 22.7708 79.4375 22.5625C79.3385 22.3542 79.1875 22.1927 78.9844 22.0781C78.7812 21.9635 78.5234 21.9062 78.2109 21.9062C77.9349 21.9062 77.6927 21.9531 77.4844 22.0469C77.2812 22.1406 77.125 22.2734 77.0156 22.4453C76.9062 22.612 76.8516 22.8047 76.8516 23.0234H74.7812C74.7812 22.6745 74.8646 22.3438 75.0312 22.0312C75.1979 21.7135 75.4349 21.4323 75.7422 21.1875C76.0547 20.9375 76.4271 20.7422 76.8594 20.6016C77.2969 20.4609 77.7865 20.3906 78.3281 20.3906C78.9688 20.3906 79.5391 20.5 80.0391 20.7188C80.5443 20.9323 80.9401 21.2552 81.2266 21.6875C81.5182 22.1198 81.6641 22.6641 81.6641 23.3203V27.0078C81.6641 27.4297 81.6901 27.7917 81.7422 28.0938C81.7995 28.3906 81.8828 28.6484 81.9922 28.8672V29H79.8906C79.7917 28.7865 79.7161 28.5156 79.6641 28.1875C79.612 27.8542 79.5859 27.526 79.5859 27.2031ZM79.875 23.8516L79.8906 25.0781H78.5859C78.263 25.0781 77.9792 25.112 77.7344 25.1797C77.4896 25.2422 77.2891 25.3359 77.1328 25.4609C76.9766 25.5807 76.8594 25.7266 76.7812 25.8984C76.7031 26.0651 76.6641 26.2552 76.6641 26.4688C76.6641 26.6771 76.7109 26.8646 76.8047 27.0312C76.9036 27.1979 77.0443 27.3307 77.2266 27.4297C77.4141 27.5234 77.6328 27.5703 77.8828 27.5703C78.2474 27.5703 78.5651 27.4974 78.8359 27.3516C79.1068 27.2005 79.3177 27.0182 79.4688 26.8047C79.6198 26.5911 79.7005 26.388 79.7109 26.1953L80.3047 27.0859C80.2318 27.2995 80.1224 27.526 79.9766 27.7656C79.8307 28.0052 79.6432 28.2292 79.4141 28.4375C79.1849 28.6458 78.9089 28.8177 78.5859 28.9531C78.263 29.0885 77.888 29.1562 77.4609 29.1562C76.9141 29.1562 76.4245 29.0469 75.9922 28.8281C75.5599 28.6094 75.2188 28.3099 74.9688 27.9297C74.7188 27.5495 74.5938 27.1172 74.5938 26.6328C74.5938 26.1849 74.6771 25.7891 74.8438 25.4453C75.0104 25.1016 75.2578 24.8125 75.5859 24.5781C75.9141 24.3385 76.3203 24.1589 76.8047 24.0391C77.2943 23.9141 77.8542 23.8516 78.4844 23.8516H79.875ZM85.5781 22.2812V29H83.5156V20.5469H85.4609L85.5781 22.2812ZM85.2734 24.4688H84.6406C84.6406 23.8802 84.7109 23.3385 84.8516 22.8438C84.9974 22.349 85.2109 21.9193 85.4922 21.5547C85.7734 21.1849 86.1198 20.8984 86.5312 20.6953C86.9479 20.4922 87.4297 20.3906 87.9766 20.3906C88.3568 20.3906 88.7057 20.4479 89.0234 20.5625C89.3411 20.6719 89.6146 20.8464 89.8438 21.0859C90.0781 21.3203 90.2578 21.6276 90.3828 22.0078C90.5078 22.3828 90.5703 22.8333 90.5703 23.3594V29H88.5078V23.5703C88.5078 23.1745 88.4505 22.8646 88.3359 22.6406C88.2266 22.4167 88.0677 22.2604 87.8594 22.1719C87.651 22.0781 87.401 22.0312 87.1094 22.0312C86.7865 22.0312 86.5078 22.0964 86.2734 22.2266C86.0443 22.3516 85.8542 22.526 85.7031 22.75C85.5573 22.974 85.4479 23.2318 85.375 23.5234C85.3073 23.8151 85.2734 24.1302 85.2734 24.4688ZM90.4141 24.0859L89.5625 24.2422C89.5677 23.7109 89.6406 23.2135 89.7812 22.75C89.9219 22.2812 90.1276 21.8724 90.3984 21.5234C90.6745 21.1693 91.0156 20.8932 91.4219 20.6953C91.8333 20.4922 92.3073 20.3906 92.8438 20.3906C93.2604 20.3906 93.6354 20.4505 93.9688 20.5703C94.3073 20.6849 94.5964 20.8698 94.8359 21.125C95.0755 21.375 95.2578 21.7005 95.3828 22.1016C95.513 22.5026 95.5781 22.9922 95.5781 23.5703V29H93.5V23.5625C93.5 23.151 93.4427 22.8359 93.3281 22.6172C93.2188 22.3984 93.0599 22.2474 92.8516 22.1641C92.6432 22.0755 92.3984 22.0312 92.1172 22.0312C91.8307 22.0312 91.5807 22.0859 91.3672 22.1953C91.1589 22.2995 90.9818 22.4453 90.8359 22.6328C90.6953 22.8203 90.5885 23.0391 90.5156 23.2891C90.4479 23.5339 90.4141 23.7995 90.4141 24.0859ZM103.859 17.625V29H101.711V17.625H103.859ZM108.047 22.3516V29H105.984V20.5469H107.922L108.047 22.3516ZM107.719 24.4688H107.109C107.115 23.8542 107.198 23.2969 107.359 22.7969C107.521 22.2969 107.747 21.8672 108.039 21.5078C108.336 21.1484 108.688 20.8724 109.094 20.6797C109.5 20.487 109.953 20.3906 110.453 20.3906C110.859 20.3906 111.227 20.4479 111.555 20.5625C111.883 20.6771 112.164 20.8594 112.398 21.1094C112.638 21.3594 112.82 21.6875 112.945 22.0938C113.076 22.4948 113.141 22.9896 113.141 23.5781V29H111.062V23.5625C111.062 23.1771 111.005 22.8724 110.891 22.6484C110.781 22.4245 110.62 22.2656 110.406 22.1719C110.198 22.0781 109.94 22.0312 109.633 22.0312C109.315 22.0312 109.036 22.0964 108.797 22.2266C108.562 22.3516 108.365 22.526 108.203 22.75C108.047 22.974 107.927 23.2318 107.844 23.5234C107.76 23.8151 107.719 24.1302 107.719 24.4688ZM118.961 20.5469V22.0312H114.117V20.5469H118.961ZM115.414 18.4688H117.484V26.5625C117.484 26.8125 117.518 27.0052 117.586 27.1406C117.654 27.276 117.755 27.3672 117.891 27.4141C118.026 27.4609 118.188 27.4844 118.375 27.4844C118.51 27.4844 118.635 27.4766 118.75 27.4609C118.865 27.4453 118.961 27.4297 119.039 27.4141L119.047 28.9609C118.875 29.0182 118.68 29.0651 118.461 29.1016C118.247 29.138 118.005 29.1562 117.734 29.1562C117.271 29.1562 116.865 29.0781 116.516 28.9219C116.167 28.7604 115.896 28.5026 115.703 28.1484C115.51 27.7891 115.414 27.3151 115.414 26.7266V18.4688ZM124.133 29.1562C123.492 29.1562 122.917 29.0521 122.406 28.8438C121.896 28.6354 121.461 28.3464 121.102 27.9766C120.747 27.6016 120.474 27.1667 120.281 26.6719C120.094 26.1719 120 25.6354 120 25.0625V24.75C120 24.099 120.094 23.5078 120.281 22.9766C120.469 22.4401 120.734 21.9792 121.078 21.5938C121.422 21.2083 121.833 20.9115 122.312 20.7031C122.792 20.4948 123.32 20.3906 123.898 20.3906C124.497 20.3906 125.026 20.4922 125.484 20.6953C125.943 20.8932 126.326 21.1745 126.633 21.5391C126.94 21.9036 127.172 22.3411 127.328 22.8516C127.484 23.3568 127.562 23.9167 127.562 24.5312V25.3984H120.938V23.9766H125.531V23.8203C125.521 23.4922 125.458 23.1927 125.344 22.9219C125.229 22.6458 125.052 22.4271 124.812 22.2656C124.573 22.099 124.263 22.0156 123.883 22.0156C123.576 22.0156 123.307 22.0833 123.078 22.2188C122.854 22.349 122.667 22.5365 122.516 22.7812C122.37 23.0208 122.26 23.3073 122.188 23.6406C122.115 23.974 122.078 24.3438 122.078 24.75V25.0625C122.078 25.4167 122.125 25.7448 122.219 26.0469C122.318 26.349 122.461 26.612 122.648 26.8359C122.841 27.0547 123.07 27.2266 123.336 27.3516C123.607 27.4714 123.914 27.5312 124.258 27.5312C124.69 27.5312 125.081 27.4479 125.43 27.2812C125.784 27.1094 126.091 26.8568 126.352 26.5234L127.391 27.6016C127.214 27.862 126.974 28.112 126.672 28.3516C126.375 28.5911 126.016 28.7865 125.594 28.9375C125.172 29.0833 124.685 29.1562 124.133 29.1562ZM131.008 22.2734V29H128.945V20.5469H130.898L131.008 22.2734ZM133.578 20.4922L133.547 22.4141C133.432 22.3932 133.302 22.3776 133.156 22.3672C133.016 22.3568 132.883 22.3516 132.758 22.3516C132.44 22.3516 132.161 22.3958 131.922 22.4844C131.682 22.5677 131.482 22.6901 131.32 22.8516C131.164 23.013 131.044 23.2109 130.961 23.4453C130.878 23.6745 130.831 23.9349 130.82 24.2266L130.375 24.1719C130.375 23.6354 130.43 23.138 130.539 22.6797C130.648 22.2214 130.807 21.8203 131.016 21.4766C131.224 21.1328 131.484 20.8672 131.797 20.6797C132.115 20.487 132.479 20.3906 132.891 20.3906C133.005 20.3906 133.128 20.401 133.258 20.4219C133.393 20.4375 133.5 20.4609 133.578 20.4922ZM136.734 22.3516V29H134.672V20.5469H136.609L136.734 22.3516ZM136.406 24.4688H135.797C135.802 23.8542 135.885 23.2969 136.047 22.7969C136.208 22.2969 136.435 21.8672 136.727 21.5078C137.023 21.1484 137.375 20.8724 137.781 20.6797C138.188 20.487 138.641 20.3906 139.141 20.3906C139.547 20.3906 139.914 20.4479 140.242 20.5625C140.57 20.6771 140.852 20.8594 141.086 21.1094C141.326 21.3594 141.508 21.6875 141.633 22.0938C141.763 22.4948 141.828 22.9896 141.828 23.5781V29H139.75V23.5625C139.75 23.1771 139.693 22.8724 139.578 22.6484C139.469 22.4245 139.307 22.2656 139.094 22.1719C138.885 22.0781 138.628 22.0312 138.32 22.0312C138.003 22.0312 137.724 22.0964 137.484 22.2266C137.25 22.3516 137.052 22.526 136.891 22.75C136.734 22.974 136.615 23.2318 136.531 23.5234C136.448 23.8151 136.406 24.1302 136.406 24.4688Z" fill="#1C1B1F"/>
</svg>
