<svg width="48" height="48" viewBox="0 0 48 48" fill="none" xmlns="http://www.w3.org/2000/svg">
<rect width="48" height="48" rx="24" fill="white"/>
<rect width="48" height="48" rx="24" fill="black"/>
<path d="M12.7091 14.5459C11.8302 14.4966 12.6529 18.562 13.3827 18.8377C14.1126 19.1133 15.6243 17.1234 15.651 16.7508C15.651 16.7508 14.128 14.626 12.7091 14.5458V14.5459Z" fill="white"/>
<path d="M40.935 26.3456C40.7254 24.6216 38.8017 22.8188 37.5543 21.7106C38.616 19.0092 38.8761 16.049 38.8143 13.1717C38.7862 12.1438 38.713 11.1144 38.5738 10.0934C38.5133 9.65893 38.128 9.33409 37.6822 9.36079C36.6922 9.41844 35.7065 9.59141 34.753 9.86563C33.3271 10.2847 31.9757 10.9456 30.7648 11.8049C29.7467 12.5319 28.744 13.3953 28.1661 14.5175C28.0972 14.481 28.0254 14.4458 27.972 14.4191C27.02 13.9227 25.9709 13.5894 24.9093 13.4319C22.9546 13.1605 20.9382 13.5374 19.1775 14.4008C19.1381 14.4191 19.0987 14.4374 19.0608 14.4557C18.9328 14.2419 18.788 14.0366 18.6333 13.8425C17.1708 12.0945 14.6394 10.7867 12.4611 10.1918C11.5203 9.9415 10.5542 9.78258 9.5839 9.72633C9.14797 9.70243 8.75983 10.016 8.69797 10.4562L8.66984 10.6545C8.42938 12.5726 8.39281 14.5062 8.55594 16.4343C8.71766 18.2596 9.07908 20.0778 9.76671 21.7821C8.58123 23.0828 6.36501 25.7928 7.27203 27.4155C7.47031 27.7614 7.79094 28.0047 8.16639 28.158C7.6278 28.6164 7.23123 29.3153 7.61514 30.01C7.68264 30.1295 7.75717 30.2547 7.83873 30.3643C8.24232 30.9254 8.72607 31.4387 9.21825 31.9112C16.4774 38.789 28.3418 38.9747 36.4559 33.4876C37.1984 32.994 37.9099 32.4582 38.5821 31.8704C39.1629 31.3473 39.769 30.8017 40.2077 30.1379C40.6845 29.3799 40.3301 28.7064 39.7268 28.1959C39.9363 28.1228 40.1332 28.0243 40.3062 27.8964C40.7857 27.542 41.0037 26.9289 40.9348 26.3467L40.935 26.3456ZM8.93698 29.296C8.93557 29.2932 8.93276 29.2903 8.93698 29.296ZM35.5713 32.1352C32.1021 34.3613 27.9957 35.5651 23.8755 35.6044C20.5932 35.6564 17.2833 34.9772 14.3385 33.5119C12.3992 32.5331 10.5474 31.2605 9.14668 29.5912C9.1059 29.5378 9.04402 29.4576 8.99902 29.3929C9.18043 29.099 9.55168 28.7067 9.80338 28.3903C9.82166 28.3678 9.84135 28.3438 9.85963 28.3199C10.1409 28.2735 10.4053 28.1934 10.6303 28.0823C10.8286 27.9867 11.0156 27.8756 11.1956 27.711C11.2279 27.6815 11.2561 27.6421 11.2729 27.5985C11.3362 27.441 11.2589 27.2624 11.1014 27.2006C10.5501 26.9896 9.97214 26.9376 9.40544 26.8856C9.14107 26.8659 8.80076 26.8293 8.62496 26.6831C8.62215 26.6802 8.61934 26.6774 8.61512 26.6746C8.61371 26.6718 8.61512 26.669 8.6123 26.6676C8.60527 26.662 8.61231 26.6591 8.60809 26.6521C8.60668 26.6479 8.60949 26.6381 8.60527 26.6324C8.67699 25.4624 10.3321 23.6048 11.1646 22.7582L11.3559 22.5684C11.5964 22.3279 11.6821 21.9552 11.5415 21.622C10.8159 19.9317 10.4643 18.1135 10.3054 16.2796C10.1704 14.6947 10.1718 13.0861 10.3096 11.497C12.6032 11.7403 14.8207 12.6107 16.6462 14.031C17.1497 14.4107 17.6531 14.8059 18.172 15.1729C18.12 15.2643 18.0778 15.3642 18.0469 15.4767C17.9751 15.7101 18.0989 15.9604 18.3309 16.0434L18.4898 16.0996C18.7289 16.1685 18.9918 16.1432 19.2211 16.0828C19.4306 16.0223 19.6176 15.9154 19.8201 15.8395C20.2195 15.6764 20.6316 15.5428 21.0464 15.4317C21.4472 15.3262 21.8944 15.2404 22.3064 15.1842C23.2556 15.0618 24.2161 15.0787 25.1597 15.2235C25.7883 15.3304 26.4183 15.4963 27.0173 15.7129C27.1889 15.7818 27.4561 15.8788 27.6192 15.9576C27.7204 16.0012 27.9679 16.1277 28.0706 16.1516C28.29 16.2051 28.5361 16.1277 28.7358 16.0152C29.0184 15.8648 29.0676 15.5231 28.9776 15.232C29.8509 14.5584 30.7636 13.7048 31.6608 13.0987C32.0236 12.854 32.3976 12.629 32.7829 12.4237C34.0781 11.729 35.5026 11.3015 36.9608 11.137C36.979 11.3451 36.9945 11.5532 37.0072 11.7627C37.1872 15.0492 37.0325 18.5718 35.7429 21.6333C35.5953 21.9793 35.6937 22.3955 36.0059 22.6346C36.1296 22.733 36.3321 22.8905 36.4587 22.9974C36.9129 23.3729 37.3587 23.7722 37.7721 24.1871C38.3276 24.7524 39.364 25.8535 39.3964 26.6283C39.395 26.6382 39.3922 26.6438 39.3936 26.6522C39.3922 26.6536 39.3908 26.6551 39.3908 26.6565C39.3908 26.6579 39.3936 26.6607 39.3908 26.6607C39.3879 26.6607 39.3936 26.6663 39.3879 26.6677C39.3865 26.6691 39.3879 26.6719 39.3851 26.6747C39.3809 26.6776 39.3781 26.6804 39.3753 26.6846C39.3514 26.7099 39.3218 26.7226 39.2895 26.7422C39.0926 26.8322 38.9042 26.8562 38.6637 26.8801C38.0857 26.9391 37.4951 26.9869 36.9256 27.188C36.8707 27.2063 36.8201 27.2344 36.7793 27.2794C36.6668 27.4046 36.6781 27.5973 36.8047 27.7098C37.145 28.0051 37.5261 28.171 37.9465 28.2751C38.1364 28.4663 38.3248 28.6548 38.4935 28.8404C38.6482 29.0106 38.7902 29.1723 38.8943 29.3495C37.962 30.4534 36.7765 31.3435 35.5685 32.1325L35.5713 32.1352ZM38.9463 29.4718C38.9407 29.4563 38.9378 29.4408 38.9364 29.424C38.9378 29.4268 38.9392 29.4296 38.9407 29.4324C38.9603 29.4774 38.9603 29.5097 38.9449 29.4718L38.9463 29.4718Z" fill="white"/>
<path d="M34.5134 14.3292C33.0944 14.4093 31.3184 16.1292 31.3184 16.1292C31.3451 16.5004 33.543 18.5451 33.9523 18.3722C34.6709 18.0684 35.3923 14.2787 34.5134 14.3294V14.3292Z" fill="white"/>
<path d="M17.4512 24.2559C15.8171 24.3107 15.4908 25.7268 15.8987 26.5172C16.3079 27.3075 17.9687 27.6337 18.4313 26.5172C18.894 25.4006 18.4412 24.2236 17.4512 24.2559Z" fill="white"/>
<path d="M29.2286 24.8114C28.5395 25.5905 28.87 26.9841 30.2326 27.0727C31.5953 27.1627 31.7612 25.8914 31.2212 25.0519C30.6419 24.1519 29.7123 24.263 29.2271 24.81L29.2286 24.8114Z" fill="white"/>
<path d="M27.9164 30.2196C27.1978 31.0746 26.1768 31.9 25.0406 31.5316C24.3164 31.225 24.1786 30.1084 24.0618 29.3322C24.772 29.0777 26.0531 28.21 25.6776 27.6306C25.2346 26.9472 22.3884 26.8094 21.8343 27.7952C21.4546 28.473 22.3856 29.3308 23.5752 29.3997C23.4431 30.1591 23.1492 31.1266 22.4671 31.4824C22.1802 31.6314 21.8315 31.6413 21.5137 31.6047C20.7444 31.5049 20.1623 31.0197 19.6363 30.4024C19.604 30.3588 19.5506 30.332 19.4943 30.3433C19.417 30.3574 19.3663 30.4305 19.3804 30.5078C19.4395 30.8298 19.5632 31.1139 19.7334 31.3896C20.272 32.2783 21.3773 32.7747 22.4024 32.5441C23.0282 32.4091 23.4782 31.9914 23.7468 31.4655C23.8424 31.6891 23.9746 31.8972 24.1504 32.0786C24.6904 32.6355 25.5749 32.7072 26.2738 32.4822C27.0937 32.2263 27.7208 31.5639 28.0345 30.7905C28.0949 30.6414 28.1413 30.4938 28.1737 30.3306C28.1835 30.2814 28.1667 30.2294 28.1259 30.1956C28.0626 30.1408 27.967 30.1549 27.9177 30.2224L27.9164 30.2196Z" fill="white"/>
</svg>
