<?xml version="1.0" encoding="UTF-8"?>
<svg width="1200pt" height="1200pt" version="1.1" viewBox="0 0 1200 1200" xmlns="http://www.w3.org/2000/svg">
 <path d="m500.16 520.08c0 27.57-22.352 49.922-49.922 49.922s-49.922-22.352-49.922-49.922 22.352-49.922 49.922-49.922 49.922 22.352 49.922 49.922z"/>
 <path d="m799.69 520.08c0 27.57-22.352 49.922-49.922 49.922s-49.922-22.352-49.922-49.922 22.352-49.922 49.922-49.922 49.922 22.352 49.922 49.922z"/>
 <path d="m600 789.84c-57.891 0-120 18.281-120 58.594 0 34.453 56.016 91.172 120 91.172s120-56.953 120-91.172c0-40.312-62.109-58.594-120-58.594zm0 109.92c-45.234 0-78.75-41.25-80.391-49.688 3.0469-5.8594 30.469-20.156 80.391-20.156 47.812 0 75 13.125 79.922 19.453-3.2812 11.719-36.094 50.391-79.922 50.391z"/>
 <path d="m1039.5 340.31c0-93.516-76.172-169.69-169.69-169.69-57.656 0-111.09 29.062-142.5 77.812l-1.6406 2.8125c-39.375-13.125-81.562-20.391-125.39-20.391-44.062 0-86.484 7.5-126.33 20.859-30.938-49.922-85.078-80.625-143.44-80.625-93.516 0-169.69 76.172-169.69 169.69 0 54.609 26.25 105.23 70.312 137.11-19.453 47.109-30.469 98.438-30.469 152.58 0 220.31 179.3 399.61 399.61 399.61s399.61-179.3 399.61-399.61c0-54.141-11.016-105.7-30.469-152.81 43.828-32.578 70.078-82.969 70.078-137.34zm-169.69-129.84c71.484 0 129.84 58.359 129.84 129.84 0 36.562-15.703 71.25-42.656 95.625l-0.70312-0.70312c-17.344-45.234-44.297-80.391-84.609-110.62-7.7344-5.625-15.938-12.422-24.844-19.453-21.094-16.875-46.172-37.031-72.422-52.5 24.141-26.719 58.594-42.188 95.391-42.188zm-669.38 129.84c0-71.484 58.359-129.84 129.84-129.84 40.781 0 79.219 19.688 103.59 52.5-17.344 8.6719-34.688 19.688-52.734 33.047-4.2188 2.8125-8.4375 5.8594-12.422 8.6719-17.344 11.016-32.344 22.266-45.234 33.984-31.641 28.828-56.25 63.516-79.453 98.203-27.656-24.141-43.594-59.062-43.594-96.562zm219.84 436.17c0-57.656 82.266-106.41 179.77-106.41s179.77 48.75 179.77 106.41c0 58.359-81.562 213.05-179.77 213.05s-179.77-154.69-179.77-213.05zm308.91 188.67c55.781-58.594 90.703-142.73 90.703-188.67 0-82.031-96.562-146.48-219.84-146.48s-219.84 64.219-219.84 146.48c0 46.172 34.688 130.08 90.703 188.67-134.53-52.031-230.39-182.58-230.39-335.16 0-120.23 59.531-226.41 150.23-291.8 1.6406-1.1719 3.2812-2.1094 5.1562-3.2812l1.6406-1.1719c2.1094-1.6406 4.2188-3.2812 6.5625-4.6875 56.484-36.797 123.75-58.594 196.17-58.594 198.28 0 359.53 161.25 359.53 359.53-0.23438 152.58-96.094 283.12-230.62 335.16z"/>
</svg>
