<?xml version="1.0" encoding="UTF-8"?>
<svg width="1200pt" height="1200pt" version="1.1" viewBox="0 0 1200 1200" xmlns="http://www.w3.org/2000/svg">
 <path d="m623.39 882.42c70.078 108.75 134.68 149.11 185.06 149.06 19.594 0 37.172-6.5625 51.984-17.625 15.562-11.578 28.172-28.219 36.984-47.625 22.5-49.594 20.25-116.2-19.594-166.74-9.375-11.953-7.3125-29.25 4.6406-38.625 4.1719-3.2812 9-5.1562 13.875-5.7188 18.281-3.1875 225.56-44.438 235.97-280.13 3.0469-69-7.7812-118.08-28.172-150.56-10.453-16.688-23.625-28.828-38.719-37.031-15.469-8.3906-33.281-12.797-52.734-13.594-51.609-2.25-113.81 19.641-174.98 58.172-35.016 22.031-73.922 50.109-109.17 76.875-1.0781 0.98438-2.25 1.8281-3.4688 2.625-43.219 32.953-80.531 63.375-97.5 77.531v193.78c0 15.234-12.328 27.562-27.562 27.562s-27.562-12.328-27.562-27.562v-193.78c-16.969-14.062-54.234-44.578-97.5-77.531-1.2188-0.79687-2.3906-1.6406-3.4688-2.625-35.25-26.766-74.156-54.844-109.17-76.875-61.219-38.531-123.37-60.422-174.98-58.172-19.406 0.84375-37.219 5.25-52.734 13.594-15.094 8.1562-28.219 20.344-38.719 37.031-20.438 32.484-31.266 81.562-28.172 150.56 10.828 246.19 236.58 280.22 237.24 280.31 14.953 2.4375 25.125 16.547 22.734 31.547-0.75 4.7344-2.7188 9.0469-5.5312 12.562l0.046875 0.046875c-39.797 50.531-42.094 117.09-19.594 166.74 8.7656 19.406 21.422 36.047 36.984 47.625 14.812 11.062 32.438 17.625 51.984 17.625 50.438 0.046876 115.12-40.406 185.29-149.44 8.2031-12.797 25.219-16.5 38.016-8.2969 3.5625 2.25 6.4219 5.25 8.5312 8.625zm-109.92-631.03c-11.531-25.031-40.312-69.422-103.78-83.578-14.812-3.2812-24.141-17.906-20.859-32.719s17.906-24.141 32.719-20.859c83.109 18.469 123.14 76.219 140.39 111.8 12.141-3.5156 24.891-5.3906 38.109-5.3906s26.016 1.875 38.109 5.3906c17.25-35.625 57.234-93.328 140.39-111.8 14.812-3.2812 29.438 6.0938 32.719 20.859 3.2812 14.812-6.0938 29.438-20.859 32.719-63.469 14.109-92.25 58.547-103.78 83.578 3.75 3.0469 7.3594 6.2812 10.734 9.7031 19.734 19.734 33.562 45.422 38.484 74.109 24.422-17.719 49.312-34.875 72.609-49.594 70.266-44.25 143.58-69.328 206.68-66.562 27.703 1.2188 53.484 7.6875 76.406 20.109 23.297 12.609 43.359 31.125 59.156 56.156 26.156 41.578 40.125 101.25 36.609 182.21-9.7969 222.05-168.66 298.5-244.13 322.4 31.594 61.688 29.719 133.36 4.4531 189.05-12.609 27.844-31.078 51.891-54.234 69.141-23.859 17.766-52.594 28.312-84.938 28.359-61.078 0.046875-134.26-38.719-208.45-140.76-74.203 102.05-147.32 140.81-208.45 140.76-32.344-0.046875-61.078-10.547-84.938-28.359-23.109-17.25-41.578-41.344-54.234-69.141-25.219-55.641-27.094-127.31 4.4531-189.05-75.469-23.859-234.32-100.31-244.13-322.4-3.5625-80.906 10.453-140.63 36.609-182.21 15.75-25.078 35.859-43.547 59.156-56.156 22.922-12.375 48.703-18.844 76.406-20.109 63.094-2.7656 136.36 22.312 206.68 66.562 23.297 14.672 48.188 31.875 72.609 49.594 4.875-28.641 18.703-54.328 38.484-74.109 3.375-3.375 6.9844-6.6094 10.734-9.7031zm169.22 123.42v-16.5c0-22.688-9.3281-43.359-24.281-58.312s-35.625-24.281-58.312-24.281-43.359 9.3281-58.312 24.281-24.281 35.625-24.281 58.312v16.5c34.688 26.625 64.641 50.906 82.641 65.672 17.953-14.766 47.953-39.047 82.641-65.672z"/>
</svg>
