<?xml version="1.0" encoding="UTF-8"?>
<svg width="1200pt" height="1200pt" version="1.1" viewBox="0 0 1200 1200" xmlns="http://www.w3.org/2000/svg">
 <path d="m1076.8 537.66c-35.203-68.25-97.312-121.13-168.19-149.44-36.75-14.672-75.281-24.562-114.52-28.594 6.7969-61.359 7.9219-128.39-10.734-186.56-14.297-44.578-46.875-81.656-96.234-85.312-38.484-2.3438-77.766 8.7656-112.97 21.891-164.48 65.812-315.66 199.97-415.22 344.72-64.641 97.266-180.66 312.24-76.969 412.82 17.25 16.406 39 26.812 62.016 31.734 3.4219 12.562 10.031 24.141 18.281 34.172 13.641 17.109 28.828 33.328 45.234 48.141 4.125 3.4688 9.9844 8.5312 14.109 12 1.5469 1.2188 13.172 10.031 14.766 11.297l12.328 8.3906c102.23 67.969 230.81 66.938 342.28 23.109 8.8125-3.2812 18.188-7.3125 26.812-11.156 28.078-12.234 54.797-29.578 76.5-51.188 0.046875-0.046875 0.046875-0.09375 0.09375-0.09375 22.781 16.312 48.328 29.156 74.953 38.109 60.703 20.484 129.1 17.672 187.6-9.1406 169.82-78.938 200.72-311.06 119.77-464.86zm-50.531 335.34c-24.188 40.641-58.5 70.359-98.812 87.047 24.281-29.203 38.719-67.828 37.453-104.91-0.23438-4.6875-6.8438-6.0938-9.0469-1.9219-16.031 26.344-30.047 52.828-47.297 77.625-10.734 15.562-22.406 30-35.625 43.312-14.25 1.6406-28.922 1.9219-43.922 0.65625-9.4219-0.5625-18.75-1.5-27.938-2.8125 45.75-29.719 77.25-88.078 78.562-139.82 0-4.7812-6.5156-6.5156-8.9062-2.3906-17.859 27.141-33.75 54.422-52.453 80.344-14.484 20.578-30 38.672-47.391 56.391-18.938-4.125-37.594-9.3281-56.391-15 34.734-42.844 56.25-95.672 68.109-148.36 7.6875-33.234 11.531-68.672-0.375-101.48-3.8906-11.016-19.781-11.719-24.75-1.2188-4.2656 8.5312-7.2656 18-10.125 27.047-5.1094 16.641-9.0938 34.031-12.516 51-12.75 57.469-36.797 114.05-79.641 154.26-24.234 23.531-52.688 36.656-84.75 48.75-112.97 43.594-239.9 38.906-333.56-44.016-9.9844-8.4375-19.359-17.719-28.312-27.469 19.031 2.7656 38.109 5.1562 57.375 7.2188 80.156 7.7812 162.98 12.797 242.02-8.1562 40.688-11.156 86.906-33.234 103.5-75.516 5.1562-13.781-13.172-24.141-22.219-12.188-9.9375 13.969-23.953 23.484-39.703 30.281-96.469 39.188-288.61 16.688-391.6-4.1719-30.516-5.5312-52.266-25.734-59.438-56.859-14.25-66.844 20.438-145.87 49.828-206.26 29.719-59.391 66.469-115.27 109.27-166.08 85.453-100.31 191.39-188.39 311.63-243.52 27.844-12.141 57.281-22.641 86.812-27.141 27.609-3.7031 47.156-3.1406 62.625 23.016 29.484 52.359 23.062 145.31 15.328 204.47l-0.98438 6.5625c-2.7656 17.484 11.109 33.797 28.828 33.797 84.328 2.0625 172.5 33.75 229.64 96.797 83.766 92.719 99.234 253.31 34.875 360.74z"/>
 <path d="m350.58 431.29c-41.344 28.172-68.672 73.828-78.609 122.44-15.234 70.406 7.3125 149.34 59.297 200.44 31.5 33.188 72.281 48.938 117.94 43.266 64.828-8.4844 120.71-49.875 160.55-99.656 39.281-49.5 69.516-121.97 36.891-182.34-48.609-92.016-207.24-143.53-296.02-84.188zm234.24 246.47c-46.031 55.5-128.58 113.06-202.31 81.422-12.469-5.4375-23.812-14.156-33.938-23.203-32.438-28.406-55.125-67.828-63.188-110.2-13.969-68.719 11.25-146.58 70.359-186.79 83.672-55.5 229.4-1.2188 269.68 86.766 23.859 53.25-7.0781 110.44-40.688 152.06z"/>
 <path d="m453 530.11c-28.406 19.359-32.25 67.125 0 93.188s83.906-19.594 85.172-53.484c1.3125-33.891-56.062-59.531-85.172-39.656z"/>
 <path d="m183.52 742.08c-8.8594 1.4062-14.062 4.7812-16.406 12.141-2.9062 8.7188 7.1719 24.938 18.188 19.219 15.984-6.0938 18.234-15.047 6.75-27.844-2.0625-2.4844-5.1094-3.9844-8.5312-3.5156z"/>
 <path d="m903.79 541.13c-3.3281 2.2969-6.4219 5.3438-9 7.8281-10.406 10.219-18.984 21.234-26.484 33.516-3.4219 6.4219-7.5469 12.516-9.2344 20.156 0.09375 8.7656 11.719 5.8125 17.203 4.6875 26.109-7.2188 46.031-37.406 35.344-64.172-1.2656-3-5.25-4.0781-7.8281-2.1094z"/>
 <path d="m935.29 708.37c-4.6406 7.4062 6.4219 11.25 11.484 13.266 23.859 7.875 55.969-3.3281 63.234-29.109 0.60938-2.3438-0.75-4.7812-3.0938-5.4375l-3.5625-0.98438c-1.3125-0.28125-3.6094-0.046875-5.0156-0.09375-15.938 0.46875-30.703 3.5625-45.188 10.453-6.2812 3.2344-12.609 6.4219-17.859 11.953z"/>
</svg>
