<?xml version="1.0" encoding="UTF-8"?>
<svg width="1200pt" height="1200pt" version="1.1" viewBox="0 0 1200 1200" xmlns="http://www.w3.org/2000/svg">
 <path d="m277.18 359.44c28.641-35.812 73.641-53.438 117.8-60.75 49.359-8.2031 97.172-3.7969 115.41-1.5469 62.25-43.125 138.37-65.297 206.9-70.688 59.906-4.7344 113.91 3.4688 148.31 20.484 86.109 42.656 121.82 103.08 138.32 127.6 18.703 27.797 43.031 22.594 61.875 22.781 13.734 0.14062 33.469 2.4375 49.641 15.75 10.875 8.9062 20.578 22.781 25.125 45.094 11.062 54.281-31.641 137.63-156.05 148.18-25.828 25.641-143.29 133.13-306.47 142.92l-2.8594 0.09375c-27.094 23.391-64.547 42.328-116.3 49.406-4.2656 0.60938-17.203 1.2188-29.719-3.0938-9.7969-3.375-19.125-9.5625-25.312-19.734-2.3438-3.7969-4.3125-8.3906-5.5781-13.875-35.906 12.469-101.16 33.609-156.84 43.688 2.5312 24.516 5.7188 68.719-0.09375 102.7-4.6875 27.562-16.453 48.516-33.375 56.25-27.703 12.656-52.594 11.156-71.859-1.7344-17.812-11.953-31.828-35.016-36.797-70.641-1.0312-7.125-1.5938-14.578-1.9688-21.422-24.938 6.2812-57.281 10.875-82.547 8.0625-19.453-2.2031-35.062-9.0938-43.922-19.734-12.562-15.094-16.969-31.5-13.641-47.297 4.2188-20.156 22.875-41.812 63.094-56.062 51.75-18.328 79.359-17.719 99.094-26.812 1.7344-0.79688 2.9062-3.1406 4.6875-5.7188 3.6094-5.2969 7.2656-12.094 10.875-19.828 12.141-25.875 23.906-60.844 33.469-86.438 11.344-30.328 30.797-78.984 87.516-154.78-16.781-9.8906-37.266-17.719-61.594-31.266-21.141-11.766-27.047-26.109-28.125-37.828-1.6406-17.625 9.5625-32.016 11.016-33.797l-0.42188 0.51562zm815.9 83.812c-0.46875-0.42188-0.89062-0.84375-1.3594-1.2188-8.4844-6.9844-19.125-7.1719-26.297-7.2656-28.734-0.28125-64.031 3.0938-92.578-39.375-14.812-21.984-46.547-76.594-123.89-114.89-29.812-14.766-76.781-20.812-128.72-16.734-79.688 6.3281-171.05 36.891-232.13 101.44-135.74 143.34-168.71 222.61-184.6 264.98-11.625 31.078-26.484 75.469-41.344 102.56-8.7188 15.891-18.609 26.438-27.094 30.328-20.391 9.375-48.75 9.1875-102.23 28.125-13.172 4.6406-23.203 9.9375-30.188 15.891-4.6875 4.0312-7.8281 8.0625-8.7656 12.516-1.125 5.2969 1.5 10.5 5.7188 15.609 2.0625 2.4375 5.4844 3.5625 9.3281 4.6406 6.5156 1.8281 14.25 2.4844 22.5 2.4844 27.609 0.09375 60.234-7.3125 77.062-14.156 5.8125-2.3438 12.469-1.5938 17.672 1.9688 5.1562 3.5625 8.2031 9.5156 8.0625 15.844 0 0-0.51562 22.031 2.1562 41.109 3.0938 22.031 9.5625 37.359 20.531 44.719 9.5625 6.375 21.797 5.0156 35.531-1.2188 2.625-1.1719 4.1719-3.9375 5.7188-7.0781 2.9531-5.8594 4.875-13.266 6.2812-21.375 7.5938-44.812-2.2969-109.22-2.2969-109.22-0.75-4.9219 0.51562-9.9844 3.5156-14.016 3-3.9844 7.4531-6.6562 12.422-7.3125 65.906-9.1875 154.08-39.797 183.79-50.531 1.9688-6.0938 4.5938-12.656 7.9219-19.734 15-31.688 29.109-68.438 29.109-68.438 3.75-9.6562 14.578-14.438 24.234-10.734s14.438 14.531 10.734 24.188c0 0-14.672 38.109-30.234 70.969-5.6719 12-8.5781 21.516-9.2344 29.109-0.375 4.3125-0.09375 7.5938 1.3594 9.9844 1.8281 3 5.25 3.8906 8.1094 4.5469 4.3594 0.98438 8.4375 0.89062 9.9375 0.70312 146.81-20.062 154.5-155.72 154.5-155.72 0.5625-10.312 9.375-18.234 19.688-17.719 10.312 0.5625 18.281 9.375 17.719 19.688 0 0-2.4375 50.625-34.641 100.12 150.89-23.625 251.21-132.52 251.21-132.52 3.2812-3.5625 7.7812-5.7188 12.609-6 74.25-4.5469 115.08-38.391 126.66-72.562-20.906 22.359-47.484 36.609-74.391 44.859-42.75 13.078-86.203 10.5-108.09 2.8125-9.75-3.4688-14.859-14.156-11.438-23.906s14.109-14.859 23.859-11.438c17.156 6.0469 51.188 6.9375 84.703-3.2812 30.469-9.3281 60.703-28.219 76.875-62.766zm-283.45-18.891c23.25-4.4531 46.219 13.031 51.234 39.047 5.0156 26.062-9.7969 50.859-33.047 55.312-23.25 4.5-46.219-12.984-51.234-39.047-5.0156-26.016 9.7969-50.812 33.047-55.312zm23.438 14.297c5.0156-0.51562 9.5156 3.1406 10.031 8.1562s-3.0938 9.5156-8.1094 10.031-9.5625-3.0938-10.078-8.1562c-0.51562-5.0156 3.1406-9.5156 8.1562-10.031zm-364.36-107.16c-19.359-0.5625-43.266 0.09375-67.594 4.125-35.391 5.8594-72.047 18.703-94.875 47.484-0.1875 0.23438-0.375 0.46875-0.5625 0.65625 0 0-3.3281 3.1406-1.9219 6.7969 1.0312 2.7656 4.0312 5.0625 8.8125 7.7344 26.391 14.672 48.328 23.484 66.422 34.359 22.312-27.75 49.266-58.734 81.891-93.234 2.5781-2.6719 5.1562-5.3438 7.8281-7.9219z" fill-rule="evenodd"/>
</svg>
