<?xml version="1.0" encoding="UTF-8"?>
<svg width="1200pt" height="1200pt" version="1.1" viewBox="0 0 1200 1200" xmlns="http://www.w3.org/2000/svg">
 <path d="m1093.8 567.79c-3.4688-7.4531-8.3906-15.469-12.609-22.5-3.4688-5.0156-6.9375-10.125-10.547-14.953-10.922-13.922-23.438-26.812-37.266-37.734 11.578-6.9844 21-17.016 29.391-27.797 42.375-57.844 48.094-141.89 7.2656-202.82-13.734-20.812-32.438-38.156-53.062-52.031-2.7188-1.7344-11.719-7.0781-14.391-8.7656-26.203-14.203-54.562-24.938-84.141-29.016-64.031-9.0938-123.05 18.609-164.48 66.562-13.172 15.047-24.516 31.219-34.172 48.469-55.078-23.297-118.5-23.812-176.44-12.281-16.734 3.5156-33.328 8.0156-49.5 13.359-36.047-74.625-102.42-136.97-191.48-120-28.875 5.1562-56.906 18.562-81.094 34.312-14.672 9.4688-29.438 20.484-42.234 32.391-30.469 27.844-54.469 63.797-63.141 104.62-10.969 51.844 1.9219 107.72 33.234 150.28-51.75 73.875-84.047 165.52-66.562 256.26 9 44.906 30.797 86.812 60.891 121.13 171.98 193.5 564.56 210.28 783.52 93 51.094-27.422 97.5-64.969 131.9-111.94 18.656-25.547 34.078-54.75 44.203-84.797 21.328-63.141 21-135.47-9.2344-195.71zm-25.922 113.48c-3.5156 84.188-54.562 158.63-122.48 205.82-188.02 131.53-558.28 120.84-732.05-31.547-5.5312-4.7812-12.656-11.766-17.719-17.203-2.5781-2.5781-5.9062-6.1875-8.1562-9.0938l-7.8281-9.2812s-7.0312-9.7969-7.0312-9.7969c-25.312-35.438-38.438-78.984-36.281-122.63 2.25-56.812 26.297-113.86 58.219-161.29 4.3125-6.5156 9.5156-13.453 14.25-19.406 9.1406-11.109 8.8594-27.516-1.2188-38.297l-3.5156-3.75c-0.23438-0.23438-0.46875-0.46875-0.75-0.65625-2.3906-2.2969-4.5469-4.7812-6.75-7.6875-21.609-29.25-31.875-69.375-24.188-104.77 4.2188-20.578 14.906-40.125 28.312-56.297 14.438-17.625 32.719-32.391 51.797-44.766 79.453-52.969 140.63-27.938 185.29 51.328 5.7188 10.312 10.875 21.094 15 32.109 5.7656 14.25 21.984 21.141 36.188 15.375 21.422-8.7188 43.312-15.422 65.625-20.344 53.391-10.922 112.64-10.547 161.29 16.266l0.51562 0.28125c0.046875 0.046874 0.375 0.23437 0.046875 0l40.594-12.328c4.3594-10.5 10.125-21 16.125-30.75 32.25-52.312 83.625-90 146.86-77.109 17.109 3.0938 33.891 9.2812 49.5 17.016 22.734 10.969 43.969 27.375 58.5 48 26.484 37.219 29.719 87.375 15.656 130.92-6.9844 20.625-17.156 42.75-35.906 54.469-11.906 5.5312-9 21.562 1.7344 24.141 37.406 54.656 60.984 114 58.359 181.13z"/>
 <path d="m900.66 625.92c-2.25-1.1719-5.0625-0.32812-6.2344 1.9219-12.984 24.703-31.875 45.281-54.188 61.266-123.94 93.047-442.13 106.45-537.79-31.641-3.2344-4.7344-10.266-0.70312-8.1094 4.4531 4.5938 10.078 10.359 19.922 17.156 28.734 108.94 138.98 417.56 128.21 541.87 14.484 16.641-15.047 31.172-32.812 41.203-53.016 3.3281-6.7031 6.0469-13.688 8.3438-20.719 0.70312-2.1094-0.23438-4.4531-2.25-5.5312z"/>
 <path d="m663.19 618.1c7.8281-5.5781 12.375-10.312 16.078-17.438 3.2344-7.5 2.8594-11.906 4.1719-21.703 0.75-3.4219-1.0312-7.0781-4.6406-8.0156-25.219-5.8594-42.75 29.156-24.844 47.109 2.5781 2.7656 6.4688 2.3438 9.2344 0z"/>
 <path d="m514.69 618.1c9.375 7.6406 16.031-9.4219 16.453-15.75 1.0312-11.109-4.4531-22.5-14.203-28.5-5.5312-3.8906-22.688-7.1719-22.547 3.9844 0.5625 5.9531 1.3125 11.062 1.7812 14.391 2.0156 11.719 8.3438 18.422 18.609 25.922z"/>
 <path d="m387.05 399.42c16.312-42.797-19.828-123.74-88.688-97.828-62.156 23.438-71.297 100.88-36.656 132.47s109.03 8.1562 125.29-34.641z"/>
 <path d="m916.55 301.64c-68.812-25.922-104.95 55.031-88.688 97.828 16.312 42.797 90.656 66.234 125.29 34.641 34.641-31.594 25.5-109.03-36.656-132.47z"/>
</svg>
