<?xml version="1.0" encoding="UTF-8"?>
<svg width="1200pt" height="1200pt" version="1.1" viewBox="0 0 1200 1200" xmlns="http://www.w3.org/2000/svg">
 <path d="m745.45 551.72c-8.0156 3.6562-14.016 10.688-16.406 19.125-2.4375 8.4844-0.98438 17.625 3.9375 24.938 0.70312 1.0312 40.641 61.547 73.359 154.87-84.328 11.672-152.76-2.5312-203.76-42.422-90.891-71.203-99.281-202.78-99.328-204.05-0.65625-12.234-8.6719-22.875-20.297-26.859-48.609-16.547-74.484-50.203-85.406-68.344 15.609-23.156 56.109-70.594 126.37-70.594 87.188 0 111.75 75.094 112.69 78.094 3.0469 10.172 11.203 18 21.516 20.531 10.312 2.5781 21.188-0.51562 28.641-8.1094 1.5-1.5469 146.58-147.42 328.6-183.94 18.938 173.02-266.86 305.39-269.9 306.74m101.77 395.68c-76.594-32.859-109.03-94.453-122.34-133.64 30.984 2.1094 64.172 0.42187 99.375-5.1562 11.344 42.328 20.016 89.203 23.016 138.79m220.6-745.08c-4.125-14.297-18.094-23.438-32.859-21.469-164.63 22.125-301.78 126.47-360.56 177.74-25.547-38.766-73.781-80.203-150.56-80.203-96.656 0-152.44 62.672-175.36 96.047h-194.81c-16.594 0-30 13.406-30 30s13.406 30 30 30h189.37c13.031 23.156 43.969 66.844 102.23 92.578 6.1406 45.281 29.953 157.4 119.81 228.1 27.891 21.938 59.438 37.828 94.5 47.672 10.547 47.672 53.156 175.97 211.4 215.76 2.3906 0.60938 4.875 0.89062 7.3125 0.89062 6.5625 0 13.031-2.1562 18.328-6.2812 7.3125-5.625 11.578-14.297 11.672-23.484 1.4062-183.94-72.891-336.66-107.91-398.34 86.719-45.844 324.05-191.68 267.42-389.02"/>
 <path d="m517.55 369.19c-19.453 0-35.25 15.797-35.25 35.25s15.797 35.25 35.25 35.25s35.25-15.797 35.25-35.25-15.844-35.25-35.25-35.25"/>
</svg>
