<?xml version="1.0" encoding="UTF-8"?>
<svg width="1200pt" height="1200pt" version="1.1" viewBox="0 0 1200 1200" xmlns="http://www.w3.org/2000/svg">
 <path d="m805.55 613.64c-15.234-12.891-50.672-21.375-60.469 21.75-7.2188 31.641 28.734 63.422 59.906 46.547 31.172-16.922 15.797-55.359 0.5625-68.297z"/>
 <path d="m353.68 605.11c-15.938 13.5-32.016 53.719 0.5625 71.391s70.172-15.562 62.625-48.656c-10.266-45.094-47.25-36.234-63.188-22.734z"/>
 <path d="m1156.3 431.95c0.1875-0.09375 0.375-0.1875 0.51562-0.28125 30.188-17.438 36.375-56.531 29.484-87.562-17.156-76.594-82.078-140.02-159.61-153.79-15.516-3.0469-31.922-2.8125-47.625-2.3438-21.047 0.70312-43.312 3.6094-63.75 9.0469-27.047 6.9375-54.141 18.703-77.109 35.953-11.625 8.25-22.453 18.75-29.109 31.312-4.5-2.3906-10.688-5.625-14.016-7.4062-6.7031-3.2344-15.094-6.9844-21.891-10.125-2.5781-1.0781-19.594-7.6875-22.359-8.9062-6.5156-2.1094-20.906-7.3125-27.328-9.0938-9-2.3438-18.844-5.2031-27.844-7.3594l-18.75-3.8906-9.375-1.9219-9.4688-1.3594c-56.812-8.8125-115.31-8.9062-171.84 2.625-35.484 7.3125-70.078 18.984-102.38 35.531-5.5312-9.6562-13.641-18-22.547-24.469-44.625-33.469-101.81-45.797-156.1-45.328-12.797-0.1875-25.781 1.125-38.297 3.7969-79.453 15.938-152.53 93.094-155.81 175.45-0.09375 15.844 3 32.25 12.609 46.312 4.9688 7.5469 12.047 14.109 19.969 18.562-6.0469 11.531-10.453 24-13.172 36.656-9.5625 39.188-5.7188 96 40.922 107.34-2.7188 14.578-1.5938 30.422 5.3438 43.5 11.719 24.422 40.266 36.422 65.297 36.75 2.7188 0.14062 5.3906 0.14062 8.0156 0.046875-1.4062 21.562-1.2656 43.172 0.046875 64.172 5.7188 101.06 46.312 175.87 133.97 228.47 90.469 52.688 200.86 69.094 303.56 74.297 229.18 4.7812 440.58-96.516 459.28-347.72 0.375-4.6875 0.70313-9.375 0.9375-14.062 5.4375 0.23438 10.875 0.14062 16.359-0.375 30.422-2.4375 59.203-21.281 64.734-53.625 1.5-8.9062 1.2188-17.719-0.375-26.203 7.7812-1.7812 15.234-5.2031 21.422-10.5 31.969-27.188 26.203-79.172 14.719-113.95-2.2969-6.75-5.1094-13.312-8.3906-19.641zm-85.875 161.86c-5.2969 5.5312-13.875 8.0625-22.406 9.6094-0.5625-12.703-1.4531-25.312-2.7188-37.875-1.5469-17.25-4.7344-34.312-9.75-50.906-3.8438-12.469-8.5781-24.75-14.859-36.281-2.0625-3.8906-4.3594-7.7344-6.8906-11.531-1.3594-2.0156-3.5156-3.5156-6.0938-4.0312-5.2031-1.0312-10.266 2.3438-11.297 7.5469-3.1875 17.203-3.4688 33.984-3.2812 51.047 0.046875 16.453 1.3125 32.578 2.625 48.609 4.6406 59.391 1.5 119.06-17.25 175.6-63.469 197.63-305.9 234.37-485.72 204.89-123.28-17.484-264.14-64.5-285.32-204.14-7.0312-42.562-8.0156-86.297-1.3125-128.9 7.4531-46.453 20.953-91.781 38.156-135.56l0.84375-3.2812c3.1875-12.047-11.719-21.094-20.953-12.328-1.875 1.6875-3.6094 3.3281-5.25 5.0156-33.516 35.625-52.641 80.484-62.109 127.87-0.28125-0.046876-0.5625-0.09375-0.84375-0.14063-8.9062-1.6406-21.281-3.8906-26.625-10.688-0.23438-0.23437-0.1875-0.32812-0.375-0.5625-0.32812-0.375-0.46875-1.1719-0.75-1.7344-0.98438-4.3594-0.60938-8.6719 0.79688-14.109 1.1719-4.0312 2.8594-8.2969 4.9688-12.094 0.9375-2.0156 2.625-3.2344 2.8125-5.6719 0.1875-2.625-0.79688-5.7188-2.9531-13.078 0 0-2.4844-8.3906-2.4844-8.3906-2.7656-10.641-15.188-17.578-25.688-14.953-2.0625-0.75-3.8438-1.0781-5.7656-0.32812-4.5938 1.5-10.781 2.8125-14.203 1.2656-0.70312-0.375 0.23438-0.65625 0.60938-0.46875 0.46875 0.09375 0.28125-0.375-0.1875-1.875-2.2031-8.7188-1.5938-18.234-0.46875-28.969 1.4062-11.531 3.7969-23.297 8.0156-34.172 4.0312-9.8438 9.7031-19.359 17.25-26.672 2.4375-2.5781 5.4844-4.2656 7.5469-7.1719 1.9688-2.9531 3-6.2812 3.75-9.9375 0.23438-1.6406 0.84375-3.4688 0.375-5.2031 6.7969-1.7812 10.875-8.7656 9.0469-15.562-1.7812-6.7969-8.7656-10.875-15.562-9.0469-1.5469-0.5625-2.3906-1.2188-3.5156-1.5938-13.453-6.1875-25.031-0.1875-35.484 8.3438-0.9375 0.70312-1.8281 1.4531-2.7188 2.2031-3.6094-3.6562-5.9531-4.0781-8.1562-8.0625-3.7969-8.2969-2.6719-17.625-0.28125-28.453 16.453-60.047 76.922-111.47 140.26-111.89 40.641-1.1719 84.234 4.7812 119.11 26.016 6.0938 4.0312 11.906 8.0625 17.906 11.766-10.266 9.0469-18.703 20.203-22.969 33.422-2.5781 6.4688 1.3594 13.875 8.1562 15.422l10.125 2.3438c11.484-1.2656 22.781-6.0469 33.094-10.781 9.5625-4.6875 19.781-11.016 29.391-15.609 76.5-37.125 164.95-42.75 248.63-30.938 4.4062 0.46875 12.516 1.7344 16.875 2.625 9.8438 1.5938 23.906 4.4062 33.422 6.8906 9.6094 2.0625 23.25 6.3281 32.859 9.0469l16.031 5.5781c7.4531 2.4844 16.266 6.5156 23.672 9.375 17.812 7.875 35.766 17.016 52.031 27.703 9.5625 6.7031 21.188 9.7031 33 8.9531 1.875-0.14062 4.0312-0.60937 5.9531-1.0312 7.125-1.3125 10.969-8.4844 9.7031-15.422-1.3125-13.594-9.1406-25.734-20.156-33.328l-3.75-2.7188c4.5938-3.0938 9.0469-6.4219 13.547-9.9375 3-2.4844 8.4375-5.7656 11.672-7.9688 33.797-19.922 74.203-26.906 113.81-26.156 9.3281-0.14062 19.031 0.51563 28.125 2.2969 46.078 8.6719 85.734 42.234 107.39 83.016 4.3594 8.25 7.7344 16.828 9.8906 25.172 2.7188 11.109 3.8906 20.766 0.1875 29.531-2.4375 4.2188-4.5469 4.5938-8.25 8.3438-0.9375-0.75-1.8281-1.5-2.8125-2.25-12.422-10.078-23.812-14.859-39-6.7031-16.453-3.75-22.594 19.781-6.5156 24.609-0.46875 4.0312 1.1719 8.9062 2.6719 12.516 1.7812 4.3594 5.8594 6.5625 9 9.7969 10.219 9.9844 17.062 23.625 20.812 37.406 3.7031 13.875 6.2812 31.969 5.2031 45.422-0.28125 3-0.79688 5.4844-1.2188 7.0312-0.46875 1.5469-0.65625 1.9688-0.1875 1.875 0.375-0.1875 1.3125 0.09375 0.60937 0.46875-3.4219 1.5938-9.6562 0.23438-14.203-1.2656-0.79688-0.28125-1.7344-0.51563-2.8125-0.42188-1.0312 0.1875-2.0156 0.46875-2.9531 0.79688-4.7344-1.125-10.078-0.5625-14.625 1.7344-5.1562 2.5781-9.3281 7.2656-11.109 13.219l-2.4844 8.2969c-2.1562 7.3594-3.1875 10.453-2.9531 13.078 0.09375 1.2188 0.5625 2.1562 1.1719 2.9062 5.1562 8.1562 11.062 23.062 6.1406 31.547z"/>
 <path d="m393.74 473.29 2.7656-4.125c0-0.046875 0.046876-0.046875 0.046876-0.09375 1.0312-1.6875 0.51562-3.8438-1.1719-4.875-3.5625-2.25-6.75-3.4688-10.688-4.4062-27.703-5.1562-55.266 12.703-68.109 36.375-1.9219 4.4531-4.7344 9.3281-4.6875 14.578 0.51562 2.9531 3.375 4.9219 6.3281 4.4062 8.4375-1.5938 15.609-4.6875 22.922-8.2031 18.797-9.0469 35.906-21.516 52.594-33.656z"/>
 <path d="m836.11 479.29c-16.359-14.344-42.703-24.375-63.141-12.188-1.6875 1.0312-2.2031 3.3281-1.0781 4.9688 0 0 2.7656 4.125 2.7656 4.125 0.89062 1.0312 3.2812 2.3438 4.4062 3.2344 18.562 13.172 37.219 26.766 58.734 34.969 4.0781 1.4062 9.6562 3.9844 14.578 3.6094 2.9531-0.65625 4.7812-3.6094 4.0781-6.5156-3.1406-12.797-10.734-23.531-20.297-32.203z"/>
 <path d="m627.74 638.11c-12.516-21.984-38.25-58.172-67.453-52.594-57.141 14.672-72.797 96.234-76.547 146.86-1.5469 29.859-1.5938 60 8.625 88.875l1.2188 3 1.5938 3.1875c24.422 44.812 90.328 54.094 129.28 22.969 26.484-19.922 37.078-55.359 36.188-86.719-1.125-43.734-11.672-87.328-32.953-125.58zm-22.453 186.79c-24.141 17.531-62.766 14.344-81.844-9.1406-1.5938-1.9688-2.9062-4.0312-3.9375-6.2344-3.75-8.5312-6.4688-17.578-8.5312-26.859 25.594 7.125 64.547 10.969 120.66 0.28125-4.2188 16.594-12.234 31.734-26.344 41.953z"/>
</svg>
