<?xml version="1.0" encoding="UTF-8"?>
<svg width="1200pt" height="1200pt" version="1.1" viewBox="0 0 1200 1200" xmlns="http://www.w3.org/2000/svg">
 <path d="m500.16 450.23c0 16.57-13.43 30-30 30s-30-13.43-30-30 13.43-30 30-30 30 13.43 30 30z"/>
 <path d="m759.84 450.23c0 16.57-13.43 30-30 30s-30-13.43-30-30 13.43-30 30-30 30 13.43 30 30z"/>
 <path d="m639.84 510c0 16.57-17.84 30-39.844 30s-39.844-13.43-39.844-30 17.84-30 39.844-30 39.844 13.43 39.844 30z"/>
 <path d="m600 560.16c-44.062 0-79.922 35.859-79.922 79.922h39.844c0-22.031 17.812-39.844 39.844-39.844s39.844 17.812 39.844 39.844h39.844c0.46875-44.297-35.391-79.922-79.453-79.922z"/>
 <path d="m1039.5 580.08v-39.844h-99.844v-39.844h79.922v-39.844h-82.5c-19.922-168.75-163.36-300-337.03-300s-317.11 131.25-337.03 299.53h-82.5v39.844h79.922v39.844h-99.844v39.844h99.844v39.844h-79.922v39.844h79.922v379.45h679.22v-378.75h79.922v-39.844h-79.922v-39.844h99.844zm-139.92 39.844h-60v39.844h60v339.61h-599.06v-339.38h60v-39.844h-60v-39.844h60v-39.844h-60v-39.844h60v-39.844h-56.953c19.688-146.25 145.08-259.69 296.72-259.69s277.03 113.44 296.72 259.69h-56.953v39.844h60v39.844h-60v39.844h60v39.609z"/>
</svg>
