<?xml version="1.0" encoding="UTF-8"?>
<svg width="1200pt" height="1200pt" version="1.1" viewBox="0 0 1200 1200" xmlns="http://www.w3.org/2000/svg">
 <path d="m460.31 619.45c0 33.008-26.863 59.766-60 59.766s-60-26.758-60-59.766 26.863-59.766 60-59.766 60 26.758 60 59.766z"/>
 <path d="m859.69 619.45c0 33.008-26.863 59.766-60 59.766s-60-26.758-60-59.766 26.863-59.766 60-59.766 60 26.758 60 59.766z"/>
 <path d="m866.48 361.64 167.11-166.88c6.7969-6.7969 7.7344-17.812 2.1094-25.781s-16.172-10.781-25.078-6.3281l-174.84 84.844h-471.56l-175.08-84.844c-8.6719-4.2188-19.219-1.6406-25.078 6.3281-5.625 7.9688-4.6875 18.75 2.1094 25.781l167.11 166.88c-103.36 42.656-172.97 144.38-172.97 257.81 0 153.98 125.39 279.38 279.61 279.38 11.25 0 22.969-0.70312 35.391-2.3438l109.45 135.7c3.75 4.6875 9.6094 7.5 15.469 7.5 6.0938 0 11.719-2.8125 15.469-7.5l109.45-135.7c11.953 1.6406 23.438 2.3438 34.219 2.3438 154.22 0 279.61-125.39 279.61-279.38 0.46875-113.44-69.375-215.16-172.5-257.81zm-66.797 138.05c66.094 0 119.77 53.672 119.77 119.77s-53.672 119.77-119.77 119.77-119.77-53.672-119.77-119.77 53.672-119.77 119.77-119.77zm-171.8 100.08 16.172-16.172c-2.5781 10.781-3.9844 21.797-3.9844 33.281-3.75-5.8594-7.7344-11.484-12.188-17.109zm-67.969 17.109c-0.23438-11.484-1.6406-22.5-3.9844-33.281l16.172 16.172c-4.4531 5.625-8.4375 11.25-12.188 17.109zm-39.844 2.5781c0 66.094-53.672 119.77-119.77 119.77s-119.77-53.672-119.77-119.77 53.672-119.77 119.77-119.77 119.77 53.672 119.77 119.77zm79.922 9.375c19.453 26.016 30 57.188 30 90.234s-10.547 64.453-30 90.234c-19.453-26.016-30-57.188-30-90.234 0-32.812 10.547-64.219 30-90.234zm-249.14-343.59c2.8125 1.4062 5.625 2.1094 8.6719 2.1094h480.94c3.0469 0 6.0938-0.70312 8.6719-2.1094l72.422-34.922-321.56 320.86-321.56-320.86zm408.98 573.52c-12.188 0-25.078-1.1719-39.375-3.5156-7.0312-1.1719-14.297 1.6406-18.75 7.2656l-101.02 125.16-101.25-125.39c-3.75-4.6875-9.6094-7.5-15.469-7.5-1.1719 0-2.1094 0-3.2812 0.23438-14.531 2.5781-27.891 3.75-40.312 3.75-132.19 0-239.77-107.34-239.77-239.3 0-102.89 66.797-194.53 164.06-226.88l71.484 71.484c-11.484-2.5781-23.438-4.2188-35.859-4.2188-88.125 0-159.84 71.719-159.84 159.61s71.719 159.61 159.84 159.61c53.672 0 101.02-26.719 130.08-67.266 0 2.5781-0.46875 4.9219-0.46875 7.5 0 50.859 19.922 98.672 56.016 134.77 3.9844 3.9844 8.9062 5.8594 14.062 5.8594s10.312-1.875 14.062-5.8594c36.094-36.094 55.781-83.906 55.781-134.77 0-2.5781-0.23438-4.9219-0.46875-7.5 29.062 40.547 76.406 67.266 130.08 67.266 88.125 0 159.84-71.719 159.84-159.61s-71.719-159.61-159.84-159.61c-12.422 0-24.375 1.6406-35.859 4.2188l71.484-71.484c97.031 32.344 164.06 123.98 164.06 226.88 0.46875 131.95-107.11 239.3-239.3 239.3z"/>
</svg>
