<?xml version="1.0" encoding="UTF-8"?>
<svg width="1200pt" height="1200pt" version="1.1" viewBox="0 0 1200 1200" xmlns="http://www.w3.org/2000/svg">
 <path d="m962.81 471.33c46.875-31.172 76.172-84.141 76.172-141.33 0-93.516-76.172-169.45-169.45-169.45-80.625 0-149.3 57.422-165.7 134.3-33.516-8.2031-68.203-12.656-103.83-12.656s-70.312 4.4531-103.59 12.656c-16.406-77.578-84.609-134.06-165.7-134.06-93.516 0-169.45 76.172-169.45 169.45 0 57.422 29.062 109.92 76.406 141.09-48.281 68.203-76.875 150.23-76.875 237.19 0 204.38 168.28 331.17 439.45 331.17s439.45-127.03 439.45-331.17c-0.23438-87.188-28.594-168.98-76.875-237.19zm-93.516-270.94c71.484 0 129.61 58.125 129.61 129.61 0 44.766-23.438 86.016-60.938 109.45-51.328-60.234-119.3-107.11-195.94-133.59 11.484-60 64.688-105.47 127.27-105.47zm-668.2 129.61c0-71.484 58.125-129.61 129.61-129.61 63.047 0 116.02 44.766 127.27 105.47-76.875 26.484-144.61 73.125-195.94 133.36-37.734-23.438-60.938-64.219-60.938-109.22zm398.91 669.61c-250.08 0-399.61-108.98-399.61-291.33 0-209.3 183.05-386.25 399.61-386.25s399.61 176.95 399.61 386.25c0 182.34-149.53 291.33-399.61 291.33z"/>
 <path d="m471.33 626.25c0 25.629-20.777 46.406-46.406 46.406s-46.406-20.777-46.406-46.406 20.777-46.406 46.406-46.406 46.406 20.777 46.406 46.406z"/>
 <path d="m559.69 619.92c0-88.359-101.25-159.84-164.3-159.84-63.281 0-114.38 71.484-114.38 159.84s51.094 159.84 114.38 159.84c63.047 0 164.3-71.484 164.3-159.84zm-134.77 101.02c-52.266 0-94.688-42.422-94.688-94.688s42.422-94.688 94.688-94.688 94.688 42.422 94.688 94.688-42.422 94.688-94.688 94.688z"/>
 <path d="m821.48 626.25c0 25.629-20.777 46.406-46.406 46.406s-46.406-20.777-46.406-46.406 20.777-46.406 46.406-46.406 46.406 20.777 46.406 46.406z"/>
 <path d="m804.84 460.08c-63.281 0-164.3 71.484-164.3 159.84s101.25 159.84 164.3 159.84c63.281 0 114.38-71.484 114.38-159.84s-51.328-159.84-114.38-159.84zm-29.766 260.86c-52.266 0-94.688-42.422-94.688-94.688s42.422-94.688 94.688-94.688 94.688 42.422 94.688 94.688-42.422 94.688-94.688 94.688z"/>
 <path d="m520.08 804.84c0 24.844 35.859 75 79.922 75s79.922-50.156 79.922-75-35.859-45-79.922-45-79.922 20.156-79.922 45z"/>
 <path d="m508.59 901.41-16.875 36.328c2.8125 1.1719 47.344 21.562 109.45 21.562 31.875 0 68.438-5.3906 106.41-21.328l-15.469-36.797c-95.156 40.078-182.81 0.70312-183.52 0.23438z"/>
</svg>
