<?xml version="1.0" encoding="UTF-8"?>
<svg width="1200pt" height="1200pt" version="1.1" viewBox="0 0 1200 1200" xmlns="http://www.w3.org/2000/svg">
 <path d="m649.92 400.31c-49.453 0-90 40.312-90 90s40.312 90 90 90 90-40.312 90-90-40.312-90-90-90zm0 139.69c-27.422 0-49.922-22.5-49.922-49.922s22.5-49.922 49.922-49.922 49.922 22.5 49.922 49.922-22.266 49.922-49.922 49.922z"/>
 <path d="m1039.5 520.08c0-47.344-98.672-90.938-165-114.84-26.016-138.98-147.89-244.69-294.38-244.69-165.23 0-299.53 134.3-299.53 299.53v379.45c0 55.078-44.766 99.844-99.844 99.844h-19.922v99.844h719.06v-441.33c66.562-8.4375 159.61-29.062 159.61-77.812zm-419.53 479.53h-419.53v-21.328c67.734-9.6094 119.77-67.969 119.77-138.52v-379.69c0-143.2 116.48-259.69 259.69-259.69 100.78 0 188.44 57.891 231.33 142.03-2.1094-2.1094-4.4531-3.9844-6.5625-5.8594-2.5781-2.1094-4.9219-4.4531-7.5-6.5625-2.8125-2.3438-6.0938-4.4531-9.1406-6.7969-2.5781-1.875-5.1562-3.9844-7.9688-5.625-3.2812-2.1094-6.5625-3.9844-9.8438-6.0938-2.8125-1.6406-5.3906-3.2812-8.2031-4.9219-3.5156-1.875-7.0312-3.5156-10.781-5.1562-2.8125-1.4062-5.625-2.8125-8.4375-3.9844-3.75-1.6406-7.7344-2.8125-11.719-4.2188-2.8125-0.9375-5.625-2.1094-8.6719-3.0469-4.2188-1.1719-8.4375-2.3438-12.656-3.2812-2.8125-0.70312-5.3906-1.4062-8.4375-2.1094-4.6875-0.9375-9.6094-1.6406-14.531-2.3438-2.3438-0.23438-4.6875-0.9375-7.2656-1.1719-7.2656-0.70312-14.766-1.1719-22.5-1.1719-122.34 0-221.95 99.609-221.95 221.95 0 109.69 78.047 200.86 184.45 218.67v278.91zm219.84 0h-179.77v-314.3l-18.281-1.6406c-93.047-8.2031-166.17-87.656-166.17-181.17 0-100.31 81.562-182.11 182.11-182.11 100.31 0 182.11 81.562 182.11 182.11zm39.844-442.27v-97.266c0-3.5156-0.46875-6.7969-0.46875-10.312 63.516 25.078 117.89 56.25 120.47 69.609-4.9219 12.656-59.531 29.531-120 37.969z"/>
</svg>
