<?xml version="1.0" encoding="UTF-8"?>
<svg width="1200pt" height="1200pt" version="1.1" viewBox="0 0 1200 1200" xmlns="http://www.w3.org/2000/svg">
 <path d="m423.19 997.45c-0.046875-0.09375-0.14062 0-0.1875 0.046875-7.3594 8.2969-16.547 13.547-27.422 15.797-6.2812 1.2656-13.781 1.8281-22.453 1.6875-9.9844-0.1875-21.047-0.75-33.375-1.7344-22.453-1.8281-44.25-5.3906-64.5-13.641-5.9531-2.4375-11.438-5.3438-16.547-8.9062-22.406-15.656-34.266-47.391-18.281-71.906 2.8125-4.2188 7.4531-10.5 9.75-14.25 10.078-16.688 11.156-37.125 8.5312-56.062-1.6406-11.438-3.4688-21.375-5.3906-29.672-1.9219-8.2031-4.875-19.641-8.6719-34.312-2.5781-9.5625-5.3438-21.375-8.25-35.438-3.7031-17.484-6.3281-35.016-8.0156-52.453-2.6719-28.734-0.14062-58.172 5.3906-87.609 2.625-14.016 6.1875-27.703 12-40.312 0.375-0.79688 0.1875-1.4531-0.70312-1.8281-1.5469-0.79688-2.8594-1.5-3.8906-2.1094-5.625-3.4219-11.484-7.6406-17.625-12.562-6.0469-4.875-11.531-10.172-16.5-16.078-0.46875-0.5625-1.125-0.75-1.875-0.375-1.5469 0.75-3.1875 1.4062-5.0625 1.875-21.938 6.1406-46.969 3.4688-67.5-7.2188-18.609-9.8438-33.938-24.375-44.25-42.75-9.0938-16.125-14.531-33.281-16.312-51.328-3.75-37.266 7.0312-75.562 26.062-107.44 9.7031-16.172 21.375-31.312 34.969-45.234 11.156-11.531 23.625-22.5 36.844-31.969 26.062-18.656 54.469-32.531 85.266-41.672 19.547-5.7656 39-9.6094 58.266-11.578 10.688-1.0312 24-1.3125 39.938-0.65625 0.79688 0 1.7812-0.28125 2.8125-0.84375 11.859-6.1875 22.734-11.344 34.594-15.75 38.203-14.109 79.828-21.422 120.56-19.219 13.406 0.65625 29.062 2.8594 47.016 6.4688 14.297 2.9062 27.938 6.8906 40.734 11.906 7.9688 3.0938 15.703 6.9375 23.156 11.484 5.8125 3.5625 10.734 7.875 14.906 12.938 0.75 0.89062 1.0312 1.6406 1.4062 2.5781 0.42188 0.98438 1.125 1.3594 2.1562 1.125 1.2188-0.28125 2.5312-0.51562 3.75-0.70312 1.3125-0.23438 4.4531-0.046875 9.3281 0.51562 12.984 1.5 25.5 4.4062 37.5 8.7188 3.9844 1.4062 8.2031 3 12.703 4.7812 27.422 10.781 52.594 26.906 73.781 47.156 16.219 15.562 30.516 31.594 42.891 48.141 7.4531 9.9844 16.125 22.688 26.016 38.109 12.75 19.875 23.859 39.891 33.469 60.094 4.8281 10.125 9.2812 21.281 13.406 33.609 3.75 11.203 6.5625 21.797 8.2969 31.875 3.2344 18.797 2.4375 37.688-3.75 55.875-0.32812 0.89062-0.046875 1.5 0.75 1.9219 3.75 2.1562 6.9375 4.4531 10.172 7.6875 5.3438 5.25 9.8906 10.312 13.688 15 7.8281 9.7031 15.562 19.781 23.203 30.094 18.562 25.125 33.141 52.547 43.453 81.938 2.2969 6.6562 4.0312 12.234 5.1562 16.594 0.09375 0.375 0.28125 1.2188 0.51562 2.5312 0.1875 1.1719 0.79688 1.4062 1.8281 0.75 2.6719-1.7812 5.6719-3.1875 9-4.3125 9-3.1406 17.859-3.9375 27.656-3.8438 28.828 0.51562 56.438 16.875 73.031 40.078 13.781 19.266 21.281 41.438 22.172 65.109 0.89062 23.625-4.2656 46.031-15.516 67.125-12.422 23.391-31.359 42.562-55.031 54.891-24.375 12.75-50.344 17.062-77.812 12.938-11.156-1.6875-22.781-5.3906-31.828-11.859-1.125-0.75-2.0625-1.7812-2.8594-2.9531-0.375-0.51562-0.75-0.5625-1.2188-0.046875-2.0625 2.2969-4.3125 4.5938-6.6094 6.9375-23.625 23.109-53.203 41.25-83.812 53.906-26.016 10.875-52.125 19.125-78.234 24.75-14.625 3.1875-29.391 5.3438-44.203 6.4688-17.953 1.3594-35.109 1.7344-51.562 1.125-3.375-0.14062-9.75-0.51562-19.125-1.2188-3.8906-0.23438-7.6406-0.65625-11.203-1.2188-5.25-0.89062-8.9062-1.5938-10.969-2.0156-1.0781-0.1875-1.7812 0.1875-2.1562 1.1719-0.23438 0.65625-0.5625 1.3125-0.98438 2.0625-2.3906 3.8438-4.8281 7.5-7.4531 10.969-9.8438 13.219-22.969 21.234-39.422 24.094-10.172 1.7812-20.109 1.6406-31.547 1.2656-10.828-0.375-22.875-1.6875-31.594-2.6719-16.5-1.875-32.438-4.7812-47.859-8.5781-14.953-3.7031-30.516-9.0469-42.891-17.953-4.2188-3.0469-7.7812-6.75-10.688-11.062-0.28125-0.42188-0.60938-0.75-0.98438-0.84375zm-127.82-649.22c3.3281 11.25-9.75 17.531-17.484 9.7031-5.9531-6-12.609-12.047-19.922-18-1.2188-0.98438-1.9688-0.9375-2.7188 0.42188-5.2969 10.125-12.469 18.562-21.562 25.5-7.7344 5.9062-12.797 9.8906-15.047 12-5.2969 5.0156-9.6094 10.594-12.891 16.594-15.562 28.688-15.938 63.422-3.4219 93.469 8.4375 20.156 22.641 37.5 40.266 50.766 14.812 11.203 30.984 18.328 48.469 21.422 2.625 0.46875 5.7656 1.125 7.7812 2.3906 5.1094 3.0469 7.7812 9.5156 4.2188 14.859-2.8125 4.2656-6.8438 6-12.188 5.3438-8.625-1.2188-16.969-3.2812-25.219-6.1875-0.65625-0.28125-1.0781-0.09375-1.3125 0.5625-3.3281 7.9219-5.8125 16.172-7.6406 24.609-1.9219 9.2344-3.2344 16.828-3.9375 22.828-0.98437 8.4375-1.6406 13.781-1.875 16.125-1.9219 21-1.7344 42.469 0.79688 63.75 3.1406 25.547 8.25 49.688 14.766 74.859 3.3281 12.891 5.7656 22.266 7.2656 28.266 3.6094 14.812 6.2812 29.719 7.9219 44.812 0.98438 9.0938 0.9375 18.469-0.23437 28.031-2.0156 16.266-7.6406 30.656-16.969 43.125-1.9688 2.625-3.6094 4.9688-4.875 6.8438-3.9375 6.0938-4.9688 12.75-3.2344 19.969 3.0469 12.375 11.859 21.516 23.297 26.812 15.281 7.0312 32.953 10.828 49.641 12.656 10.547 1.1719 22.312 2.0625 35.062 2.625 9.2344 0.42188 17.484 0.60938 26.297-0.9375 6.375-1.2188 11.766-4.3125 16.219-9.5156 3.6562-4.1719 5.25-9.0469 6.0938-14.484 0.70312-4.4062 1.2656-9.75 1.6406-16.125 0.5625-7.6875 0.98438-16.031 1.3125-24.891 0.14063-4.1719 0.9375-12.516 2.3906-24.891 3.0938-26.859 10.031-53.062 20.812-78.562 5.4844-12.984 11.672-25.781 18.656-38.297 7.125-12.703 14.344-23.859 21.703-33.516 3.375-4.3594 6.75-8.4375 10.266-12.094 4.875-5.2031 11.531-10.5 18.562-6.2812 7.0312 4.3125 6.1875 13.031 0.9375 18.375-7.5 7.5938-14.203 15.938-20.156 25.078-9 13.828-17.156 28.547-24.469 44.297-11.953 25.594-19.781 51.891-23.531 78.938-1.4062 10.031-2.25 18.188-2.5312 24.656-0.70313 14.859-1.6406 28.781-2.7188 41.859-0.23438 2.8594 0.28125 3.75 1.4062 6.7031 0.42187 1.0312 0.60937 2.8125 0.60937 5.2969 0 1.6875 0.046876 3.5625 0.75 4.8281 2.6719 4.7812 6.1875 8.4844 10.547 11.062 11.906 6.9844 25.781 10.875 39.844 13.734 26.297 5.25 52.922 8.25 79.781 8.9531 7.0312 0.1875 13.875-0.65625 20.719-2.3906 8.3438-2.2031 15.375-7.0781 20.625-14.062 6.0469-8.1094 10.734-16.922 15.281-26.109 5.1562-10.266 9.0938-18.141 11.812-23.625 7.0312-13.875 16.688-28.406 27.844-41.016 6.75-7.6875 14.156-14.859 22.312-21.562 5.6719-4.6875 12.562-9.8906 20.484-15.562 3.9375-2.8125 8.3906-5.2031 13.125-4.3125 7.6406 1.4531 10.641 10.078 6.375 16.359-1.3125 1.875-2.6719 3.3281-4.1719 4.4531-6.1875 4.5-14.25 10.266-21.188 15.984-4.5 3.75-7.5 6.3281-9 7.8281-5.2031 5.0156-10.266 10.453-15.188 16.266-12.562 15-21.094 32.156-29.438 49.5-0.5625 1.0312-0.1875 1.6875 0.9375 1.9219 3.75 0.75 7.5469 1.1719 11.484 1.3594 18.703 0.9375 36.938 0.9375 54.609-0.046875 17.344-0.9375 34.875-3.3281 51-6.5625 21.938-4.3594 44.766-11.109 68.391-20.203 24.562-9.375 47.625-21.469 67.312-36.281 13.547-10.219 25.688-22.031 36.422-35.531 14.25-17.812 24.75-37.172 31.641-58.172 10.734-33 12.938-69.188 8.2031-103.69-2.0156-14.484-5.9062-28.734-10.875-42.562-7.4531-20.672-16.828-39.797-28.078-57.375-3.7969-5.8594-8.2031-12.188-13.172-18.938-9.75-13.172-19.5-25.875-30.516-37.828-1.7344-1.875-3.5625-3.4688-5.4844-4.9219-1.5-1.125-2.5312-2.25-4.0312-0.5625-2.0625 2.25-3.6094 3.9375-4.5938 5.0156-10.219 10.781-22.781 17.859-37.688 21.234-16.453 3.7031-33.516 3.7969-51 0.42188-18.516-3.5625-35.344-10.406-52.594-19.406-15.422-8.0625-29.484-18.375-39.984-32.156-1.125-1.5469-1.7344-2.8594-2.8125-4.7812-0.14062-0.1875-0.23437-0.32812-0.51562-0.32812-0.1875 0-0.375 0.046875-0.46875 0.23438-1.0781 1.6875-2.4375 3.4688-4.0312 5.25-6.75 7.7812-14.156 14.438-22.922 20.016-8.5781 5.4844-17.484 9.75-26.859 12.891-21.562 7.0312-44.062 10.406-67.594 10.125-3.9844-0.09375-7.0312-0.09375-9.9844-1.3125-4.4531-1.8281-6.7969-4.9688-7.125-9.2812-0.32812-5.6719 3.375-10.125 8.9531-11.297 1.3594-0.32812 2.8125-0.42188 4.125-0.42188 9.0938 0 15.938-0.14062 20.484-0.51562 11.109-0.79688 22.312-2.625 33.609-5.4375 18.469-4.5469 37.5-13.875 49.875-28.734 13.312-16.031 20.719-36.891 19.594-57.844-1.125-19.922-9.2812-37.688-20.391-54.469-3.9844-6.0938-10.172-13.5-13.547-21-2.0625-4.7812-3.0938-9.8438-2.8125-15.188 0.28125-7.2656 1.4062-17.156 0.84375-25.875-1.0312-16.125-4.3125-32.719-9.6562-49.781-2.625-8.3438-6.1406-16.547-10.5-24.562-2.9062-5.25-4.875-11.344 0.23437-16.031 2.1094-1.9688 4.5469-2.8125 7.3125-2.5781 4.4531 0.42188 6.9844 3.375 9.375 7.3594 5.3906 9.0938 9.6094 18.094 12.75 27.141 3.0469 8.8125 5.8125 18.703 8.2969 29.672 1.4531 6.4688 2.5312 14.25 3.2812 19.266 1.5938 11.062 1.0312 22.828 0.46875 36.047-0.23438 5.2031 3.1875 9.9375 6.3281 14.203 3.75 5.2031 6.5625 9.4219 8.7656 12.75 5.4375 8.4375 10.172 17.672 14.109 27.609 10.266 25.641 10.266 54.656-0.70312 80.062-0.42188 1.0781-0.42188 1.7812 0.46875 2.4375 2.4375 1.875 3.75 3.1406 5.3438 5.5312 3.1406 4.5469 5.2031 7.4062 6.1875 8.625 7.875 9 16.5 15.094 27.375 21.094 9.9375 5.5781 19.875 10.078 29.906 13.641 19.5 6.9375 42.281 9.6094 62.812 4.3125 19.688-5.1094 32.859-20.109 37.875-39.562 4.3125-16.641 2.9062-34.078-1.5-50.812-6.2812-23.578-15.375-45.234-26.766-66.562-8.25-15.328-16.828-29.859-25.734-43.5-6-9.1875-10.125-15.375-12.375-18.562-8.3906-12-16.031-22.078-23.016-30.188-6.9844-8.2031-15.141-16.875-24.375-26.062-2.6719-2.625-6.0469-5.6719-10.078-9.1875-23.906-20.766-51.047-35.812-81.422-45.188-9.1406-2.8125-18.562-4.5469-28.266-5.3906-1.9219-0.09375-4.5469-1.3125-7.9219-3.4219-0.1875-0.14062-0.5625-0.1875-1.0781-0.23438-0.375-0.09375-0.75 0-1.125 0.046875-6.0469 1.875-10.406-1.8281-13.734-6.5625-1.6875-2.4844-4.875-5.0156-7.5469-6.7031-5.5312-3.6094-11.578-6.6562-18.094-9.2812-11.109-4.4531-22.688-7.875-34.734-10.406-15.047-3.0938-29.484-5.25-43.359-6.4219-35.203-3.0469-70.219 1.7344-104.02 12.188-28.172 8.6719-54.375 21.891-78.516 39.609-15.188 11.156-29.156 24-40.781 38.531-11.016 13.688-20.531 28.5-28.641 44.484-0.32812 0.70312-0.1875 1.1719 0.42188 1.5469 6.75 3.9375 9.9375 7.125 18.469 14.344 2.8594 2.3438 5.4375 4.875 7.7344 7.5 1.5469 1.7812 2.625 3.5625 3.0469 5.1562zm-107.81 169.31c0.9375-0.1875 2.625-0.375 3.8906-0.79687 0.375-0.1875 0.51563-0.375 0.23438-0.75-15.609-25.359-22.312-52.922-20.109-82.688 1.4531-19.172 7.5-39 17.953-55.312 5.1094-7.9219 11.531-15 19.219-21.188 3.2812-2.5781 6.375-4.9219 9.375-7.1719 7.125-5.3438 12.844-11.625 17.062-19.031 0.28125-0.42187 2.25-4.4062 6.0938-12.094 3.7969-7.8281 7.7344-15.188 11.672-22.266 12.422-21.938 27.797-41.484 46.078-58.734 5.3438-5.0625 10.125-8.8125 15.797-13.5 2.1094-1.7812 4.3594-3.2812 6.7969-4.5 0.28125-0.14062 0.32812-0.32812 0.1875-0.51562-0.09375-0.42188-0.375-0.5625-0.75-0.5625-0.98438 0.14062-4.9219 0.70312-11.906 1.6406-4.4531 0.60938-8.4375 1.3125-11.906 1.9688-34.875 6.8906-68.484 19.078-98.859 37.5-3.7031 2.25-7.4531 4.6875-11.297 7.4531-21.328 14.859-39.891 32.438-55.781 52.828-17.344 22.172-29.672 48.047-35.109 75.469-2.7656 13.828-3.3281 28.594-1.5 42.188 1.9219 14.438 6.7031 28.125 14.25 41.016 5.25 9 12.328 16.922 21.188 23.812 11.953 9.1875 25.172 14.484 39.703 15.938 6.1875 0.5625 12.047 0.375 17.719-0.70313zm773.21 373.13c-0.14062 0.1875-0.51562 0.75-1.0781 1.6875-0.23438 0.375-0.1875 0.75 0.14062 1.125 6.9375 6.7031 20.203 9.3281 29.672 10.266 19.828 1.9219 38.625-1.5469 56.344-10.359 17.672-8.8125 31.922-21.516 42.75-38.156 22.125-34.031 24.75-78.422 2.5312-113.06-12.75-19.969-34.406-35.344-58.781-36.188-11.016-0.28125-22.828 1.0312-31.031 9.1406-0.79688 0.75-0.9375 1.8281-0.84375 2.8594 0.23438 3.3281 1.3125 9.3281 1.5938 13.641 1.8281 25.266 0.9375 50.812-4.125 75.516-6.2812 31.125-18.75 58.969-37.172 83.531z"/>
 <path d="m446.39 367.36c-4.125-3.2344-4.6406-9.0938-1.8281-13.5 0.75-1.0312 2.1094-2.3438 4.1719-3.9375 4.7812-3.4688 9.75-6.2344 15-8.1562 12.891-4.6406 25.688-6.5625 38.531-5.7656 9.7969 0.70312 19.875 2.625 30.188 6 5.1562 1.6875 9.0938 3.3281 11.859 4.8281 6.1875 3.4219 8.3906 12.75 1.875 17.531-3.5156 2.625-7.3594 3.1406-11.672 1.6406-6.5156-2.3906-11.344-4.0781-14.438-5.0156-9.2812-2.8594-18.281-4.1719-26.953-4.0312-3.2344 0-7.875 0.60938-13.875 1.7812-6.2344 1.2188-12.141 3.5156-17.484 6.8906-2.9062 1.7344-4.6875 2.8125-5.3438 3-3.2344 1.125-7.3125 0.9375-10.031-1.2656z"/>
 <path d="m344.11 406.36c0.65625 0.46875 1.2656 0.375 1.875-0.09375 2.3906-2.0156 6.6562-5.5781 9.75-8.5781 5.7188-5.4375 9-8.625 9.8906-9.4219 2.2969-2.2031 4.6875-3.6562 7.125-4.3125 5.6719-1.5938 11.625 1.7344 12.609 7.5938 0.9375 5.25-1.7344 9.0938-5.3438 12.656-0.70312 0.65625-4.2188 3.9844-10.594 9.9375-3.5625 3.375-7.3594 6.4688-11.344 9.4219-9 6.5625-17.766 6.4219-26.719-0.60938-8.0625-6.3281-13.547-10.5-16.547-12.516-5.7656-3.8906-11.297-6.8906-11.297-13.125 0-2.7656 0.84375-5.0625 2.7188-7.0781 2.5781-2.625 6.0938-3.2812 10.5-2.1094 1.5 0.375 3.8438 1.6406 6.8906 3.7031 5.7656 3.7969 9.75 6.5625 12.047 8.3438 2.625 2.0625 5.4375 4.125 8.4375 6.1875z"/>
</svg>
