<?xml version="1.0" encoding="UTF-8"?>
<svg width="1200pt" height="1200pt" version="1.1" viewBox="0 0 1200 1200" xmlns="http://www.w3.org/2000/svg">
 <path d="m787 652.17c1 5.7891 3.082 11 6.207 15.707 1.5 2.168 3.5 3.582 6.043 4.207 39.207 9.9609 65.375 29.668 61.918 73.625-3 38.375-26.125 76.418-67.668 77.25-2.707 0.085938-5.207-0.5-7.543-1.75-3.0391-1.5-6.082-2.082-9.125-1.707-2.125 0.29297-3.6641 1.375-4.6641 3.25-40.586 75.418-125.84 108.75-207.71 98.207-70-8.957-108.04-47.789-114.12-116.41-0.125-1.8359 0.16797-3.5859 0.96094-5.2109 3.582-7.7891 2.332-14.375-3.7109-19.75-15.25-13.75-28.332-29.125-31.625-50.457-4.207-27.582-2.9141-53.418 3.9609-77.5 0.33203-1.125 0.16406-2.168-0.46094-3.125s-1.5391-1.543-2.707-1.668c-57.957-7.5-107.58-60.625-88.707-119.29 9.6641-30.336 35.664-45.836 77.875-46.461 1.6641-0.039062 3.082-0.625 4.2891-1.7891 1.2109-1.168 1.8359-2.5859 1.875-4.25 0.625-12.793 1.668-25.543 3.168-38.293 5.418-44.75 60.125-94.75 93.832-115.46 47.668-29.293 101.34-34.375 160.96-15.25 35.707 11.5 62.457 30.414 80.164 56.789 0.83594 1.293 2 2.0859 3.5 2.4609 1.543 0.33203 2.9609 0.125 4.293-0.71094 66.668-38.957 140.71 4.0859 137.21 80.25-0.83203 19-7.375 34.625-19.625 46.961-0.95703 0.91406-1.457 2.082-1.457 3.457s0.5 2.543 1.457 3.543c12.125 12.207 15.668 29.289 10.625 51.25-2.582 11.539-14.875 18.664-22 28-1.7891 2.332-2.457 4.957-2 7.9141 4.125 24.418-1.082 45.086-27.375 51.75-15.125 3.793-29.957 7.043-44.5 9.75-2.707 0.46094-3.7891 2-3.332 4.7109zm-53.625-225.38c-8.375-7.168-13.418-16.836-15.082-29.125-3.875-27.25-28.836-40.836-52.375-49.418-34.75-12.625-66.875-14.918-96.375-6.918-44.211 12-78.625 37.668-103.29 77-15.793 25.125-10 51.125-12.75 78.125-1.707 16.418-10.168 25.125-25.418 26.086-13.25 0.78906-26.664 1.625-40.207 2.457-17.793 1.168-26.707 21.875-21.207 37.125 10.289 28.332 38.039 44.082 68.207 43.582 12.457-0.16406 24.875-0.082031 37.293 0.33594 9.875 0.33203 15.914 4.4141 18.125 12.289 4.875 17.461-16.211 29.668-24.125 42.211-15.461 24.582-16.336 51.375-2.668 80.375 2.668 5.6641 6.75 7.0391 12.293 4.0391 30-16.039 65.457-29.625 99.664-17.625 33.918 11.961 45.375 37 55.043 68.375 5.043 16.461 2.125 32.293-8.668 47.461-10.832 15.207-29.082 16.914-46.125 17.25-28.875 0.625-48.375-12.543-58.582-39.586-3.543-9.2891-2.082-17.5 4.375-24.582 1.668-1.832 3.582-3.25 5.832-4.207 2.25-1 4.5859-1.543 7.043-1.543s4.832 0.45703 7.082 1.457c2.25 0.96094 4.25 2.3359 5.918 4.168 4.293 4.543 8 9.625 11.043 15.207 1.6641 3 4.125 5 7.375 6.043 7.5 2.332 15 2.543 22.539 0.54297 1.0859-0.25 1.9609-0.875 2.5859-1.75 0.625-0.91797 0.91406-1.875 0.78906-2.9609-2.332-22.75-19.914-51.5-45.414-49.414-15.336 1.1641-36.918 6.082-46.125 19.957-17.668 26.5-1.25 62.543 21.625 79.332 15.25 11.293 35.082 17.461 59.414 18.461 74.918 3.125 128.42-26.875 160.46-89.961 18.75-36.875 22.164-74.75 10.582-112.08-5.918-19.207-18.957-44.668-15.582-64.875 0.5-2.832 1.5391-5.418 3.1641-7.75 1.625-2.375 3.668-4.293 6.125-5.75 2.4609-1.457 5.0859-2.332 7.918-2.625 2.875-0.29297 5.625 0.042969 8.332 0.95703 18.461 6.4609 37.961 9.2109 54.836-3.707 4.207-3.25 3.875-5.957-0.96094-8.168-19.75-9-24.25-25.914-6.9141-38.707 9.25-6.875 29.5-3.832 35-11.668 1.375-1.957 1.957-4.082 1.832-6.2891-0.125-2.3359-1.293-4-3.418-5.043l-21.914-9.875c-3.0859-1.418-5.375-3.668-6.75-6.75-1.418-3.125-1.5859-6.293-0.58594-9.5 2.668-8.457 9-16.332 16.125-21.332 23.668-16.625 30.086-37.461 19.211-62.543-23.043-53.457-79.211-7.543-105.96 11.332-3.25 2.293-6.375 2.125-9.332-0.41406zm75.168 292.71c-7.168 14.418-10.711 30.75-10.668 48.957 0 2.0859-0.45703 4.043-1.418 5.875-0.95703 1.793-1.625 3.7109-2 5.793-0.5 3.293 0.58594 3.918 3.2109 1.918 17.582-13.461 30.289-42.418 16.707-62.875-0.70703-1.0859-1.707-1.5859-3.043-1.543-1.2891 0.082031-2.207 0.70703-2.7891 1.875z"/>
 <path d="m550.67 541.96c-2.75 0-5.375-0.53906-7.918-1.582-2.5-1.043-4.75-2.543-6.668-4.457-1.957-1.9609-3.457-4.168-4.5-6.7109-1.0391-2.5391-1.582-5.1641-1.582-7.9141s0.54297-5.375 1.582-7.918c1.043-2.5 2.543-4.75 4.5-6.707 1.918-1.918 4.168-3.418 6.668-4.4609 2.543-1.0391 5.168-1.582 7.918-1.582s5.375 0.54297 7.9141 1.582c2.543 1.043 4.75 2.543 6.7109 4.4609 1.9141 1.957 3.4141 4.207 4.457 6.707 1.043 2.543 1.582 5.168 1.582 7.918s-0.53906 5.375-1.582 7.9141c-1.043 2.543-2.543 4.75-4.457 6.7109-1.9609 1.9141-4.168 3.4141-6.7109 4.457-2.5391 1.043-5.1641 1.582-7.9141 1.582z"/>
</svg>
