<?xml version="1.0" encoding="UTF-8"?>
<svg width="1200pt" height="1200pt" version="1.1" viewBox="0 0 1200 1200" xmlns="http://www.w3.org/2000/svg">
 <path d="m1102.9 574.9c1.7734-4.4531 20.297-175.63-132.65-226.3-3.6484-20.754-18.203-52.48-44.664-54.828-28.293-6.043-52.359 19.023-62.805 41.93-19.887 0.88672-52.715 9.9766-79.195 54.391-19.684 33.051-67.949 39.613-119.05 46.562-28.488 3.875-57.594 8.0625-82.758 17.301-12.918-132.12-84.918-194.53-145.21-223.79-100.43-48.75-223.79-31.156-285.02 14.035-62.438 46.07-91.992 151.57-68.758 245.39 34.621 157.77 218.82 179.23 296.25 64.496v216.59c0 125.96 100.41 228.43 223.85 228.43h317.85c24.883 0 45.137-20.508 45.137-45.723v-52.715c0-32.273-26.258-58.52-58.52-58.52h-54.473c6.8359-15.645 11.16-32.98 10.547-51.973-0.14063-4.418-0.70313-8.6055-1.3555-12.746 34.039-8.5117 99.102-35.992 140.69-123.54 3.8984-3.3633 11.996-11.711 13.613-13.348 19.223 7.9219 45.117 18.852 62.895 24.957 20.199 8.0078 43.77-8.0781 44.438-29.734 2.7617-22.652-4.4258-45.965-20.809-60.867zm-195.55 304.75c10.68 0 19.176 8.125 20.5 18.445-6.3477-2.4102-13.133-3.9102-20.297-3.9102h-90.691c4.332-4.4258 8.6367-9.3633 12.848-14.539h77.641zm179.22-251.41c-15.438-5.6953-35.121-13.285-50.426-20.305-26.988-12.352-40.812 1.0078-54.18 13.945-11.426 11.059-28.676 27.77-66.484 46.609-66.98 33.418-138.79-71.914-139.53-72.984-13.719-20.297-44.676 0.46875-31.145 20.875 3.0938 4.6211 65.586 96.43 142.88 96.43 9.168 0 18.574-1.4805 28.098-4.3672-26.352 21.988-52 30.426-66.406 33.543-28.871-49.816-92.664-70.387-96.109-71.445-9.9062-3.0742-20.363 2.4609-23.418 12.324-3.0938 9.8711 2.418 20.379 12.285 23.484 0.82422 0.25781 81.957 26.441 83.824 85.035 1.9414 60.836-70.809 105.01-71.539 105.45-16.191 8.8516-8.9336 35.531 9.5781 34.863h143.55c11.48 0 20.82 9.7305 20.82 21.699 0 4.5312-3.4258 8.2227-7.6367 8.2227h-317.85c-102.76 0-186.35-85.656-186.35-190.93v-299.59c0.33594-21.59-31.902-25.672-36.949-4.5039-1.4297 5.6758-36.273 139.23-157.47 120.82-69.121-10.457-94.152-71.422-102.92-106.83-19.48-78.645 4.5234-169.22 54.621-206.2 51.121-37.73 159.87-52.477 246.37-10.473 53.77 26.082 118.27 83.781 125.36 209.81-68.324 52.797-130.83 195.86-68.758 376.3 2.6719 7.7734 9.9414 12.66 17.723 12.66 12.633 0.15234 22.031-12.945 17.723-24.855-62.199-180.84 13.551-312.24 67.934-342.4 22.559-12.516 55.043-16.93 89.43-21.605 57.66-7.8477 117.26-15.957 146.23-64.527 24.992-41.977 54.219-36.082 55.098-35.898 4.8711 1.3008 10.105 0.56641 14.465-2.043 12.867-9.4141 7.9453-23.969 24.613-37.781 3.4766-3.4258 7.5586-3.168 9.1719-2.8594 1.9023 0.32812 5.4023 1.4922 7.3438 5.5117 14.508 27.527-0.082031 35.328 22.102 45.137 111.84 29.168 119.39 135.84 118.38 173.96-9.5273 1.2148-21.078 0.20703-27.609 4.0898-27.238 3.3828-55.832 4.8945-68.961 0.29688-22.246-7.8203-44.934-35.523-51.82-45.539-13.957-20.105-44.641 0.8125-30.961 21.148 3.2227 4.7148 32.52 46.473 70.348 59.766 25.484 8.9844 73.492 3.7852 103.89-0.93359 14.695 3.0859 27.039 17.566 24.703 34.094z"/>
 <path d="m981.24 462.63c24.645-0.41797 24.641-37.086 0-37.5-24.645 0.41797-24.641 37.086 0 37.5z"/>
</svg>
