<?xml version="1.0" encoding="UTF-8"?>
<svg width="1200pt" height="1200pt" version="1.1" viewBox="0 0 1200 1200" xmlns="http://www.w3.org/2000/svg">
 <path d="m492.66 793.64c-13.5-6.9844-18.75-23.625-11.719-37.125 7.0312-13.453 23.625-18.703 37.125-11.719 137.86 71.672 271.6 71.672 382.03 47.344 8.625-1.9219 17.156-3.9375 25.5-6.1406 40.266-34.266 76.078-73.547 105-117 20.109-30.281 36.984-62.531 49.641-96.609-43.641 2.2969-105.47-0.9375-176.81-4.6406-172.08-9-401.81-21-530.68 32.812-78.094 32.578-116.3 93.234-70.734 202.31 23.719 56.906 66.328 94.547 119.58 115.36 60.938 23.766 136.08 26.156 214.08 10.453 14.859-2.9531 29.297 6.6562 32.25 21.516s-6.6562 29.297-21.516 32.297c-88.031 17.672-173.86 14.625-244.78-13.078-66.844-26.109-120.32-73.547-150.37-145.5-53.438-128.11-19.312-207.24 62.25-255.28 16.406-28.547 35.906-55.078 56.25-82.781 33.844-46.078 70.078-95.438 94.875-159.71 10.453-27.094 15.469-51.188 16.219-72.562 1.2188-34.781-9-62.391-25.547-83.578-16.969-21.656-40.734-37.125-65.812-46.781-19.453-7.5469-39.609-11.484-57.844-12.141-27.75-1.0312-61.969 3.4688-93.984 14.062-24.938 8.25-48 20.109-64.641 35.766-14.812 13.922-24.422 31.125-25.219 51.844-0.23438 6.4688 0.375 13.453 2.0156 21l20.297-15.281c12.141-9.0938 29.344-6.6094 38.391 5.4844 9.0938 12.141 6.6094 29.344-5.4844 38.391l-26.156 19.688c41.344 30.328 108.7-15.609 108.94-15.75v0.046875c2.8594-1.9219 6.1406-3.375 9.75-4.125 14.859-3.0938 29.391 6.4219 32.531 21.281 21.938 105.47-32.344 169.55-94.312 242.76-44.906 53.109-94.453 111.66-115.41 194.9-6.4219 25.688-9.6562 50.484-9.7031 74.156-0.23438 63.938 21.891 121.87 64.031 168.74 43.078 47.953 107.3 84.938 190.45 105.8 48.516 12.188 103.12 18.844 163.31 19.078 360.05 1.1719 517.55-201.24 576.71-311.68c-50.062 24.75-115.5 51.891-191.29 68.625-120.98 26.625-267.61 26.531-419.26-52.312zm-362.48-476.34-45.562 34.266c20.109 10.781 51.891 18.188 91.547-5.3906-16.547-4.4531-32.344-13.406-46.031-28.875zm140.02 18.562c-140.63 165.47-250.87 33.422-251.21 33.094l0.09375-0.09375-1.1719-1.4531c-9.0938-12.141-6.6094-29.344 5.4844-38.391l79.547-59.906c-0.60938-1.7344-1.2188-3.4688-1.7812-5.2031-6.1875-18.703-8.6719-36.375-8.1094-53.016 1.3125-36.75 17.578-66.516 42.422-89.906 22.969-21.656 53.203-37.453 85.078-48 38.062-12.609 79.266-17.859 113.16-16.688 24 0.84375 50.344 6 75.703 15.797 33.516 12.938 65.672 34.078 89.25 64.219 24 30.75 38.859 70.266 37.125 119.25-0.98438 27.234-7.125 57.375-19.922 90.422-27.469 71.25-65.906 123.56-101.77 172.4-3.375 4.5938-6.75 9.2344-10.125 13.781 141.94-38.156 345.32-27.562 502.26-19.312 98.812 5.1562 178.36 9.3281 204.32 0.23438 14.344-5.0156 30 2.5781 34.969 16.875 1.875 5.3438 1.9688 10.922 0.60937 16.031-14.531 55.219-38.578 106.55-69.75 153.28-10.453 15.703-21.656 30.844-33.609 45.469 44.297-19.453 79.688-39.469 103.5-53.109 13.219-7.5469 30-2.9531 37.547 10.219 4.2656 7.4062 4.6406 16.031 1.8281 23.484-9.1875 28.781-143.02 420.14-659.21 418.5-65.25-0.23438-124.31-7.4062-176.68-20.578-93.984-23.625-167.63-66.469-217.97-122.63-51.328-57.188-78.281-127.64-78-205.36 0.09375-28.594 3.7969-57.844 11.25-87.469 24-95.672 77.906-159.28 126.79-217.08 43.875-51.844 83.156-98.297 85.734-158.02-2.3906 1.0312-4.875 2.1094-7.4531 3.0938z"/>
</svg>
