<svg width="60" height="60" viewBox="0 0 60 60" fill="none" xmlns="http://www.w3.org/2000/svg">
<path fill-rule="evenodd" clip-rule="evenodd" d="M37.7942 58.7807V46.6887H46.2931V48.7322H40.2998V51.6032H45.4811V53.6467H40.2998V58.7797L37.7942 58.7807ZM27.8259 58.7807V46.6887H30.1923V53.1073L32.9734 50.0159H35.8928L32.8188 53.2253L36.117 58.7807H33.5612L31.2798 54.829L30.1923 55.9774V58.7807H27.8259ZM15.6624 54.8628L18.0984 54.626C18.2366 55.4196 18.5469 56.0112 18.979 56.3824C19.4285 56.7536 20.0327 56.9402 20.7934 56.9402C21.588 56.9402 22.1922 56.771 22.6069 56.4336C23.0042 56.1117 23.212 55.7241 23.212 55.2678C23.212 54.9972 23.125 54.7439 22.953 54.5419C22.779 54.3389 22.4861 54.1697 22.054 54.0179C21.7775 53.9164 21.1037 53.7473 20.0675 53.495C18.7373 53.174 17.8045 52.768 17.269 52.2963C16.5092 51.6196 16.1283 50.8096 16.1283 49.8468C16.1283 49.2387 16.3023 48.6645 16.6648 48.1242C17.0273 47.5838 17.528 47.1788 18.2018 46.8917C18.8756 46.6046 19.6876 46.4692 20.6204 46.4692C22.1748 46.4692 23.3329 46.8076 24.1275 47.4823C24.9047 48.1416 25.3194 49.0531 25.3542 50.1677L22.8486 50.2518C22.7451 49.6273 22.5199 49.172 22.1748 48.9014C21.8123 48.6307 21.2942 48.4954 20.603 48.4954C19.878 48.4954 19.3077 48.6481 18.9104 48.9352C18.7857 49.0184 18.684 49.1315 18.6146 49.2643C18.5451 49.3971 18.5102 49.5452 18.5131 49.695C18.5131 49.9821 18.6339 50.218 18.8756 50.42C19.2042 50.6907 19.964 50.9613 21.1733 51.232C22.3817 51.5191 23.2807 51.8052 23.8684 52.1097C24.4206 52.3976 24.8902 52.8219 25.2324 53.3422C25.561 53.8497 25.7157 54.4906 25.7157 55.2678C25.7157 55.96 25.5262 56.6018 25.1289 57.2108C24.7326 57.8179 24.1787 58.2568 23.4537 58.5613C22.7287 58.8474 21.8471 59.0001 20.7586 59.0001C19.2042 59.0001 17.994 58.6454 17.1655 57.9368C16.3178 57.2427 15.818 56.2123 15.6624 54.8628Z" fill="currentColor"></path>
<path fill-rule="evenodd" clip-rule="evenodd" d="M26.8254 30.668C26.3798 30.8816 25.8684 31.1919 25.3397 31.7806C24.866 32.3074 24.6514 32.7637 24.3411 33.3688C23.6614 33.0415 23.0074 32.6635 22.3846 32.2378C22.8379 31.3234 23.4769 30.376 24.2918 29.5843C25.0265 28.869 25.9177 28.2726 26.8245 27.9748L26.8254 30.668ZM33.2673 37.0828L33.623 37.0248C40.4651 35.9228 45.9915 30.9725 47.7886 24.1913H52.2333C50.152 34.1373 41.4182 41.6 30.9666 41.6C20.5073 41.6 11.7706 34.1257 9.69995 24.1681H14.1544C15.9446 30.9203 21.5474 35.8551 28.3063 37.0035L28.665 37.0644V21.9448H15.2979L12.076 17.2903H28.666V1H33.2683V17.2903H49.8591L46.6382 21.9448H33.2673V37.0828ZM35.1475 28.2281C35.6588 29.1522 36.3606 29.8985 37.2335 30.6428C38.1499 31.4258 38.9774 31.9546 39.6096 32.2601C38.9426 32.7434 38.2882 33.1204 37.5477 33.4897C37.0914 33.2422 36.5742 32.8526 36.174 32.5114C35.7993 32.1867 35.4562 31.8271 35.1494 31.4374L35.1475 28.2281ZM42.5376 29.5573C42.0569 30.1345 41.5355 30.6765 40.9774 31.1793C40.2563 30.8217 38.9078 29.9778 37.5709 28.6254C36.2475 27.2866 35.1784 25.621 35.1475 23.8017H37.5032C37.7323 25.1174 38.4641 26.3257 39.4221 27.3272C40.3887 28.3373 41.6657 29.2421 42.5376 29.5573ZM41.9354 23.8017C42.1471 24.2522 42.4535 24.7684 43.0355 25.3039C43.5555 25.7824 44.007 25.9999 44.6053 26.3141C44.2825 27.0008 43.9089 27.6626 43.4878 28.2938C42.5111 27.8024 41.6241 27.1497 40.8643 26.3634C40.1577 25.62 39.568 24.7191 39.2732 23.8017H41.9354ZM39.2026 3.71053C39.5893 3.30647 40.0427 3.03 40.7918 2.84343C41.4289 3.23283 42.0405 3.66258 42.6227 4.13007C42.4226 4.2016 41.2017 4.3524 39.8677 6.452C39.1524 7.5772 38.7241 8.35827 38.0126 9.28917C37.276 10.2539 36.3017 11.0659 35.1146 11.2824V8.82227C36.0542 8.60283 36.5163 7.88847 36.9938 7.01943C37.5815 5.95127 38.3761 4.57087 39.2026 3.71053ZM46.5454 8.17943C46.8577 8.59703 47.3168 9.2911 47.6783 9.91943C47.2791 10.0543 46.9093 10.2643 46.5889 10.5381C45.2897 11.6333 44.788 12.8649 43.9064 14.0597C43.5758 14.5072 42.961 15.1259 42.5212 15.3898H39.425C40.5792 15.0138 41.3448 14.0181 42.2621 12.7788C43.1698 11.5531 44.0891 10.02 44.8102 9.3433C45.3873 8.80293 45.7247 8.50907 46.5454 8.17943ZM43.9451 5.22047C44.4746 5.7193 44.978 6.24522 45.4531 6.79613C44.7764 6.9885 43.7121 7.8353 43.2452 8.43173C41.7991 10.2781 40.1857 12.7653 39.2848 13.5657C38.3916 14.3593 37.0547 15.2429 35.1146 15.3898V12.9963C38.93 12.5314 39.8503 9.062 41.8426 6.71107C42.4148 6.0344 43.397 5.24753 43.9451 5.22047ZM15.2786 11.2534C14.8794 10.8619 14.6058 10.4037 14.4221 9.64587C14.8066 9.0022 15.2314 8.38358 15.6943 7.79373C15.7648 7.99673 15.9137 9.2302 17.9891 10.5816C19.1008 11.3047 19.8741 11.7377 20.7944 12.4569C21.7475 13.2022 22.5499 14.1873 22.7645 15.3898L20.3333 15.3888C20.1158 14.4386 19.4101 13.9717 18.5508 13.4874C17.4952 12.8939 16.1302 12.0886 15.2796 11.2544L15.2786 11.2534ZM19.6963 3.82557C20.2487 3.41264 20.8231 3.02993 21.4169 2.6791C21.472 2.85793 21.6451 3.31517 22.0288 3.7811C23.1115 5.09577 24.3285 5.60327 25.5088 6.4955C25.9516 6.82997 26.5635 7.45057 26.8235 7.89717V11.0292C26.4523 9.86047 25.4682 9.08617 24.2425 8.15817C23.0313 7.23983 21.5165 6.31087 20.8476 5.58007C20.314 4.99717 20.022 4.65593 19.6972 3.82557H19.6963ZM16.774 6.45683C17.2506 5.94063 17.8035 5.39253 18.3323 4.93143C18.5218 5.61487 19.3589 6.69077 19.9486 7.16443C21.7727 8.62603 24.2319 10.2587 25.0236 11.1703C25.8085 12.0741 26.6814 13.4265 26.8264 15.3898H24.46C24.0008 11.5299 20.5711 10.598 18.2472 8.5835C17.5793 8.0035 16.8011 7.0117 16.774 6.45683ZM22.4503 23.8017C21.5368 24.3179 20.7983 25.0294 20.0626 25.911C19.2893 26.839 18.7663 27.6761 18.4638 28.3141C18.0011 27.6545 17.5943 26.9574 17.2477 26.23C17.4932 25.7679 17.878 25.245 18.2144 24.8399C18.5349 24.4617 18.8906 24.1147 19.2767 23.8037L22.4493 23.8027L22.4503 23.8017ZM21.1356 31.277C20.5644 30.7897 20.0288 30.2622 19.5329 29.6984C19.8857 28.9695 20.7209 27.6046 22.0569 26.2522C23.3812 24.9144 25.0274 23.8327 26.8264 23.8017V26.1846C25.5243 26.4166 24.3305 27.1561 23.3406 28.1256C22.342 29.1029 21.4469 30.3954 21.1366 31.277H21.1356Z" fill="currentColor"></path>
</svg>
