<svg width="55" height="55" viewBox="0 0 55 55" fill="none" xmlns="http://www.w3.org/2000/svg">
<g clip-path="url(#clip0_7642_32586)">
<path d="M47.9353 51.6513V3.33954C47.9353 1.85689 46.6794 0.655518 45.1307 0.655518H9.86903C8.32009 0.655518 7.06458 1.85689 7.06458 3.33954V51.6513C7.06458 53.1334 8.32009 54.3352 9.86903 54.3352H45.1307C46.6794 54.3352 47.9353 53.1336 47.9353 51.6513V51.6513" fill="none"/>
<path fill-rule="evenodd" clip-rule="evenodd" d="M15.4333 47.8001C15.1529 46.7834 14.4453 46.176 13.3777 46.176C11.7361 46.176 11.0553 47.6546 11.0553 49.0809C11.0553 50.5206 11.7229 51.9593 13.3777 51.9593C14.5655 51.9593 15.3129 51.2594 15.4998 50.1241H16.3541C16.0736 51.6424 15.1128 52.6725 13.3777 52.6725C11.1754 52.6725 10.2011 51.1014 10.2011 49.0809C10.2011 47.1797 11.3089 45.4626 13.3777 45.4626C14.966 45.4626 16.0071 46.2157 16.2474 47.8001H15.4333V47.8001" fill="#FFFFFE"/>
<path fill-rule="evenodd" clip-rule="evenodd" d="M21.4925 48.8961C20.8115 49.1736 20.1178 49.2265 19.4236 49.2789C18.2088 49.3714 17.4749 49.8076 17.4749 50.7318C17.4749 51.5634 18.2088 51.9593 18.97 51.9593C20.2376 51.9593 21.4925 51.3522 21.4925 49.9657V48.8961V48.8961M20.1443 48.4999C20.438 48.4735 20.9318 48.3943 21.1986 48.2753C21.4657 48.1564 21.4925 47.8001 21.4925 47.5623C21.4925 46.7571 21.0121 46.176 19.7707 46.176C18.6628 46.176 17.902 46.5324 17.7552 47.7209H16.9412C17.0615 46.1103 18.2756 45.4626 19.7841 45.4626C21.1854 45.4626 22.2932 46.0043 22.2932 47.5888V51.3124C22.2932 51.9333 22.4534 52.0784 23.134 51.8404V52.4614C23.0138 52.5012 22.7335 52.5936 22.5068 52.5936C22.3732 52.5936 22.2666 52.5802 22.1462 52.5536C21.6124 52.4747 21.5189 52.0121 21.5057 51.5374C20.8385 52.2763 19.9309 52.6726 18.9297 52.6726C17.7154 52.6726 16.6207 52.0256 16.6207 50.705C16.6207 49.556 17.4215 48.8565 19.0366 48.6452L20.1443 48.4999V48.4999" fill="#FFFFFE"/>
<path fill-rule="evenodd" clip-rule="evenodd" d="M24.4483 52.4881H23.6477V45.6479H24.4483V46.9289H24.4751C24.9154 45.8329 25.5694 45.4626 26.7305 45.4626V46.3217C24.929 46.2814 24.4483 47.6022 24.4483 49.1338V52.4881V52.4881" fill="#FFFFFE"/>
<path fill-rule="evenodd" clip-rule="evenodd" d="M27.3478 52.4879H28.1488V45.6477H27.3478V52.4879V52.4879" fill="#FFFFFE"/>
<path fill-rule="evenodd" clip-rule="evenodd" d="M31.9488 52.5138C31.762 52.5535 31.4147 52.6725 31.0276 52.6725C30.2404 52.6725 29.7992 52.3293 29.7992 51.3124V46.3084H28.8251V45.6478H29.7992V43.7461H30.6002V45.6478H31.8951V46.3084H30.6002V50.9957C30.6002 51.6692 30.6271 51.9592 31.2944 51.9592C31.5086 51.9592 31.7347 51.9198 31.9488 51.867V52.5138V52.5138" fill="#FFFFFE"/>
<path fill-rule="evenodd" clip-rule="evenodd" d="M36.8215 48.8961C36.1405 49.1736 35.4462 49.2265 34.7526 49.2789C33.5378 49.3714 32.8035 49.8076 32.8035 50.7318C32.8035 51.5634 33.5378 51.9593 34.2989 51.9593C35.5667 51.9593 36.8215 51.3522 36.8215 49.9657V48.8961V48.8961M35.4733 48.5001C35.7672 48.4736 36.2609 48.3943 36.5279 48.2753C36.7947 48.1564 36.8215 47.8001 36.8215 47.5623C36.8215 46.7572 36.3406 46.176 35.099 46.176C33.9918 46.176 33.231 46.5324 33.0843 47.7209H32.2697C32.3904 46.1103 33.6047 45.4626 35.1123 45.4626C36.5143 45.4626 37.622 46.0043 37.622 47.5888V51.3124C37.622 51.9333 37.7825 52.0784 38.463 51.8406V52.4614C38.343 52.5012 38.0627 52.5936 37.8363 52.5936C37.7017 52.5936 37.5955 52.5802 37.4753 52.5536C36.941 52.4747 36.848 52.0121 36.8347 51.5374C36.167 52.2766 35.2602 52.6726 34.2584 52.6726C33.0441 52.6726 31.9497 52.0257 31.9497 50.705C31.9497 49.556 32.7511 48.8565 34.365 48.6452L35.4733 48.5001V48.5001" fill="#FFFFFE"/>
<path fill-rule="evenodd" clip-rule="evenodd" d="M39.2493 50.3483C39.5031 51.5238 40.1173 51.9592 41.3183 51.9592C42.4798 51.9592 43.0262 51.352 43.0262 50.6918C43.0262 48.7113 38.5956 50.1112 38.5956 47.4175C38.5956 46.2814 39.4894 45.4626 41.0242 45.4626C42.5194 45.4626 43.4939 46.0699 43.6941 47.6154H42.8798C42.7332 46.5587 42.0125 46.1758 41.011 46.1758C39.9969 46.1758 39.4494 46.6508 39.4494 47.3513C39.4494 49.2131 43.8805 48.0512 43.8805 50.6786C43.8805 51.9859 42.6931 52.6724 41.0647 52.6724C39.4366 52.6724 38.5023 51.6422 38.4352 50.3483H39.2493V50.3483" fill="#FFFFFE"/>
<path fill-rule="evenodd" clip-rule="evenodd" d="M45.8475 18.389H30.8754V3.33081H24.3615V18.389H9.38898V24.9397H24.3615V39.9983H30.8754V24.9397H45.8475V18.389V18.389" fill="#FFFFFE"/>
<path fill-rule="evenodd" clip-rule="evenodd" d="M21.7788 17.594H23.5747V15.4112C23.1006 14.7904 22.593 14.1592 22.0636 13.5846C20.9067 12.3024 19.3955 11.4948 17.9792 10.5449C16.9863 9.79722 16.054 8.65433 15.3488 7.68848C14.674 8.28825 14.0428 8.93656 13.4609 9.62828C13.5814 9.836 13.7855 10.1652 14.1304 10.6876C15.065 12.1027 16.4679 12.8723 17.8611 13.7508C18.2624 13.9645 18.6401 14.297 19.0178 14.5819C20.0984 15.4421 20.9907 16.5771 21.7788 17.594V17.594" fill="#FFFFFE"/>
<path fill-rule="evenodd" clip-rule="evenodd" d="M20.2929 17.5941C19.8933 16.8712 19.2041 16.0453 18.6637 15.4607C17.0107 13.9645 14.7442 13.4661 13.5166 11.4475C13.1717 10.8806 12.973 10.5572 12.8587 10.3826C12.2946 11.1279 11.7843 11.9167 11.3355 12.7437C12.1816 14.173 13.272 15.4474 14.7915 16.2205C15.9485 16.8092 16.5619 17.3546 16.7995 17.5941H20.2929V17.5941" fill="#FFFFFE"/>
<path fill-rule="evenodd" clip-rule="evenodd" d="M39.6768 7.50342C39.0974 7.9245 38.5401 8.29259 38.0252 8.78768C36.7972 9.80904 36.0872 11.2412 35.1677 12.5396C34.2879 13.7833 32.9318 14.8242 31.6318 15.6046V17.594H33.9303C34.9881 16.8739 36.1457 15.8382 36.9389 14.9144C38.2373 13.1098 39.2049 10.9013 41.1182 9.73772C41.3127 9.61929 41.474 9.51845 41.6091 9.43183C41.0128 8.74253 40.3667 8.09813 39.6768 7.50342V7.50342" fill="#FFFFFE"/>
<path fill-rule="evenodd" clip-rule="evenodd" d="M44.0456 30.2788C43.2192 29.1857 42.3931 28.1649 41.2125 27.4288C40.3787 26.9433 39.4648 26.3099 38.6383 25.7271H35.0848L35.4042 26.2414C36.5609 27.832 38.2611 28.7347 39.7959 29.8268C40.8942 30.5558 41.8537 31.6419 42.5411 32.7292C43.1043 31.9627 43.61 31.151 44.0524 30.3009L44.0456 30.2788V30.2788" fill="#FFFFFE"/>
<path fill-rule="evenodd" clip-rule="evenodd" d="M41.5431 33.0331C40.3796 31.1647 38.2611 30.0885 36.5842 28.8771C35.3785 28.0079 34.5246 26.8907 33.7456 25.7271H31.6318V27.6032C32.5559 28.966 33.9354 30.579 35.2624 31.3704C37.0007 32.4338 38.7058 33.8499 40.0715 35.4782C40.7189 34.8873 41.3234 34.2512 41.8828 33.5753C41.7914 33.4264 41.678 33.2496 41.5431 33.0331V33.0331" fill="#FFFFFE"/>
<path fill-rule="evenodd" clip-rule="evenodd" d="M21.309 25.7271C19.8048 26.7962 18.4795 28.1097 17.4596 29.6368C16.4679 31.3704 15.358 32.7954 13.7289 33.9588L13.7095 33.9918C14.2995 34.6647 14.937 35.2941 15.617 35.8756C15.7644 35.7781 15.9359 35.6559 16.1373 35.5022C17.6818 34.3255 18.8998 32.9142 19.8208 31.3471C20.7522 29.884 22.165 28.5987 23.5747 27.5728V25.7271H21.309V25.7271" fill="#FFFFFE"/>
<path fill-rule="evenodd" clip-rule="evenodd" d="M15.5738 25.7271C14.6448 26.6292 14.0995 27.5035 13.4693 28.5445C13.0029 29.3517 12.2174 30.1543 11.3983 30.7001C11.8534 31.5246 12.3684 32.3104 12.938 33.0519L13.9177 32.3681C14.3192 32.083 14.7442 31.7269 15.0275 31.3471C15.7832 30.5392 16.3261 29.4707 16.9873 28.5923C17.7193 27.5711 18.5929 26.7638 19.5136 26.0041C19.5729 25.9558 19.7223 25.8274 19.8387 25.7271H15.5738V25.7271" fill="#FFFFFE"/>
<path fill-rule="evenodd" clip-rule="evenodd" d="M23.5747 28.9238C22.2633 29.8629 20.9924 31.1192 20.2221 32.487C19.4427 33.9352 18.2624 35.1937 16.8221 36.1436C16.6177 36.2783 16.4611 36.3825 16.3408 36.4638C17.102 37.0515 17.9093 37.5817 18.757 38.0466C18.9413 37.9078 19.1927 37.7202 19.5375 37.4738C21.3474 36.1763 22.3132 34.2256 23.5747 32.4567V28.9238V28.9238" fill="#FFFFFE"/>
<path fill-rule="evenodd" clip-rule="evenodd" d="M35.5457 32.9377C34.1061 32.1565 32.6183 30.6475 31.6318 29.3132V33.2369C31.7428 33.3672 31.9224 33.5849 32.2168 33.9352C33.4178 35.3663 35.2858 35.8826 36.4899 37.2601C36.6867 37.4846 36.8365 37.6528 36.9507 37.7781C37.7328 37.3197 38.4779 36.8045 39.1805 36.2393C38.2611 34.8271 36.9776 33.7169 35.5457 32.9377V32.9377" fill="#FFFFFE"/>
<path fill-rule="evenodd" clip-rule="evenodd" d="M36.5522 5.32471C36.1938 5.54278 35.5747 5.90042 34.578 6.84064C33.4938 7.86229 32.7147 9.71748 31.6318 10.876V14.1845C33.0078 13.2186 34.4076 11.8759 35.2624 10.4738C36.0889 9.16776 37.1279 7.93281 38.4498 7.19697C38.6632 7.07817 38.8222 6.98177 38.9413 6.90192C38.1886 6.31715 37.3903 5.78937 36.5522 5.32471V5.32471" fill="#FFFFFE"/>
<path fill-rule="evenodd" clip-rule="evenodd" d="M23.5748 9.91133C23.4022 9.69949 23.1272 9.3727 22.9138 9.16782C21.6035 7.9108 19.6019 6.97676 18.3433 5.51782C17.5535 5.97787 16.8008 6.49466 16.0908 7.06279C17.0351 8.34496 18.4042 9.78538 19.7969 10.4978C21.2355 11.3341 22.4809 12.5786 23.5748 13.7412V9.91133V9.91133" fill="#FFFFFE"/>
<path fill-rule="evenodd" clip-rule="evenodd" d="M42.3026 10.2837C42.1589 10.3626 41.9908 10.4625 41.7907 10.589C40.1382 11.6338 39.1459 13.4386 38.084 14.9584C37.4671 15.8886 36.5225 16.8082 35.6418 17.5941H39.4661C40.3702 16.7838 41.1869 15.6169 41.6724 14.8396C42.1921 14.0088 43.072 13.2387 43.7803 12.5264C43.3407 11.7419 42.8468 10.9925 42.3026 10.2837V10.2837" fill="#FFFFFE"/>
<mask id="mask0_7642_32586" style="mask-type:luminance" maskUnits="userSpaceOnUse" x="6" y="0" width="43" height="55">
<path d="M6.41669 0H48.5834V54.9627H6.41669V0V0" fill="white"/>
</mask>
<g mask="url(#mask0_7642_32586)">
<path fill-rule="evenodd" clip-rule="evenodd" d="M27.3488 44.2154H28.2482V43.0195H27.3488V44.2154V44.2154" fill="#FFFFFE"/>
<path fill-rule="evenodd" clip-rule="evenodd" d="M44.9357 0H10.0639C8.05284 0 6.41669 1.58367 6.41669 3.53019V51.4377C6.41669 53.3844 8.05284 54.9679 10.0639 54.9679H44.9357C46.947 54.9679 48.5834 53.3845 48.5834 51.4377V3.53038C48.5834 1.58367 46.947 0 44.9357 0V0M44.9357 0.868669C46.4674 0.868669 47.7095 2.06002 47.7095 3.53038V51.4377C47.7095 52.908 46.4674 54.0994 44.9357 54.0994H10.0639C8.53219 54.0994 7.29053 52.9077 7.29053 51.4377V3.53019C7.29053 2.06002 8.53219 0.868669 10.0639 0.868669H44.9357V0.868669" fill="#FFFFFE"/>
</g>
</g>
<defs>
<clipPath id="clip0_7642_32586">
<rect width="55" height="55" fill="white"/>
</clipPath>
</defs>
</svg>
