<svg width="55" height="55" viewBox="0 0 55 55" fill="none" xmlns="http://www.w3.org/2000/svg">
<g clip-path="url(#clip0_7642_32484)">
<path fill-rule="evenodd" clip-rule="evenodd" d="M9.04933 53.1364C9.15566 52.8064 9.14558 52.3425 9.14558 51.9264C9.22624 51.886 9.15566 51.8365 9.16574 51.777C9.21616 51.6257 9.14558 51.3654 9.36741 51.3461C9.58741 50.8548 9.42699 50.2947 9.48749 49.7328C9.33716 49.3625 9.55808 48.9811 9.48749 48.6108L9.52783 48.5109C9.50858 47.9609 9.65616 47.5603 9.67724 47.0323V47.0314L9.67816 46.9681C9.80924 46.7683 9.80924 46.4676 9.88899 46.2275C9.88899 45.9827 9.97699 45.76 10.0357 45.54C10.0668 45.4254 10.0907 45.3117 10.0907 45.1962C10.2813 44.6847 10.2318 44.0632 10.3721 43.5325C10.3519 43.1126 10.5325 42.6515 10.4023 42.2106C10.1814 41.9998 9.82941 41.9402 9.57733 41.8C9.36649 41.9301 9.07591 41.7697 8.95491 42.0704C8.78349 42.141 8.72391 42.2904 8.56258 42.3811C8.61299 42.5315 8.58274 42.7212 8.59283 42.8816C8.35174 43.493 8.47183 44.154 8.30133 44.7846C8.26541 45.5327 8.24829 46.2815 8.24999 47.0305V47.0314C8.25091 47.7794 8.26649 48.5338 8.28116 49.3322C8.37191 49.983 8.39116 50.8447 8.44249 51.5157C8.51491 52.0547 8.54241 52.5937 8.63316 53.1373C8.65608 53.2711 8.68174 53.405 8.71383 53.5406C8.80366 53.6396 8.73399 53.8303 8.85408 53.9V53.7991C8.87424 53.7194 8.95491 53.69 9.02549 53.68C9.02549 53.68 9.04749 53.14 9.04933 53.1373V53.1364V53.1364M16.7548 44.9817C16.621 45.4382 16.5935 45.9323 16.4899 46.4007C16.4661 46.4443 16.4456 46.4897 16.4285 46.5364H16.4267C16.2525 46.9855 16.3432 47.5337 16.1773 47.9792C16.1223 48.0205 16.0902 48.1671 15.9711 48.136C15.7337 47.7803 15.5063 47.3623 15.323 46.9755C15.2588 46.8325 15.1965 46.6867 15.1342 46.54C14.9077 46.0084 14.6868 45.463 14.4219 44.9817L14.3614 44.8726C14.3724 44.4757 14.0589 44.2667 14.0259 43.89C13.8316 43.692 13.8206 43.3143 13.6152 43.1374C13.3517 42.5924 12.9144 42.1507 12.3722 41.8815C12.0917 41.9549 11.9506 41.6524 11.6921 41.7569C11.5839 41.9347 11.2805 41.8091 11.2053 42.0594C11.1833 42.416 11.0431 42.7285 11.022 43.0842C10.9239 43.273 10.978 43.5242 10.8918 43.7121L10.8377 44.4968L10.7837 44.5481C10.7736 44.692 10.7617 44.835 10.7488 44.979C10.7039 45.4978 10.6498 46.0175 10.6058 46.5382C10.5594 47.0522 10.5322 47.5677 10.5242 48.0837C10.4051 48.157 10.5462 48.2505 10.5032 48.356C10.384 48.8785 10.5032 49.3918 10.5032 49.862C10.5462 50.4991 10.6975 51.0537 11.044 51.524C11.3465 51.5973 11.4427 51.8906 11.7672 51.8274C12.1999 51.6917 11.8864 51.1582 11.9836 50.8447C11.8213 50.4991 11.7352 50.0289 11.8534 49.6631C11.8644 49.2864 11.9295 48.8262 11.8974 48.4394C12.0807 47.9902 12.1348 47.4879 12.2109 47.0066C12.2751 46.86 12.3099 46.7014 12.3337 46.5391C12.3658 46.3191 12.3787 46.0927 12.4162 45.8773C12.5134 45.7829 12.4483 45.605 12.5776 45.5537L12.7288 45.6472C12.8847 45.946 13.0313 46.2458 13.2027 46.54C13.2348 46.595 13.2678 46.6491 13.3017 46.7032C13.3448 46.871 13.6152 46.9544 13.5832 47.1533C14.2422 48.1983 14.9554 49.0251 15.7657 49.9455C15.928 50.3121 16.5009 50.5935 16.4688 51.0436C16.544 51.315 16.4138 51.5661 16.566 51.7962C17.3442 52.0373 18.0033 52.7275 18.8577 52.8C18.9649 52.6331 19.2894 52.5286 19.2463 52.2463C18.9218 51.8063 18.7055 51.5038 18.5652 50.9905C18.403 50.8346 18.5222 50.6568 18.436 50.49C18.5222 50.0078 18.2737 49.5687 18.3599 49.0875C18.2627 49.0563 18.2957 48.9206 18.2517 48.8372C18.425 48.6905 18.2517 48.4705 18.3058 48.3147C18.0033 48.1259 18.4892 47.8848 18.1766 47.728C18.1417 47.3339 18.2022 46.9305 18.2609 46.54V46.5382C18.2765 46.4328 18.2921 46.3274 18.3058 46.2229C18.37 46.0441 18.2847 45.814 18.3819 45.6472C18.4002 45.429 18.4305 45.2063 18.469 44.9817C18.5387 44.5839 18.6386 44.1851 18.7706 43.8175C18.6836 43.6254 18.7173 43.4001 18.8567 43.2419C18.7376 43.1997 18.6844 43.0219 18.5432 43.043C18.5542 42.9696 18.5002 42.8752 18.5982 42.834C18.6945 42.2271 19.041 41.7037 19.1602 41.1079H19.0841C18.9869 41.0254 19.0621 40.8888 19.0621 40.7843C18.9539 40.8475 18.8897 40.7531 18.8027 40.7C18.392 41.0245 18.3599 41.4333 18.1005 41.8091C17.6687 42.7395 17.0958 43.6177 16.8795 44.6435C16.8291 44.7535 16.7878 44.8662 16.7548 44.9817V44.9817M30.7487 47.3192C30.8165 47.1725 30.9907 47.0286 30.778 46.9003C30.8614 46.5272 31.0191 46.1761 31.1355 45.815C31.1135 45.727 31.1346 45.6756 31.1703 45.638C31.2611 45.5482 31.4453 45.5464 31.3344 45.3062C31.4921 45.001 31.6598 44.7855 31.7652 44.4583C32.0797 44.0852 32.2474 43.6443 32.5948 43.2144C32.8359 42.988 33.0669 42.6717 33.2035 42.3665C33.308 42.174 33.5289 42.0942 33.55 41.8577C33.5179 41.767 33.4345 41.8128 33.3712 41.8009C32.5096 42.2537 31.8175 43.0567 31.1034 43.6782C30.9659 43.9147 30.7991 44.198 30.5782 44.3565C30.2711 44.781 29.9567 45.2026 29.6477 45.6371C29.3144 46.101 29.0012 46.579 28.7091 47.0699C28.6403 47.1524 28.5771 47.2376 28.5166 47.3229V47.3247C28.0922 47.938 27.8254 48.6594 27.302 49.1049C27.082 48.9243 27.1022 48.5512 27.0288 48.2579C26.9949 47.9462 26.9573 47.6345 26.9161 47.3229C26.841 46.7598 26.756 46.1981 26.6612 45.638C26.4839 44.5999 26.2843 43.5656 26.0627 42.536C25.905 42.2638 25.5374 41.9365 25.1387 41.9934C25.1075 42.0722 25.0232 42.0383 24.9599 42.0493C24.8976 42.174 24.6666 42.2418 24.7821 42.4572C24.8554 42.8193 24.8132 43.1007 24.8866 43.4518C24.992 44.1439 25.0974 44.8992 25.1414 45.638C25.1506 45.781 25.1561 45.9222 25.1597 46.0634C25.19 46.4786 25.2789 46.8985 25.3486 47.3229C25.4017 47.6501 25.4421 47.9801 25.4329 48.3138C25.5374 48.8455 25.6428 49.456 25.7372 50.0206C25.8628 50.699 26.2726 51.6037 25.7895 52.1922C25.7693 52.3169 25.7061 52.5424 25.8427 52.5983C25.8518 53.0291 26.3037 52.8815 26.4935 53.1419C26.9133 53.3564 27.2708 53.8202 27.7539 53.899C27.9427 53.8651 28.1004 53.8541 28.2883 53.899C28.3525 53.7524 28.5615 53.7295 28.5615 53.5489C28.7512 53.3454 28.5202 53.063 28.6669 52.8476C28.699 52.1922 29.15 51.7843 29.3177 51.1857C29.8118 50.7787 29.9686 50.1004 30.2738 49.5907C30.2949 49.5119 30.2005 49.5119 30.1794 49.455C30.4727 48.9921 30.7991 48.5173 30.9357 47.9297C30.8302 47.9297 30.7569 47.85 30.6836 47.794C30.6194 47.6694 30.6726 47.5337 30.7257 47.42C30.7245 47.3862 30.7324 47.3526 30.7487 47.3229V47.3192V47.3192" fill="white"/>
<mask id="mask0_7642_32484" style="mask-type:luminance" maskUnits="userSpaceOnUse" x="33" y="40" width="30" height="13">
<path d="M33.7535 40.9172H62.8008V52.7862H33.7535V40.9172" fill="white"/>
</mask>
<g mask="url(#mask0_7642_32484)">
<path fill-rule="evenodd" clip-rule="evenodd" d="M35.6024 46.9976C35.612 46.9682 35.6233 46.9394 35.6363 46.9114C35.6931 46.4045 35.5996 45.9076 35.728 45.4126V45.4117C35.7371 45.3751 35.7472 45.3384 35.7591 45.3017C35.5951 45.057 35.7692 44.738 35.7078 44.4822C35.8316 43.9597 35.585 43.4372 35.6363 42.9266C35.5437 42.384 35.5236 41.8835 35.4621 41.361C35.4621 41.2015 35.7078 41.0521 35.5135 40.9026H34.7545C34.5583 40.8293 34.2714 40.8385 34.2301 41.1052C34.1073 41.0731 33.9946 41.1492 33.9441 41.2656C34.0468 41.5846 33.8314 42.021 33.9441 42.384L33.8928 42.4371C33.902 43.0761 33.7379 43.6939 33.77 44.3328C33.6973 44.6885 33.6513 45.0492 33.6325 45.4117L33.616 45.739C33.6027 46.1593 33.5947 46.5798 33.5921 47.0003V47.0031C33.5866 48.2882 33.6371 49.6522 33.7901 50.9264C33.8928 51.129 33.8616 51.3957 33.9441 51.6194C33.9029 51.8531 34.0266 52.0869 34.067 52.3326C34.0257 52.6314 34.221 52.8221 34.1907 53.1209C34.2237 53.2446 34.2576 53.3693 34.2961 53.4921C34.4089 53.8542 34.5629 54.1925 34.8782 54.3996C35.0836 54.4739 35.288 54.3996 35.3393 54.1751C35.3283 53.9551 35.3164 53.7259 35.3026 53.4921V53.4912C35.266 52.8881 35.211 52.2601 35.0936 51.7147C35.0414 51.2362 34.9809 50.6074 35.0726 50.128C35.0414 49.6376 35.2266 49.1471 35.1963 48.6476C35.2476 48.5302 35.3292 48.3698 35.2981 48.1892C35.5941 47.8427 35.4731 47.3853 35.6033 47.0003V46.9976H35.6024M41.9155 47.1873C41.3407 47.2093 40.766 47.4861 40.2224 47.3477C40.2416 47.2313 40.2801 47.1149 40.3232 46.9966C40.4167 46.7354 40.5313 46.465 40.5102 46.1652C40.5506 45.9526 40.9502 45.8132 40.7871 45.5254C40.7971 45.4878 40.8109 45.4502 40.8256 45.4126C40.9172 45.1881 41.0813 44.9726 41.1253 44.716C41.2481 44.5143 41.3508 44.3126 41.4947 44.1201C41.8201 44.4776 41.8779 44.9836 42.0667 45.4126C42.0805 45.4438 42.0942 45.475 42.1107 45.5043C42.3381 45.9663 42.4985 46.5062 42.6836 46.9994C42.691 47.0214 42.6974 47.0406 42.7056 47.0599C42.4902 47.2616 42.1611 47.1131 41.9155 47.1882V47.1873M46.4502 54.4528C46.409 54.1549 46.2146 53.9624 46.3274 53.6324C46.2953 53.5866 46.2669 53.5407 46.2412 53.4921C46.1184 53.2602 46.0597 53.0017 46.0093 52.7377C45.947 52.2895 45.5372 51.9173 45.6811 51.3847L45.6399 51.3105C45.6491 50.8521 45.5986 50.5542 45.6811 50.128C45.5583 49.6165 45.6399 49.105 45.5161 48.5935C45.2778 48.0811 45.2072 47.4981 44.9441 46.9994C44.9011 46.9169 44.8525 46.8381 44.7984 46.7611C44.6242 46.399 44.5005 45.9727 44.2035 45.7069C44.1501 45.616 44.1131 45.5164 44.0944 45.4126V45.4108C44.0641 45.2669 44.0504 45.1138 44.0082 44.9717C43.6388 44.4932 43.3931 43.8965 42.9724 43.4381C42.7249 43.0981 42.5315 42.6718 42.1107 42.5435C41.7202 42.3198 42.1309 41.8936 42.0896 41.6488C41.7423 41.489 41.3636 41.4091 40.9814 41.4151C40.8787 41.4462 40.7871 41.5636 40.6844 41.5205C39.9456 42.2987 39.5963 43.4592 39.0628 44.408C39.1545 44.6307 38.9088 44.7059 38.9088 44.8874C38.8006 45.0295 38.7493 45.2504 38.6732 45.4108H38.6723L38.6631 45.4301C38.5907 45.5584 38.4981 45.6858 38.4679 45.8352C38.3964 46.1652 38.2112 46.4311 38.0774 46.7299C38.137 46.8316 38.0701 46.9086 38.0334 46.9994C38.0076 47.0515 38.0053 47.1122 38.027 47.1662C37.6979 47.5503 37.8006 48.115 37.5347 48.5192C37.5549 48.775 37.2881 48.8281 37.3908 49.1059C37.0315 49.3396 37.4825 49.7549 37.0929 49.9575C37.0104 50.3727 36.8472 50.6496 36.8472 51.107C36.6731 51.5442 36.7546 52.13 36.795 52.6094C36.9123 52.9421 37.0837 53.3996 37.4247 53.4921H37.4266C37.4449 53.4976 37.4632 53.5013 37.4825 53.5041C37.5414 53.5073 37.6005 53.5033 37.6585 53.4921H37.6612C37.8209 53.4619 37.9524 53.3486 38.0059 53.1951C38.027 52.7588 38.1196 52.2152 38.324 51.7899C38.478 51.5864 38.3451 51.2463 38.5907 51.107C38.5394 50.8631 38.6833 50.6285 38.7649 50.4369C38.6732 50.128 39.0216 50.0638 39.0326 49.7971C39.0527 49.4359 39.2471 49.116 39.5046 48.8813C40.0381 48.9455 40.7055 48.775 41.2481 48.7218C41.833 48.7218 42.4178 48.445 43.0741 48.4661C43.4032 48.6146 43.3519 49.0509 43.4958 49.3396C43.6801 49.6055 43.5261 49.9355 43.7112 50.1811C43.7525 50.9585 44.2337 51.5552 44.4491 52.2583C44.4601 52.6415 44.9111 52.801 44.8195 53.1951C44.9166 53.2905 45.0065 53.3895 45.0899 53.4903V53.4921C45.4181 53.8863 45.6555 54.3217 45.958 54.7296C46.3173 54.6866 46.398 55.0807 46.7481 54.9845C46.6556 54.8039 46.5941 54.6123 46.4502 54.4528V54.4528" fill="white"/>
</g>
<path fill-rule="evenodd" clip-rule="evenodd" d="M26.4962 3.45949C27.0031 3.37424 27.3936 3.59791 27.8896 3.55482C28.0903 3.68316 28.3965 3.53374 28.5752 3.68316C28.8081 3.72624 29.1463 3.69416 29.3883 3.81149C29.6101 3.85366 29.8109 3.95999 30.0639 3.91782C30.1592 4.01316 30.36 3.93891 30.4764 4.04616C30.6661 3.95999 30.7184 4.20474 30.9091 4.11949C31.0356 4.15157 31.1309 4.26891 31.2886 4.22582C31.2996 4.32207 31.4371 4.23682 31.4902 4.30099C31.8376 4.38624 32.1438 4.57782 32.5031 4.63099C32.4921 4.67316 32.5453 4.69516 32.5765 4.68416H32.6498C32.7351 4.72632 32.8405 4.81249 32.9569 4.81249C33.0733 4.80149 33.1576 4.93991 33.2631 4.88582C33.4317 4.96099 33.5894 5.13149 33.7691 5.08841C33.9597 5.20574 34.1394 5.29099 34.3713 5.34507L35.1633 5.75941C35.3741 5.74841 35.4796 5.97207 35.6904 5.96107C35.6803 5.98307 35.7014 5.99316 35.7225 6.01516C35.86 6.06832 36.0066 6.17466 36.1762 6.21682C36.8206 6.54682 37.4641 6.98407 38.1287 7.34616C39.4276 8.16566 40.6734 9.24091 41.624 10.4537C41.613 10.6141 41.8348 10.6672 41.8238 10.8167C42.0878 11.1998 42.3206 11.4767 42.4572 11.913C42.5636 12.1147 42.6158 12.2962 42.7322 12.4777C42.7634 12.5941 42.8376 12.7004 42.8899 12.8077C42.8688 12.9672 43.0164 13.1688 43.0164 13.3182C43.0485 13.3934 43.0806 13.5107 43.1438 13.6061C43.0906 13.8077 43.2593 13.9572 43.2391 14.1167C43.3125 14.3513 43.428 14.6062 43.3446 14.883C43.45 15.0434 43.3336 15.2982 43.45 15.4697L43.3977 16.6723C43.3226 16.8529 43.3226 17.0766 43.2914 17.2792C43.3226 17.5239 43.1328 17.6092 43.1961 17.8649C43.1016 17.9071 43.1539 18.0024 43.1438 18.0776C43.0375 18.1417 43.1227 18.3333 43.0375 18.4287C42.9852 18.5139 42.9641 18.6523 42.9431 18.7587C42.8697 18.9823 42.7744 19.2381 42.6901 19.4828C42.647 19.4727 42.6259 19.5149 42.6369 19.5571C42.5526 19.8137 42.394 20.1437 42.3096 20.4517C42.2776 20.6112 42.1511 20.7396 42.13 20.9101C42.0658 20.9623 42.0456 21.0797 42.0035 21.1649C41.7926 21.5371 41.5598 21.8781 41.3701 22.2942C41.2225 22.3043 41.3169 22.4959 41.1904 22.4959C40.9585 22.9112 40.5258 23.2091 40.2508 23.4859C39.1746 24.1358 38.0664 24.2422 36.8096 24.3054C36.2606 24.4979 35.7124 24.2321 35.2156 24.5401C35.0258 24.4759 34.9103 24.6464 34.7517 24.5932C33.7596 24.7534 32.7913 25.0361 31.8688 25.4347C31.2042 25.6905 30.6451 25.9343 30.0639 26.2964C29.8531 26.4027 29.6523 26.5531 29.4314 26.6374C29.051 26.9252 28.6284 27.2873 28.2168 27.5C28.0692 27.2342 28.1746 27.0096 28.1646 26.6805L28.1224 26.6374L28.1646 26.5842L28.2489 24.4337C28.3222 24.2422 28.2911 24.0084 28.3754 23.8269C28.2911 23.507 28.5129 23.3264 28.4707 23.0285L29.4836 22.0385C30.0859 21.1649 30.7184 20.4206 31.2886 19.558C31.3729 19.3123 31.6057 19.1317 31.669 18.8439C31.9009 18.4717 32.197 18.0455 32.3977 17.6944C32.703 17.1829 32.9147 16.6292 33.1888 16.1297C33.1466 16.0123 33.253 15.9372 33.2841 15.8739C33.3896 15.5861 33.484 15.2992 33.5903 15.0113C33.6325 15.0113 33.6545 14.9692 33.6426 14.9261V14.85C33.7379 14.8298 33.6536 14.6905 33.7379 14.6483C33.8965 14.2542 34.0441 13.7326 34.1504 13.3494C34.0651 13.0515 34.2879 12.8819 34.2448 12.6042L34.2971 12.5308L34.3502 10.9221C34.2448 10.6984 34.3401 10.4115 34.2769 10.1768C34.287 9.68732 34.0862 9.19691 33.9496 8.77157C33.7911 8.39941 33.5481 8.10057 33.3905 7.74949C33.2411 7.62116 33.1677 7.45157 33.0834 7.29116C32.5031 6.70632 31.922 6.16366 31.1831 5.72641C31.0566 5.72641 30.9512 5.57791 30.8036 5.57791C30.6872 5.44957 30.4553 5.41841 30.3178 5.32124C30.1913 5.31207 30.0428 5.20482 29.8641 5.21491C29.7687 5.17274 29.6422 5.10949 29.5157 5.08749L29.4626 5.04532C29.3892 5.01324 29.2096 4.99216 29.0821 4.96007C28.9034 4.86474 28.6816 4.84274 28.4707 4.81157C28.4066 4.71441 28.2691 4.77857 28.1646 4.75749C28.0793 4.67224 27.8685 4.73641 27.7631 4.63007C27.4991 4.64016 27.2882 4.50174 27.0031 4.55491C26.8556 4.43849 26.6016 4.58699 26.4751 4.42657C25.9581 4.34224 25.388 4.40641 24.9021 4.27807C24.7014 4.25791 24.4695 4.33216 24.3219 4.19374C23.4987 4.21482 22.7489 4.07641 21.9569 4.02324C21.7882 3.98016 21.5664 3.89491 21.4821 3.81057C21.3766 3.61807 21.5554 3.55391 21.6828 3.48057C22.3896 3.36324 23.1715 3.39441 23.9103 3.35224L23.9626 3.29907C24.8077 3.35224 25.6941 3.28807 26.4962 3.45857V3.45949" fill="white" fill-opacity="0.804"/>
<path opacity="0.8" fill-rule="evenodd" clip-rule="evenodd" d="M21.4087 8.8623C21.582 8.91547 21.7543 8.96772 21.9276 9.00897C22.1228 8.99889 22.2521 9.13547 22.4464 9.11439C22.4785 9.2198 22.6297 9.12447 22.7058 9.18772C23.1055 9.31422 23.5492 9.4398 23.9268 9.56539C24.5978 9.75422 25.2789 9.94305 26.0242 9.97514C26.1543 10.0796 26.3697 9.96414 26.4889 10.0696C26.8565 10.0586 27.192 10.0906 27.5266 10.1218C27.5697 10.2272 27.7319 10.1108 27.7429 10.2474C27.786 11.0357 27.9482 11.8534 28.0023 12.6399C28.0023 12.7453 28.1105 12.8086 28.0023 12.9131C27.8612 12.9351 27.6888 12.8718 27.5807 12.9662C26.9967 12.9131 26.4458 13.0817 25.927 13.0185H22.0357V12.9974C21.8414 12.9662 21.6902 12.9351 21.5169 13.0185C20.5012 12.9873 19.6258 13.0707 18.6092 13.0396L18.5341 13.0918C17.3772 12.9873 16.3506 13.1862 15.1827 13.123L15.1287 13.1651C13.8967 13.0606 12.6216 13.2806 11.3997 13.1651C11.1522 13.0817 10.8377 13.134 10.5682 13.123C10.5352 13.0496 10.4161 12.9662 10.4601 12.8397C10.6434 12.8186 10.6975 12.6197 10.8487 12.5886C11 12.3777 11.2383 12.3154 11.4437 12.1577C12.5455 11.4446 13.7775 10.8771 14.9022 10.3739C15.0315 10.3216 15.2368 10.3006 15.367 10.1741C15.6805 10.0696 15.983 9.97514 16.2965 9.86972C16.7392 9.62864 17.3122 9.53422 17.7769 9.36555C17.9932 9.39764 18.1766 9.19872 18.4259 9.24089C18.5772 9.19872 18.7174 9.11439 18.8907 9.11439C19.1932 8.99889 19.5607 9.04105 19.8532 8.88339C20.0576 8.94664 20.1987 8.77889 20.3711 8.84122V8.81005C20.7497 8.7578 21.0311 8.92555 21.4087 8.8623V8.8623" fill="white"/>
<path fill-rule="evenodd" clip-rule="evenodd" d="M3.61442 20.0548C3.67767 20.2565 3.751 20.4563 3.76108 20.647C3.85642 20.8156 3.92975 21.0595 3.95083 21.2602C4.07733 21.4069 4.03517 21.6406 4.18275 21.7781C4.29825 22.2007 4.54025 22.5711 4.76208 22.9304C5.03708 23.3851 5.247 23.8397 5.6155 24.2302L5.63658 24.3036L6.90158 25.6263C7.04825 25.6896 7.16375 25.9013 7.32233 25.9646C7.72292 26.3771 8.20692 26.7144 8.69183 27.0114C8.8605 27.1691 9.09242 27.2433 9.28217 27.412C9.41875 27.3808 9.482 27.5495 9.5975 27.5816L9.61858 27.5706C9.77717 27.698 9.95592 27.7823 10.1246 27.8877H10.1667C10.483 28.0472 10.7773 28.2471 11.0935 28.3745C11.2099 28.3745 11.3254 28.4799 11.4308 28.5331C11.5683 28.6916 11.8525 28.6174 11.979 28.7971C12.1046 28.8291 12.2109 28.9025 12.3273 28.9657C12.4529 28.9657 12.5263 29.0941 12.6638 29.0721C12.8104 29.1573 12.9901 29.1674 13.1166 29.2939C13.3485 29.337 13.5804 29.3892 13.7803 29.5166C13.8958 29.5166 13.9801 29.5808 14.0855 29.6331C14.3174 29.6431 14.4962 29.8017 14.718 29.8549C14.8867 29.8228 14.9701 30.0135 15.1397 29.9704C15.4449 30.129 15.7502 30.14 16.0655 30.2775C16.2351 30.2564 16.3506 30.3508 16.4872 30.3939C16.5715 30.404 16.6769 30.3517 16.7301 30.4461C16.962 30.415 17.0674 30.5525 17.2984 30.5314C17.3406 30.6047 17.446 30.5103 17.4671 30.6157C17.5624 30.6579 17.71 30.5846 17.7943 30.679C17.8677 30.7001 17.9841 30.6368 18.0262 30.7321C18.3315 30.7532 18.6047 30.8586 18.8998 30.9118C19.0263 30.9118 19.1528 30.9118 19.2372 30.9851C19.459 30.9329 19.6167 31.0805 19.8165 31.0493C19.8807 31.1657 20.0484 31.0392 20.1117 31.1547C20.2583 31.1758 20.438 31.0915 20.5333 31.2189C20.8697 31.1868 21.1438 31.2711 21.4289 31.3344C21.8717 31.3665 22.3456 31.3454 22.7984 31.3564C22.8828 31.4086 22.9772 31.5461 22.9139 31.6726C22.3978 32.571 21.2071 32.5609 20.3225 32.9303L16.9831 33.9249C15.3496 33.9359 13.7903 33.9139 12.1798 33.8717C11.0825 33.4171 10.0503 32.7827 8.987 32.2327C8.09142 31.4719 7.17475 30.7001 6.25808 30.0346C6.04725 29.8329 5.79425 29.6331 5.57333 29.4314C5.43583 29.3791 5.34142 29.1784 5.19383 29.1362C4.88858 28.7127 4.43575 28.4588 4.08742 28.1096C3.86742 27.6448 3.70883 27.159 3.46592 26.7043C3.32842 26.1653 3.01308 25.6996 2.91867 25.1506L2.8765 25.0974L2.75 20.7625C2.91867 20.3408 2.8875 19.7908 3.22392 19.4837C3.28808 19.4516 3.36142 19.4736 3.41367 19.4947C3.56033 19.6533 3.53008 19.8751 3.6135 20.0548H3.61442" fill="white" fill-opacity="0.8"/>
<path fill-rule="evenodd" clip-rule="evenodd" d="M36.2551 7.47985V7.53301C36.1084 7.53301 36.0131 7.42759 35.8976 7.37443C35.4548 7.22593 34.9278 7.06734 34.5593 6.91976C35.1496 7.03618 35.6868 7.28918 36.2551 7.47893V7.47985M26.6475 8.06101V8.42035C26.3734 8.41026 26.026 8.44235 25.7831 8.29385C25.4458 8.24068 25.0773 8.43135 24.7931 8.29385L25.2038 8.2086C25.0351 8.2086 25.014 8.01885 24.8252 8.0821C25.4146 7.97668 26.0361 7.97668 26.5943 7.98676L26.6475 8.06101V8.06101M26.6686 8.56884C26.7108 8.86401 26.8583 9.25634 26.774 9.56251C25.9105 9.47818 25.025 9.3086 24.1395 9.20318C23.8242 9.09776 23.4868 9.0446 23.1816 8.92818V8.87501C24.3306 8.65506 25.4989 8.55247 26.6686 8.56884V8.56884M17.798 10.3655C17.5138 10.4718 17.2187 10.7148 16.8813 10.6515V10.5983C17.2086 10.5883 17.4607 10.3032 17.798 10.3655V10.3655M44.9469 18.0838H44.7984C44.7783 17.9033 44.8094 17.6603 44.9249 17.5228V16.8353C45.0056 16.8757 45.0074 16.9545 45.0038 17.0425C45.0001 17.1131 44.9909 17.1892 45.0203 17.2478C45.0624 17.5338 45.1147 17.84 44.9469 18.0829V18.0838M27.0994 16.1066C26.015 16.1588 25.0039 16.0956 23.8874 16.1588C23.2439 16.2432 22.5913 16.1277 21.9377 16.2863C20.4628 16.3917 18.9677 16.5924 17.5129 16.8353C16.9803 16.8491 16.4954 16.9453 16.0023 17.0425C15.7062 17.0975 15.4064 17.1553 15.0902 17.1947C13.6473 17.3853 12.2036 17.7236 10.7608 17.9775C10.6343 18.104 10.4335 18.0508 10.2859 18.1361C9.86518 17.8217 9.37293 17.4779 9.06034 17.0416C8.82568 16.7134 8.69276 16.333 8.76976 15.8738C8.81559 15.7381 8.86143 15.6015 8.91093 15.4677C9.07043 15.0478 9.27576 14.6628 9.67543 14.4777C11.1393 14.4254 12.6674 14.3622 14.1735 14.2769C14.4797 14.2879 14.8161 14.3723 15.0902 14.2989C16.7438 14.2558 18.6193 14.4144 20.2941 14.2558C21.4427 14.2879 22.5601 14.1715 23.6867 14.2558C24.0139 14.2668 24.3403 14.2137 24.6675 14.2989C24.8353 14.1706 25.0562 14.3411 25.2038 14.2558C25.8253 14.3411 26.4788 14.2879 27.0472 14.3512C27.1086 14.7032 27.0829 15.0845 27.0756 15.4658C27.0756 15.4658 27.0738 15.8967 27.1003 16.1066H27.0994M28.7962 14.3833C29.3233 14.2989 29.8714 14.3301 30.4398 14.2558C32.0934 14.1825 33.8424 14.2558 35.5392 14.3823C36.2239 14.3732 36.9398 14.4887 37.6136 14.4786C38.4248 14.584 39.1728 14.6051 39.9639 14.7316C40.8164 14.6674 41.6176 14.8168 42.471 14.9113C42.713 15.0598 42.9761 14.9433 43.2502 15.0176C43.5453 15.2523 44.2347 14.914 44.242 15.4668L44.2411 15.5245C44.2924 16.0177 44.3483 16.5356 44.3254 17.0434C44.3108 17.3606 44.264 17.6759 44.1668 17.9775C43.9138 18.1251 43.6608 17.9454 43.4298 17.8822C43.3345 17.7025 43.461 17.3322 43.208 17.2689C43.2997 17.1553 43.2483 17.0966 43.1787 17.0398H43.175C43.1163 16.9903 43.043 16.9435 43.0283 16.8674C43.0238 16.9288 43.0238 16.9866 43.0265 17.0416H43.065L43.0265 17.0434C43.0439 17.3056 43.1411 17.5238 43.1246 17.8299C41.7331 17.5971 40.458 17.301 39.0573 17.0893C38.9932 17.0737 38.9281 17.0572 38.863 17.0425C36.7409 16.5438 34.3548 16.6153 32.1778 16.3275C31.0613 16.3275 29.8714 16.2432 28.765 16.2019C28.7509 15.9568 28.7417 15.7114 28.7375 15.4658C29.0941 15.5153 28.7467 14.7398 28.7962 14.3833V14.3833M43.6297 19.7531L43.5875 19.7109C43.7039 19.5423 43.8937 19.4891 43.967 19.2773C44.0193 19.2563 44.0513 19.3094 44.0935 19.3305L43.6297 19.7531V19.7531M42.3445 20.3673V20.2921C42.6186 19.8594 42.9981 19.5523 43.2089 19.0766L43.4289 19.1188C43.1768 19.7008 42.7973 20.0079 42.3445 20.3663V20.3673M41.8394 20.3673C40.8806 21.0117 39.9538 21.5828 38.8053 21.7413C38.5623 21.7826 38.3515 21.8678 38.1205 21.9421C37.3826 22.196 36.5713 22.0686 35.7922 22.2483C34.3273 22.1428 32.9578 22.3436 31.493 22.163C31.0713 22.0897 30.5773 22.2272 30.1877 22.0897C29.5973 21.9843 29.0492 21.9843 28.4167 21.9943C28.3113 20.546 28.6706 19.1298 28.6917 17.7025L28.7439 17.6493C30.0914 17.5962 31.4518 17.5118 32.7892 17.7236C33.8635 17.6713 34.8746 17.9033 35.9498 17.9344C37.1507 17.9775 38.3515 18.1682 39.5423 18.3158C40.6487 18.4954 41.7239 18.7493 42.7964 18.9923C42.6708 19.5633 42.2492 19.9749 41.8385 20.3673H41.8394M26.8693 19.4992C26.9638 19.8695 26.796 20.2508 26.8162 20.6413C26.7639 21.0859 26.7428 21.5397 26.6475 21.9632C26.0049 21.91 25.3935 22.0796 24.772 21.91C24.6877 21.9311 24.5612 21.9843 24.4979 21.8889C23.9608 21.8358 23.4025 21.7826 22.8965 21.7413L22.8553 21.6882C21.7278 21.6671 20.5581 21.5718 19.5149 21.2757C18.0088 21.1272 16.6604 20.832 15.2698 20.4195C15.0801 20.282 14.8381 20.2609 14.6062 20.2398C13.6574 19.9648 12.8673 19.6165 11.9827 19.1719V19.1188C13.0882 18.9602 14.1845 18.6861 15.2698 18.5376C17.1444 18.2103 18.9457 18.0618 20.8523 17.8822C21.8955 17.7346 23.0973 17.7447 24.1615 17.6805C25.0993 17.565 26.1003 17.6182 27.0692 17.5962C27.1113 18.2516 26.9106 18.8548 26.8684 19.4992H26.8693M28.7118 11.2125C30.3875 11.3803 32.1154 11.3381 33.8012 11.5608C36.0342 11.6562 37.8987 11.5178 40.0483 11.3803L40.8806 11.2538C41.6075 11.7827 42.3445 12.4913 42.9248 13.1357C43.0513 13.2833 43.23 13.484 43.2823 13.6646C42.1126 13.5372 40.9228 13.3254 39.6898 13.2622C39.479 13.4107 39.3003 13.1888 39.0573 13.2622C36.1928 13.0403 33.2851 13.0825 30.514 12.9349C30.25 12.7974 29.9548 12.9771 29.6817 12.8818L28.765 12.8084C28.6275 12.6498 28.9117 12.4381 28.7439 12.2474C28.8493 11.9202 28.6495 11.5508 28.7118 11.2116V11.2125M44.4455 10.7358C46.0057 10.2463 47.5878 9.82285 49.0655 9.15001C49.5605 9.0226 49.94 8.71643 50.3617 8.46251C50.3195 8.41026 50.3195 8.38918 50.3296 8.31493C50.1618 8.38826 49.9822 8.45243 49.8245 8.56884L49.7512 8.46251C49.5715 8.43135 49.434 8.51568 49.2974 8.58993C49.1599 8.6431 48.9711 8.82185 48.8657 8.6431C48.719 8.71643 48.5393 8.83285 48.3918 8.82185C48.4862 8.65318 48.7603 8.6431 48.8968 8.4946C48.7813 8.44235 48.6237 8.4946 48.5183 8.44235C48.5705 8.27276 48.8446 8.36718 48.8446 8.16735C48.7813 8.11418 48.7071 8.14626 48.6448 8.16735C48.5604 8.10318 48.4229 8.12518 48.4651 7.98676C48.1498 8.11418 47.8546 8.26176 47.5283 8.36718C46.4429 8.81176 45.2843 9.10785 44.1357 9.40393C43.5142 9.50935 42.9138 9.68901 42.2923 9.83751C41.7542 9.53043 41.2702 9.25635 40.7541 8.8961C40.3425 8.52668 39.732 8.52668 39.3103 8.11418C38.7622 7.9556 38.2883 7.63751 37.7401 7.47985C37.5723 7.54401 37.3725 7.37443 37.1828 7.32126C36.982 7.31026 36.6878 7.02518 36.5814 7.2791L35.5914 6.89868C35.1606 6.94084 34.727 6.63376 34.2751 6.55951C34.3063 6.61268 34.243 6.69701 34.1798 6.71901L32.5362 6.28543V6.35876C32.3162 6.45501 32.0623 6.30651 31.8303 6.28543C31.4518 6.56043 30.9247 6.04251 30.6084 6.43393L30.5873 6.41193C30.4297 6.41193 30.1345 6.28543 30.0813 6.53935C30.019 6.52835 29.9347 6.56043 29.8815 6.51734C29.4388 6.59159 29.0382 6.4651 28.5863 6.5916V6.66584C29.4919 6.59159 30.4398 6.9931 31.3454 6.97201C33.0532 7.32126 34.6858 7.82909 36.2239 8.56884C37.2324 9.04097 38.2203 9.55599 39.1848 10.1125L39.1316 10.1657C37.6145 10.2711 36.0452 10.4819 34.485 10.4718C32.8946 10.503 31.3042 10.3444 29.7761 10.2179C29.3654 10.0914 28.7962 10.2179 28.512 9.88976L28.3644 8.33601C28.3113 8.2196 28.2269 8.01884 28.3333 7.93451L29.3764 7.98676C29.4708 7.94551 29.4809 7.89235 29.4708 7.78693C29.6083 7.71268 29.8192 7.80801 29.9017 7.73376C29.5442 7.53301 29.0813 7.59626 28.6917 7.47985C28.4909 7.4276 28.259 7.47985 28.1114 7.32126C27.8273 5.74643 27.3744 4.32926 27.0683 2.75443C27.0472 2.5216 26.9106 2.2686 26.9949 2.04585C27.1636 2.28876 27.3524 2.33185 27.6274 2.37401C27.8694 2.42718 28.1747 2.42718 28.3113 2.20443C28.2902 1.94043 28.4808 1.77176 28.4167 1.48576C28.7228 1.43351 28.3543 1.22176 28.4387 1.08426C28.6174 0.851428 28.2379 0.819345 28.2058 0.650678C28.017 0.460012 27.7017 0.417845 27.4478 0.302345C27.1425 0.354595 26.9216 0.0484283 26.5632 0.121762C26.3212 0.142845 26.2057 0.407762 26.015 0.449928C26.1314 0.692845 25.8042 0.503095 25.8363 0.703845C25.5833 0.682762 25.7629 0.935762 25.5301 0.956845C25.52 1.06318 25.5833 1.09434 25.6034 1.18968C25.6144 1.24284 25.4668 1.27401 25.5512 1.33818C25.9838 3.16693 25.9096 5.17535 26.4156 6.99401C26.4046 7.07835 26.5733 7.15259 26.4367 7.22593C25.4989 7.19384 24.519 7.35243 23.5813 7.47985C23.3603 7.53301 23.0863 7.45876 22.8965 7.60726C22.1274 7.70168 21.4005 7.91343 20.6213 8.00785C20.0943 7.69068 19.4838 7.55409 18.9567 7.22593V7.19385C18.6725 7.09943 18.4406 6.91885 18.1243 6.84551C17.4607 6.36976 16.6916 6.05259 16.1022 5.50259C16.038 5.29176 15.9124 5.0901 15.8483 4.91135C15.543 4.73168 15.554 4.27701 15.1644 4.12851C14.9426 4.1496 14.7849 3.98093 14.5319 4.07626C14.3422 4.03318 14.5741 3.93876 14.5108 3.82235C14.4476 3.78018 14.4265 3.63168 14.3321 3.62068C14.2468 3.8856 13.9104 3.91768 13.7207 4.00201C13.5098 3.98093 13.2889 4.21285 13.1624 4.38243C13.0781 4.5731 12.9204 4.59326 12.9094 4.81601C12.7939 5.02685 13.1413 5.08001 12.9938 5.27068C13.1203 5.38618 13.1404 5.64101 13.2678 5.7776C13.1624 6.07368 13.4787 6.1901 13.6253 6.30651C15.1956 6.92985 16.7448 7.89235 18.2197 8.62201V8.67426C17.1444 9.0336 16.0279 9.36176 14.9848 9.76326C14.2221 10.0548 13.5621 10.3343 12.8306 10.6918L12.7417 10.7358C11.1911 11.4872 9.73118 12.4129 8.39026 13.495C7.28384 13.6536 6.17743 13.5793 5.07193 13.7489C4.88218 13.9286 4.57876 13.8433 4.33218 13.8883C4.31864 13.8909 4.30519 13.894 4.29184 13.8974L4.36518 14.0239C4.31293 14.0661 4.22859 14.045 4.16534 14.045V14.1293C4.61818 14.1504 5.02976 14.034 5.48259 14.0762C5.49268 14.0973 5.54584 14.1183 5.53484 14.1504C5.32401 14.2458 5.06093 14.1825 4.81893 14.2036C4.73459 14.2989 4.87118 14.3622 4.92434 14.4254C5.51376 14.4575 6.01976 14.3723 6.54684 14.4043C6.44143 14.4777 6.21959 14.4676 6.11418 14.5098C5.94551 14.4997 5.74568 14.4997 5.66134 14.584C5.97759 14.6903 6.25168 14.5941 6.56793 14.5519C6.89426 14.5941 7.14726 14.584 7.45251 14.6583C7.42043 14.8269 7.31501 14.9644 7.25268 15.1129C7.19218 15.2248 7.14268 15.343 7.10326 15.4658C6.96194 15.9291 6.95876 16.4235 7.09409 16.8885C7.10601 16.9398 7.11976 16.9912 7.13626 17.0434C7.36543 17.7401 8.00709 18.2268 8.41043 18.7704C7.67343 19.0977 6.88326 19.3305 6.13526 19.6578C6.09401 19.7531 6.23059 19.8383 6.11418 19.9126C5.98768 19.9218 6.00876 20.0813 6.00876 20.1335C5.94551 20.1656 5.85109 20.1766 5.83001 20.2618C5.70351 20.5038 5.37718 20.557 5.12418 20.6734V20.7468C5.34601 20.6945 5.68334 20.5249 5.86118 20.7468C6.34701 20.5359 6.96759 20.4195 7.40026 20.1133C7.53684 19.9548 7.82101 20.018 7.95851 19.8594C8.17943 19.8484 8.35818 19.6688 8.56901 19.7109C8.47459 19.7751 8.34809 19.8805 8.21151 19.8805C7.96859 20.0813 7.65234 20.1234 7.40026 20.2398C7.27376 20.3453 6.99968 20.304 7.09409 20.568H7.22059C7.73668 20.3563 8.25276 20.1766 8.76976 19.9859C9.23268 19.8594 9.86518 19.4469 10.2868 19.9648C11.4033 20.557 12.5941 20.9475 13.8261 21.2757C15.2488 21.8257 16.8291 21.9843 18.3773 22.2162C18.4928 22.2803 18.6725 22.196 18.7779 22.2904C19.5681 22.2803 20.2528 22.5333 21.032 22.5443C22.781 22.8404 24.6345 23.0091 26.4678 23.1787C26.4788 23.6434 26.3633 24.1192 26.2891 24.5748C26.1004 25.4559 25.9493 26.3446 25.8363 27.2386C25.7409 27.4073 25.9096 27.5979 25.7831 27.7455C25.8051 27.9463 25.5943 28.1158 25.6786 28.2845C25.6254 28.3065 25.6997 28.422 25.6043 28.4119C25.6153 28.5705 25.6153 28.7291 25.5099 28.8446C25.5622 28.9821 25.4045 29.0563 25.4045 29.1407C25.3935 29.1627 25.3724 29.1838 25.3513 29.1728V29.9024C25.4678 29.9968 25.3413 30.1875 25.4568 30.2828C25.3834 30.6312 25.6997 30.7485 25.6786 31.0758C25.8363 31.3929 26.279 31.4773 26.4688 31.7101L26.4898 31.678C26.6475 31.7312 26.8684 31.8155 26.9949 31.7101C27.2268 31.7101 27.3634 31.6148 27.5541 31.5084C27.8795 31.3508 28.1756 31.1179 28.4598 30.875C28.4167 30.611 28.7861 30.6321 28.6385 30.3681C28.9337 30.1985 28.5863 29.9235 28.7439 29.7548C28.8072 29.6384 28.7439 29.5642 28.6706 29.5C28.6798 29.3002 28.765 29.0884 28.5652 28.972C28.3635 28.972 28.3956 28.7502 28.3113 28.6328C28.2379 28.3377 27.9648 28.5705 27.8273 28.3588C27.8593 28.1571 27.7952 27.9151 27.6586 27.7776C27.5248 27.5182 27.643 27.3303 27.5092 27.0837C27.5064 27.0786 27.5034 27.0737 27.5 27.069C27.5532 26.7518 27.5853 26.3714 27.7319 26.1496C27.9217 25.6839 27.8483 25.1138 28.0592 24.6582C28.1114 24.2255 28.1646 23.7919 28.2058 23.3583C28.2801 23.1897 28.3956 23.3693 28.512 23.3061C30.6295 23.3794 32.8845 23.3583 34.9598 23.5169C35.4649 23.4528 35.9398 23.4005 36.4238 23.4638C38.3304 23.2208 40.2692 23.0733 42.0383 22.5233C43.6297 21.921 45.0725 21.2335 46.2422 19.8063C46.8848 20.0813 47.6016 20.2719 48.2341 20.6203C48.6759 20.8632 49.2131 21.0438 49.5293 21.4343C49.6668 21.7303 49.9932 21.8568 50.3085 21.9421C50.435 21.6983 50.7403 21.91 50.9199 21.6561C50.8888 21.635 50.8466 21.6038 50.8668 21.5617C50.9324 21.4939 51.029 21.466 51.1207 21.4883C51.4681 21.3178 50.919 21.085 51.3205 20.9475L51.2673 20.8953C51.2783 20.6203 50.941 20.5992 50.8365 20.3883C50.4038 20.2609 50.0564 19.9227 49.6036 19.8383C48.6759 19.3305 47.6016 19.0986 46.6217 18.665C46.6822 18.115 46.7573 17.5879 46.7408 17.0407C46.7371 16.9228 46.7292 16.8051 46.717 16.6878C46.7262 16.2753 46.5062 15.9159 46.5373 15.5245C47.3697 15.6198 48.1498 15.8316 48.9711 15.926C49.4982 16.0534 50.0344 16.1909 50.6147 16.201C50.5505 16.0745 50.3507 15.948 50.1829 15.9049C50.2673 15.5667 50.6046 15.9049 50.8145 15.7995C50.8567 15.7152 50.7412 15.6941 50.7613 15.6198C50.9309 15.5144 51.0996 15.7152 51.3205 15.6519C51.3627 15.5566 51.4149 15.6308 51.4672 15.6198C51.5946 15.5245 51.8045 15.5988 52.0053 15.5465V15.4723L52.008 15.4658C52.0208 15.4402 52.0502 15.4402 52.0786 15.4402C52.1629 15.3558 52.0373 15.3348 51.9732 15.3137C51.8155 15.1762 51.5423 15.1863 51.3205 15.112C50.3397 14.9012 49.3295 14.6161 48.2863 14.4786C47.5493 14.3521 46.7903 14.2247 46.0112 14.1504L45.8728 13.8892C45.2705 12.8029 44.4593 11.8395 43.7562 10.9577C43.9853 10.8816 44.2145 10.8083 44.4455 10.7358V10.7358M24.8472 10.7358C25.5209 10.8752 26.2048 10.9925 26.9005 11.0842C26.9839 11.2217 26.9207 11.4233 26.9738 11.592C27.1113 11.9834 27.0261 12.417 27.0472 12.8295L26.9005 12.8818C25.773 12.7974 24.7509 12.8396 23.6555 12.7553C22.022 12.9982 20.526 12.7131 18.8824 12.8607C18.5772 12.9138 18.1876 12.8506 17.8191 12.9028C16.6384 13.0293 15.4798 12.9239 14.2789 13.0614C13.2568 13.0293 12.3081 13.1146 11.3181 13.1568C11.2979 13.0193 11.4657 13.1357 11.4978 13.0083C11.6444 13.0504 11.803 12.8616 11.9506 12.7763C13.0359 12.2373 14.1414 11.9092 15.2378 11.4123C15.6805 11.1905 16.1755 11.042 16.6073 10.8523V10.7468C16.1434 10.8101 15.6805 11.0108 15.2378 11.2116C14.2578 11.4444 13.3522 11.9202 12.4566 12.3006C13.0038 11.9834 13.6785 11.592 14.3523 11.3381C14.8775 11.2134 15.2992 10.8633 15.8125 10.7358L15.8318 10.7313C15.8849 10.7184 15.9198 10.712 15.9748 10.7038C16.8603 10.3023 17.7971 10.0383 18.7559 9.81643C19.1776 9.68901 19.5782 9.49926 20.0209 9.43601C20.4316 9.39293 20.7158 9.68901 21.1053 9.73118C22.3263 10.1253 23.5693 10.47 24.8472 10.7349V10.7358" fill="white"/>
</g>
<defs>
<clipPath id="clip0_7642_32484">
<rect width="55" height="55" fill="white"/>
</clipPath>
</defs>
</svg>
