<svg width="55" height="55" viewBox="0 0 55 55" fill="none" xmlns="http://www.w3.org/2000/svg">
<path d="M50.862 30.8919H49.4039V30.3469H50.862C51.1618 30.3469 51.3934 30.1016 51.3934 29.8154V14.4989C51.3934 14.1991 51.1481 13.9675 50.862 13.9675H37.0444C36.4448 13.9675 35.9679 13.4769 35.9679 12.8909V1.07652C35.9679 0.776727 35.7226 0.545072 35.4364 0.545072H19.2206C18.9208 0.545072 18.6891 0.790354 18.6891 1.07652V12.8773C18.6891 13.4769 18.1986 13.9538 17.6126 13.9538H3.78141C3.48162 13.9538 3.24997 14.1991 3.24997 14.4853V29.7882C3.24997 30.088 3.49525 30.3196 3.78141 30.3196H5.28036V30.8647H3.78141C3.18183 30.8647 2.7049 30.3741 2.7049 29.7882V14.4989C2.7049 13.8993 3.19546 13.4224 3.78141 13.4224H17.5717C17.8715 13.4224 18.1032 13.1771 18.1032 12.8909V1.07652C18.1032 0.476938 18.5937 0 19.1797 0H35.3956C35.9951 0 36.4721 0.490564 36.4721 1.07652V12.8773C36.4721 13.1771 36.7174 13.4088 37.0035 13.4088H50.8211C51.4207 13.4088 51.8976 13.8993 51.8976 14.4853V29.7882C51.9521 30.4014 51.4616 30.8919 50.862 30.8919V30.8919" fill="white"/>
<path d="M12.598 53.9212L11.5759 52.1361H11.1944V53.9212H10.4177V49.7378H11.1944V51.4548H11.5759L12.6252 49.7378H13.4428L12.2028 51.7409L13.4701 53.9212H12.598" fill="white"/>
<path d="M16.1954 51.6728C16.2908 51.6319 16.3453 51.5774 16.3726 51.482C16.3998 51.3866 16.4134 51.2504 16.4134 51.0596C16.4134 50.8688 16.3998 50.7189 16.3726 50.6372C16.3453 50.5554 16.2908 50.4873 16.209 50.46C16.1273 50.4191 15.9774 50.4055 15.7866 50.4055H15.1325V51.7273H15.7866C15.9638 51.7273 16.1136 51.7001 16.1954 51.6728V51.6728M16.4543 53.9212L15.9229 52.395H15.1189V53.9212H14.3422V49.7378H16.0183C16.3453 49.7378 16.5906 49.7923 16.7541 49.8877C16.9176 49.9967 17.0403 50.133 17.0948 50.3237C17.1493 50.5145 17.1765 50.7598 17.1765 51.0596C17.1765 51.3458 17.1357 51.591 17.0675 51.8091C16.9994 52.0271 16.8631 52.177 16.6451 52.2724L17.2447 53.9212H16.4543V53.9212" fill="white"/>
<path d="M18.2939 53.9212V49.7378H20.7468V50.4055H19.0707V51.4684H20.5151V52.1361H19.0707V53.2535H20.7468V53.9212H18.2939" fill="white"/>
<path d="M24.6849 49.7378V52.068C24.6849 52.613 24.6576 53.0218 24.5895 53.2808C24.535 53.5397 24.3987 53.7168 24.1943 53.8258C23.9899 53.9348 23.6765 53.9894 23.2268 53.9894C22.7907 53.9894 22.4637 53.9348 22.2593 53.8258C22.0549 53.7168 21.9323 53.5397 21.8641 53.2808C21.8096 53.0218 21.7687 52.6267 21.7687 52.0816V49.7378H22.5455V52.3133C22.5455 52.6403 22.5591 52.8583 22.5863 52.981C22.6136 53.1036 22.6681 53.1854 22.7499 53.2399C22.8316 53.2808 22.9951 53.308 23.2132 53.308C23.4312 53.308 23.5947 53.2808 23.6765 53.2399C23.7582 53.199 23.8128 53.1172 23.84 52.981C23.8673 52.8583 23.8673 52.6267 23.8673 52.3133V49.7378H24.6849V49.7378" fill="white"/>
<path d="M25.6796 53.9212V53.2808L27.4647 50.4055H25.7478V49.7378H28.3914V50.3646L26.6062 53.2535H28.4186V53.9212H25.6796" fill="white"/>
<path d="M31.2939 53.199C31.3757 53.1717 31.4302 53.1172 31.4574 53.0355C31.4847 52.9537 31.4983 52.8447 31.4983 52.6948C31.4983 52.5449 31.4847 52.4223 31.4438 52.3405C31.4165 52.2587 31.362 52.2042 31.2803 52.177C31.1985 52.1497 31.0895 52.1225 30.9396 52.1225H30.2038V53.2399H30.9396C31.1031 53.2535 31.2258 53.2399 31.2939 53.199V53.199M31.3484 51.3594C31.4302 51.2912 31.471 51.1414 31.471 50.937C31.471 50.7871 31.4574 50.678 31.4302 50.5963C31.4029 50.5281 31.3484 50.4736 31.2666 50.4464C31.1849 50.4191 31.0759 50.4055 30.926 50.4055H30.231V51.4684H30.926C31.1304 51.4684 31.2666 51.4275 31.3484 51.3594V51.3594M29.4543 49.7378H31.1713C31.5392 49.7378 31.8117 49.8196 31.9889 49.9967C32.166 50.1739 32.2478 50.4328 32.2478 50.7871C32.2478 51.0732 32.1933 51.3049 32.0979 51.4548C31.9889 51.6047 31.8253 51.7137 31.6073 51.7682V51.7954C31.8526 51.8499 32.0297 51.959 32.1388 52.1089C32.2478 52.2587 32.2887 52.504 32.2887 52.8038C32.2887 53.1581 32.2069 53.4443 32.0297 53.6351C31.8526 53.8258 31.5664 53.9212 31.1713 53.9212H29.4543V49.7378V49.7378" fill="white"/>
<path d="M36.1178 49.7378V52.068C36.1178 52.613 36.0905 53.0218 36.0224 53.2808C35.9679 53.5397 35.8316 53.7168 35.6272 53.8258C35.4228 53.9348 35.1094 53.9894 34.6597 53.9894C34.2237 53.9894 33.8966 53.9348 33.6922 53.8258C33.4878 53.7168 33.3652 53.5397 33.297 53.2808C33.2425 53.0218 33.2017 52.6267 33.2017 52.0816V49.7378H33.9784V52.3133C33.9784 52.6403 33.992 52.8583 34.0193 52.981C34.0465 53.1036 34.101 53.1854 34.1828 53.2399C34.2645 53.2808 34.4281 53.308 34.6461 53.308C34.8641 53.308 35.0277 53.2808 35.1094 53.2399C35.1912 53.199 35.2457 53.1172 35.2729 52.981C35.3002 52.8583 35.3002 52.6267 35.3002 52.3133V49.7378H36.1178V49.7378" fill="white"/>
<path d="M39.4154 53.9212L37.971 51.2776H37.9437V53.9212H37.1943V49.7378H37.9846L39.3746 52.2451H39.4018V49.7378H40.1513V53.9212H39.4154" fill="white"/>
<path d="M42.6041 53.2535C42.9039 53.2535 43.0947 53.2263 43.2037 53.1854C43.3127 53.1445 43.3809 53.0355 43.4081 52.8447C43.4354 52.6676 43.449 52.3269 43.449 51.8227C43.449 51.3185 43.4354 50.9778 43.4081 50.8007C43.3809 50.6235 43.3127 50.5145 43.2037 50.46C43.0947 50.4191 42.9039 50.3919 42.6041 50.3919H42.1545V53.2399H42.6041V53.2535V53.2535M41.3914 49.7378H42.645C43.1628 49.7378 43.5308 49.7923 43.7488 49.9149C43.9668 50.0376 44.1031 50.2147 44.1576 50.4873C44.2121 50.7598 44.2394 51.1959 44.2394 51.8363C44.2394 52.4632 44.2121 52.9128 44.1576 53.1854C44.1031 53.4579 43.9668 53.6351 43.7488 53.7577C43.5308 53.8667 43.1628 53.9348 42.645 53.9348H41.3914V49.7378V49.7378" fill="white"/>
<path d="M20.4742 21.4893L23.7038 24.0921L23.6901 26.0543L22.1776 25.5229L23.2405 39.4767L20.8694 39.7492L20.5424 45.309H19.0979L19.0298 39.9673L18.512 40.0218L18.4438 45.309H16.9313L16.7132 40.2398L14.165 40.5396L15.5958 27.417L15.6095 26.7902L15.6367 26.0679L15.6912 24.1057L15.7049 23.7923L15.4596 23.5879L13.361 21.8845L13.7698 21.4212L16.8631 21.8028L17.2992 21.8709C17.7216 22.2116 18.2258 22.416 18.7027 22.4296C19.316 22.4296 19.9837 22.0753 20.4742 21.4893V21.4893M15.0371 24.1057L11.903 21.4485C11.3988 22.0617 10.7174 22.4296 10.077 22.4432C9.55917 22.4296 9.00047 22.1843 8.55078 21.7755L8.33276 21.8164C8.33276 21.8164 6.24786 22.0889 6.00257 23.3153C5.93444 23.6424 5.78455 26.1224 5.78455 28.6979C5.79817 31.4233 6.02983 33.9579 6.02983 33.9579H7.18811V29.9243L7.50152 25.2231L7.86945 25.2095L7.63779 29.938L7.65142 34.4348L8.44177 45.3362H10.0634L10.2133 33.4809H10.5403L10.6902 45.3362H12.3118L13.2248 33.7535L13.3747 29.9925L13.2793 25.482L14.969 26.0543L15.0371 24.1057V24.1057M20.5424 19.4453C20.5424 20.7399 19.4931 21.7891 18.6482 21.8028C17.7761 21.7891 16.7405 20.7399 16.7405 19.4453C16.7405 18.3824 17.6126 17.4694 18.6482 17.4558C19.6702 17.4694 20.5424 18.3824 20.5424 19.4453V19.4453M11.9166 19.4453C11.9166 20.7399 10.8673 21.7891 10.0225 21.8028C9.15036 21.7891 8.11473 20.7399 8.11473 19.4453C8.11473 18.3824 8.98684 17.4694 10.0225 17.4558C11.0445 17.4694 11.9166 18.3824 11.9166 19.4453V19.4453M34.1692 21.4893L30.9396 24.0921L30.9532 26.0543L32.4658 25.5229L31.4029 39.4767L33.774 39.7492L34.101 45.309H35.5455L35.6136 39.9673L36.1314 40.0218L36.1995 45.309H37.7257L37.9438 40.2398L40.492 40.5396L39.0612 27.417L39.0475 26.7902L39.0203 26.0679L38.9658 24.1057L38.9522 23.7923L39.1974 23.5879L41.296 21.8845L40.8872 21.4212L37.7939 21.8028L37.3578 21.8709C36.9354 22.2116 36.4312 22.416 35.9543 22.4296C35.3274 22.4296 34.6733 22.0753 34.1692 21.4893V21.4893M39.6744 26.0543L41.3777 25.4275L41.3232 29.9925L41.4731 33.7535L42.3861 45.3362H43.9941L44.144 33.4809H44.471L44.6209 45.3362H46.2425L47.0328 34.4348L47.0465 29.938L46.8148 25.2095L47.1827 25.2231L47.4962 29.9243V33.9579H48.6544C48.6544 33.9579 48.8861 31.4233 48.8997 28.6979C48.9133 26.1224 48.7498 23.6424 48.6817 23.3153C48.4364 22.0889 46.3515 21.8164 46.3515 21.8164L46.1335 21.7755C45.6838 22.1843 45.1251 22.4296 44.6073 22.4432C43.9668 22.4296 43.2718 22.0617 42.7813 21.4485L39.6471 24.1057L39.6744 26.0543V26.0543M27.2467 22.4432C26.7289 22.4296 26.1839 22.1979 25.7342 21.7891L22.4637 21.4348L22.0413 21.9118L24.1535 23.6151L24.3987 23.8059V24.1057L24.3851 26.0679L24.3715 26.9128L24.4805 33.7535L25.3935 45.3226H27.0151L27.165 33.7398H27.5465L27.6964 45.3226H29.2771L30.1901 33.7535L30.2991 26.9128L30.2855 26.0679L30.2719 24.1057V23.8059L30.5172 23.6151L32.6293 21.9118L32.2069 21.4348L28.9365 21.7891C28.4868 22.1979 27.9417 22.4296 27.4239 22.4432H27.2467V22.4432M36.0088 17.4558C37.0444 17.4694 37.9165 18.3824 37.9165 19.4453C37.9165 20.7399 36.8673 21.7891 36.0088 21.8028C35.1503 21.7891 34.1146 20.7399 34.1146 19.4453C34.101 18.3824 34.9731 17.4694 36.0088 17.4558V17.4558M44.6345 17.4558C45.6702 17.4694 46.5423 18.3824 46.5423 19.4453C46.5423 20.7399 45.493 21.7891 44.6345 21.8028C43.776 21.7891 42.7404 20.7399 42.7404 19.4453C42.7268 18.3824 43.5989 17.4694 44.6345 17.4558V17.4558M27.3285 17.4558C28.3641 17.4694 29.2363 18.3824 29.2363 19.4453C29.2363 20.7399 28.187 21.7891 27.3285 21.8028C26.47 21.7891 25.4344 20.7399 25.4344 19.4453C25.4208 18.3824 26.2929 17.4694 27.3285 17.4558V17.4558" fill="white"/>
</svg>
