<svg width="55" height="55" viewBox="0 0 55 55" fill="none" xmlns="http://www.w3.org/2000/svg">
<g clip-path="url(#clip0_7642_32584)">
<path d="M45.3565 13.9143V31.8994C45.3061 42.646 37.7813 51.9083 27.2728 54.1587C16.7643 51.9083 9.23946 42.646 9.18903 31.8994V13.9143H45.3565V13.9143" fill="white"/>
<path d="M44.2218 14.9504V31.8995C44.1686 42.015 37.141 50.7553 27.2728 52.9792C17.4073 50.7509 10.3819 42.0133 10.3237 31.8995V14.9504H44.2218V14.9504" fill="none"/>
<path d="M14.4904 26.6968L27.2728 31.9981L14.4904 37.286L19.7917 31.9891L14.4904 26.6968V26.6968V26.6968" fill="white"/>
<path d="M21.9714 44.7805L27.2728 31.998L32.5607 44.7805L27.2638 39.4791L21.9714 44.7805V44.7805V44.7805" fill="white"/>
<path d="M40.0597 37.2994L27.2728 31.9981L40.0597 26.7102L34.7583 32.0071L40.0597 37.2994V37.2994V37.2994" fill="white"/>
<path d="M32.5741 19.2156L27.2728 31.998L21.9849 19.2156L27.2862 24.5124L32.5741 19.2156V19.2156V19.2156" fill="white"/>
<path d="M16.3376 1.87451H14.966L14.9046 2.02262C14.6377 2.66974 13.5703 5.62518 12.9245 7.67331C12.6657 6.88608 12.2574 5.80531 11.8504 4.76057C11.4168 3.63043 11.0072 2.563 10.8671 2.05197L10.819 1.87451H9.16851L9.19253 2.14137C9.23169 2.56715 9.24729 2.99478 9.23923 3.42228L9.14316 6.99416C9.12581 7.3811 9.10713 8.04157 9.08578 9.01026V9.2571H10.356V8.5019C10.356 8.2217 10.356 8.00821 10.356 7.81074C10.356 7.54388 10.356 7.31972 10.368 7.01017C10.368 7.01017 10.384 5.15818 10.3961 3.92797C11.0632 5.61184 12.0199 8.19768 12.2027 9.06097L12.2467 9.25977H13.581L13.633 9.08765C14.1254 7.4745 14.8072 5.41303 15.417 3.86393C15.4396 5.07679 15.4743 7.00617 15.4743 7.00617L15.4917 7.6613C15.5037 8.04557 15.517 8.44319 15.5064 9.01293V9.25844H16.7499L16.7392 9.00626C16.7085 8.30576 16.6979 7.63061 16.6885 7.00483L16.5965 1.88519L16.3376 1.87451V1.87451" fill="white"/>
<path d="M18.8194 7.55854C18.8194 6.85537 19.3811 6.43507 20.3205 6.43507C20.4769 6.43702 20.6328 6.45355 20.7861 6.48444V6.93943C20.7861 7.71865 20.2524 8.35243 19.5853 8.35243C19.3764 8.35527 19.1756 8.27159 19.0305 8.12122C18.8855 7.97086 18.809 7.76721 18.8194 7.55854V7.55854V7.55854M18.4191 3.80386L18.2163 3.83855V4.97536L18.6166 4.88597C18.911 4.8086 19.213 4.76385 19.5172 4.75254C20.5299 4.75254 20.7394 5.13281 20.7835 5.4904C20.6687 5.47972 20.5513 5.46905 20.4365 5.46905C18.754 5.46905 17.6666 6.29897 17.6666 7.58122C17.6666 8.64865 18.4244 9.4212 19.4678 9.4212C19.9916 9.41215 20.4915 9.20026 20.8622 8.83011C20.867 8.90665 20.8763 8.98284 20.8902 9.05827L20.9276 9.25574H22.0177L21.983 8.98889C21.9168 8.31054 21.8918 7.6288 21.9083 6.94743V5.80395C21.9083 4.89797 21.6614 3.69312 19.5266 3.69312C19.1557 3.7028 18.7862 3.74251 18.4218 3.81187L18.4191 3.80386V3.80386" fill="white"/>
<path d="M23.0571 1.41422L23.0677 1.62904C23.1064 2.41627 23.1198 3.28889 23.1198 3.84395V7.39848C23.1198 7.91752 23.1118 8.45524 23.0958 8.99962L23.0891 9.24913H24.3633L24.3286 8.98228C24.2634 8.45913 24.2318 7.93234 24.2339 7.40515V3.17147C24.2339 2.53101 24.2472 2.05868 24.2819 1.54098L24.3006 1.26611L23.0571 1.41422V1.41422" fill="white"/>
<path d="M26.8825 2.72975L25.9765 2.88853L26.0098 3.1207C26.0185 3.19688 26.0225 3.27352 26.0218 3.3502C26.0218 3.48362 26.0138 3.6424 26.0072 3.7785V3.84922H25.1892L25.0798 4.94066L25.4174 4.90997C25.6322 4.88863 25.783 4.87528 25.9992 4.86995V7.52917C25.9992 8.30039 26.202 8.81809 26.6196 9.11297C26.9985 9.37983 27.4949 9.41719 27.9752 9.41719H28.2167V8.34976H27.9752C27.599 8.34976 27.4015 8.30973 27.2921 8.20966C27.1827 8.10959 27.1133 7.85474 27.1133 7.44912V4.86594H28.0473L28.1554 3.77717L27.8218 3.80519C27.5789 3.82654 27.3988 3.84121 27.1146 3.84655C27.1213 3.57969 27.1386 3.31284 27.168 2.99127L27.1987 2.67505L26.8851 2.72975H26.8825V2.72975" fill="white"/>
<path d="M31.1108 4.75C31.778 4.75 32.0355 5.25169 32.1329 5.684H29.9687C30.0661 5.29706 30.369 4.75 31.1108 4.75V4.75M28.7665 6.24173C28.7665 7.28647 29.0974 8.13641 29.7232 8.69815C30.2675 9.17367 30.9686 9.43082 31.6912 9.41999C32.0194 9.41337 32.3467 9.38305 32.6706 9.32926L32.9308 9.2919V8.22447L32.6519 8.26851C32.3572 8.32237 32.0588 8.35359 31.7593 8.36191C30.425 8.36191 30.0687 7.48128 29.958 6.70606H33.3191L33.3284 6.46322V6.34714V6.2017C33.3281 5.63817 33.167 5.08643 32.8641 4.61123C32.4783 4.01595 31.8106 3.66418 31.1015 3.68257C29.3883 3.68257 28.7665 5.21166 28.7665 6.23906V6.24173V6.24173" fill="white"/>
<path d="M34.0262 5.09807C34.0262 5.95601 34.7534 6.43235 35.3952 6.84197L35.4486 6.87533C35.9529 7.20223 36.4279 7.51178 36.4279 7.87738C36.4279 8.0535 36.2652 8.35238 35.6527 8.35238C35.3425 8.33482 35.0367 8.27096 34.7454 8.16292L34.1984 7.99613V8.32303V9.13427L34.3718 9.18498C34.7913 9.32392 35.2285 9.4021 35.6701 9.41714C36.532 9.41714 37.5381 9.00885 37.5381 7.8587C37.5381 6.97407 36.8469 6.48972 36.2918 6.10011L36.1584 6.00538L35.8435 5.78789C35.4806 5.54238 35.1377 5.31155 35.1377 5.10874C35.1377 4.78451 35.6714 4.74982 35.9022 4.74982C36.1678 4.75716 36.4322 4.78842 36.6921 4.84322L36.9777 4.89392V3.82649L36.7842 3.78646C36.4816 3.72141 36.1731 3.68743 35.8635 3.68506C35.1243 3.68506 34.0236 4.06133 34.0236 5.09807H34.0262V5.09807" fill="white"/>
<path d="M40.4801 4.75003C41.1473 4.75003 41.4061 5.25172 41.5035 5.68403H39.3393C39.4367 5.29709 39.7396 4.75003 40.4801 4.75003V4.75003M38.1371 6.24176C38.1371 7.28651 38.468 8.13645 39.0938 8.69818C39.6381 9.1737 40.3392 9.43085 41.0619 9.42003C41.3905 9.41334 41.7183 9.38302 42.0426 9.3293L42.3014 9.29194V8.22451L42.0226 8.26854C41.7279 8.32241 41.4294 8.35363 41.1299 8.36194C39.7957 8.36194 39.4394 7.48131 39.3287 6.70609H42.6897L42.6991 6.46325V6.34717V6.20173C42.6987 5.6382 42.5376 5.08646 42.2347 4.61127C41.8487 4.01557 41.1804 3.66375 40.4708 3.68261C38.7589 3.68261 38.1371 5.2117 38.1371 6.23909V6.24176V6.24176" fill="white"/>
<path d="M46.1816 3.68262C45.5998 3.69036 45.0453 3.9306 44.6418 4.34976C44.6418 4.27104 44.6511 4.19231 44.6511 4.11893C44.6511 4.08246 44.6511 4.04777 44.6511 4.01485L44.6378 3.76267L43.4543 3.88143L43.493 4.13361C43.5943 4.8753 43.6575 5.6217 43.6824 6.36986V7.40927C43.6824 7.87227 43.6744 8.42199 43.6611 9.0411V9.28661L44.8433 9.25992L44.8219 9.00908C44.7855 8.60989 44.7761 8.20868 44.7939 7.80822V7.40794V6.12703C44.7939 4.87413 45.8613 4.75938 46.1882 4.75405H46.4257V3.68662L46.1816 3.68262V3.68262" fill="white"/>
</g>
<defs>
<clipPath id="clip0_7642_32584">
<rect width="55" height="55" fill="white"/>
</clipPath>
</defs>
</svg>
