<svg width="64" height="64" viewBox="0 0 64 64" fill="none" xmlns="http://www.w3.org/2000/svg">
<g clip-path="url(#clip0_7642_32581)">
<g clip-path="url(#clip1_7642_32581)">
<path d="M63.0897 58.4734H63.99V57.5239H63.0897V58.4734V58.4734M63.1879 52.5638H62.3366L60.5687 57.7203H60.5523L58.8171 52.5638H57.9168L60.0285 58.4734H61.027L63.1879 52.5638V52.5638M57.0328 58.4734H57.9331V57.5239H57.0328V58.4734V58.4734M53.1531 55.8869C53.2022 55.3303 53.5133 54.6919 54.2499 54.6919C54.9047 54.6919 55.2648 55.2321 55.2648 55.8869H53.1531V55.8869M55.7723 57.4912C55.5922 57.6549 55.0029 57.9168 54.5118 57.9168C53.7915 57.9168 53.1695 57.3275 53.1695 56.4762H56.0997C56.0997 55.0848 55.6577 54.0371 54.299 54.0371C53.1367 54.0371 52.3837 54.9375 52.3837 56.2143C52.3837 57.6221 53.0549 58.5552 54.5118 58.5552C55.183 58.5552 55.5104 58.3915 55.805 58.2769V57.4912H55.7723M46.8834 58.4734H47.6365V56.2634L49.4699 58.4734H50.5503L48.4058 56.067L50.3047 54.1517H49.2734L47.6365 55.9033V52.1218H46.8834V58.4734V58.4734M43.8386 58.4734H44.5916V56.509C44.5916 55.4286 45.0336 54.741 45.7048 54.741C45.8358 54.741 45.9831 54.7574 46.1304 54.8229V54.119C45.9667 54.0862 45.8521 54.0535 45.6393 54.0535C45.1973 54.0535 44.7717 54.3809 44.5753 54.8229H44.5589V54.1517H43.855V58.4734H43.8386M39.9753 55.8869C40.0244 55.3303 40.3355 54.6919 41.0721 54.6919C41.7269 54.6919 42.0871 55.2321 42.0871 55.8869H39.9753V55.8869M42.5945 57.4912C42.4145 57.6549 41.8251 57.9168 41.334 57.9168C40.6138 57.9168 39.9917 57.3275 39.9917 56.4762H42.9219C42.9219 55.0848 42.4799 54.0371 41.1212 54.0371C39.959 54.0371 39.2059 54.9375 39.2059 56.2143C39.2059 57.6221 39.8771 58.5552 41.334 58.5552C42.0052 58.5552 42.3326 58.3915 42.6273 58.2769V57.4912H42.5945M38.7967 54.1517H38.0601L37.0615 57.7203H37.0451L36.0138 54.1517H35.1135L34.0658 57.7203H34.0494L33.1163 54.1517H32.2815L33.6074 58.4734H34.4914L35.5227 54.8556H35.5391L36.6031 58.4734H37.4871L38.7967 54.1517V54.1517M29.4495 58.326C29.7932 58.5225 30.1861 58.5552 30.579 58.5552C31.3156 58.5552 32.0032 58.1296 32.0032 57.2129C32.0032 55.8378 30.2189 56.0834 30.2189 55.2158C30.2189 54.8556 30.5626 54.6919 30.9391 54.6919C31.1192 54.6919 31.5612 54.8065 31.7413 54.9047L31.8067 54.2172C31.5121 54.119 31.2174 54.0535 30.8737 54.0535C30.0552 54.0535 29.4331 54.4791 29.4331 55.3795C29.4331 56.5908 31.2174 56.5253 31.2174 57.3111C31.2174 57.7695 30.7918 57.9332 30.448 57.9332C30.2352 57.9332 29.8096 57.8349 29.515 57.6221L29.4495 58.326V58.326M27.7306 58.4734H28.4837V52.1218H27.7306V58.4734V58.4734M23.7691 55.8869C23.8182 55.3303 24.1293 54.6919 24.8659 54.6919C25.5207 54.6919 25.8808 55.2321 25.8808 55.8869H23.7691V55.8869M26.3883 57.4912C26.2082 57.6549 25.6189 57.9168 25.1278 57.9168C24.4075 57.9168 23.7855 57.3275 23.7855 56.4762H26.7157C26.7157 55.0848 26.2737 54.0371 24.915 54.0371C23.7527 54.0371 22.9997 54.9375 22.9997 56.2143C22.9997 57.6221 23.6709 58.5552 25.1278 58.5552C25.799 58.5552 26.1264 58.3915 26.421 58.2769V57.4912H26.3883M21.2973 56.7873C21.2973 57.4257 20.9044 57.9168 20.1514 57.9168C19.8076 57.9168 19.382 57.6712 19.382 57.2129C19.382 56.4599 20.3969 56.378 20.8062 56.378C20.9699 56.378 21.1336 56.3944 21.2809 56.3944V56.7873H21.2973M19.0873 55.1339C19.3983 54.8556 19.8567 54.6919 20.2823 54.6919C21.0353 54.6919 21.2973 55.0684 21.2973 55.8214C21.0026 55.8051 20.7898 55.8051 20.4951 55.8051C19.7094 55.8051 18.5962 56.1488 18.5962 57.2293C18.5962 58.1623 19.2183 58.5716 20.1023 58.5716C20.7898 58.5716 21.199 58.1787 21.3791 57.9168H21.3955V58.4734H22.0994C22.083 58.3424 22.0666 58.1132 22.0666 57.6221V55.8378C22.0666 54.6592 21.5919 54.0535 20.4133 54.0535C19.8894 54.0535 19.4475 54.2172 19.071 54.4627L19.0873 55.1339V55.1339M14.029 58.4734H14.782V56.4762C14.782 55.4286 15.1749 54.6919 16.0261 54.6919C16.6809 54.741 16.8938 55.2321 16.8938 56.2307V58.457H17.6468V55.8869C17.6468 54.7247 17.172 54.0371 16.108 54.0371C15.535 54.0371 15.0603 54.299 14.782 54.7574H14.7657V52.1055H14.0126V58.4734H14.029M12.2938 56.2962C12.3102 56.9673 11.9664 57.9332 11.1643 57.9332C10.313 57.9332 9.95291 57.0492 9.95291 56.3289C9.95291 55.5268 10.3458 54.7083 11.1643 54.7083C11.9828 54.6919 12.3102 55.5104 12.2938 56.2962V56.2962M9.19989 60.2413H9.95291V57.8677H9.96928C10.1985 58.2606 10.6077 58.5552 11.328 58.5552C12.5721 58.5552 13.0959 57.4093 13.0959 56.2143C13.0959 55.0521 12.523 54.0371 11.328 54.0371C10.6077 54.0371 10.133 54.43 9.93654 54.741H9.92017V54.1353H9.19989V60.2413V60.2413M7.2355 56.7873C7.2355 57.4257 6.84262 57.9168 6.08961 57.9168C5.74584 57.9168 5.32022 57.6712 5.32022 57.2129C5.32022 56.4599 6.33516 56.378 6.7444 56.378C6.9081 56.378 7.0718 56.3944 7.21913 56.3944V56.7873H7.2355M5.04193 55.1339C5.35296 54.8556 5.81132 54.6919 6.23694 54.6919C6.98995 54.6919 7.25187 55.0684 7.25187 55.8214C6.95721 55.8051 6.74441 55.8051 6.44975 55.8051C5.66399 55.8051 4.55084 56.1488 4.55084 57.2293C4.55084 58.1623 5.17289 58.5716 6.05687 58.5716C6.7444 58.5716 7.15365 58.1787 7.33372 57.9168H7.35009V58.4734H8.054C8.03763 58.3424 8.02126 58.1132 8.02126 57.6221V55.8378C8.02126 54.6592 7.54653 54.0535 6.3679 54.0535C5.84406 54.0535 5.40207 54.2172 5.02556 54.4627L5.04193 55.1339V55.1339M0.802126 53.3005H1.57151C2.30816 53.3005 2.70104 53.6442 2.70104 54.1681C2.70104 54.741 2.25905 55.0848 1.48966 55.0848H0.802126V53.3005V53.3005M0 58.4734H0.802126V55.8542H1.27685C1.70247 55.8542 1.96439 55.8542 2.20994 56.4271L3.07754 58.4734H3.99426L2.94658 56.1161C2.76652 55.756 2.65193 55.625 2.40638 55.5268V55.5104C3.06117 55.3958 3.56864 54.8884 3.56864 54.1681C3.56864 52.7603 2.5046 52.5638 1.39144 52.5638H0V58.4734V58.4734" fill="white"/>
<path opacity="0.8" d="M35.7191 44.117V46.2942H31.6267V39.1733H30.448C28.2217 39.1733 27.5833 42.5455 25.8153 46.2942H21.2972C23.6054 41.1541 24.1129 38.9932 25.8153 38.0929C23.9328 37.1598 22.9997 35.7192 22.9997 33.804C22.9997 31.1848 24.9968 28.762 28.3854 28.762H31.9704L35.7191 44.117M31.6267 31.9542H29.5477C28.0089 31.9542 27.2068 32.6253 27.2068 33.9349C27.2068 35.4246 28.3199 35.9484 29.4495 35.9484H31.6267V31.9542V31.9542M32.1341 29.8424C33.5747 31.4958 31.3156 28.6802 32.969 27.2396C35.359 25.1607 33.7875 21.5429 39.4515 15.1914C44.2642 9.7893 41.3013 3.61784 41.6778 3.9125C45.3283 6.72813 43.9205 13.4071 43.9205 13.4071Cnan nan 44.9027 9.85478 45.0336 8.49608C45.1482 7.2847 46.3596 10.0676 45.7703 15.0768C45.5247 17.1067 45.2955 18.1052 44.7553 19.3657C44.7553 19.3657 46.4414 16.2227 46.6379 15.4697C46.7197 15.1423 47.0962 18.8091 45.8685 22.0504C45.4756 23.098 44.8372 24.5713 44.8372 24.5713Cnan nan 45.803 23.3763 46.4742 22.1486C47.2599 20.6917 46.8834 24.113 46.4251 25.308C45.7539 27.0105 45.0664 27.9926 45.0664 27.9926Cnan nan 45.4101 28.1563 46.0977 27.5834C46.4251 27.3215 46.4578 28.1236 46.0813 29.2531C45.8357 29.9898 44.739 31.152 44.739 31.152Cnan nan 45.7375 30.972 46.1959 30.5136C46.3596 30.3499 46.3923 31.0047 45.9667 31.9869C45.3774 33.3783 43.4457 35.0808 43.4457 35.0808Cnan nan 44.2642 35.1627 45.1155 34.4751C45.4592 34.1968 45.0009 35.5555 44.4116 36.2103C43.6258 37.0779 42.66 37.5036 42.66 37.5036Cnan nan 44.3625 37.5527 42.9219 39.1897C41.8906 40.3519 40.4664 40.401 40.4664 40.401Cnan nan 40.1881 42.5946 38.06 42.169C38.06 42.169 36.865 44.5754 34.7369 44.0188C34.7369 44.0188 34.3277 43.9369 34.3441 43.6259C34.3932 43.0693 35.1953 42.4964 35.1953 41.5142C35.1953 40.8594 34.7206 40.3356 34.7206 40.3356L32.1341 29.8424M42.6109 17.123C44.8863 17.5814 43.4948 15.4697 43.9532 13.1942L42.6109 17.123M42.9219 22.4924C44.2315 20.6098 44.9027 19.071 44.9027 19.071L42.9219 22.4924M43.282 26.6994C44.297 25.4226 44.8372 24.5877 44.8372 24.5877L43.282 26.6994" fill="white"/>
<path d="M35.7192 46.4414H31.6267C31.5285 46.4414 31.463 46.3759 31.463 46.2777V39.3204H30.4481C28.8766 39.3204 28.1399 41.1539 27.1086 43.7076C26.7812 44.5261 26.4047 45.4428 25.9791 46.3595C25.9463 46.425 25.8972 46.4577 25.8318 46.4577H21.3137C21.2645 46.4577 21.1991 46.425 21.1827 46.3759C21.1663 46.3268 21.15 46.2777 21.1663 46.2122C21.7229 44.9844 22.1649 43.9368 22.5578 43.0037C23.7037 40.2863 24.3257 38.8457 25.488 38.0763C23.7364 37.1269 22.8361 35.67 22.8361 33.771C22.8361 32.396 23.3599 31.1027 24.3094 30.1533C25.3407 29.122 26.7485 28.5654 28.3855 28.5654H31.8559C31.9705 28.1398 32.2651 27.6487 32.8708 27.1085C33.8039 26.3064 34.0986 25.2587 34.5242 23.8181C35.1299 21.7392 35.9484 18.8744 39.3369 15.0766C41.9234 12.1791 42.6764 8.57774 41.5796 4.37067C41.465 3.94506 41.4487 3.83047 41.5632 3.74862C41.6123 3.71588 41.6942 3.69951 41.776 3.76499C43.2985 4.94362 44.1824 6.98986 44.3298 9.6909C44.3625 10.2147 44.3461 10.7058 44.3298 11.1642C44.5753 10.182 44.8045 9.08521 44.87 8.47952C44.8863 8.31582 44.9191 8.13576 45.0664 8.07028C45.1483 8.03754 45.2301 8.05391 45.312 8.10302C45.7703 8.43041 46.3924 11.2133 45.934 15.093C45.8194 16.0915 45.7048 16.8446 45.5575 17.4993C45.9831 16.6645 46.4087 15.7805 46.4906 15.4204C46.5233 15.3221 46.5888 15.2894 46.6215 15.273C46.687 15.2567 46.7525 15.2894 46.7852 15.3221C46.9817 15.5513 47.1618 19.1036 46.0322 22.0829C45.8849 22.4758 45.6885 22.9505 45.5248 23.3761C45.803 22.9833 46.0977 22.5085 46.3433 22.0502C46.4251 21.8865 46.6379 21.51 46.8835 21.6246C47.3909 21.8537 46.8671 24.6203 46.5724 25.3569C46.0977 26.5683 45.623 27.4195 45.3611 27.8124C45.5084 27.7797 45.7048 27.6814 45.9831 27.4523C46.1632 27.3049 46.2941 27.3704 46.3433 27.4031C46.6543 27.616 46.4742 28.549 46.2287 29.2857C46.065 29.7768 45.5575 30.4316 45.2137 30.8408C45.5084 30.7426 45.8522 30.5953 46.0813 30.3825C46.1796 30.2842 46.2941 30.3006 46.3596 30.3497C46.6379 30.5298 46.3596 31.4629 46.1141 32.0358C45.6557 33.0835 44.4935 34.2949 43.9041 34.8515C44.1988 34.786 44.608 34.655 45.0173 34.3276C45.1974 34.1803 45.312 34.2949 45.3447 34.3112C45.5902 34.5732 44.9518 35.8336 44.5426 36.292C44.0515 36.8322 43.5113 37.1924 43.1511 37.4052C43.3476 37.4706 43.5276 37.6016 43.6259 37.8144C43.7895 38.1745 43.5931 38.6493 43.0529 39.255C42.1689 40.2535 41.0067 40.4663 40.6138 40.4991C40.5483 40.7937 40.3355 41.5468 39.7298 41.9887C39.3042 42.2998 38.7804 42.398 38.1583 42.2998C37.9455 42.6763 37.1761 43.8713 35.9156 44.1496V46.2285C35.8829 46.3759 35.8174 46.4414 35.7192 46.4414V46.4414M31.7904 46.114H35.5555V44.2642C35.2772 44.2969 34.9825 44.2642 34.6715 44.1823C34.4914 44.1496 34.1313 43.9859 34.164 43.6094C34.1968 43.3474 34.3605 43.0855 34.5242 42.8236C34.7534 42.4635 35.0153 42.0542 35.0153 41.514C35.0153 40.9247 34.5897 40.45 34.5897 40.4336C34.5242 40.3681 34.5405 40.2699 34.606 40.2044Cnan nan 34.7697 40.1553 34.8352 40.2208C34.8516 40.2372 35.3427 40.7937 35.3427 41.514C35.3427 42.1524 35.0316 42.6108 34.7861 43.0037C34.6224 43.2492 34.4914 43.462 34.4751 43.6421C34.4587 43.8058 34.7206 43.8549 34.7206 43.8549C36.7177 44.3624 37.8636 42.1033 37.8636 42.087C37.8964 42.0215 37.9782 41.9887 38.0437 42.0051C38.6167 42.1197 39.1078 42.0379 39.4843 41.7759C40.1391 41.3012 40.27 40.3845 40.27 40.3845C40.2864 40.3026 40.3519 40.2372 40.4337 40.2372C40.4501 40.2372 41.8088 40.1717 42.7746 39.0913C43.2002 38.6002 43.3803 38.2237 43.2821 37.9945Cnan nan 42.7746 37.6998 42.6273 37.6835C42.5454 37.6835 42.48 37.618 42.48 37.5525C42.4636 37.4706 42.5127 37.4052 42.5782 37.3724C42.5945 37.3724 43.5276 36.9468 44.2806 36.1283C44.6408 35.7354 44.9191 35.1134 45.0173 34.7696C44.1824 35.3426 43.4458 35.2771 43.413 35.2607C43.3476 35.2607 43.2985 35.2116 43.2657 35.1461C43.2493 35.0806 43.2657 35.0152 43.3148 34.966C43.3312 34.9497 45.2301 33.2799 45.803 31.9376C46.0322 31.4138 46.1141 31.0209 46.1304 30.7917C45.6066 31.1846 44.8045 31.3319 44.7554 31.3319C44.6899 31.3483 44.608 31.3156 44.5753 31.2501Cnan nan 44.5589 31.1191 44.5917 31.0536C44.608 31.0373 45.6557 29.9077 45.9013 29.2038C46.1632 28.4345 46.1959 27.927 46.1468 27.7469C45.4102 28.3362 45.0173 28.1725 44.9682 28.1562Cnan nan 44.8863 28.0907 44.8863 28.0579C44.87 28.0088 44.8863 27.9597 44.9027 27.927C44.9027 27.9106 45.5902 26.9284 46.245 25.2751C46.6052 24.342 46.818 22.5085 46.7198 22.0338C46.687 22.0829 46.6543 22.132 46.5888 22.2466C45.9504 23.4253 45.0337 24.5875 44.9518 24.6857C44.9027 24.7676 44.3461 25.5861 43.3967 26.7975C43.3476 26.8629 43.233 26.8793 43.1675 26.8302Cnan nan 43.0856 26.6665 43.1348 26.601C44.0678 25.4224 44.608 24.6203 44.6735 24.522C44.739 24.3747 45.312 22.9833 45.6885 22.0174C46.5561 19.7257 46.6215 17.2211 46.5561 16.1243C46.0486 17.2865 44.9354 19.3655 44.8863 19.4801C44.608 20.0367 43.986 21.2317 43.0365 22.5904C42.9874 22.6722 42.8892 22.6886 42.8074 22.6395Cnan nan 42.7091 22.4922 42.7582 22.4103C43.6913 21.0516 44.3134 19.873 44.5753 19.3164C45.0991 18.0887 45.3283 17.1392 45.5739 15.0766C45.9995 11.4261 45.4756 9.05247 45.1646 8.49589V8.52863C45.0337 9.88734 44.0842 13.325 44.0515 13.4723C44.0515 13.4887 44.0515 13.4887 44.0351 13.5051C43.5604 15.6495 42.7419 17.1883 42.7419 17.2047C42.6928 17.2865 42.5945 17.3193 42.5127 17.2702Cnan nan 42.3981 17.1228 42.4472 17.041C42.4636 17.0246 43.3148 15.3876 43.7732 13.1613C43.855 12.6539 44.0515 11.2788 43.9696 9.72364C43.8223 6.79342 42.8074 5.1728 41.8579 4.32157C42.0543 5.09095 42.4636 6.6952 42.349 8.67596C42.1853 11.1642 41.2522 13.3905 39.5497 15.3058C36.2103 19.0545 35.3918 21.8701 34.8025 23.9164C34.3932 25.3569 34.0658 26.4864 33.0509 27.354C31.5285 28.68 32.216 29.6949 32.2488 29.7277C32.2979 29.8095 32.2815 29.9077 32.216 29.9569Cnan nan 32.0359 29.9896 31.9868 29.9241C31.9868 29.9241 31.7086 29.5149 31.7577 28.8928H28.3527C24.9314 28.8928 23.1307 31.3483 23.1307 33.771C23.1307 35.6372 24.0474 37.0287 25.8645 37.929C25.9136 37.9617 25.9627 38.0108 25.9627 38.0763Cnan nan 25.93 38.1909 25.8809 38.2237C24.6531 38.8785 24.0474 40.3026 22.8361 43.1346C22.4595 44.0022 22.0503 44.9844 21.5428 46.114H25.7008C26.11 45.23 26.4538 44.3951 26.7812 43.5766C27.8289 41.0229 28.6474 38.993 30.4317 38.993H31.6103C31.7086 38.993 31.774 39.0585 31.774 39.1567V46.114H31.7904M46.2123 27.7305V27.7305ZM31.6267 36.1119H29.4495C27.9435 36.1119 27.0431 35.2934 27.0431 33.9347C27.0431 32.9525 27.4851 31.7903 29.5477 31.7903H31.6267C31.7249 31.7903 31.7904 31.8558 31.7904 31.954V35.9482C31.7904 36.0301 31.7086 36.1119 31.6267 36.1119V36.1119M29.5477 32.1177C28.0908 32.1177 27.3705 32.707 27.3705 33.9347C27.3705 35.6045 28.8274 35.7845 29.4495 35.7845H31.463V32.1177H29.5477V32.1177" fill="white"/>
<path d="M38.4693 34.2951C38.4366 34.2951 38.3874 34.2787 38.3547 34.246C38.2892 34.1805 38.2892 34.0823 38.3547 34.0168C39.7134 32.5599 40.3191 30.3991 40.2864 29.8588C39.5988 30.3008 38.9604 30.3663 38.944 30.3663C38.8785 30.3663 38.8131 30.3336 38.7967 30.2845C38.764 30.2354 38.764 30.1699 38.7967 30.1044C39.4842 29.0567 39.7462 27.5179 39.7625 26.9614C39.2223 27.3379 38.5675 27.698 38.5348 27.7144C38.4693 27.7471 38.3874 27.7471 38.3383 27.6816C38.2892 27.6325 38.2729 27.5507 38.322 27.4852C38.5511 27.0923 39.0422 26.061 38.7803 25.5536C38.502 25.8646 37.8636 26.5194 37.2907 26.5521C37.2088 26.5521 37.127 26.4866 37.1106 26.4048C37.1106 26.3066 37.1761 26.2411 37.2579 26.2247C37.7654 26.192 38.4366 25.4553 38.6494 25.1771C38.6821 25.1443 38.7148 25.1116 38.764 25.1116C38.8131 25.1116 38.8622 25.1279 38.8949 25.1607C39.4024 25.6354 39.1241 26.5521 38.8622 27.1414C39.1405 26.9777 39.4842 26.7649 39.7625 26.5521C39.8444 26.503 39.9262 26.503 39.9917 26.5685C40.2209 26.7977 39.9426 28.6802 39.2551 29.9571C39.5006 29.8916 39.8444 29.7606 40.1881 29.5151C40.3355 29.4169 40.4664 29.466 40.5319 29.5478C40.8757 29.9571 40.0736 32.6581 38.6003 34.2296C38.5511 34.2787 38.5184 34.2951 38.4693 34.2951V34.2951M39.9426 26.8304V26.8304Z" fill="white"/>
</g>
</g>
<defs>
<clipPath id="clip0_7642_32581">
<rect width="63.99" height="63.99" fill="white"/>
</clipPath>
<clipPath id="clip1_7642_32581">
<rect width="63.99" height="63.99" fill="white"/>
</clipPath>
</defs>
</svg>
