<svg width="55" height="55" viewBox="0 0 55 55" fill="none" xmlns="http://www.w3.org/2000/svg">
<g clip-path="url(#clip0_7642_32579)">
<mask id="mask0_7642_32579" style="mask-type:luminance" maskUnits="userSpaceOnUse" x="12" y="43" width="31" height="12">
<path d="M12.9873 43.1172H42.0347V54.9862H12.9873V43.1172" fill="white"/>
</mask>
<g mask="url(#mask0_7642_32579)">
<path fill-rule="evenodd" clip-rule="evenodd" d="M33.9744 54.7919V43.3253H42.0338V45.2631H36.3504V47.9856H41.2638V49.9234H36.3504V54.7909H33.9744V54.7919M24.5218 54.7919V43.3253H26.7658V49.4119L29.403 46.4804H32.1713L29.2563 49.5238L32.384 54.7919H29.9603L27.797 51.0445L26.7658 52.1335V54.7919H24.5218V54.7919M12.9873 51.0766L15.2973 50.852C15.4284 51.6046 15.7227 52.1656 16.1324 52.5176C16.5587 52.8696 17.1316 53.0465 17.853 53.0465C18.6065 53.0465 19.1794 52.8861 19.5727 52.5662C19.9494 52.2609 20.1465 51.8934 20.1465 51.4607C20.1465 51.204 20.064 50.9639 19.9008 50.7723C19.7358 50.5798 19.4581 50.4194 19.0483 50.2754C18.7862 50.1792 18.1473 50.0188 17.1646 49.7795C15.9033 49.4752 15.0187 49.0902 14.5108 48.6429C13.7903 48.0012 13.4292 47.233 13.4292 46.32C13.4292 45.7434 13.5942 45.1989 13.9379 44.6865C14.2817 44.1741 14.7565 43.79 15.3954 43.5178C16.0343 43.2455 16.8043 43.1172 17.6889 43.1172C19.1629 43.1172 20.2611 43.438 21.0146 44.0779C21.7516 44.703 22.1448 45.5674 22.1778 46.6244L19.8018 46.7041C19.7038 46.1119 19.4902 45.6802 19.1629 45.4235C18.8192 45.1669 18.3278 45.0385 17.6724 45.0385C16.9849 45.0385 16.4441 45.1834 16.0673 45.4556C15.8272 45.6159 15.6852 45.8874 15.6906 46.1761C15.6906 46.4484 15.8052 46.672 16.0343 46.8636C16.346 47.1203 17.0665 47.3769 18.2133 47.6336C19.3591 47.9059 20.2116 48.1772 20.7689 48.4659C21.2926 48.7389 21.7378 49.1412 22.0623 49.6347C22.374 50.1159 22.5207 50.7237 22.5207 51.4607C22.5207 52.117 22.341 52.7257 21.9643 53.3032C21.5884 53.8789 21.0632 54.295 20.3757 54.5838C19.6882 54.8551 18.8522 54.9999 17.82 54.9999C16.346 54.9999 15.1983 54.6635 14.4128 53.9916C13.6088 53.3334 13.1349 52.3563 12.9873 51.0766V51.0766" fill="white"/>
</g>
<path fill-rule="evenodd" clip-rule="evenodd" d="M23.573 28.1334C23.1504 28.336 22.6655 28.6303 22.1641 29.1885C21.7149 29.6881 21.5114 30.1208 21.2172 30.6946C20.5727 30.3842 19.9525 30.0257 19.3618 29.6221C19.7918 28.7549 20.3977 27.8566 21.1704 27.1058C21.8671 26.4275 22.7123 25.8619 23.5721 25.5796V28.1334H23.573M29.6817 34.2164L30.019 34.1614C36.5072 33.1164 41.7478 28.4222 43.4518 21.9918H47.6667C45.6931 31.4233 37.411 38.5 27.5 38.5C17.5817 38.5 9.29684 31.4123 7.33334 21.9698H11.5573C13.255 28.3727 18.568 33.0523 24.9773 34.1413L25.3174 34.199V19.8614H12.6418L9.58651 15.4477H25.3183V0H29.6826V15.4477H45.4153L42.361 19.8614H29.6817V34.2164V34.2164M31.4646 25.8197C31.9495 26.6961 32.615 27.4038 33.4428 28.1096C34.3118 28.8521 35.0964 29.3535 35.6959 29.6432C35.0634 30.1015 34.4428 30.459 33.7407 30.8092C33.308 30.5745 32.8176 30.2051 32.4381 29.8815C32.0827 29.5736 31.7573 29.2326 31.4664 28.8631L31.4646 25.8197V25.8197M38.4725 27.0802C38.0167 27.6275 37.5222 28.1416 36.993 28.6183C36.3092 28.2792 35.0304 27.4789 33.7627 26.1965C32.5078 24.9269 31.4939 23.3475 31.4646 21.6223H33.6985C33.9158 22.8699 34.6097 24.0158 35.5181 24.9654C36.4348 25.9233 37.6457 26.7813 38.4725 27.0802V27.0802M37.9014 21.6223C38.1022 22.0495 38.3928 22.539 38.9446 23.0468C39.4378 23.5006 39.8658 23.7068 40.4333 24.0048C40.1271 24.6559 39.7729 25.2835 39.3736 25.8821C38.4473 25.416 37.6063 24.7972 36.8858 24.0515C36.2157 23.3466 35.6565 22.4923 35.3769 21.6223H37.9014V21.6223M35.31 2.57033C35.6767 2.18717 36.1066 1.925 36.817 1.74808C37.4212 2.11734 38.0011 2.52486 38.5532 2.96817C38.3634 3.036 37.2057 3.179 35.9407 5.17C35.2623 6.237 34.8563 6.97767 34.1816 7.86042C33.4831 8.77525 32.5591 9.54525 31.4334 9.75058V7.41767C32.3244 7.20958 32.7626 6.53217 33.2154 5.70808C33.7728 4.69517 34.5263 3.38617 35.31 2.57033V2.57033M42.273 6.80808C42.5691 7.20408 43.0045 7.86225 43.3473 8.45808C42.9687 8.58601 42.6181 8.78514 42.3143 9.04475C41.0823 10.0833 40.6065 11.2512 39.7705 12.3842C39.457 12.8086 38.874 13.3953 38.4569 13.6455H35.5208C36.6153 13.2889 37.3413 12.3448 38.2113 11.1696C39.072 10.0072 39.9438 8.55342 40.6276 7.91175C41.1748 7.39933 41.4948 7.12067 42.273 6.80808V6.80808M39.8072 4.00217C40.3093 4.4752 40.7866 4.97392 41.2372 5.49633C40.5955 5.67875 39.5863 6.48175 39.1435 7.04733C37.7722 8.79817 36.2423 11.1568 35.3879 11.9158C34.5409 12.6683 33.2732 13.5062 31.4334 13.6455V11.3758C35.0515 10.9349 35.9242 7.645 37.8134 5.41567C38.3561 4.774 39.2865 4.02783 39.8063 4.00217H39.8072M12.6234 9.72308C12.2448 9.35183 11.9854 8.91733 11.8113 8.19867C12.1758 7.58829 12.5787 7.00167 13.0176 6.44233C13.0845 6.63483 13.2257 7.8045 15.1938 9.086C16.2479 9.77167 16.9813 10.1823 17.8539 10.8643C18.7578 11.5711 19.5186 12.5052 19.7221 13.6455L17.4167 13.6446C17.2104 12.7435 16.5413 12.3008 15.7263 11.8415C14.7253 11.2787 13.431 10.5151 12.6243 9.724L12.6234 9.72308M16.8126 2.67942C17.3365 2.28785 17.8812 1.92493 18.4443 1.59225C18.4965 1.76183 18.6606 2.19542 19.0245 2.63725C20.0512 3.88392 21.2053 4.36517 22.3245 5.21125C22.7443 5.52842 23.3246 6.11692 23.5712 6.54042V9.51042C23.2192 8.40217 22.286 7.66792 21.1237 6.78792C19.9751 5.91708 18.5387 5.03617 17.9043 4.34317C17.3983 3.79042 17.1215 3.46683 16.8135 2.67942H16.8126M14.0415 5.17458C14.4934 4.68508 15.0178 4.16533 15.5192 3.72808C15.6988 4.37617 16.4927 5.39642 17.0518 5.84558C18.7816 7.23158 21.1136 8.77983 21.8643 9.64425C22.6087 10.5013 23.4364 11.7838 23.5739 13.6455H21.3299C20.8945 9.98525 17.6422 9.10158 15.4385 7.19125C14.8051 6.64125 14.0672 5.70075 14.0415 5.17458V5.17458M19.4242 21.6223C18.5579 22.1118 17.8576 22.7865 17.16 23.6225C16.4267 24.5025 15.9308 25.2963 15.6438 25.9013C15.2051 25.2758 14.8194 24.6147 14.4907 23.925C14.7235 23.4868 15.0883 22.9909 15.4073 22.6068C15.7113 22.2481 16.0486 21.9191 16.4148 21.6242L19.4233 21.6233L19.4242 21.6223M18.1775 28.7109C17.6358 28.2488 17.1279 27.7486 16.6577 27.214C16.9923 26.5228 17.7843 25.2285 19.0511 23.9461C20.3069 22.6774 21.868 21.6517 23.5739 21.6223V23.8819C22.3392 24.1019 21.2071 24.8032 20.2684 25.7226C19.3215 26.6493 18.4727 27.8749 18.1784 28.7109H18.1775" fill="white"/>
</g>
<defs>
<clipPath id="clip0_7642_32579">
<rect width="55" height="55" fill="white"/>
</clipPath>
</defs>
</svg>
