<svg width="55" height="55" viewBox="0 0 55 55" fill="none" xmlns="http://www.w3.org/2000/svg">
<g clip-path="url(#clip0_7642_32430)">
<path fill-rule="evenodd" clip-rule="evenodd" d="M55 46.267C55 47.5467 53.9798 48.5834 52.7212 48.5834H2.27975C1.02025 48.5834 0 47.5467 0 46.267V8.73316C0 7.45441 1.02025 6.41675 2.27975 6.41675H52.7212C53.9798 6.41675 55 7.45441 55 8.73316V46.267V46.267" fill="none"/>
<path fill-rule="evenodd" clip-rule="evenodd" d="M23.7499 17.2655C25.6786 18.3664 24.7867 16.1031 25.8876 14.1745C26.7218 12.7124 28.7494 11.3786 28.8154 11.3777C29.051 11.3704 31.1071 12.8691 31.2492 13.0231C31.295 13.0735 30.0053 13.7115 29.051 14.7318C28.3324 15.5 27.9006 16.148 26.6494 18.1684C26.1498 18.9741 25.5274 19.7505 25.1433 20.1163C24.7601 20.482 23.7499 21.2988 23.7499 21.2988V17.2655V17.2655" fill="#FFFFFF"/>
<path fill-rule="evenodd" clip-rule="evenodd" d="M23.7499 23.7793V21.6664C24.4319 22.2971 25.2386 20.6031 25.8693 19.9211C26.5054 19.2317 27.2534 18.0831 27.7246 17.3031C28.1958 16.5221 29.029 15.2681 29.4562 14.7153C30.107 13.8729 31.6993 12.618 31.8111 12.618C32.0045 12.618 33.6939 14.532 33.7498 14.6841C33.7718 14.7446 32.3785 15.7108 31.8661 16.3525C31.3867 16.9547 30.5342 18.2353 30.3426 18.5891C30.0098 19.2015 29.359 20.3033 28.9859 20.7781C28.644 21.2117 27.8768 22.0496 27.3643 22.4776C27.0279 22.7591 25.8408 23.7793 25.8408 23.7793H23.7508H23.7499M27.5 23.7793C27.9822 24.2981 28.8503 22.7306 29.3691 22.2485C30.0483 21.6169 30.6992 20.6764 31.2235 19.8477C31.6928 19.1052 32.285 18.2188 32.7525 17.7421C33.2484 17.2361 34.5932 16.3525 34.7343 16.3378C34.8764 16.3241 36.2331 18.4736 36.2496 18.5561C36.2633 18.6267 35.3714 19.2867 34.7628 20.0595C34.2485 20.7112 33.5454 21.7021 33.2063 22.1651C32.8653 22.628 32.7268 22.7426 32.4418 23.0496C32.087 23.4282 31.6195 23.7646 31.6195 23.7646L27.5 23.7802V23.7793M8.943 23.7793C10.0338 22.078 7.91725 22.7499 6.21592 21.6591C4.92708 20.8313 3.75192 18.8192 3.75008 18.7532C3.74367 18.5195 5.0655 16.479 5.20117 16.3396C5.24608 16.2938 5.80892 17.5726 6.70817 18.5195C7.3865 19.2326 7.95758 19.6607 9.73867 20.9028C10.45 21.3978 11.1338 22.0156 11.4574 22.397C11.7792 22.7774 12.4997 23.7793 12.4997 23.7793H8.943V23.7793M16.2498 23.7793H14.3568C15.0599 23.1688 13.4035 22.1174 12.793 21.4143C12.1761 20.703 11.1467 19.8679 10.4473 19.3426C9.74783 18.8165 8.62308 17.8861 8.129 17.4103C7.37458 16.6834 6.24983 14.906 6.24983 14.7822C6.24983 14.5659 7.964 12.6794 8.1015 12.618C8.15558 12.5932 9.02092 14.1488 9.59658 14.7208C10.1356 15.2552 11.2833 16.2058 11.5995 16.4203C12.1486 16.7916 13.1358 17.5185 13.5612 17.9356C13.9489 18.3169 14.6997 19.1731 15.0828 19.7441C15.3358 20.12 16.2498 21.4446 16.2498 21.4446V23.7793V23.7793" fill="#FFFFFF"/>
<path fill-rule="evenodd" clip-rule="evenodd" d="M16.2498 20.0586C16.7649 19.5728 15.1928 18.7194 14.707 18.2042C14.0708 17.5305 13.1221 16.8842 12.287 16.3645C11.539 15.8979 10.6462 15.3103 10.1649 14.8474C9.65526 14.3551 8.76426 13.0205 8.74959 12.8802C8.73584 12.74 10.901 11.3934 10.9863 11.3769C11.0559 11.3631 11.7214 12.2477 12.4997 12.8527C13.1578 13.3624 14.1552 14.0609 14.6218 14.3973C15.0893 14.7346 15.2057 14.8721 15.5137 15.1563C15.8959 15.5074 16.236 15.9712 16.236 15.9712L16.2498 20.0586V20.0586M2.49976 31.2209H38.7503V25.0196H2.49976V31.2209" fill="#FFFFFF"/>
<path fill-rule="evenodd" clip-rule="evenodd" d="M17.5001 46.1029H23.7499V10.1375H17.5001V46.1029" fill="#FFFFFF"/>
<path fill-rule="evenodd" clip-rule="evenodd" d="M33.781 45.4879L29.2417 38.8888L33.781 32.2613V45.4888V45.4879M45.6335 31.2209L43.6829 38.3361L41.7184 31.2209H26.8006L22.5005 39.4049L26.7997 46.103H39.8457V38.6376L41.9311 46.103H45.4346L47.6557 38.6376V46.103H53.7515V31.2218H45.6344L45.6335 31.2209M17.0739 31.8332C15.1525 28.899 8.7496 30.2511 5.81535 32.1724C3.66027 33.5841 3.7501 35.6594 3.7501 36.9024C3.7501 38.656 4.6576 40.2849 6.59177 40.6406C10.1484 41.2951 11.4574 40.5315 11.4574 41.4876C11.4574 42.3401 10.8735 42.2126 8.77435 42.088C6.89335 41.9761 4.08285 41.4591 4.08285 41.4591L4.07827 45.3825C4.49444 49.2444 8.69827 46.4211 12.5602 46.0049C15.3844 45.7006 17.5001 44.1028 17.5001 41.2483C17.5001 39.2894 17.1032 37.0307 14.1149 36.929C10.4849 36.8061 10.0274 36.9858 10.0274 36.181C10.0274 35.4843 10.5985 35.587 13.4008 35.6502C15.2992 35.6933 17.0739 36.0114 17.0739 36.0114V31.8332V31.8332" fill="#FFFFFF"/>
</g>
<defs>
<clipPath id="clip0_7642_32430">
<rect width="55" height="55" fill="white"/>
</clipPath>
</defs>
</svg>
