<svg width="72px" height="72px" viewBox="0 0 20 20" fill="none" xmlns="http://www.w3.org/2000/svg">
    <g clip-path="url(#clip0_7340_11282)">
        <path
            d="M11.4413 17.5002C11.2948 17.7527 11.0845 17.9624 10.8315 18.1081C10.5785 18.2538 10.2917 18.3305 9.99967 18.3305C9.70769 18.3305 9.42083 18.2538 9.16782 18.1081C8.91481 17.9624 8.70452 17.7527 8.55801 17.5002M15.5247 10.8335C15.1539 9.47634 14.9772 8.07353 14.9997 6.66683C15.001 5.76105 14.7563 4.87192 14.2916 4.09441C13.827 3.31689 13.1598 2.68021 12.3614 2.25236C11.5631 1.82451 10.6635 1.62157 9.75876 1.66522C8.85403 1.70886 7.97815 1.99745 7.22467 2.50016M5.21634 5.21683C5.07156 5.68651 4.99852 6.17535 4.99967 6.66683C4.99967 12.5002 2.49967 14.1668 2.49967 14.1668H14.1663M0.833008 0.833496L19.1663 19.1668"
            stroke="#1B1B1C" stroke-width="1" stroke-linecap="round" stroke-linejoin="round" />
    </g>
    <defs>
        <clipPath id="clip0_7340_11282">
            <rect width="72px" height="72px" fill="white" />
        </clipPath>
    </defs>
</svg>