<svg width="121" height="2348" viewBox="0 0 121 2348" fill="none" xmlns="http://www.w3.org/2000/svg">
<path d="M62.4992 113.6C93.3167 113.6 118.299 88.6175 118.299 57.8C118.299 26.9825 93.3167 2 62.4992 2C31.6817 2 6.69922 26.9825 6.69922 57.8C6.69922 88.6175 31.6817 113.6 62.4992 113.6Z" fill="white" stroke="#242526" stroke-width="4" stroke-miterlimit="10" stroke-linecap="round" stroke-linejoin="round"/>
<path d="M71.8004 87.8999H53.2004L38.9004 89.6999L46.3004 92.8999L62.5004 92.5999L78.7004 92.8999L86.1004 89.6999L71.8004 87.8999Z" fill="#1D1D1B" stroke="#232526" stroke-width="3.5068" stroke-miterlimit="10" stroke-linecap="round" stroke-linejoin="round"/>
<path d="M77.9004 31.7998L100.2 35.0998" stroke="#232526" stroke-width="4" stroke-miterlimit="10" stroke-linecap="round" stroke-linejoin="round"/>
<path d="M47.1008 31.7998L24.8008 35.0998" stroke="#232526" stroke-width="4" stroke-miterlimit="10" stroke-linecap="round" stroke-linejoin="round"/>
<path d="M28.5 51.3999L54.4 61.0999L27.5 63.5999" stroke="#232526" stroke-width="4" stroke-miterlimit="10" stroke-linecap="round" stroke-linejoin="round"/>
<path d="M96.4996 51.3999L70.5996 61.0999L97.4996 63.5999" stroke="#232526" stroke-width="4" stroke-miterlimit="10" stroke-linecap="round" stroke-linejoin="round"/>
<path d="M62.4992 351.6C93.3167 351.6 118.299 326.617 118.299 295.8C118.299 264.983 93.3167 240 62.4992 240C31.6817 240 6.69922 264.983 6.69922 295.8C6.69922 326.617 31.6817 351.6 62.4992 351.6Z" fill="white" stroke="#242526" stroke-width="4" stroke-miterlimit="10" stroke-linecap="round" stroke-linejoin="round"/>
<path d="M83.4004 265.1L73.9004 272.8L96.2004 273.1" stroke="#232526" stroke-width="4" stroke-miterlimit="10" stroke-linecap="round" stroke-linejoin="round"/>
<path d="M41.6008 265.1L51.1008 272.8L28.8008 273.1" stroke="#232526" stroke-width="4" stroke-miterlimit="10" stroke-linecap="round" stroke-linejoin="round"/>
<path d="M27.5 294.4L54.4 294.1L27.5 301.6" stroke="#232526" stroke-width="4" stroke-miterlimit="10" stroke-linecap="round" stroke-linejoin="round"/>
<path d="M97.4996 294.4L70.5996 294.1L97.4996 301.6" stroke="#232526" stroke-width="4" stroke-miterlimit="10" stroke-linecap="round" stroke-linejoin="round"/>
<path d="M45.9004 324.4C51.2004 321.5 57.0004 320.2 62.7004 320.4C68.4004 320.5 72.5004 321.6 78.8004 324.3L45.9004 324.4Z" fill="#232526" stroke="#232526" stroke-width="2.6155" stroke-miterlimit="10" stroke-linecap="round" stroke-linejoin="round"/>
<path d="M62.4992 1631.6C93.3167 1631.6 118.299 1606.62 118.299 1575.8C118.299 1544.98 93.3167 1520 62.4992 1520C31.6817 1520 6.69922 1544.98 6.69922 1575.8C6.69922 1606.62 31.6817 1631.6 62.4992 1631.6Z" fill="white" stroke="#242526" stroke-width="4" stroke-miterlimit="10" stroke-linecap="round" stroke-linejoin="round"/>
<path d="M46.0996 1600.4C51.3996 1603.3 57.1996 1604.6 62.8996 1604.4C68.5996 1604.2 72.6996 1603.2 78.9996 1600.5L46.0996 1600.4Z" fill="#232526" stroke="#232526" stroke-width="2.6155" stroke-miterlimit="10" stroke-linecap="round" stroke-linejoin="round"/>
<path d="M102.1 1573C102.1 1575.8 97.1996 1578 93.0996 1578C88.9996 1578 83.0996 1575.8 83.0996 1573" stroke="#232526" stroke-width="4" stroke-miterlimit="10" stroke-linecap="round" stroke-linejoin="round"/>
<path d="M41.9004 1573C41.9004 1575.8 37.0004 1578 32.9004 1578C28.8004 1578 22.9004 1575.8 22.9004 1573" stroke="#232526" stroke-width="4" stroke-miterlimit="10" stroke-linecap="round" stroke-linejoin="round"/>
<path d="M41.4992 1540.9C36.4992 1543.5 32.0992 1547.2 28.6992 1551.7" stroke="#232526" stroke-width="4" stroke-miterlimit="10" stroke-linecap="round" stroke-linejoin="round"/>
<path d="M83.5 1540.9C88.5 1543.5 92.9 1547.2 96.3 1551.7" stroke="#232526" stroke-width="4" stroke-miterlimit="10" stroke-linecap="round" stroke-linejoin="round"/>
<path d="M62.4992 1850.6C93.3167 1850.6 118.299 1825.62 118.299 1794.8C118.299 1763.98 93.3167 1739 62.4992 1739C31.6817 1739 6.69922 1763.98 6.69922 1794.8C6.69922 1825.62 31.6817 1850.6 62.4992 1850.6Z" fill="white" stroke="#242526" stroke-width="4" stroke-miterlimit="10" stroke-linecap="round" stroke-linejoin="round"/>
<path d="M43 1817.9C46.3 1824.8 54.5 1829.7 62.7 1829.7C70.7 1829.7 78.8 1824.7 82.1 1817.9" fill="white"/>
<path d="M43 1817.9C46.3 1824.8 54.5 1829.7 62.7 1829.7C70.7 1829.7 78.8 1824.7 82.1 1817.9" stroke="#232526" stroke-width="4" stroke-miterlimit="10" stroke-linecap="round" stroke-linejoin="round"/>
<path d="M102.1 1790.5C102.1 1793.3 97.1996 1795.5 93.0996 1795.5C88.9996 1795.5 83.0996 1793.3 83.0996 1790.5" stroke="#232526" stroke-width="4" stroke-miterlimit="10" stroke-linecap="round" stroke-linejoin="round"/>
<path d="M41.9004 1790.5C41.9004 1793.3 37.0004 1795.5 32.9004 1795.5C28.8004 1795.5 22.9004 1793.3 22.9004 1790.5" stroke="#232526" stroke-width="4" stroke-miterlimit="10" stroke-linecap="round" stroke-linejoin="round"/>
<path d="M42 1759.9C35.1 1763.4 29.1 1768.5 24.5 1774.7" stroke="#232526" stroke-width="4" stroke-miterlimit="10" stroke-linecap="round" stroke-linejoin="round"/>
<path d="M83 1759.9C89.9 1763.4 95.9 1768.5 100.5 1774.7" stroke="#232526" stroke-width="4" stroke-miterlimit="10" stroke-linecap="round" stroke-linejoin="round"/>
<path d="M62.4992 2094.6C93.3167 2094.6 118.299 2069.62 118.299 2038.8C118.299 2007.98 93.3167 1983 62.4992 1983C31.6817 1983 6.69922 2007.98 6.69922 2038.8C6.69922 2069.62 31.6817 2094.6 62.4992 2094.6Z" fill="white" stroke="#242526" stroke-width="4" stroke-miterlimit="10" stroke-linecap="round" stroke-linejoin="round"/>
<path d="M102.1 2032.5C102.1 2035.3 97.1996 2037.5 93.0996 2037.5C88.9996 2037.5 83.0996 2035.3 83.0996 2032.5" stroke="#232526" stroke-width="4" stroke-miterlimit="10" stroke-linecap="round" stroke-linejoin="round"/>
<path d="M41.9004 2032.5C41.9004 2035.3 37.0004 2037.5 32.9004 2037.5C28.8004 2037.5 22.9004 2035.3 22.9004 2032.5" stroke="#232526" stroke-width="4" stroke-miterlimit="10" stroke-linecap="round" stroke-linejoin="round"/>
<path d="M40.1992 2003.9C31.9992 2008.1 24.6992 2014.3 19.1992 2021.7" stroke="#232526" stroke-width="4" stroke-miterlimit="10" stroke-linecap="round" stroke-linejoin="round"/>
<path d="M84.7988 2003.9C93.0988 2008.1 100.299 2014.3 105.899 2021.7" stroke="#232526" stroke-width="4" stroke-miterlimit="10" stroke-linecap="round" stroke-linejoin="round"/>
<path d="M97.2992 2052.8C91.4992 2065.2 76.8992 2073.7 62.2992 2073.7C47.9992 2073.7 33.6992 2064.7 27.6992 2052.8" stroke="#232526" stroke-width="4" stroke-miterlimit="10" stroke-linecap="round" stroke-linejoin="round"/>
<path d="M62.4992 570.6C93.3167 570.6 118.299 545.617 118.299 514.8C118.299 483.983 93.3167 459 62.4992 459C31.6817 459 6.69922 483.983 6.69922 514.8C6.69922 545.617 31.6817 570.6 62.4992 570.6Z" fill="white" stroke="#242526" stroke-width="4" stroke-miterlimit="10" stroke-linecap="round" stroke-linejoin="round"/>
<path d="M39.8992 516.3C39.8992 521.6 35.5992 525.9 30.2992 525.9C24.9992 525.9 20.6992 521.6 20.6992 516.3" stroke="#242526" stroke-width="4" stroke-miterlimit="10" stroke-linecap="round" stroke-linejoin="round"/>
<path d="M57 554.1H68.1" stroke="#242526" stroke-width="4" stroke-miterlimit="10" stroke-linecap="round" stroke-linejoin="round"/>
<path d="M62.4992 789.6C93.3167 789.6 118.299 764.617 118.299 733.8C118.299 702.983 93.3167 678 62.4992 678C31.6817 678 6.69922 702.983 6.69922 733.8C6.69922 764.617 31.6817 789.6 62.4992 789.6Z" fill="white" stroke="#242526" stroke-width="4" stroke-miterlimit="10" stroke-linecap="round" stroke-linejoin="round"/>
<path d="M49.1992 759.8H75.7992" stroke="#242526" stroke-width="4" stroke-miterlimit="10" stroke-linecap="round" stroke-linejoin="round"/>
<path d="M36.3996 726.2C44.0211 726.2 50.1996 720.021 50.1996 712.4C50.1996 704.778 44.0211 698.6 36.3996 698.6C28.7781 698.6 22.5996 704.778 22.5996 712.4C22.5996 720.021 28.7781 726.2 36.3996 726.2Z" stroke="#242526" stroke-width="4" stroke-miterlimit="10"/>
<path d="M88.6008 726.2C96.2223 726.2 102.401 720.021 102.401 712.4C102.401 704.778 96.2223 698.6 88.6008 698.6C80.9792 698.6 74.8008 704.778 74.8008 712.4C74.8008 720.021 80.9792 726.2 88.6008 726.2Z" stroke="#242526" stroke-width="4" stroke-miterlimit="10"/>
<path d="M50.1004 706.2C50.1004 709.3 47.6004 711.8 44.5004 711.8C41.4004 711.8 38.9004 709.3 38.9004 706.2C38.9004 703.1 41.4004 700.6 44.5004 700.6C47.5004 700.6 50.1004 703.1 50.1004 706.2Z" fill="#242526"/>
<path d="M62.4992 2338.6C93.3167 2338.6 118.299 2313.62 118.299 2282.8C118.299 2251.98 93.3167 2227 62.4992 2227C31.6817 2227 6.69922 2251.98 6.69922 2282.8C6.69922 2313.62 31.6817 2338.6 62.4992 2338.6Z" fill="white" stroke="#242526" stroke-width="4" stroke-miterlimit="10" stroke-linecap="round" stroke-linejoin="round"/>
<path d="M39.3008 2280.8C47.1008 2280.7 59.2008 2284.4 64.1008 2288.1" stroke="#242526" stroke-width="4" stroke-miterlimit="10" stroke-linecap="round" stroke-linejoin="round"/>
<path d="M47.3992 2253.8C47.3992 2256.9 44.8992 2259.4 41.7992 2259.4C38.6992 2259.4 36.1992 2256.9 36.1992 2253.8C36.1992 2250.7 38.6992 2248.2 41.7992 2248.2C44.8992 2248.2 47.3992 2250.7 47.3992 2253.8Z" fill="#242526"/>
<path d="M79.3992 2265.1C79.3992 2268.2 76.8992 2270.7 73.7992 2270.7C70.6992 2270.7 68.1992 2268.2 68.1992 2265.1C68.1992 2262 70.6992 2259.5 73.7992 2259.5C76.8992 2259.5 79.3992 2262 79.3992 2265.1Z" fill="#242526"/>
<path d="M27.6992 2239.6C36.7992 2233.4 50.4992 2235.3 57.4992 2243.8" stroke="#242526" stroke-width="4" stroke-miterlimit="10" stroke-linecap="round" stroke-linejoin="round"/>
<path d="M71.1992 2253.8H97.9992" stroke="#242526" stroke-width="4" stroke-miterlimit="10" stroke-linecap="round" stroke-linejoin="round"/>
<path d="M62.1 2299L27.3 2307.1C27.3 2307.1 20.8 2308.2 15.3 2312.2L14 2305.6C13 2300.2 8.2 2296.3 2.8 2296.3H2L8.1 2327.3C8.8 2337.2 17 2345.1 27.1 2345.1C37.6 2345.1 46.2 2336.6 46.2 2326C46.2 2321.4 44.6 2317.2 41.9 2313.9L53.3 2311.2C58.6 2310 62.4 2305.1 62.2 2299.6L62.1 2299Z" fill="white" stroke="#242526" stroke-width="4" stroke-miterlimit="10" stroke-linecap="round" stroke-linejoin="round"/>
<path d="M28.6992 2317.2L41.7992 2314" stroke="#242526" stroke-width="4" stroke-miterlimit="10" stroke-linecap="round" stroke-linejoin="round"/>
<path d="M30.6992 2326.6L43.7992 2323.4" stroke="#242526" stroke-width="4" stroke-miterlimit="10" stroke-linecap="round" stroke-linejoin="round"/>
<path d="M62.4992 989.6C93.3167 989.6 118.299 964.617 118.299 933.8C118.299 902.982 93.3167 878 62.4992 878C31.6817 878 6.69922 902.982 6.69922 933.8C6.69922 964.617 31.6817 989.6 62.4992 989.6Z" fill="white" stroke="#242526" stroke-width="4" stroke-miterlimit="10" stroke-linecap="round" stroke-linejoin="round"/>
<path d="M45 951.7C53.2 956.9 70.6 954.6 76.8 953.1" stroke="#242526" stroke-width="4" stroke-miterlimit="10" stroke-linecap="round" stroke-linejoin="round"/>
<path d="M45.0001 924C45.7001 927 43.9001 930 40.8001 930.8C37.8001 931.5 34.8001 929.7 34.0001 926.6C33.3001 923.6 35.1001 920.6 38.2001 919.8C41.3001 919 44.3001 921 45.0001 924Z" fill="#242526"/>
<path d="M24.0996 909.8C31.4996 906.3 40.8996 906.8 47.4996 911.8" stroke="#242526" stroke-width="4" stroke-miterlimit="10" stroke-linecap="round" stroke-linejoin="round"/>
<path d="M73.6992 914.3C82.3992 910.9 91.0992 911 99.7992 914.8" stroke="#242526" stroke-width="4" stroke-miterlimit="10" stroke-linecap="round" stroke-linejoin="round"/>
<path d="M62.4992 1186.6C93.3167 1186.6 118.299 1161.62 118.299 1130.8C118.299 1099.98 93.3167 1075 62.4992 1075C31.6817 1075 6.69922 1099.98 6.69922 1130.8C6.69922 1161.62 31.6817 1186.6 62.4992 1186.6Z" fill="white" stroke="#242526" stroke-width="4" stroke-miterlimit="10" stroke-linecap="round" stroke-linejoin="round"/>
<path d="M73.6992 1165.4C82.5992 1163.7 90.6992 1158.2 95.5992 1150.6" stroke="#242526" stroke-width="4" stroke-miterlimit="10" stroke-linecap="round" stroke-linejoin="round"/>
<path d="M45.1004 1132.8C45.1004 1135.9 42.6004 1138.4 39.5004 1138.4C36.4004 1138.4 33.9004 1135.9 33.9004 1132.8C33.9004 1129.7 36.4004 1127.2 39.5004 1127.2C42.6004 1127.2 45.1004 1129.7 45.1004 1132.8Z" fill="#242526"/>
<path d="M20.1992 1130.1C24.5992 1127.5 35.6992 1126.2 41.3992 1129.4" stroke="#242526" stroke-width="4" stroke-miterlimit="10" stroke-linecap="round" stroke-linejoin="round"/>
<path d="M76.3008 1130.1C80.7008 1127.5 91.8008 1126.2 97.5008 1129.4" stroke="#242526" stroke-width="4" stroke-miterlimit="10" stroke-linecap="round" stroke-linejoin="round"/>
<path d="M62.4992 1410.6C93.3167 1410.6 118.299 1385.62 118.299 1354.8C118.299 1323.98 93.3167 1299 62.4992 1299C31.6817 1299 6.69922 1323.98 6.69922 1354.8C6.69922 1385.62 31.6817 1410.6 62.4992 1410.6Z" fill="white" stroke="#242526" stroke-width="4" stroke-miterlimit="10" stroke-linecap="round" stroke-linejoin="round"/>
<path d="M97.2992 1375.8C91.4992 1388.2 76.8992 1396.7 62.2992 1396.7C47.9992 1396.7 33.6992 1387.7 27.6992 1375.8" stroke="#242526" stroke-width="4" stroke-miterlimit="10" stroke-linecap="round" stroke-linejoin="round"/>
<path d="M45.1004 1356.8C45.1004 1359.9 42.6004 1362.4 39.5004 1362.4C36.4004 1362.4 33.9004 1359.9 33.9004 1356.8C33.9004 1353.7 36.4004 1351.2 39.5004 1351.2C42.6004 1351.2 45.1004 1353.7 45.1004 1356.8Z" fill="#242526"/>
<path d="M20.1992 1354.1C24.5992 1351.5 35.6992 1350.2 41.3992 1353.4" stroke="#242526" stroke-width="4" stroke-miterlimit="10" stroke-linecap="round" stroke-linejoin="round"/>
<path d="M76.3008 1354.1C80.7008 1351.5 91.8008 1350.2 97.5008 1353.4" stroke="#242526" stroke-width="4" stroke-miterlimit="10" stroke-linecap="round" stroke-linejoin="round"/>
</svg>
