<svg xmlns="http://www.w3.org/2000/svg" viewBox="0 0 100 100" style="enable-background:new 0 0 100 100;">
  <g>
    <ellipse cx="26.1" cy="58.8" rx="8" ry="8"/>
    <path d="M23.1,69c-4.3,0-7.9,3.2-8.4,7.5l-0.8,6.9c-0.1,0.9,0.5,1.7,1.3,1.9c3.4,0.7,7.1,1.1,10.8,1.1c1.3,0,2.6,0,3.8-0.1c0-0.1,0-0.3,0-0.4l1-8.6c0.3-2.6,1.2-5,2.7-7C32.3,69.5,30.7,69,29,69H23.1z"/>
    <circle cx="73.9" cy="58.8" r="8"/>
    <path d="M76.9,69H71c-1.7,0-3.2,0.5-4.6,1.3c1.4,2,2.3,4.4,2.6,7l1,8.6c0,0.1,0,0.3,0,0.4c1.2,0.1,2.5,0.1,3.8,0.1c3.8,0,7.5-0.4,10.9-1.1c0.9-0.2,1.5-1,1.4-1.9l-0.9-6.9C84.8,72.2,81.2,69,76.9,69z"/>
    <path d="M53.7,68.6h-7.4c-5.3,0-9.8,4-10.4,9.3l-1,8.6c-0.1,1.1,0.6,2.2,1.7,2.4c4.2,0.9,8.8,1.4,13.5,1.4c4.7,0,9.2-0.5,13.5-1.4c1.1-0.2,1.8-1.3,1.7-2.4l-1-8.6C63.5,72.6,59,68.6,53.7,68.6z"/>
    <circle cx="50" cy="56" r="9.9"/>
    <path d="M95.5,43.5l-12.6-9.7V16.2c0-1-0.8-1.8-1.8-1.8h-6.9c-1,0-1.8,0.8-1.8,1.8v9.5L53.2,10.9c-1.9-1.5-4.5-1.5-6.4,0L4.5,43.5c-2.3,1.8-2.7,5.1-0.9,7.3c1.8,2.3,5.1,2.7,7.3,0.9L50,21.6l39.1,30.1c1,0.7,2.1,1.1,3.2,1.1c1.6,0,3.1-0.7,4.2-2C98.2,48.5,97.8,45.2,95.5,43.5z"/>
  </g>
</svg>
