<svg preserveAspectRatio="none" width="100%" height="100%" overflow="visible" style="display: block;" viewBox="0 0 26.6667 33.3333" fill="none" xmlns="http://www.w3.org/2000/svg">
<path id="hourglass_top" d="M6.66667 30H20V25C20 23.1667 19.3472 21.5972 18.0417 20.2917C16.7361 18.9861 15.1667 18.3333 13.3333 18.3333C11.5 18.3333 9.93056 18.9861 8.625 20.2917C7.31944 21.5972 6.66667 23.1667 6.66667 25V30ZM0 33.3333V30H3.33333V25C3.33333 23.3056 3.72917 21.7153 4.52083 20.2292C5.3125 18.7431 6.41667 17.5556 7.83333 16.6667C6.41667 15.7778 5.3125 14.5903 4.52083 13.1042C3.72917 11.6181 3.33333 10.0278 3.33333 8.33333V3.33333H0V0H26.6667V3.33333H23.3333V8.33333C23.3333 10.0278 22.9375 11.6181 22.1458 13.1042C21.3542 14.5903 20.25 15.7778 18.8333 16.6667C20.25 17.5556 21.3542 18.7431 22.1458 20.2292C22.9375 21.7153 23.3333 23.3056 23.3333 25V30H26.6667V33.3333H0Z" fill="var(--fill-0, #650033)"/>
</svg>
