<svg width="20" height="20" viewBox="0 0 20 20" fill="none" xmlns="http://www.w3.org/2000/svg">
    <path
        d="M5.41656 10.0312C4.72834 8.8059 4.7312 7.30909 5.42515 6.08735C6.11911 4.86488 7.40241 4.09506 8.80748 4.05785C10.2126 4.02061 11.5346 4.72243 12.2916 5.90622L12.8645 6.86657C13.9874 8.73493 14.5811 10.8741 14.5832 13.0541V14.2708C14.5832 14.5874 14.8396 14.8437 15.1561 14.8437C15.4727 14.8437 15.7291 14.5874 15.7291 14.2708V13.0541C15.7291 10.6658 15.0795 8.32243 13.8514 6.27496L13.2784 5.3146C12.331 3.73478 10.6122 2.78019 8.77026 2.81026C6.92757 2.84105 5.24182 3.85226 4.34733 5.46292C3.45215 7.07354 3.4851 9.03866 4.43255 10.6192L5.00547 11.5817C5.2733 12.0257 5.41583 12.5349 5.41654 13.0541V14.2708C5.41654 14.5873 5.67292 14.8437 5.98946 14.8437C6.306 14.8437 6.56238 14.5873 6.56238 14.2708V13.0541C6.56238 12.3272 6.36401 11.6139 5.98946 10.9916L5.41656 10.0312Z"
        fill="#1B1B1C" />
    <path
        d="M11.3103 6.49464C10.784 5.61735 9.82935 5.08741 8.806 5.10389C7.78263 5.12108 6.84653 5.68326 6.3497 6.57773C5.8527 7.47219 5.87059 8.56433 6.39768 9.44232L6.9706 10.4027V10.402C7.45185 11.2026 7.70679 12.1193 7.70822 13.0539V15.4165C7.70822 15.733 7.9646 15.9894 8.28114 15.9894C8.59768 15.9894 8.85406 15.733 8.85406 15.4165V13.0539C8.85406 11.9116 8.54325 10.7915 7.95602 9.81181L7.3831 8.85145V8.85217C6.94482 8.04291 7.22125 7.03243 8.00973 6.55903C8.79822 6.08562 9.82015 6.31769 10.328 7.08468L10.9009 8.04361V8.04433C11.809 9.55683 12.2902 11.2884 12.2917 13.0537V15.4164C12.2917 15.7329 12.548 15.9893 12.8646 15.9893C13.1811 15.9893 13.4375 15.7329 13.4375 15.4164V13.0537C13.4375 11.0807 12.9011 9.14579 11.8863 7.45417L11.3103 6.49464Z"
        fill="#1B1B1C" />
    <path
        d="M9.34558 7.67412C9.26895 7.54092 9.14219 7.44424 8.99323 7.40558C8.84427 7.3669 8.686 7.38982 8.55424 7.46932C8.42247 7.54809 8.32793 7.677 8.29212 7.82667C8.25632 7.97634 8.2821 8.1339 8.36374 8.26423L8.93666 9.22316C9.63204 10.3797 9.99942 11.7038 10.0001 13.0539V17.1353C10.0001 17.4518 10.2565 17.7082 10.5731 17.7082C10.8896 17.7082 11.146 17.4518 11.146 17.1353V13.0539C11.146 11.4963 10.7227 9.96878 9.92136 8.63319L9.34558 7.67412Z"
        fill="#1B1B1C" />
    <path
        d="M1.40593 6.24984C1.55776 6.24984 1.70385 6.18969 1.81127 6.08226C1.91869 5.97484 1.97884 5.82875 1.97884 5.67693V2.81234H4.84343C5.15998 2.81234 5.41635 2.55597 5.41635 2.23942C5.41635 1.92288 5.15998 1.6665 4.84343 1.6665H1.40593C1.08938 1.6665 0.833008 1.92288 0.833008 2.23942V5.67693C0.833008 5.82875 0.893163 5.97485 1.00059 6.08226C1.10801 6.18969 1.25411 6.24984 1.40593 6.24984Z"
        fill="#1B1B1C" />
    <path
        d="M18.5934 1.6665H15.1559C14.8394 1.6665 14.583 1.92288 14.583 2.23942C14.583 2.55597 14.8394 2.81234 15.1559 2.81234H18.0205V5.67693C18.0205 5.99347 18.2769 6.24985 18.5934 6.24985C18.91 6.24985 19.1664 5.99347 19.1664 5.67693V2.23942C19.1664 2.0876 19.1062 1.9415 18.9988 1.83409C18.8914 1.72667 18.7453 1.6665 18.5934 1.6665Z"
        fill="#1B1B1C" />
    <path
        d="M4.84343 17.708H1.97884V14.8434C1.97884 14.5269 1.72247 14.2705 1.40593 14.2705C1.08938 14.2705 0.833008 14.5269 0.833008 14.8434V18.2809C0.833008 18.4328 0.893163 18.5789 1.00059 18.6863C1.10801 18.7937 1.2541 18.8538 1.40592 18.8538H4.84343C5.15997 18.8538 5.41634 18.5975 5.41634 18.2809C5.41634 17.9644 5.15998 17.708 4.84343 17.708Z"
        fill="#1B1B1C" />
    <path
        d="M18.5934 14.2705C18.2769 14.2705 18.0205 14.5269 18.0205 14.8434V17.708H15.1559C14.8394 17.708 14.583 17.9644 14.583 18.2809C14.583 18.5975 14.8394 18.8539 15.1559 18.8539H18.5934C18.7453 18.8539 18.8914 18.7937 18.9988 18.6863C19.1062 18.5789 19.1663 18.4328 19.1663 18.2809V14.8434C19.1663 14.6916 19.1062 14.5455 18.9988 14.4381C18.8913 14.3307 18.7453 14.2705 18.5934 14.2705Z"
        fill="#1B1B1C" />
</svg>