<svg width="32" height="32" viewBox="0 0 32 32" fill="none" xmlns="http://www.w3.org/2000/svg">
<path fill-rule="evenodd" clip-rule="evenodd" d="M15.9948 1.00391C9.94508 1.00391 5.00533 5.95265 5.00533 12.0013V16.0031C5.00533 19.079 3.8004 21.6788 3.31342 22.6528C2.33547 24.6127 3.8134 26.9926 6.00128 26.9926H11.099C11.563 29.2704 13.5889 30.9983 15.9988 30.9983C18.4086 30.9983 20.4345 29.2704 20.8985 26.9926H25.9962C28.1841 26.9926 29.6521 24.6087 28.6761 22.6528C28.1921 21.6828 26.9942 19.08 26.9942 16.0031V12.0013C26.9942 5.95165 22.0444 1.00391 15.9948 1.00391ZM15.9948 2.9958C20.9545 2.9958 25.0003 7.04059 25.0003 12.0013V16.0031C25.0003 19.5929 26.3622 22.4948 26.8902 23.5527C27.2402 24.2547 26.7792 25.0007 25.9962 25.0007H6.00128C5.21232 25.0007 4.74935 24.2577 5.10133 23.5537C5.6283 22.4968 6.99723 19.5939 6.99723 16.0031V12.0013C6.99723 7.03959 11.034 2.9958 15.9948 2.9958ZM15.9948 4.9957C12.135 4.9957 8.99713 8.14053 8.99713 12.0013C8.99713 12.2665 9.10248 12.5209 9.29001 12.7084C9.47753 12.8959 9.73187 13.0013 9.99708 13.0013C10.2623 13.0013 10.5166 12.8959 10.7041 12.7084C10.8917 12.5209 10.997 12.2665 10.997 12.0013C10.9924 11.3434 11.1184 10.6912 11.3679 10.0824C11.6173 9.47361 11.9852 8.92042 12.4501 8.45493C12.915 7.98944 13.4678 7.62092 14.0763 7.37075C14.6848 7.12058 15.3369 6.99374 15.9948 6.99759C16.2602 6.99759 16.5148 6.89214 16.7025 6.70442C16.8903 6.51671 16.9957 6.26211 16.9957 5.99665C16.9957 5.73118 16.8903 5.47658 16.7025 5.28887C16.5148 5.10115 16.2602 4.9957 15.9948 4.9957ZM9.99908 14.9992C9.73387 14.9992 9.47953 15.1045 9.29201 15.2921C9.10448 15.4796 8.99913 15.7339 8.99913 15.9991C8.99913 16.2643 9.10448 16.5187 9.29201 16.7062C9.47953 16.8937 9.73387 16.9991 9.99908 16.9991C10.2643 16.9991 10.5186 16.8937 10.7061 16.7062C10.8937 16.5187 10.999 16.2643 10.999 15.9991C10.999 15.7339 10.8937 15.4796 10.7061 15.2921C10.5186 15.1045 10.2643 14.9992 9.99908 14.9992ZM13.1789 26.9926H18.8186C18.6166 27.5793 18.2362 28.0882 17.7305 28.4479C17.2248 28.8076 16.6193 29.0001 15.9988 28.9984C15.3782 29.0001 14.7727 28.8076 14.267 28.4479C13.7614 28.0882 13.3809 27.5793 13.1789 26.9926Z" fill="#D34949"/>
</svg>
