<svg width="20" height="20" viewBox="0 0 20 20" fill="none" xmlns="http://www.w3.org/2000/svg">
    <path
        d="M11.3361 7.43581L11.2694 7.3997C11.8632 6.73511 12.0111 5.78302 11.6472 4.96982C11.2833 4.15594 10.475 3.63232 9.58338 3.63232C8.69178 3.63232 7.88337 4.15594 7.51954 4.96982C7.15565 5.78302 7.30358 6.73511 7.89732 7.3997L7.83066 7.43859C6.85703 8.04137 6.26606 9.10735 6.26955 10.2525C6.27927 10.733 6.55079 11.1705 6.97789 11.3914C7.58623 11.758 8.58623 11.9469 9.58341 11.9469C10.5806 11.9469 11.5806 11.7553 12.1889 11.3914C12.6125 11.1705 12.8834 10.7379 12.8973 10.2608C12.9049 9.11149 12.3132 8.04079 11.3361 7.43581ZM9.58331 4.74407C10.05 4.74268 10.4715 5.02323 10.6507 5.45449C10.8298 5.88574 10.7312 6.38228 10.4014 6.71213C10.0715 7.042 9.57499 7.14061 9.14373 6.96143C8.71247 6.78226 8.43192 6.36073 8.43331 5.89406C8.43331 5.25865 8.94787 4.74407 9.58331 4.74407ZM11.6 10.4358C10.7667 10.9664 8.41388 10.9664 7.56392 10.4358C7.43614 10.3553 7.38059 10.2858 7.38059 10.2497C7.37573 9.21915 8.09101 8.32472 9.09726 8.1025C9.4174 8.17681 9.74935 8.17681 10.0695 8.1025C10.3105 8.15528 10.541 8.24972 10.75 8.38028C11.3959 8.78167 11.7882 9.48932 11.7862 10.2498C11.7862 10.2804 11.7306 10.3553 11.6 10.4358Z"
        fill="#1B1B1C" />
    <path
        d="M17.7775 12.5023H15.6331V4.16895C15.6324 4.12798 15.6283 4.08701 15.6192 4.04673C15.6074 3.99812 15.5901 3.95159 15.5665 3.90784V3.8884C15.5415 3.84395 15.5095 3.80367 15.472 3.76895L12.4608 0.982802L12.4441 0.974469C12.4136 0.946691 12.3802 0.922385 12.3441 0.902246H12.3164C12.2754 0.873773 12.2302 0.851551 12.183 0.835579H12.1552C12.1309 0.832802 12.1073 0.832802 12.083 0.835579H4.08849C3.78154 0.835579 3.53293 1.08419 3.53293 1.39114V12.5023H1.38857C1.08161 12.5023 0.833008 12.7509 0.833008 13.0579C0.833008 13.3648 1.08161 13.6134 1.38857 13.6134H3.47195V15.2801C3.47195 15.587 3.72056 15.8357 4.02751 15.8357C4.33447 15.8357 4.58307 15.587 4.58307 15.2801V13.6134H7.083V15.2801C7.083 15.587 7.3316 15.8357 7.63855 15.8357C7.94551 15.8357 8.19411 15.587 8.19411 15.2801V13.6134H10.4163V15.2801C10.4163 15.587 10.665 15.8357 10.9719 15.8357C11.2789 15.8357 11.5275 15.587 11.5275 15.2801V13.6134H14.3053V15.2801C14.3053 15.587 14.5539 15.8357 14.8608 15.8357C15.1678 15.8357 15.4164 15.587 15.4164 15.2801V13.6134H17.7774C18.0844 13.6134 18.333 13.3648 18.333 13.0579C18.333 12.7509 18.0844 12.5023 17.7775 12.5023ZM12.6386 2.66335L13.6609 3.61336H12.6386V2.66335ZM4.64409 1.94668H11.5275V3.61336C11.5275 3.9078 11.6449 4.19045 11.8532 4.39879C12.0615 4.60712 12.3442 4.72448 12.6386 4.72448H14.522V12.5023H4.64427L4.64409 1.94668Z"
        fill="#1B1B1C" />
    <path
        d="M4.5828 18.0577V16.6688C4.5828 16.3619 4.33419 16.1133 4.02724 16.1133C3.72029 16.1133 3.47168 16.3619 3.47168 16.6688V18.0577C3.47168 18.3647 3.72029 18.6133 4.02724 18.6133C4.33419 18.6133 4.5828 18.3647 4.5828 18.0577Z"
        fill="#1B1B1C" />
    <path
        d="M8.19412 18.0577V16.6688C8.19412 16.3619 7.94552 16.1133 7.63857 16.1133C7.33161 16.1133 7.08301 16.3619 7.08301 16.6688V18.0577C7.08301 18.3647 7.33161 18.6133 7.63857 18.6133C7.94552 18.6133 8.19412 18.3647 8.19412 18.0577Z"
        fill="#1B1B1C" />
    <path
        d="M6.69412 17.6135V14.2802C6.69412 13.9732 6.44552 13.7246 6.13857 13.7246C5.83161 13.7246 5.58301 13.9732 5.58301 14.2802V17.6135C5.58301 17.9205 5.83161 18.1691 6.13857 18.1691C6.44552 18.1691 6.69412 17.9205 6.69412 17.6135Z"
        fill="#1B1B1C" />
    <path
        d="M11.5271 18.0577V16.6688C11.5271 16.3619 11.2785 16.1133 10.9716 16.1133C10.6646 16.1133 10.416 16.3619 10.416 16.6688V18.0577C10.416 18.3647 10.6646 18.6133 10.9716 18.6133C11.2785 18.6133 11.5271 18.3647 11.5271 18.0577Z"
        fill="#1B1B1C" />
    <path
        d="M9.86112 17.78V14.4467C9.86112 14.1397 9.61251 13.8911 9.30556 13.8911C8.99861 13.8911 8.75 14.1397 8.75 14.4467V17.78C8.75 18.087 8.99861 18.3356 9.30556 18.3356C9.61251 18.3356 9.86112 18.087 9.86112 17.78Z"
        fill="#1B1B1C" />
    <path
        d="M15.4158 18.0577V16.6688C15.4158 16.3619 15.1672 16.1133 14.8602 16.1133C14.5533 16.1133 14.3047 16.3619 14.3047 16.6688V18.0577C14.3047 18.3647 14.5533 18.6133 14.8602 18.6133C15.1672 18.6133 15.4158 18.3647 15.4158 18.0577Z"
        fill="#1B1B1C" />
    <path
        d="M13.4715 17.78V14.4467C13.4715 14.1397 13.2229 13.8911 12.9159 13.8911C12.609 13.8911 12.3604 14.1397 12.3604 14.4467V17.78C12.3604 18.087 12.609 18.3356 12.9159 18.3356C13.2229 18.3356 13.4715 18.087 13.4715 17.78Z"
        fill="#1B1B1C" />
</svg>