<svg preserveAspectRatio="none" width="100%" height="100%" overflow="visible" style="display: block;" viewBox="0 0 72 72" fill="none" xmlns="http://www.w3.org/2000/svg">
<g id="sentiment_calm">
<mask id="mask0_0_124" style="mask-type:alpha" maskUnits="userSpaceOnUse" x="0" y="0" width="72" height="72">
<rect id="Bounding box" width="72" height="72" fill="var(--fill-0, #D9D9D9)"/>
</mask>
<g mask="url(#mask0_0_124)">
<path id="sentiment_calm_2" d="M20.5 22.475C21.4333 21.4583 22.0833 20.25 22.45 18.85L19.55 18.15C19.3833 18.8833 19.0917 19.5417 18.675 20.125C18.2583 20.7083 17.7 21 17 21C16.3 21 15.7417 20.7083 15.325 20.125C14.9083 19.5417 14.6167 18.8833 14.45 18.15L11.55 18.85C11.9167 20.25 12.5667 21.4583 13.5 22.475C14.4333 23.4917 15.6 24 17 24C18.4 24 19.5667 23.4917 20.5 22.475ZM24 35C25.3 35 26.55 34.7083 27.75 34.125C28.95 33.5417 30.0667 32.6667 31.1 31.5L28.9 29.5C28.1667 30.3 27.3833 30.9083 26.55 31.325C25.7167 31.7417 24.8667 31.95 24 31.95C23.1333 31.95 22.2833 31.7417 21.45 31.325C20.6167 30.9083 19.8333 30.3 19.1 29.5L16.9 31.5C17.9667 32.6667 19.0917 33.5417 20.275 34.125C21.4583 34.7083 22.7 35 24 35ZM34.5 22.475C35.4333 21.4583 36.0833 20.25 36.45 18.85L33.55 18.15C33.3833 18.8833 33.0917 19.5417 32.675 20.125C32.2583 20.7083 31.7 21 31 21C30.3 21 29.7417 20.7083 29.325 20.125C28.9083 19.5417 28.6167 18.8833 28.45 18.15L25.55 18.85C25.9167 20.25 26.5667 21.4583 27.5 22.475C28.4333 23.4917 29.6 24 31 24C32.4 24 33.5667 23.4917 34.5 22.475ZM16.2 42.425C13.7667 41.375 11.65 39.95 9.85 38.15C8.05 36.35 6.625 34.2333 5.575 31.8C4.525 29.3667 4 26.7667 4 24C4 21.2333 4.525 18.6333 5.575 16.2C6.625 13.7667 8.05 11.65 9.85 9.85C11.65 8.05 13.7667 6.625 16.2 5.575C18.6333 4.525 21.2333 4 24 4C26.7667 4 29.3667 4.525 31.8 5.575C34.2333 6.625 36.35 8.05 38.15 9.85C39.95 11.65 41.375 13.7667 42.425 16.2C43.475 18.6333 44 21.2333 44 24C44 26.7667 43.475 29.3667 42.425 31.8C41.375 34.2333 39.95 36.35 38.15 38.15C36.35 39.95 34.2333 41.375 31.8 42.425C29.3667 43.475 26.7667 44 24 44C21.2333 44 18.6333 43.475 16.2 42.425ZM35.35 35.35C38.45 32.25 40 28.4667 40 24C40 19.5333 38.45 15.75 35.35 12.65C32.25 9.55 28.4667 8 24 8C19.5333 8 15.75 9.55 12.65 12.65C9.55 15.75 8 19.5333 8 24C8 28.4667 9.55 32.25 12.65 35.35C15.75 38.45 19.5333 40 24 40C28.4667 40 32.25 38.45 35.35 35.35Z" fill="var(--fill-0, #4C555F)"/>
</g>
</g>
</svg>
