<svg width="32" height="32" viewBox="0 0 32 32" fill="none" xmlns="http://www.w3.org/2000/svg">
<mask id="mask0_61104_6784" style="mask-type:alpha" maskUnits="userSpaceOnUse" x="0" y="0" width="32" height="32">
<rect width="32" height="32" fill="#D9D9D9"/>
</mask>
<g mask="url(#mask0_61104_6784)">
<path d="M6.66667 28C5.93333 28 5.30556 27.7389 4.78333 27.2167C4.26111 26.6944 4 26.0667 4 25.3333V6.66667C4 5.93333 4.26111 5.30556 4.78333 4.78333C5.30556 4.26111 5.93333 4 6.66667 4H25.3333C26.0667 4 26.6944 4.26111 27.2167 4.78333C27.7389 5.30556 28 5.93333 28 6.66667V25.3333C28 26.0667 27.7389 26.6944 27.2167 27.2167C26.6944 27.7389 26.0667 28 25.3333 28H6.66667ZM6.66667 25.3333H25.3333V21.3333H21.3333C20.6667 22.1778 19.8722 22.8333 18.95 23.3C18.0278 23.7667 17.0444 24 16 24C14.9556 24 13.9722 23.7667 13.05 23.3C12.1278 22.8333 11.3333 22.1778 10.6667 21.3333H6.66667V25.3333ZM18.3 20.6C18.9889 20.1111 19.4667 19.4667 19.7333 18.6667H25.3333V6.66667H6.66667V18.6667H12.2667C12.5333 19.4667 13.0111 20.1111 13.7 20.6C14.3889 21.0889 15.1556 21.3333 16 21.3333C16.8444 21.3333 17.6111 21.0889 18.3 20.6Z" fill="#4C555F"/>
</g>
</svg>
