<svg width="32" height="32" viewBox="0 0 32 32" fill="none" xmlns="http://www.w3.org/2000/svg">
<mask id="mask0_61104_6719" style="mask-type:alpha" maskUnits="userSpaceOnUse" x="0" y="0" width="32" height="32">
<rect width="32" height="32" fill="#D9D9D9"/>
</mask>
<g mask="url(#mask0_61104_6719)">
<path d="M4 28V25.7777H6.66667V6.44435C6.66667 5.83324 6.88422 5.31013 7.31933 4.87502C7.75467 4.43991 8.27789 4.22235 8.889 4.22235H23.111C23.7221 4.22235 24.2453 4.43991 24.6807 4.87502C25.1158 5.31013 25.3333 5.83324 25.3333 6.44435V25.7777H28V28H4ZM20 25.7777H23.111V6.44435H17.2443V5.64435C18.0443 5.77769 18.7037 6.15102 19.2223 6.76435C19.7408 7.37768 20 8.09324 20 8.91102V25.7777ZM15.461 16.7907C15.6721 16.5769 15.7777 16.312 15.7777 15.996C15.7777 15.6802 15.6709 15.4168 15.4573 15.2057C15.2436 14.9946 14.9787 14.889 14.6627 14.889C14.3469 14.889 14.0834 14.9958 13.8723 15.2094C13.6612 15.4231 13.5557 15.688 13.5557 16.004C13.5557 16.3198 13.6624 16.5832 13.876 16.7944C14.0898 17.0055 14.3547 17.111 14.6707 17.111C14.9864 17.111 15.2499 17.0042 15.461 16.7907Z" fill="#4C555F"/>
</g>
</svg>
