<svg width="32" height="32" viewBox="0 0 32 32" fill="none" xmlns="http://www.w3.org/2000/svg">
<mask id="mask0_61104_6718" style="mask-type:alpha" maskUnits="userSpaceOnUse" x="0" y="0" width="32" height="32">
<rect width="32" height="32" fill="#D9D9D9"/>
</mask>
<g mask="url(#mask0_61104_6718)">
<path d="M14.6667 17.111C14.9851 17.111 15.2499 17.0018 15.461 16.7834C15.6721 16.5649 15.7777 16.3038 15.7777 16C15.7777 15.6816 15.6721 15.4168 15.461 15.2057C15.2499 14.9946 14.9851 14.889 14.6667 14.889C14.3629 14.889 14.1018 14.9946 13.8833 15.2057C13.6649 15.4168 13.5557 15.6816 13.5557 16C13.5557 16.3038 13.6649 16.5649 13.8833 16.7834C14.1018 17.0018 14.3629 17.111 14.6667 17.111ZM8.889 28V25.7777L17.7777 24.2444V8.94435C17.7777 8.62591 17.6888 8.34446 17.511 8.10002C17.3332 7.85557 17.0962 7.71113 16.8 7.66669L8.889 6.42235V4.22235L17.2443 5.64435C18.0443 5.77769 18.7037 6.15546 19.2223 6.77769C19.7408 7.39991 20 8.11102 20 8.91102V26.0667L8.889 28ZM4 28V25.7777H6.66667V6.44435C6.66667 5.80746 6.88333 5.27791 7.31667 4.85568C7.75 4.43346 8.27411 4.22235 8.889 4.22235H23.111C23.7481 4.22235 24.2778 4.43346 24.7 4.85568C25.1222 5.27791 25.3333 5.80746 25.3333 6.44435V25.7777H28V28H4ZM8.889 25.7777H23.111V16.111V6.44435H8.889V6.42235V25.7777Z" fill="#4C555F"/>
</g>
</svg>
