<svg width="32" height="32" viewBox="0 0 32 32" fill="none" xmlns="http://www.w3.org/2000/svg">
<mask id="mask0_61103_6713" style="mask-type:alpha" maskUnits="userSpaceOnUse" x="0" y="0" width="32" height="32">
<path d="M0 0H32V32H0V0Z" fill="#D9D9D9"/>
</mask>
<g mask="url(#mask0_61103_6713)">
<path d="M2.66699 16.2223V10.4443H4.88933V16.2223H2.66699ZM2.66699 29.3333V18.4443H4.88933V24.0556L7.04466 21.7776H10.8893V24H8.00033L2.66699 29.3333ZM13.1113 24V21.7776H18.8893V24H13.1113ZM21.1113 24V21.7776H27.1113V18.4443H29.3337V21.7776C29.3337 22.3776 29.1133 22.8981 28.6727 23.339C28.2318 23.7796 27.7113 24 27.1113 24H21.1113ZM27.1113 16.2223V10.4443H29.3337V16.2223H27.1113ZM27.1113 8.25563V4.88896H21.1113V2.66663H27.1113C27.7113 2.66663 28.2318 2.88696 28.6727 3.32763C29.1133 3.76852 29.3337 4.28896 29.3337 4.88896V8.25563H27.1113ZM13.1113 4.88896V2.66663H18.8893V4.88896H13.1113ZM2.66699 8.25563V4.88896C2.66699 4.28896 2.88733 3.76852 3.32799 3.32763C3.76888 2.88696 4.28933 2.66663 4.88933 2.66663H10.8893V4.88896H4.88933V8.25563H2.66699Z" fill="#4C555F"/>
</g>
<rect x="7" y="7" width="18" height="13" fill="#4C555F"/>
<line x1="10" y1="11" x2="20" y2="11" stroke="white" stroke-width="2" stroke-linecap="round"/>
<line x1="10" y1="16" x2="18" y2="16" stroke="white" stroke-width="2" stroke-linecap="round"/>
</svg>
