<svg width="24" height="24" viewBox="0 0 24 24" fill="none" xmlns="http://www.w3.org/2000/svg">
<mask id="mask0_7641_31304" style="mask-type:alpha" maskUnits="userSpaceOnUse" x="0" y="-1" width="25" height="25">
<path d="M0.100098 -0.405273H24.1001V21.5947C24.1001 22.6993 23.2047 23.5947 22.1001 23.5947H0.100098V-0.405273Z" fill="#D9D9D9"/>
</mask>
<g mask="url(#mask0_7641_31304)">
<path d="M6.1001 15.5947C5.5501 15.5947 5.07926 15.3989 4.6876 15.0072C4.29593 14.6156 4.1001 14.1447 4.1001 13.5947C4.1001 13.0447 4.29593 12.5739 4.6876 12.1822C5.07926 11.7906 5.5501 11.5947 6.1001 11.5947C6.6501 11.5947 7.12093 11.7906 7.5126 12.1822C7.90426 12.5739 8.1001 13.0447 8.1001 13.5947C8.1001 14.1447 7.90426 14.6156 7.5126 15.0072C7.12093 15.3989 6.6501 15.5947 6.1001 15.5947ZM18.1001 15.5947C17.5501 15.5947 17.0793 15.3989 16.6876 15.0072C16.2959 14.6156 16.1001 14.1447 16.1001 13.5947C16.1001 13.0447 16.2959 12.5739 16.6876 12.1822C17.0793 11.7906 17.5501 11.5947 18.1001 11.5947C18.6501 11.5947 19.1209 11.7906 19.5126 12.1822C19.9043 12.5739 20.1001 13.0447 20.1001 13.5947C20.1001 14.1447 19.9043 14.6156 19.5126 15.0072C19.1209 15.3989 18.6501 15.5947 18.1001 15.5947ZM12.1001 14.5947C11.4001 14.5947 10.8084 14.3531 10.3251 13.8697C9.84176 13.3864 9.6001 12.7947 9.6001 12.0947C9.6001 11.3947 9.84176 10.8031 10.3251 10.3197C10.8084 9.83639 11.4001 9.59473 12.1001 9.59473C12.8001 9.59473 13.3918 9.83639 13.8751 10.3197C14.3584 10.8031 14.6001 11.3947 14.6001 12.0947C14.6001 12.7947 14.3584 13.3864 13.8751 13.8697C13.3918 14.3531 12.8001 14.5947 12.1001 14.5947ZM7.2001 20.5947C7.43343 19.4447 8.00426 18.4906 8.9126 17.7322C9.82093 16.9739 10.8834 16.5947 12.1001 16.5947C13.3168 16.5947 14.3793 16.9739 15.2876 17.7322C16.1959 18.4906 16.7668 19.4447 17.0001 20.5947H7.2001ZM4.1001 20.5947C2.99553 20.5947 2.04288 19.6405 2.58187 18.6764C2.76228 18.3537 2.99335 18.0515 3.2751 17.7697C4.05843 16.9864 5.0001 16.5947 6.1001 16.5947C6.38343 16.5947 6.6501 16.6197 6.9001 16.6697C7.1501 16.7197 7.39176 16.7947 7.6251 16.8947C7.1251 17.3781 6.70843 17.9322 6.3751 18.5572C6.04176 19.1822 5.81676 19.8614 5.7001 20.5947H4.1001ZM18.5001 20.5947C18.3834 19.8614 18.1584 19.1822 17.8251 18.5572C17.4918 17.9322 17.0751 17.3781 16.5751 16.8947C16.8084 16.7947 17.0501 16.7197 17.3001 16.6697C17.5501 16.6197 17.8168 16.5947 18.1001 16.5947C19.2001 16.5947 20.1418 16.9864 20.9251 17.7697C21.2068 18.0515 21.4379 18.3537 21.6183 18.6764C22.1573 19.6405 21.2047 20.5947 20.1001 20.5947H18.5001ZM3.10188 10.9832C2.66012 11.3201 2.02842 11.2325 1.69506 10.788C1.36564 10.3488 1.45184 9.72612 1.8882 9.39291L12.1001 1.59473L16.1001 4.64473V4.09473C16.1001 3.2663 16.7717 2.59473 17.6001 2.59473C18.4285 2.59473 19.1001 3.2663 19.1001 4.09473V6.94473L22.3113 9.39326C22.7479 9.72621 22.8344 10.349 22.5049 10.7883C22.1717 11.2326 21.5402 11.3202 21.0986 10.9834L12.1001 4.11973L3.10188 10.9832Z" fill="#4C555F"/>
</g>
</svg>
