<svg width="24" height="24" viewBox="0 0 24 24" fill="none" xmlns="http://www.w3.org/2000/svg">
<mask id="mask0_7640_30754" style="mask-type:alpha" maskUnits="userSpaceOnUse" x="-1" y="-1" width="25" height="25">
<rect x="-0.303711" y="-0.238281" width="24" height="24" fill="#D9D9D9"/>
</mask>
<g mask="url(#mask0_7640_30754)">
<path d="M14.9213 14.0367C14.438 13.5534 14.1963 12.9617 14.1963 12.2617C14.1963 11.5617 14.438 10.9701 14.9213 10.4867C15.4046 10.0034 15.9963 9.76172 16.6963 9.76172C17.3963 9.76172 17.988 10.0034 18.4713 10.4867C18.9546 10.9701 19.1963 11.5617 19.1963 12.2617C19.1963 12.9617 18.9546 13.5534 18.4713 14.0367C17.988 14.5201 17.3963 14.7617 16.6963 14.7617C15.9963 14.7617 15.4046 14.5201 14.9213 14.0367ZM11.6963 19.7617V18.3617C11.6963 17.9617 11.8005 17.5909 12.0088 17.2492C12.2171 16.9076 12.513 16.6617 12.8963 16.5117C13.4963 16.2617 14.1171 16.0742 14.7588 15.9492C15.4005 15.8242 16.0463 15.7617 16.6963 15.7617C17.3463 15.7617 17.9921 15.8242 18.6338 15.9492C19.2755 16.0742 19.8963 16.2617 20.4963 16.5117C20.8796 16.6617 21.1755 16.9076 21.3838 17.2492C21.5921 17.5909 21.6963 17.9617 21.6963 18.3617V19.7617H11.6963ZM6.87129 10.5867C6.08796 9.80339 5.69629 8.86172 5.69629 7.76172C5.69629 6.66172 6.08796 5.72005 6.87129 4.93672C7.65462 4.15339 8.59629 3.76172 9.69629 3.76172C10.7963 3.76172 11.738 4.15339 12.5213 4.93672C13.3046 5.72005 13.6963 6.66172 13.6963 7.76172C13.6963 8.86172 13.3046 9.80339 12.5213 10.5867C11.738 11.3701 10.7963 11.7617 9.69629 11.7617C8.59629 11.7617 7.65462 11.3701 6.87129 10.5867ZM1.69629 19.7617V16.9617C1.69629 16.3951 1.83796 15.8742 2.12129 15.3992C2.40462 14.9242 2.79629 14.5617 3.29629 14.3117C4.29629 13.8117 5.33379 13.4284 6.40879 13.1617C7.48379 12.8951 8.57962 12.7617 9.69629 12.7617C10.2796 12.7617 10.863 12.8117 11.4463 12.9117C12.0296 13.0117 12.613 13.1284 13.1963 13.2617L11.4963 14.9617C11.1963 14.8784 10.8963 14.8242 10.5963 14.7992C10.2963 14.7742 9.99629 14.7617 9.69629 14.7617C8.72962 14.7617 7.78379 14.8784 6.85879 15.1117C5.93379 15.3451 5.04629 15.6784 4.19629 16.1117C4.02962 16.1951 3.90462 16.3117 3.82129 16.4617C3.73796 16.6117 3.69629 16.7784 3.69629 16.9617V17.7617H9.69629V19.7617H1.69629ZM11.1088 9.17422C11.5005 8.78255 11.6963 8.31172 11.6963 7.76172C11.6963 7.21172 11.5005 6.74089 11.1088 6.34922C10.7171 5.95755 10.2463 5.76172 9.69629 5.76172C9.14629 5.76172 8.67546 5.95755 8.28379 6.34922C7.89212 6.74089 7.69629 7.21172 7.69629 7.76172C7.69629 8.31172 7.89212 8.78255 8.28379 9.17422C8.67546 9.56589 9.14629 9.76172 9.69629 9.76172C10.2463 9.76172 10.7171 9.56589 11.1088 9.17422Z" fill="#4C555F"/>
</g>
</svg>
